<!DOCTYPE svg PUBLIC "-//W3C//DTD SVG 20010904//EN" "http://www.w3.org/TR/2001/REC-SVG-20010904/DTD/svg10.dtd">
<svg version="1.0" xmlns="http://www.w3.org/2000/svg" width="292px" height="40px" viewBox="0 0 2920 400" preserveAspectRatio="xMidYMid meet">
<g id="layer1" fill="#ffffff" stroke="none">
 <path d="M1467 363 c-38 -41 -57 -94 -57 -166 0 -53 5 -71 33 -117 29 -50 35 -55 67 -55 29 0 36 4 38 23 2 13 -7 35 -22 52 -46 56 -47 145 -1 205 28 38 32 70 9 79 -28 11 -40 7 -67 -21z"/>
 <path d="M2723 383 c-21 -8 -15 -42 12 -78 46 -60 45 -149 -1 -205 -15 -17 -24 -39 -22 -52 2 -19 9 -23 38 -23 32 0 38 5 67 55 28 46 33 63 33 120 0 76 -24 136 -65 168 -28 22 -39 25 -62 15z"/>
 <path d="M118 364 c-15 -8 -35 -28 -43 -44 -19 -36 -19 -107 -1 -140 13 -22 12 -25 -8 -35 -28 -14 -34 -60 -9 -73 10 -5 46 -15 80 -22 50 -10 66 -10 78 0 24 20 18 48 -20 85 -47 47 -64 105 -41 140 23 35 69 34 93 -2 14 -21 18 -48 18 -127 0 -93 2 -101 20 -104 11 -2 25 -8 30 -13 6 -4 29 -11 52 -15 35 -5 43 -3 52 14 18 34 13 50 -24 68 -19 9 -35 19 -35 23 0 3 14 24 30 45 35 47 37 57 9 82 -16 14 -24 16 -39 7 -16 -11 -19 -8 -25 24 -4 22 -20 50 -40 70 -30 30 -38 33 -91 33 -33 -1 -71 -7 -86 -16z"/>
 <path d="M423 364 c-8 -22 12 -80 81 -227 52 -110 58 -117 85 -117 51 0 58 23 28 86 -32 65 -32 64 -8 64 26 0 61 46 61 79 0 14 4 32 9 39 10 16 24 1 40 -41 9 -24 16 -28 43 -25 30 3 33 6 36 41 3 33 -2 43 -36 78 -33 32 -46 39 -80 39 -54 0 -82 -24 -89 -78 -3 -25 -11 -42 -19 -42 -7 0 -28 26 -47 58 -28 48 -38 57 -65 60 -23 2 -34 -2 -39 -14z"/>
 <path d="M1032 368 c-7 -7 -12 -38 -12 -69 0 -38 -5 -61 -15 -69 -17 -15 -20 -46 -4 -56 6 -3 8 -16 5 -27 -4 -15 7 -39 31 -74 29 -42 42 -53 63 -53 15 0 33 7 40 15 9 11 34 15 95 15 90 0 109 10 103 52 -3 21 -9 23 -60 26 -43 2 -58 7 -58 17 0 12 15 15 63 15 36 0 68 5 75 12 16 16 15 43 -3 58 -10 8 -15 31 -15 69 0 31 -5 62 -12 69 -17 17 -279 17 -296 0z m108 -98 c0 -23 -4 -30 -20 -30 -16 0 -20 7 -20 30 0 23 4 30 20 30 16 0 20 -7 20 -30z m120 0 c0 -23 -4 -30 -20 -30 -16 0 -20 7 -20 30 0 23 4 30 20 30 16 0 20 -7 20 -30z m-120 -125 c0 -8 -8 -15 -19 -15 -10 0 -24 7 -31 15 -11 13 -8 15 19 15 21 0 31 -5 31 -15z"/>
 <path d="M1570 354 c0 -16 7 -28 18 -30 25 -7 19 -125 -9 -150 -27 -24 -24 -41 10 -62 29 -17 29 -18 10 -30 -13 -8 -19 -21 -17 -35 2 -17 11 -23 39 -25 23 -2 40 2 49 12 16 20 37 20 47 1 7 -12 25 -13 96 -8 108 7 127 18 110 64 -16 41 0 55 33 31 19 -15 20 -19 8 -33 -17 -19 -18 -41 -2 -57 16 -16 43 -15 58 3 11 13 15 13 33 0 16 -11 51 -15 134 -15 100 0 114 2 125 19 8 13 17 16 27 11 86 -43 113 -40 122 10 l5 35 10 -35 c9 -31 14 -35 45 -35 28 0 35 4 37 22 3 21 9 23 62 23 81 0 85 8 71 156 -13 146 -18 154 -82 154 -34 0 -51 -5 -55 -15 -5 -11 -10 -12 -24 -3 -37 24 -75 -18 -46 -51 16 -17 16 -19 -3 -24 -18 -4 -20 1 -23 42 -3 45 -3 46 -40 49 l-38 3 0 -45 c0 -36 -3 -44 -15 -40 -37 15 -63 -55 -28 -74 14 -9 14 -11 -5 -21 -19 -10 -22 -9 -22 7 0 10 -5 23 -11 29 -8 8 -6 20 6 43 32 62 0 116 -44 75 -17 -15 -19 -14 -24 5 -4 16 -13 20 -44 20 -21 0 -53 -4 -70 -9 -18 -5 -35 -6 -38 -1 -3 5 -36 8 -73 7 l-67 -2 1 -35 c1 -29 17 -76 42 -122 2 -4 -8 -14 -22 -23 -20 -13 -28 -14 -44 -4 -29 18 -36 126 -9 133 10 2 17 14 17 30 0 25 -2 26 -66 26 -70 0 -104 -12 -104 -35 0 -22 -9 -18 -32 10 -17 22 -27 25 -89 25 -68 0 -69 -1 -69 -26z m750 -226 c0 -25 -4 -38 -9 -33 -8 9 -4 75 5 75 2 0 4 -19 4 -42z m-280 2 c0 -13 -5 -18 -15 -14 -12 5 -13 10 -4 20 15 19 19 18 19 -6z"/>
 <path d="M855 245 c-30 -29 -31 -45 -4 -79 25 -32 59 -33 87 -3 29 31 28 61 -4 86 -34 27 -50 26 -79 -4z"/>
 </g>

</svg>