<!DOCTYPE svg PUBLIC "-//W3C//DTD SVG 20010904//EN" "http://www.w3.org/TR/2001/REC-SVG-20010904/DTD/svg10.dtd">
<svg version="1.0" xmlns="http://www.w3.org/2000/svg" width="488px" height="80px" viewBox="0 0 4880 800" preserveAspectRatio="xMidYMid meet">
<g id="layer1" fill="#d3c9bf" stroke="none">
 <path d="M2524 718 c-4 -7 -3 -8 4 -4 12 7 16 16 8 16 -3 0 -8 -5 -12 -12z"/>
 <path d="M2644 718 c-4 -7 -3 -8 4 -4 12 7 16 16 8 16 -3 0 -8 -5 -12 -12z"/>
 <path d="M2738 723 c7 -3 16 -2 19 1 4 3 -2 6 -13 5 -11 0 -14 -3 -6 -6z"/>
 <path d="M3148 723 c7 -3 16 -2 19 1 4 3 -2 6 -13 5 -11 0 -14 -3 -6 -6z"/>
 <path d="M3284 708 c-19 -23 -19 -23 2 -5 24 20 54 22 74 5 12 -11 12 -10 1 5 -19 24 -54 21 -77 -5z"/>
 <path d="M3678 723 c12 -2 32 -2 45 0 12 2 2 4 -23 4 -25 0 -35 -2 -22 -4z"/>
 <path d="M4665 720 c3 -5 8 -10 11 -10 3 0 2 5 -1 10 -3 6 -8 10 -11 10 -3 0 -2 -4 1 -10z"/>
 <path d="M318 713 c12 -2 30 -2 40 0 9 3 -1 5 -23 4 -22 0 -30 -2 -17 -4z"/>
 <path d="M3093 713 c4 -3 10 -3 14 0 3 4 0 7 -7 7 -7 0 -10 -3 -7 -7z"/>
 <path d="M3455 713 c11 -3 27 -10 35 -17 13 -10 13 -9 1 7 -7 9 -23 16 -35 16 -20 -1 -20 -2 -1 -6z"/>
 <path d="M3635 709 c-4 -6 -5 -12 -2 -15 2 -3 7 2 10 11 7 17 1 20 -8 4z"/>
 <path d="M4473 713 c4 -3 10 -3 14 0 3 4 0 7 -7 7 -7 0 -10 -3 -7 -7z"/>
 <path d="M413 703 c4 -3 10 -3 14 0 3 4 0 7 -7 7 -7 0 -10 -3 -7 -7z"/>
 <path d="M1113 703 c4 -3 10 -3 14 0 3 4 0 7 -7 7 -7 0 -10 -3 -7 -7z"/>
 <path d="M1888 703 c61 -2 163 -2 225 0 61 1 11 3 -113 3 -124 0 -174 -2 -112 -3z"/>
 <path d="M3043 703 c4 -3 10 -3 14 0 3 4 0 7 -7 7 -7 0 -10 -3 -7 -7z"/>
 <path d="M4122 603 c-1 -61 1 -114 6 -116 4 -3 6 32 4 76 -4 141 -9 156 -10 40z"/>
 <path d="M4511 693 c7 -12 15 -20 18 -17 3 2 -3 12 -13 22 -17 16 -18 16 -5 -5z"/>
 <path d="M3004 688 c-4 -7 -3 -8 4 -4 12 7 16 16 8 16 -3 0 -8 -5 -12 -12z"/>
 <path d="M4217 682 c-10 -10 -17 -23 -17 -28 0 -4 7 1 15 13 8 12 25 24 38 26 21 4 21 4 1 6 -11 0 -28 -7 -37 -17z"/>
 <path d="M194 678 c-4 -7 -3 -8 4 -4 12 7 16 16 8 16 -3 0 -8 -5 -12 -12z"/>
 <path d="M722 670 c0 -14 2 -19 5 -12 2 6 2 18 0 25 -3 6 -5 1 -5 -13z"/>
 <path d="M2479 673 c-13 -16 -12 -17 4 -4 16 13 21 21 13 21 -2 0 -10 -8 -17 -17z"/>
 <path d="M3849 673 c-13 -16 -12 -17 4 -4 16 13 21 21 13 21 -2 0 -10 -8 -17 -17z"/>
 <path d="M4700 686 c0 -2 8 -10 18 -17 15 -13 16 -12 3 4 -13 16 -21 21 -21 13z"/>
 <path d="M1285 670 c3 -5 8 -10 11 -10 3 0 2 5 -1 10 -3 6 -8 10 -11 10 -3 0 -2 -4 1 -10z"/>
 <path d="M3270 660 c0 -7 3 -10 7 -7 3 4 3 10 0 14 -4 3 -7 0 -7 -7z"/>
 <path d="M3624 648 c-4 -7 -4 -10 1 -6 4 4 15 2 24 -5 14 -11 14 -10 2 6 -16 20 -18 21 -27 5z"/>
 <path d="M4340 653 c0 -6 8 -17 18 -24 16 -13 16 -13 2 6 -8 11 -16 22 -17 24 -2 2 -3 0 -3 -6z"/>
 <path d="M1050 640 c0 -7 3 -10 7 -7 3 4 3 10 0 14 -4 3 -7 0 -7 -7z"/>
 <path d="M2454 638 c-4 -7 -3 -8 4 -4 7 4 12 9 12 12 0 8 -9 4 -16 -8z"/>
 <path d="M2663 643 c4 -3 10 -3 14 0 3 4 0 7 -7 7 -7 0 -10 -3 -7 -7z"/>
 <path d="M3233 643 c4 -3 10 -3 14 0 3 4 0 7 -7 7 -7 0 -10 -3 -7 -7z"/>
 <path d="M4530 640 c0 -7 3 -10 7 -7 3 4 3 10 0 14 -4 3 -7 0 -7 -7z"/>
 <path d="M4735 640 c3 -5 8 -10 11 -10 3 0 2 5 -1 10 -3 6 -8 10 -11 10 -3 0 -2 -4 1 -10z"/>
 <path d="M1325 630 c3 -5 8 -10 11 -10 3 0 2 5 -1 10 -3 6 -8 10 -11 10 -3 0 -2 -4 1 -10z"/>
 <path d="M2745 630 c3 -5 16 -10 28 -9 21 0 21 1 2 9 -28 12 -37 12 -30 0z"/>
 <path d="M2995 630 c-3 -5 -1 -10 4 -10 6 0 11 5 11 10 0 6 -2 10 -4 10 -3 0 -8 -4 -11 -10z"/>
 <path d="M3125 630 c-18 -8 -17 -9 8 -9 15 -1 27 4 27 9 0 12 -8 12 -35 0z"/>
 <path d="M4335 620 c3 -5 8 -10 11 -10 3 0 2 5 -1 10 -3 6 -8 10 -11 10 -3 0 -2 -4 1 -10z"/>
 <path d="M323 613 c9 -2 25 -2 35 0 9 3 1 5 -18 5 -19 0 -27 -2 -17 -5z"/>
 <path d="M2554 608 c-4 -7 -3 -8 4 -4 7 4 12 9 12 12 0 8 -9 4 -16 -8z"/>
 <path d="M4635 610 c3 -5 8 -10 11 -10 3 0 2 5 -1 10 -3 6 -8 10 -11 10 -3 0 -2 -4 1 -10z"/>
 <path d="M740 600 c0 -7 3 -10 7 -7 3 4 3 10 0 14 -4 3 -7 0 -7 -7z"/>
 <path d="M1155 600 c-3 -6 1 -7 9 -4 18 7 21 14 7 14 -6 0 -13 -4 -16 -10z"/>
 <path d="M1345 600 c3 -5 8 -10 11 -10 3 0 2 5 -1 10 -3 6 -8 10 -11 10 -3 0 -2 -4 1 -10z"/>
 <path d="M3520 600 c0 -7 3 -10 7 -7 3 4 3 10 0 14 -4 3 -7 0 -7 -7z"/>
 <path d="M244 578 l-19 -23 23 19 c21 18 27 26 19 26 -2 0 -12 -10 -23 -22z"/>
 <path d="M3400 580 c0 -7 3 -10 7 -7 3 4 3 10 0 14 -4 3 -7 0 -7 -7z"/>
 <path d="M4541 574 c0 -11 3 -14 6 -6 3 7 2 16 -1 19 -3 4 -6 -2 -5 -13z"/>
 <path d="M1140 570 c0 -7 3 -10 7 -7 3 4 3 10 0 14 -4 3 -7 0 -7 -7z"/>
 <path d="M1235 570 c3 -5 8 -10 11 -10 3 0 2 5 -1 10 -3 6 -8 10 -11 10 -3 0 -2 -4 1 -10z"/>
 <path d="M1360 570 c0 -7 3 -10 7 -7 3 4 3 10 0 14 -4 3 -7 0 -7 -7z"/>
 <path d="M895 560 c3 -5 8 -10 11 -10 3 0 2 5 -1 10 -3 6 -8 10 -11 10 -3 0 -2 -4 1 -10z"/>
 <path d="M760 550 c0 -7 3 -10 7 -7 3 4 3 10 0 14 -4 3 -7 0 -7 -7z"/>
 <path d="M1031 544 c0 -11 3 -14 6 -6 3 7 2 16 -1 19 -3 4 -6 -2 -5 -13z"/>
 <path d="M3801 544 c0 -11 3 -14 6 -6 3 7 2 16 -1 19 -3 4 -6 -2 -5 -13z"/>
 <path d="M111 534 c0 -11 3 -14 6 -6 3 7 2 16 -1 19 -3 4 -6 -2 -5 -13z"/>
 <path d="M3310 540 c0 -7 3 -10 7 -7 3 4 3 10 0 14 -4 3 -7 0 -7 -7z"/>
 <path d="M3530 540 c0 -7 3 -10 7 -7 3 4 3 10 0 14 -4 3 -7 0 -7 -7z"/>
 <path d="M3570 543 c0 -6 8 -17 18 -24 16 -13 16 -13 2 6 -8 11 -16 22 -17 24 -2 2 -3 0 -3 -6z"/>
 <path d="M4208 543 c7 -3 16 -2 19 1 4 3 -2 6 -13 5 -11 0 -14 -3 -6 -6z"/>
 <path d="M4285 540 c3 -5 8 -10 11 -10 3 0 2 5 -1 10 -3 6 -8 10 -11 10 -3 0 -2 -4 1 -10z"/>
 <path d="M2510 530 c0 -7 3 -10 7 -7 3 4 3 10 0 14 -4 3 -7 0 -7 -7z"/>
 <path d="M3440 530 c0 -7 3 -10 7 -7 3 4 3 10 0 14 -4 3 -7 0 -7 -7z"/>
 <path d="M4680 530 c0 -7 3 -10 7 -7 3 4 3 10 0 14 -4 3 -7 0 -7 -7z"/>
 <path d="M570 520 c0 -7 3 -10 7 -7 3 4 3 10 0 14 -4 3 -7 0 -7 -7z"/>
 <path d="M920 526 c0 -2 8 -10 18 -17 15 -13 16 -12 3 4 -13 16 -21 21 -21 13z"/>
 <path d="M4450 520 c0 -7 3 -10 7 -7 3 4 3 10 0 14 -4 3 -7 0 -7 -7z"/>
 <path d="M1130 510 c0 -7 3 -10 7 -7 3 4 3 10 0 14 -4 3 -7 0 -7 -7z"/>
 <path d="M1270 500 c0 -7 3 -10 7 -7 3 4 3 10 0 14 -4 3 -7 0 -7 -7z"/>
 <path d="M480 490 c0 -7 3 -10 7 -7 3 4 3 10 0 14 -4 3 -7 0 -7 -7z"/>
 <path d="M1020 490 c0 -7 3 -10 7 -7 3 4 3 10 0 14 -4 3 -7 0 -7 -7z"/>
 <path d="M1513 493 c9 -2 23 -2 30 0 6 3 -1 5 -18 5 -16 0 -22 -2 -12 -5z"/>
 <path d="M3780 490 c0 -5 5 -10 11 -10 5 0 7 5 4 10 -3 6 -8 10 -11 10 -2 0 -4 -4 -4 -10z"/>
 <path d="M790 480 c0 -7 3 -10 7 -7 3 4 3 10 0 14 -4 3 -7 0 -7 -7z"/>
 <path d="M4552 470 c0 -14 2 -19 5 -12 2 6 2 18 0 25 -3 6 -5 1 -5 -13z"/>
 <path d="M993 473 c4 -3 10 -3 14 0 3 4 0 7 -7 7 -7 0 -10 -3 -7 -7z"/>
 <path d="M3584 468 c-4 -7 -3 -8 4 -4 12 7 16 16 8 16 -3 0 -8 -5 -12 -12z"/>
 <path d="M110 460 c0 -7 3 -10 7 -7 3 4 3 10 0 14 -4 3 -7 0 -7 -7z"/>
 <path d="M2391 454 c0 -11 3 -14 6 -6 3 7 2 16 -1 19 -3 4 -6 -2 -5 -13z"/>
 <path d="M4420 460 c0 -7 3 -10 7 -7 3 4 3 10 0 14 -4 3 -7 0 -7 -7z"/>
 <path d="M4801 454 c0 -11 3 -14 6 -6 3 7 2 16 -1 19 -3 4 -6 -2 -5 -13z"/>
 <path d="M1120 450 c0 -7 3 -10 7 -7 3 4 3 10 0 14 -4 3 -7 0 -7 -7z"/>
 <path d="M1820 450 l-125 -6 122 -2 c73 -1 124 2 128 8 3 6 5 9 3 8 -2 -1 -59 -5 -128 -8z"/>
 <path d="M210 440 c0 -7 3 -10 7 -7 3 4 3 10 0 14 -4 3 -7 0 -7 -7z"/>
 <path d="M2113 443 c37 -2 96 -2 130 0 34 2 4 3 -68 3 -71 0 -99 -1 -62 -3z"/>
 <path d="M4182 430 c0 -14 2 -19 5 -12 2 6 2 18 0 25 -3 6 -5 1 -5 -13z"/>
 <path d="M491 424 c0 -11 3 -14 6 -6 3 7 2 16 -1 19 -3 4 -6 -2 -5 -13z"/>
 <path d="M3454 295 c0 -82 2 -115 3 -72 2 43 2 110 0 150 -1 40 -3 5 -3 -78z"/>
 <path d="M3574 350 c0 -52 1 -74 3 -47 2 26 2 68 0 95 -2 26 -3 4 -3 -48z"/>
 <path d="M4215 430 c3 -5 8 -10 11 -10 3 0 2 5 -1 10 -3 6 -8 10 -11 10 -3 0 -2 -4 1 -10z"/>
 <path d="M4462 420 c0 -14 2 -19 5 -12 2 6 2 18 0 25 -3 6 -5 1 -5 -13z"/>
 <path d="M2873 423 c42 -2 112 -2 155 0 42 1 7 3 -78 3 -85 0 -120 -2 -77 -3z"/>
 <path d="M120 410 c0 -7 3 -10 7 -7 3 4 3 10 0 14 -4 3 -7 0 -7 -7z"/>
 <path d="M710 410 c0 -7 3 -10 7 -7 3 4 3 10 0 14 -4 3 -7 0 -7 -7z"/>
 <path d="M940 410 c0 -5 5 -10 11 -10 5 0 7 5 4 10 -3 6 -8 10 -11 10 -2 0 -4 -4 -4 -10z"/>
 <path d="M1094 398 l-19 -23 23 19 c12 11 22 21 22 23 0 8 -8 2 -26 -19z"/>
 <path d="M3544 310 c0 -63 1 -89 3 -57 2 31 2 83 0 115 -2 31 -3 5 -3 -58z"/>
 <path d="M3660 400 c0 -7 3 -10 7 -7 3 4 3 10 0 14 -4 3 -7 0 -7 -7z"/>
 <path d="M4235 400 c3 -5 8 -10 11 -10 3 0 2 5 -1 10 -3 6 -8 10 -11 10 -3 0 -2 -4 1 -10z"/>
 <path d="M3329 383 c-13 -16 -12 -17 4 -4 16 13 21 21 13 21 -2 0 -10 -8 -17 -17z"/>
 <path d="M4440 390 c0 -7 3 -10 7 -7 3 4 3 10 0 14 -4 3 -7 0 -7 -7z"/>
 <path d="M3933 383 c4 -3 10 -3 14 0 3 4 0 7 -7 7 -7 0 -10 -3 -7 -7z"/>
 <path d="M684 368 c-4 -7 -3 -8 4 -4 7 4 12 9 12 12 0 8 -9 4 -16 -8z"/>
 <path d="M2391 364 c0 -11 3 -14 6 -6 3 7 2 16 -1 19 -3 4 -6 -2 -5 -13z"/>
 <path d="M4120 346 c0 -19 3 -37 8 -40 4 -2 6 13 4 35 -5 48 -12 51 -12 5z"/>
 <path d="M4801 364 c0 -11 3 -14 6 -6 3 7 2 16 -1 19 -3 4 -6 -2 -5 -13z"/>
 <path d="M3255 360 c3 -5 8 -10 11 -10 3 0 2 5 -1 10 -3 6 -8 10 -11 10 -3 0 -2 -4 1 -10z"/>
 <path d="M3294 358 c-4 -7 -3 -8 4 -4 7 4 12 9 12 12 0 8 -9 4 -16 -8z"/>
 <path d="M245 350 c3 -5 8 -10 11 -10 3 0 2 5 -1 10 -3 6 -8 10 -11 10 -3 0 -2 -4 1 -10z"/>
 <path d="M2490 350 c0 -7 3 -10 7 -7 3 4 3 10 0 14 -4 3 -7 0 -7 -7z"/>
 <path d="M4700 350 c0 -7 3 -10 7 -7 3 4 3 10 0 14 -4 3 -7 0 -7 -7z"/>
 <path d="M975 340 c3 -5 8 -10 11 -10 3 0 2 5 -1 10 -3 6 -8 10 -11 10 -3 0 -2 -4 1 -10z"/>
 <path d="M2733 343 c4 -3 10 -3 14 0 3 4 0 7 -7 7 -7 0 -10 -3 -7 -7z"/>
 <path d="M3990 340 c0 -7 3 -10 7 -7 3 4 3 10 0 14 -4 3 -7 0 -7 -7z"/>
 <path d="M4561 334 c0 -11 3 -14 6 -6 3 7 2 16 -1 19 -3 4 -6 -2 -5 -13z"/>
 <path d="M654 328 c-4 -7 -3 -8 4 -4 7 4 12 9 12 12 0 8 -9 4 -16 -8z"/>
 <path d="M860 330 c0 -7 3 -10 7 -7 3 4 3 10 0 14 -4 3 -7 0 -7 -7z"/>
 <path d="M2893 333 c4 -3 10 -3 14 0 3 4 0 7 -7 7 -7 0 -10 -3 -7 -7z"/>
 <path d="M4152 320 c0 -14 2 -19 5 -12 2 6 2 18 0 25 -3 6 -5 1 -5 -13z"/>
 <path d="M4245 330 c3 -5 8 -10 11 -10 3 0 2 5 -1 10 -3 6 -8 10 -11 10 -3 0 -2 -4 1 -10z"/>
 <path d="M4270 330 c0 -7 3 -10 7 -7 3 4 3 10 0 14 -4 3 -7 0 -7 -7z"/>
 <path d="M1717 312 c-18 -20 -23 -57 -9 -66 5 -3 7 8 4 23 -3 21 2 33 19 45 13 9 19 16 13 16 -6 0 -18 -8 -27 -18z"/>
 <path d="M1763 323 c4 -3 10 -3 14 0 3 4 0 7 -7 7 -7 0 -10 -3 -7 -7z"/>
 <path d="M3665 320 c-3 -5 -3 -14 0 -20 7 -12 131 -14 138 -2 3 4 -26 6 -64 4 -43 -2 -69 0 -69 7 0 6 31 12 73 14 l72 3 -72 2 c-39 1 -75 -2 -78 -8z"/>
 <path d="M165 310 c3 -5 8 -10 11 -10 3 0 2 5 -1 10 -3 6 -8 10 -11 10 -3 0 -2 -4 1 -10z"/>
 <path d="M3074 308 c-4 -7 -3 -8 4 -4 7 4 12 9 12 12 0 8 -9 4 -16 -8z"/>
 <path d="M4465 307 c-4 -10 -5 -21 -1 -24 10 -10 18 4 13 24 -4 17 -4 17 -12 0z"/>
 <path d="M3920 300 c0 -7 3 -10 7 -7 3 4 3 10 0 14 -4 3 -7 0 -7 -7z"/>
 <path d="M4280 300 c0 -7 3 -10 7 -7 3 4 3 10 0 14 -4 3 -7 0 -7 -7z"/>
 <path d="M4360 300 c0 -7 3 -10 7 -7 3 4 3 10 0 14 -4 3 -7 0 -7 -7z"/>
 <path d="M285 290 c3 -5 8 -10 11 -10 3 0 2 5 -1 10 -3 6 -8 10 -11 10 -3 0 -2 -4 1 -10z"/>
 <path d="M491 284 c0 -11 3 -14 6 -6 3 7 2 16 -1 19 -3 4 -6 -2 -5 -13z"/>
 <path d="M4380 290 c0 -7 3 -10 7 -7 3 4 3 10 0 14 -4 3 -7 0 -7 -7z"/>
 <path d="M2823 275 c0 -8 4 -12 9 -9 5 3 6 10 3 15 -9 13 -12 11 -12 -6z"/>
 <path d="M153 273 c4 -3 10 -3 14 0 3 4 0 7 -7 7 -7 0 -10 -3 -7 -7z"/>
 <path d="M2410 270 c0 -7 3 -10 7 -7 3 4 3 10 0 14 -4 3 -7 0 -7 -7z"/>
 <path d="M4780 270 c0 -7 3 -10 7 -7 3 4 3 10 0 14 -4 3 -7 0 -7 -7z"/>
 <path d="M2863 263 c4 -3 10 -3 14 0 3 4 0 7 -7 7 -7 0 -10 -3 -7 -7z"/>
 <path d="M2903 253 c4 -3 10 -3 14 0 3 4 0 7 -7 7 -7 0 -10 -3 -7 -7z"/>
 <path d="M3124 248 c-4 -7 -3 -8 4 -4 7 4 12 9 12 12 0 8 -9 4 -16 -8z"/>
 <path d="M3878 238 c-10 -10 -14 -18 -9 -18 10 0 36 29 30 34 -2 1 -12 -6 -21 -16z"/>
 <path d="M335 240 c3 -5 8 -10 11 -10 3 0 2 5 -1 10 -3 6 -8 10 -11 10 -3 0 -2 -4 1 -10z"/>
 <path d="M2693 243 c4 -3 10 -3 14 0 3 4 0 7 -7 7 -7 0 -10 -3 -7 -7z"/>
 <path d="M2868 243 c7 -3 16 -2 19 1 4 3 -2 6 -13 5 -11 0 -14 -3 -6 -6z"/>
 <path d="M2905 230 c3 -5 8 -10 11 -10 3 0 2 5 -1 10 -3 6 -8 10 -11 10 -3 0 -2 -4 1 -10z"/>
 <path d="M2950 236 c0 -2 8 -10 18 -17 15 -13 16 -12 3 4 -13 16 -21 21 -21 13z"/>
 <path d="M3089 223 c-13 -16 -12 -17 4 -4 16 13 21 21 13 21 -2 0 -10 -8 -17 -17z"/>
 <path d="M3364 228 c-4 -7 -3 -8 4 -4 12 7 16 16 8 16 -3 0 -8 -5 -12 -12z"/>
 <path d="M3928 200 c-3 -17 -1 -33 4 -36 4 -3 8 11 8 30 0 44 -6 47 -12 6z"/>
 <path d="M4124 206 c-3 -7 -4 -35 -2 -62 l3 -49 5 63 c5 63 4 73 -6 48z"/>
 <path d="M4549 203 c-13 -16 -12 -17 4 -4 16 13 21 21 13 21 -2 0 -10 -8 -17 -17z"/>
 <path d="M3432 180 c0 -14 2 -19 5 -12 2 6 2 18 0 25 -3 6 -5 1 -5 -13z"/>
 <path d="M3615 190 l-60 -7 57 -1 c31 -1 60 3 63 8 3 6 5 9 3 8 -2 -1 -30 -4 -63 -8z"/>
 <path d="M930 180 c0 -7 3 -10 7 -7 3 4 3 10 0 14 -4 3 -7 0 -7 -7z"/>
 <path d="M3299 173 c-13 -16 -12 -17 4 -4 16 13 21 21 13 21 -2 0 -10 -8 -17 -17z"/>
 <path d="M3807 183 c18 -2 50 -2 70 0 21 2 7 4 -32 4 -38 0 -55 -2 -38 -4z"/>
 <path d="M4311 168 c1 -17 3 -18 6 -6 4 15 20 18 111 21 l107 3 -112 2 c-111 2 -113 2 -112 -20z"/>
 <path d="M123 173 c4 -3 10 -3 14 0 3 4 0 7 -7 7 -7 0 -10 -3 -7 -7z"/>
 <path d="M708 173 c7 -3 16 -2 19 1 4 3 -2 6 -13 5 -11 0 -14 -3 -6 -6z"/>
 <path d="M183 163 c4 -3 10 -3 14 0 3 4 0 7 -7 7 -7 0 -10 -3 -7 -7z"/>
 <path d="M2465 160 c3 -5 8 -10 11 -10 3 0 2 5 -1 10 -3 6 -8 10 -11 10 -3 0 -2 -4 1 -10z"/>
 <path d="M2801 154 c0 -11 3 -14 6 -6 3 7 2 16 -1 19 -3 4 -6 -2 -5 -13z"/>
 <path d="M4724 158 c-4 -7 -3 -8 4 -4 7 4 12 9 12 12 0 8 -9 4 -16 -8z"/>
 <path d="M233 153 c4 -3 10 -3 14 0 3 4 0 7 -7 7 -7 0 -10 -3 -7 -7z"/>
 <path d="M654 148 c-4 -7 -3 -8 4 -4 7 4 12 9 12 12 0 8 -9 4 -16 -8z"/>
 <path d="M741 144 c0 -11 3 -14 6 -6 3 7 2 16 -1 19 -3 4 -6 -2 -5 -13z"/>
 <path d="M1900 149 c0 -5 5 -7 10 -4 6 3 10 8 10 11 0 2 -4 4 -10 4 -5 0 -10 -5 -10 -11z"/>
 <path d="M3247 145 c-5 -12 -27 -15 -126 -15 -66 0 -122 -3 -124 -7 -3 -5 50 -7 118 -5 94 2 126 7 136 18 6 8 10 17 7 20 -3 3 -8 -2 -11 -11z"/>
 <path d="M1071 134 c0 -11 3 -14 6 -6 3 7 2 16 -1 19 -3 4 -6 -2 -5 -13z"/>
 <path d="M2875 140 c3 -5 8 -10 11 -10 3 0 2 5 -1 10 -3 6 -8 10 -11 10 -3 0 -2 -4 1 -10z"/>
 <path d="M303 133 c4 -3 10 -3 14 0 3 4 0 7 -7 7 -7 0 -10 -3 -7 -7z"/>
 <path d="M664 128 c-4 -7 -3 -8 4 -4 7 4 12 9 12 12 0 8 -9 4 -16 -8z"/>
 <path d="M3379 113 c-13 -16 -12 -17 4 -4 16 13 21 21 13 21 -2 0 -10 -8 -17 -17z"/>
 <path d="M3465 120 c3 -5 8 -10 11 -10 3 0 2 5 -1 10 -3 6 -8 10 -11 10 -3 0 -2 -4 1 -10z"/>
 <path d="M4220 120 c0 -7 3 -10 7 -7 3 4 3 10 0 14 -4 3 -7 0 -7 -7z"/>
 <path d="M974 103 c11 -13 29 -22 40 -22 20 1 20 2 1 6 -11 3 -29 12 -40 22 -20 16 -20 16 -1 -6z"/>
 <path d="M2905 110 c3 -5 8 -10 11 -10 3 0 2 5 -1 10 -3 6 -8 10 -11 10 -3 0 -2 -4 1 -10z"/>
 <path d="M4030 111 c0 -10 29 -36 34 -30 1 2 -6 12 -16 22 -10 9 -18 13 -18 8z"/>
 <path d="M1800 106 c0 -2 8 -10 18 -17 15 -13 16 -12 3 4 -13 16 -21 21 -21 13z"/>
 <path d="M3603 103 c59 -2 155 -2 215 0 59 1 10 3 -108 3 -118 0 -167 -2 -107 -3z"/>
 <path d="M598 93 c7 -3 16 -2 19 1 4 3 -2 6 -13 5 -11 0 -14 -3 -6 -6z"/>
 <path d="M714 88 c-4 -7 -3 -8 4 -4 7 4 12 9 12 12 0 8 -9 4 -16 -8z"/>
 <path d="M2573 83 c4 -3 10 -3 14 0 3 4 0 7 -7 7 -7 0 -10 -3 -7 -7z"/>
 <path d="M4093 83 c4 -3 10 -3 14 0 3 4 0 7 -7 7 -7 0 -10 -3 -7 -7z"/>
 <path d="M4258 83 c7 -3 16 -2 19 1 4 3 -2 6 -13 5 -11 0 -14 -3 -6 -6z"/>
 </g>
<g id="layer2" fill="#5b3714" stroke="none">
 <path d="M2486 716 c-24 -23 -59 -74 -77 -112 -33 -67 -34 -72 -34 -194 0 -120 1 -128 32 -192 17 -37 50 -87 73 -112 36 -39 48 -46 80 -46 24 0 43 7 54 19 17 18 18 18 41 -5 13 -13 33 -24 45 -24 30 0 95 35 118 65 l20 25 45 -45 c52 -51 73 -55 114 -21 27 23 38 25 150 27 111 2 123 1 148 -19 36 -29 54 -28 101 6 37 27 40 27 57 10 15 -16 39 -18 245 -18 126 0 232 4 237 9 6 5 24 11 40 13 22 2 33 -2 40 -17 8 -15 23 -21 59 -23 63 -4 76 8 76 74 0 41 4 54 15 54 12 0 35 -55 35 -86 0 -21 37 -44 72 -44 45 0 83 37 76 74 l-5 26 102 0 c103 0 103 0 129 31 14 17 26 38 26 47 0 40 -30 370 -36 397 -6 28 -4 26 33 -20 60 -75 76 -112 81 -191 4 -61 1 -80 -20 -125 -14 -30 -41 -74 -61 -97 -23 -27 -37 -54 -37 -71 0 -38 38 -71 82 -71 29 0 43 8 78 46 23 25 56 75 73 112 31 64 32 72 32 192 0 122 -1 127 -34 194 -44 91 -108 156 -154 156 -37 0 -77 -33 -77 -66 -1 -15 -3 -14 -15 8 -32 58 -193 65 -221 10 -10 -20 -13 -21 -24 -7 -16 19 -69 19 -98 -1 -30 -21 -30 -79 0 -111 20 -21 20 -23 3 -23 -10 0 -27 -7 -37 -17 -17 -15 -18 -12 -18 80 0 88 -2 97 -22 111 -29 20 -67 20 -96 0 -19 -13 -22 -24 -22 -93 l0 -77 -36 4 c-28 3 -34 8 -29 21 20 50 17 78 -10 99 -37 29 -71 28 -100 -4 -20 -21 -25 -23 -25 -10 0 9 -11 28 -25 41 -20 21 -34 25 -85 25 -45 0 -65 -5 -78 -18 -11 -11 -37 -21 -59 -24 -32 -5 -42 -2 -51 13 -15 24 -84 26 -102 4 -11 -14 -15 -13 -28 6 -13 19 -22 21 -68 16 -33 -3 -56 -1 -60 5 -9 13 -121 3 -205 -20 -58 -15 -65 -20 -74 -50 -7 -24 -15 -32 -32 -32 -18 0 -23 6 -23 24 0 13 -6 29 -14 36 -38 31 -229 60 -266 40 -16 -9 -25 -9 -33 -1 -6 6 -26 11 -44 11 -26 0 -43 -10 -77 -44z m102 8 c31 -22 27 -50 -13 -100 -57 -69 -79 -128 -79 -214 -1 -85 26 -158 83 -222 33 -38 37 -57 21 -89 -16 -29 -45 -23 -91 18 -78 71 -128 214 -116 333 10 88 53 186 107 242 51 53 56 55 88 32z m2112 -32 c54 -56 97 -154 107 -242 12 -119 -38 -262 -116 -333 -45 -41 -62 -45 -85 -21 -24 24 -19 53 15 92 57 64 84 137 83 222 0 86 -22 145 -79 214 -40 50 -44 78 -13 100 32 23 37 21 88 -32z m-1908 27 c82 -18 108 -34 108 -70 0 -30 1 -30 48 -27 45 3 47 4 52 38 5 32 9 36 55 48 28 7 82 16 122 19 71 6 72 5 78 -20 13 -49 4 -62 -48 -65 -47 -3 -61 -14 -32 -26 12 -4 15 -28 15 -126 l0 -120 35 0 c23 0 38 -6 41 -15 5 -12 15 -8 49 20 50 40 77 44 99 13 23 -32 20 -41 -21 -82 -49 -47 -77 -55 -106 -28 -22 20 -23 20 -80 2 -57 -18 -127 -62 -127 -81 0 -5 15 -9 34 -9 29 0 33 3 29 20 -6 24 13 50 37 50 22 0 68 -52 76 -86 12 -46 -8 -54 -136 -54 -104 0 -119 -2 -135 -20 -27 -30 -44 -25 -102 32 -57 56 -62 71 -36 100 22 25 37 23 76 -12 35 -30 57 -38 57 -21 0 16 -49 49 -83 57 -70 15 -77 20 -67 54 l9 30 -53 0 c-28 0 -57 5 -64 12 -8 8 -12 53 -12 136 0 115 1 124 20 129 31 8 13 23 -29 23 -20 0 -42 5 -49 12 -13 13 -16 60 -5 71 10 11 86 8 145 -4z m566 -1 c14 -18 62 -174 62 -202 0 -31 -22 -48 -57 -44 -26 3 -30 10 -60 98 -18 52 -32 101 -33 109 -1 39 64 67 88 39z m400 -4 c20 -14 22 -23 22 -113 0 -109 6 -121 60 -121 20 0 41 -5 48 -12 16 -16 16 -220 0 -236 -7 -7 -36 -12 -65 -12 -40 0 -53 -4 -53 -15 0 -12 14 -15 64 -15 35 0 71 -3 80 -6 13 -5 16 2 16 42 -1 27 -5 68 -9 91 -10 52 4 77 39 71 19 -2 27 -12 35 -42 19 -68 36 -57 33 19 l-3 67 -52 20 c-47 17 -53 23 -53 47 0 40 22 55 70 48 l40 -5 0 82 c0 89 8 106 50 106 44 0 50 -16 50 -129 l0 -105 32 -27 c29 -24 32 -29 23 -55 -7 -18 -19 -30 -33 -32 -18 -3 -22 -10 -22 -37 0 -39 17 -57 22 -23 4 28 51 47 76 32 9 -6 23 -25 31 -42 23 -52 33 -37 12 19 -11 28 -38 75 -61 105 -46 59 -49 97 -9 109 43 14 105 -69 150 -199 34 -95 40 -63 8 40 -29 95 -50 133 -109 197 -54 60 -58 71 -33 99 26 28 47 22 96 -31 58 -62 104 -153 133 -261 26 -97 29 -80 13 75 -14 142 -20 155 -62 155 -40 0 -57 15 -57 50 0 40 18 50 86 50 107 0 114 -16 135 -326 l13 -177 -23 -18 c-19 -16 -41 -19 -127 -19 l-104 0 0 -39 c0 -34 -4 -40 -30 -51 -26 -11 -33 -10 -50 5 -11 10 -20 26 -20 36 0 9 -10 43 -22 74 -18 47 -23 54 -29 38 -4 -11 -14 -23 -23 -26 -12 -5 -16 -20 -16 -60 0 -59 -12 -77 -50 -77 -39 0 -50 18 -50 84 0 64 -16 68 -22 6 -2 -28 -8 -36 -26 -38 -13 -2 -29 2 -37 8 -11 9 -14 6 -17 -12 l-3 -23 -222 0 c-169 0 -225 3 -235 13 -9 9 -15 71 -19 225 -5 181 -9 220 -27 270 -24 65 -22 78 14 98 36 19 55 3 76 -60 20 -58 38 -231 38 -368 l0 -93 60 0 c47 0 60 3 60 15 0 10 -10 15 -34 15 -52 0 -66 27 -66 127 0 45 4 93 10 107 8 23 15 26 60 26 l50 0 0 81 c0 71 -2 80 -17 77 -10 -1 -24 1 -30 5 -19 12 -16 64 5 76 26 16 85 13 110 -5z m-131 -69 c45 -79 39 -135 -13 -135 -26 0 -31 6 -61 80 -28 66 -28 76 -5 89 30 19 56 7 79 -34z m296 23 c8 -12 4 -34 -17 -87 -25 -64 -30 -71 -56 -71 -49 0 -56 22 -30 93 12 34 27 68 33 75 14 17 57 11 70 -10z m-1258 -48 c19 0 20 -5 17 -125 -3 -124 -3 -125 -27 -125 -48 0 -74 -80 -37 -113 10 -9 33 -22 50 -28 18 -6 32 -14 32 -17 -1 -4 -15 -16 -33 -27 l-32 -21 -34 41 c-19 22 -45 64 -59 94 -21 45 -24 64 -20 125 5 75 21 116 71 179 21 27 33 35 40 28 6 -6 20 -11 32 -11z m621 -80 c13 -41 32 -82 43 -91 20 -17 20 -17 -12 -41 -27 -20 -37 -22 -64 -14 l-32 10 -3 108 -3 109 24 -3 c21 -3 28 -14 47 -78z m1131 45 c9 -24 -1 -27 -15 -5 -8 13 -8 20 -2 20 6 0 13 -7 17 -15z m-989 -155 c-2 -6 -8 -6 -18 0 -13 9 -13 11 0 20 15 10 25 0 18 -20z m533 -5 l34 -14 -37 -1 c-27 0 -38 4 -38 15 0 18 0 18 41 0z m-1216 -105 c75 -36 86 -47 74 -78 -14 -36 -35 -36 -114 -2 -66 29 -75 36 -75 59 0 30 16 51 38 51 8 0 42 -13 77 -30z m685 -44 c0 -19 -4 -23 -20 -19 -20 5 -20 7 -4 24 22 24 24 24 24 -5z m-128 -63 c-22 -18 -25 -17 -44 16 -22 39 -14 44 27 18 30 -20 32 -23 17 -34z m121 -1 c27 -23 21 -46 -23 -86 -43 -39 -70 -45 -94 -20 -27 26 -19 56 26 95 43 37 58 39 91 11z m-627 -33 c22 -24 13 -43 -36 -76 -54 -37 -100 -26 -100 23 0 16 13 30 43 48 51 31 68 32 93 5z"/>
 <path d="M2805 550 c-3 -5 0 -12 7 -15 25 -10 283 0 283 10 0 14 -281 19 -290 5z"/>
 <path d="M2803 478 c3 -10 41 -13 147 -13 106 0 144 3 148 13 3 9 -31 12 -148 12 -117 0 -151 -3 -147 -12z"/>
 <path d="M2805 410 c4 -6 63 -10 145 -10 82 0 141 4 145 10 4 6 -47 10 -145 10 -98 0 -149 -4 -145 -10z"/>
 <path d="M2950 323 c19 -8 47 -23 61 -34 25 -17 28 -18 40 -2 8 9 28 24 44 35 l30 18 -105 -1 c-103 -1 -104 -1 -70 -16z m87 -10 c-4 -3 -10 -3 -14 0 -3 4 0 7 7 7 7 0 10 -3 7 -7z"/>
 <path d="M3666 395 c-4 -13 7 -15 69 -15 60 0 75 3 75 15 0 12 -14 15 -69 15 -52 0 -70 -4 -75 -15z"/>
 <path d="M3670 310 c0 -6 28 -10 64 -10 36 0 68 5 71 10 4 6 -20 10 -64 10 -41 0 -71 -4 -71 -10z"/>
 <path d="M726 729 c-34 -27 -34 -70 0 -157 49 -122 212 -467 233 -489 27 -32 89 -32 119 0 32 34 27 67 -23 167 -25 49 -45 92 -45 95 0 3 14 5 30 5 42 0 89 26 100 56 5 13 14 54 20 91 6 37 13 70 16 75 11 17 42 -13 63 -62 27 -62 58 -85 106 -76 64 12 80 66 44 146 -50 111 -133 166 -237 158 -48 -4 -60 -10 -88 -41 -34 -37 -54 -90 -54 -144 0 -17 -5 -35 -11 -39 -19 -11 -77 56 -114 133 -20 40 -46 80 -58 88 -30 21 -70 19 -101 -6z m127 -87 c64 -121 156 -199 170 -144 3 9 11 47 17 84 17 93 51 128 127 128 88 0 164 -52 200 -137 28 -67 12 -113 -37 -113 -30 0 -45 15 -78 81 -26 52 -61 75 -86 56 -10 -7 -22 -44 -31 -96 -19 -107 -33 -124 -100 -119 -27 3 -58 8 -68 12 -12 6 2 -32 49 -125 73 -147 75 -171 14 -184 -40 -9 -56 5 -87 75 -14 30 -43 93 -65 140 -95 201 -119 255 -140 315 -22 63 -22 64 -3 85 13 14 28 20 49 18 27 -3 36 -12 69 -76z"/>
 <path d="M232 727 c-50 -19 -102 -65 -123 -111 -26 -58 -26 -178 1 -248 24 -63 23 -58 5 -58 -29 0 -65 -47 -65 -83 0 -50 24 -65 146 -92 139 -32 157 -32 183 1 36 46 28 80 -32 138 -113 109 -141 258 -56 301 39 21 71 19 110 -8 63 -42 84 -165 57 -341 l-12 -79 28 -23 c15 -13 38 -24 50 -24 13 0 29 -7 36 -15 7 -8 23 -15 37 -15 13 0 37 -10 53 -22 25 -18 33 -20 55 -10 71 32 89 162 23 162 -11 0 -33 10 -51 22 -18 13 -34 24 -36 25 -2 1 20 34 48 74 61 87 68 134 25 168 -29 23 -55 26 -84 11 -17 -9 -20 -5 -30 32 -6 24 -16 55 -22 70 -15 41 -100 115 -144 127 -50 14 -160 13 -202 -2z m238 -45 c61 -38 110 -130 110 -208 0 -30 4 -54 8 -54 5 0 18 14 30 30 25 34 56 39 84 13 28 -26 22 -50 -36 -128 -29 -41 -66 -103 -81 -139 -25 -58 -31 -66 -55 -66 -49 0 -54 18 -40 133 27 224 -26 347 -152 347 -89 0 -141 -76 -119 -174 13 -61 76 -161 120 -194 22 -16 31 -31 31 -52 0 -36 -26 -63 -54 -57 -12 3 -61 14 -111 25 -123 27 -125 28 -125 67 0 46 20 59 77 51 l47 -6 -22 22 c-53 57 -84 195 -63 276 13 48 62 109 100 124 88 35 182 31 251 -10z m198 -499 c4 -25 -43 -93 -63 -93 -7 0 -18 6 -25 14 -18 22 35 108 64 104 13 -2 22 -12 24 -25z m72 -18 c26 -31 -30 -113 -69 -100 -28 9 -26 32 4 78 28 40 45 46 65 22z"/>
 <path d="M1721 704 c-18 -23 -21 -41 -21 -118 0 -58 4 -96 12 -104 9 -9 7 -12 -9 -12 -47 0 -69 -78 -34 -121 13 -16 17 -34 14 -63 -4 -35 0 -47 26 -80 17 -22 45 -63 62 -93 45 -78 110 -85 154 -16 l20 32 162 1 c156 0 162 1 177 22 9 12 16 34 16 48 0 14 -7 36 -16 48 -14 20 -23 22 -110 22 -94 0 -94 0 -94 25 l0 25 110 0 c104 0 112 1 135 25 42 41 23 125 -28 125 -16 0 -18 3 -9 12 8 8 12 46 12 104 0 77 -3 95 -21 118 l-20 26 -259 0 -259 0 -20 -26z m539 -14 c5 -8 10 -56 10 -106 0 -98 -3 -104 -54 -104 -34 0 -46 20 -46 77 l0 53 -60 0 -60 0 0 -80 0 -80 123 0 c130 0 147 -5 147 -46 0 -53 -3 -54 -141 -54 l-129 0 0 -50 0 -50 99 0 c109 0 125 -8 119 -57 l-3 -28 -175 -5 c-170 -5 -175 -6 -178 -26 -5 -32 -36 -56 -68 -52 -21 2 -33 14 -53 51 -14 27 -41 66 -58 87 -37 43 -41 65 -16 92 26 29 59 22 100 -22 34 -36 43 -40 86 -40 l48 0 -3 48 -3 47 -125 3 c-84 2 -127 7 -132 15 -12 19 -9 64 5 75 7 7 66 13 133 14 l119 3 3 78 3 77 -61 0 -60 0 0 -53 c0 -57 -12 -77 -46 -77 -51 0 -54 6 -54 104 0 50 4 96 8 102 13 20 42 22 280 21 195 -2 234 -4 242 -17z m-340 -160 l0 -60 -37 0 -38 0 3 60 4 60 34 0 34 0 0 -60z m232 0 l3 -60 -37 0 -38 0 0 60 0 60 34 0 34 0 4 -60z m-232 -235 c0 -20 -5 -25 -23 -25 -13 0 -34 11 -47 25 l-23 25 46 0 c43 0 47 -2 47 -25z"/>
 <path d="M1444 486 c-48 -48 -48 -101 0 -154 30 -33 40 -37 81 -37 41 0 51 4 81 37 48 53 48 106 0 154 -29 29 -41 34 -81 34 -40 0 -52 -5 -81 -34z m135 -12 c63 -53 28 -154 -54 -154 -82 0 -117 101 -54 154 17 14 41 26 54 26 13 0 37 -12 54 -26z"/>
 </g>
<g id="layer3" fill="#fefefe" stroke="none">
 <path d="M2529 717 c-42 -37 -87 -101 -110 -158 -25 -64 -31 -215 -9 -270 31 -82 56 -125 96 -166 35 -37 46 -44 66 -38 48 15 50 53 6 103 -46 54 -88 152 -88 209 0 90 32 175 87 232 36 37 40 71 13 93 -28 22 -29 22 -61 -5z"/>
 <path d="M4612 724 c-30 -21 -28 -54 6 -90 60 -63 92 -144 92 -237 0 -57 -42 -155 -88 -209 -44 -50 -42 -88 6 -103 42 -13 113 76 162 204 22 55 16 206 -9 270 -23 57 -68 121 -110 158 -31 27 -31 27 -59 7z"/>
 <path d="M2650 716 c-6 -8 -10 -25 -8 -38 3 -24 10 -26 113 -45 l40 -7 -40 -5 -40 -6 -3 -128 -3 -127 26 -10 c15 -6 43 -10 63 -10 35 0 37 -2 37 -32 0 -29 4 -33 40 -42 53 -12 99 -39 103 -59 5 -24 -14 -21 -52 8 -18 14 -42 25 -52 25 -23 0 -44 -18 -44 -37 0 -18 106 -123 124 -123 9 0 23 11 32 25 16 24 19 25 135 25 109 0 119 2 129 20 9 17 6 28 -17 63 -16 23 -37 43 -46 45 -26 5 -49 -18 -44 -45 4 -21 1 -23 -35 -23 -35 0 -38 2 -29 19 15 27 50 47 122 69 64 20 64 20 85 1 25 -24 57 -19 95 15 44 38 53 63 34 92 -15 24 -65 35 -65 14 0 -5 -17 -21 -37 -34 -33 -23 -39 -24 -53 -11 -9 8 -28 15 -43 15 l-26 0 -3 123 -3 122 -40 5 c-36 5 -37 6 -15 13 14 3 39 7 55 7 54 0 75 11 75 35 0 61 -16 65 -151 39 -99 -18 -113 -27 -105 -66 5 -28 5 -28 -49 -28 -54 0 -55 0 -55 30 0 38 -34 56 -127 70 -92 13 -109 12 -123 -4z m445 -171 c0 -10 -258 -20 -283 -10 -7 3 -10 10 -7 15 9 14 290 9 290 -5z m3 -67 c-4 -10 -42 -13 -148 -13 -106 0 -144 3 -147 13 -4 9 30 12 147 12 117 0 151 -3 148 -12z m0 -60 c-4 -10 -42 -13 -148 -13 -106 0 -144 3 -147 13 -4 9 30 12 147 12 117 0 151 -3 148 -12z m-191 -85 c-4 -3 -10 -3 -14 0 -3 4 0 7 7 7 7 0 10 -3 7 -7z m172 -27 c-43 -33 -44 -33 -69 -16 -14 10 -41 25 -60 33 -34 15 -33 15 69 16 l104 1 -44 -34z"/>
 <path d="M4041 711 c-6 -11 -11 -53 -11 -94 l0 -75 -40 5 c-48 7 -70 -8 -70 -48 0 -24 6 -30 53 -47 l52 -20 3 -66 c4 -84 -21 -92 -38 -12 -5 27 -10 31 -35 29 -35 -3 -45 -18 -35 -53 4 -14 11 -60 15 -101 6 -61 5 -72 -6 -61 -8 7 -40 12 -81 12 -57 0 -69 3 -78 20 -10 19 -8 20 40 20 79 0 90 17 90 138 0 63 -4 102 -12 110 -7 7 -34 12 -60 12 l-48 0 0 108 c0 71 -4 112 -12 120 -7 7 -36 12 -65 12 -47 0 -55 -3 -65 -25 -13 -29 3 -55 33 -55 17 0 19 -8 19 -80 l0 -80 -43 0 c-24 0 -48 -5 -55 -12 -16 -16 -16 -220 0 -236 7 -7 26 -12 44 -12 30 0 51 -20 37 -34 -11 -11 -109 -6 -121 6 -8 8 -12 59 -12 163 0 165 -20 307 -46 336 -21 23 -57 24 -78 3 -19 -19 -21 -7 10 -95 23 -67 26 -94 31 -269 3 -107 10 -201 16 -207 7 -10 66 -13 233 -13 222 0 224 0 224 21 0 18 3 19 14 9 8 -6 25 -10 38 -8 18 2 24 10 26 38 6 58 22 60 22 2 0 -56 27 -99 57 -88 8 3 19 6 24 6 5 0 9 27 9 60 0 55 2 61 24 70 13 5 26 17 28 27 2 10 17 -19 35 -67 32 -88 42 -98 90 -85 24 6 25 9 18 50 l-6 45 114 0 c162 0 154 -13 133 234 -18 216 -29 264 -66 283 -36 19 -130 13 -144 -10 -19 -30 12 -71 56 -75 35 -3 36 -4 46 -60 6 -31 14 -88 17 -127 3 -38 8 -89 11 -112 3 -27 1 -43 -5 -43 -6 0 -11 13 -11 29 0 15 -4 41 -9 57 -5 16 -15 49 -22 74 -20 71 -58 140 -106 198 -51 60 -82 68 -109 26 -17 -25 -17 -26 33 -77 28 -29 60 -70 71 -92 32 -64 73 -208 62 -219 -5 -5 -11 2 -15 20 -14 66 -58 164 -91 203 -50 58 -104 56 -104 -4 0 -7 14 -27 31 -44 30 -31 89 -134 89 -158 0 -23 -15 -13 -34 21 -21 40 -37 49 -72 40 -17 -4 -24 -13 -24 -31 0 -18 -5 -24 -17 -21 -13 2 -19 14 -21 40 -3 34 -1 37 25 40 25 3 28 7 28 43 0 32 -5 42 -25 52 -24 12 -25 17 -30 130 l-5 118 -32 3 c-23 2 -34 -2 -42 -17z m-231 -316 c0 -12 -15 -15 -75 -15 -60 0 -75 3 -75 15 0 12 15 15 75 15 60 0 75 -3 75 -15z m-2 -82 c-3 -15 -16 -19 -67 -21 -35 -2 -68 1 -74 7 -20 20 6 31 74 31 62 0 70 -2 67 -17z"/>
 <path d="M748 709 c-20 -11 -25 -66 -9 -97 5 -9 14 -30 21 -47 25 -61 55 -128 159 -346 17 -36 31 -70 31 -76 0 -5 11 -20 24 -32 17 -16 33 -22 57 -19 30 3 34 7 37 36 3 25 -13 63 -62 158 -36 68 -66 127 -66 130 0 3 13 -4 29 -15 18 -13 45 -21 68 -21 58 0 79 27 96 128 17 101 25 111 70 90 24 -12 42 -32 63 -75 24 -49 34 -59 59 -61 55 -7 71 49 34 115 -35 62 -47 76 -90 105 -46 30 -101 37 -157 17 -32 -11 -72 -77 -72 -121 0 -48 -13 -97 -26 -102 -19 -7 -78 29 -101 62 -10 15 -36 61 -58 102 -42 78 -66 94 -107 69z"/>
 <path d="M3286 701 c-16 -18 -16 -23 9 -102 36 -114 45 -129 70 -129 36 0 58 23 52 56 -10 58 -38 150 -53 172 -18 27 -55 29 -78 3z"/>
 <path d="M204 678 c-26 -18 -55 -46 -64 -63 -42 -77 -27 -221 32 -304 l31 -43 -51 7 c-44 6 -52 4 -61 -14 -6 -11 -11 -31 -11 -45 0 -27 21 -36 120 -51 25 -4 52 -11 60 -15 8 -4 29 -10 47 -13 68 -13 87 59 29 105 -71 57 -132 180 -123 248 2 21 11 51 19 66 14 32 68 63 108 63 43 1 103 -41 129 -89 21 -39 24 -59 25 -155 0 -60 -3 -134 -8 -162 -10 -62 1 -83 45 -83 24 0 30 6 48 55 12 31 42 87 68 126 86 126 88 142 28 164 -24 9 -30 6 -54 -23 -15 -17 -30 -32 -33 -32 -3 0 -8 30 -11 66 -14 148 -98 224 -248 224 -70 0 -81 -3 -125 -32z"/>
 <path d="M1736 684 c-3 -9 -6 -55 -6 -104 0 -93 4 -100 54 -100 34 0 46 20 46 77 l0 53 60 0 61 0 -3 -82 -3 -83 -130 -5 c-141 -5 -145 -8 -131 -65 6 -24 9 -24 134 -27 l127 -3 3 -47 3 -48 -50 0 c-44 0 -53 4 -72 30 -42 56 -119 55 -119 -3 1 -29 111 -191 134 -195 9 -2 28 4 42 13 20 13 24 22 20 41 l-6 24 182 2 183 3 3 28 c6 49 -10 57 -119 57 l-99 0 0 50 0 50 130 0 c129 0 130 0 136 24 14 59 10 61 -134 64 l-132 3 0 84 0 85 60 0 60 0 0 -53 c0 -57 12 -77 46 -77 50 0 54 7 54 100 0 49 -3 95 -6 104 -5 14 -38 16 -264 16 -226 0 -259 -2 -264 -16z"/>
 <path d="M3545 676 c-19 -14 -19 -15 -2 -50 9 -20 17 -42 17 -49 0 -7 11 -25 24 -42 21 -27 26 -28 50 -17 34 15 33 42 -2 112 -30 59 -53 71 -87 46z"/>
 <path d="M3857 672 c-42 -46 -61 -144 -31 -156 40 -15 52 -6 78 59 31 78 32 91 7 105 -27 14 -35 13 -54 -8z"/>
 <path d="M1461 464 c-47 -60 -10 -144 64 -144 74 0 111 84 64 144 -16 21 -29 26 -64 26 -35 0 -48 -5 -64 -26z"/>
 <path d="M2642 338 c-7 -7 -12 -24 -12 -39 0 -21 7 -29 33 -39 17 -6 51 -21 75 -33 51 -26 77 -16 77 29 0 24 -8 32 -65 61 -71 36 -90 39 -108 21z"/>
 <path d="M3328 192 c-34 -32 -40 -43 -34 -65 10 -40 42 -44 90 -9 43 32 58 71 35 98 -19 23 -48 16 -91 -24z"/>
 <path d="M596 164 c-28 -51 -27 -64 9 -64 16 0 30 11 44 36 26 43 24 68 -5 72 -17 2 -28 -8 -48 -44z"/>
 <path d="M2703 174 c-46 -27 -54 -51 -27 -78 22 -22 44 -20 87 9 38 27 48 60 25 83 -18 18 -38 15 -85 -14z"/>
 <path d="M671 130 c-25 -48 -26 -56 -6 -64 22 -8 39 1 58 33 25 43 22 71 -7 71 -18 0 -29 -10 -45 -40z"/>
 </g>

</svg>