<!DOCTYPE svg PUBLIC "-//W3C//DTD SVG 20010904//EN" "http://www.w3.org/TR/2001/REC-SVG-20010904/DTD/svg10.dtd">
<svg version="1.0" xmlns="http://www.w3.org/2000/svg" width="230px" height="40px" viewBox="0 0 2300 400" preserveAspectRatio="xMidYMid meet">
<g id="layer1" fill="#ffffff" stroke="none">
 <path d="M877 363 c-38 -41 -57 -94 -57 -166 0 -53 5 -71 33 -117 29 -50 35 -55 67 -55 29 0 36 4 38 23 2 13 -7 35 -22 52 -46 56 -47 145 -1 205 28 38 32 70 9 79 -28 11 -40 7 -67 -21z"/>
 <path d="M2133 383 c-21 -8 -15 -42 12 -78 46 -60 45 -149 -1 -205 -15 -17 -24 -39 -22 -52 2 -19 9 -23 38 -23 32 0 38 5 67 55 28 46 33 63 33 120 0 76 -24 136 -65 168 -28 22 -39 25 -62 15z"/>
 <path d="M85 370 c-3 -5 -12 -7 -20 -3 -41 15 -60 -50 -24 -83 l20 -18 -20 -8 c-17 -6 -20 -16 -20 -55 1 -28 8 -55 17 -66 12 -13 13 -20 4 -29 -31 -31 6 -88 56 -88 30 0 84 31 89 51 8 29 20 23 33 -16 11 -34 12 -34 68 -33 62 1 82 11 82 38 0 10 7 21 16 24 23 9 24 8 24 -17 0 -13 5 -28 12 -35 17 -17 103 -15 118 3 16 19 66 19 74 0 7 -20 72 -20 80 0 3 8 18 15 34 15 47 0 70 43 37 70 -11 9 -12 16 -4 26 6 7 9 23 7 36 -2 18 -10 24 -36 26 -34 3 -35 22 -2 22 23 0 53 51 48 82 -2 12 -12 26 -23 32 -11 6 -24 17 -28 24 -12 18 -124 16 -134 -3 -7 -13 -12 -13 -38 1 -18 9 -49 14 -84 12 l-56 -3 -1 -113 c-1 -62 -4 -115 -6 -117 -2 -2 -14 -2 -26 1 l-21 6 21 17 c17 15 19 21 9 39 -9 17 -9 27 0 44 10 18 8 24 -9 39 l-21 17 20 5 c16 4 20 12 17 34 l-3 28 -88 3 c-82 3 -89 1 -94 -18 -7 -28 -53 -28 -53 0 0 16 -7 20 -34 20 -19 0 -37 -4 -41 -10z m595 -75 c10 -12 10 -15 -4 -15 -9 0 -16 7 -16 15 0 8 2 15 4 15 2 0 9 -7 16 -15z m-87 -83 c-15 -2 -33 -8 -40 -13 -8 -7 -10 -5 -6 10 6 24 31 31 56 17 16 -10 15 -11 -10 -14z"/>
 <path d="M980 354 c0 -16 7 -28 18 -30 25 -7 19 -125 -9 -150 -27 -24 -24 -41 10 -62 29 -17 29 -18 10 -30 -13 -8 -19 -21 -17 -35 2 -17 11 -23 39 -25 23 -2 40 2 49 12 16 20 37 20 47 1 7 -12 25 -13 96 -8 108 7 127 18 110 64 -16 41 0 55 33 31 19 -15 20 -19 8 -33 -17 -19 -18 -41 -2 -57 16 -16 43 -15 58 3 11 13 15 13 33 0 16 -11 51 -15 134 -15 100 0 114 2 125 19 8 13 17 16 27 11 86 -43 113 -40 122 10 l5 35 10 -35 c9 -31 14 -35 45 -35 28 0 35 4 37 22 3 21 9 23 62 23 81 0 85 8 71 156 -13 146 -18 154 -82 154 -34 0 -51 -5 -55 -15 -5 -11 -10 -12 -24 -3 -37 24 -75 -18 -46 -51 16 -17 16 -19 -3 -24 -18 -4 -20 1 -23 42 -3 45 -3 46 -40 49 l-38 3 0 -45 c0 -36 -3 -44 -15 -40 -37 15 -63 -55 -28 -74 14 -9 14 -11 -5 -21 -19 -10 -22 -9 -22 7 0 10 -5 23 -11 29 -8 8 -6 20 6 43 32 62 0 116 -44 75 -17 -15 -19 -14 -24 5 -4 16 -13 20 -44 20 -21 0 -53 -4 -70 -9 -18 -5 -35 -6 -38 -1 -3 5 -36 8 -73 7 l-67 -2 1 -35 c1 -29 17 -76 42 -122 2 -4 -8 -14 -22 -23 -20 -13 -28 -14 -44 -4 -29 18 -36 126 -9 133 10 2 17 14 17 30 0 25 -2 26 -66 26 -70 0 -104 -12 -104 -35 0 -22 -9 -18 -32 10 -17 22 -27 25 -89 25 -68 0 -69 -1 -69 -26z m750 -226 c0 -25 -4 -38 -9 -33 -8 9 -4 75 5 75 2 0 4 -19 4 -42z m-280 2 c0 -13 -5 -18 -15 -14 -12 5 -13 10 -4 20 15 19 19 18 19 -6z"/>
 </g>

</svg>