<!DOCTYPE svg PUBLIC "-//W3C//DTD SVG 20010904//EN" "http://www.w3.org/TR/2001/REC-SVG-20010904/DTD/svg10.dtd">
<svg version="1.0" xmlns="http://www.w3.org/2000/svg" width="396px" height="80px" viewBox="0 0 3960 800" preserveAspectRatio="xMidYMid meet">
<g id="layer1" fill="#d3c9bf" stroke="none">
 <path d="M1574 698 c-4 -7 -3 -8 4 -4 12 7 16 16 8 16 -3 0 -8 -5 -12 -12z"/>
 <path d="M1694 698 c-4 -7 -3 -8 4 -4 12 7 16 16 8 16 -3 0 -8 -5 -12 -12z"/>
 <path d="M1788 703 c7 -3 16 -2 19 1 4 3 -2 6 -13 5 -11 0 -14 -3 -6 -6z"/>
 <path d="M2198 703 c7 -3 16 -2 19 1 4 3 -2 6 -13 5 -11 0 -14 -3 -6 -6z"/>
 <path d="M2334 688 c-19 -23 -19 -23 2 -5 24 20 54 22 74 5 12 -11 12 -10 1 5 -19 24 -54 21 -77 -5z"/>
 <path d="M2728 703 c12 -2 32 -2 45 0 12 2 2 4 -23 4 -25 0 -35 -2 -22 -4z"/>
 <path d="M3715 700 c3 -5 8 -10 11 -10 3 0 2 5 -1 10 -3 6 -8 10 -11 10 -3 0 -2 -4 1 -10z"/>
 <path d="M813 693 c20 -2 54 -2 75 0 20 2 3 4 -38 4 -41 0 -58 -2 -37 -4z"/>
 <path d="M1108 693 c7 -3 16 -2 19 1 4 3 -2 6 -13 5 -11 0 -14 -3 -6 -6z"/>
 <path d="M1250 696 c0 -2 8 -10 18 -17 15 -13 16 -12 3 4 -13 16 -21 21 -21 13z"/>
 <path d="M2143 693 c4 -3 10 -3 14 0 3 4 0 7 -7 7 -7 0 -10 -3 -7 -7z"/>
 <path d="M2505 693 c11 -3 27 -10 35 -17 13 -10 13 -9 1 7 -7 9 -23 16 -35 16 -20 -1 -20 -2 -1 -6z"/>
 <path d="M2685 689 c-4 -6 -5 -12 -2 -15 2 -3 7 2 10 11 7 17 1 20 -8 4z"/>
 <path d="M3523 693 c4 -3 10 -3 14 0 3 4 0 7 -7 7 -7 0 -10 -3 -7 -7z"/>
 <path d="M1074 678 c-4 -7 -3 -8 4 -4 7 4 12 9 12 12 0 8 -9 4 -16 -8z"/>
 <path d="M2093 683 c4 -3 10 -3 14 0 3 4 0 7 -7 7 -7 0 -10 -3 -7 -7z"/>
 <path d="M3172 583 c-1 -61 1 -114 6 -116 4 -3 6 32 4 76 -4 141 -9 156 -10 40z"/>
 <path d="M3561 673 c7 -12 15 -20 18 -17 3 2 -3 12 -13 22 -17 16 -18 16 -5 -5z"/>
 <path d="M2054 668 c-4 -7 -3 -8 4 -4 12 7 16 16 8 16 -3 0 -8 -5 -12 -12z"/>
 <path d="M3267 662 c-10 -10 -17 -23 -17 -28 0 -4 7 1 15 13 8 12 25 24 38 26 21 4 21 4 1 6 -11 0 -28 -7 -37 -17z"/>
 <path d="M740 660 c0 -7 3 -10 7 -7 3 4 3 10 0 14 -4 3 -7 0 -7 -7z"/>
 <path d="M1529 653 c-13 -16 -12 -17 4 -4 16 13 21 21 13 21 -2 0 -10 -8 -17 -17z"/>
 <path d="M2899 653 c-13 -16 -12 -17 4 -4 9 7 17 15 17 17 0 8 -8 3 -21 -13z"/>
 <path d="M3750 666 c0 -2 8 -10 18 -17 15 -13 16 -12 3 4 -13 16 -21 21 -21 13z"/>
 <path d="M965 650 c-3 -6 1 -7 9 -4 18 7 21 14 7 14 -6 0 -13 -4 -16 -10z"/>
 <path d="M2320 640 c0 -7 3 -10 7 -7 3 4 3 10 0 14 -4 3 -7 0 -7 -7z"/>
 <path d="M2674 628 c-4 -7 -4 -10 1 -6 4 4 15 2 24 -5 14 -11 14 -10 2 6 -16 20 -18 21 -27 5z"/>
 <path d="M3390 633 c0 -6 8 -17 18 -24 16 -13 16 -13 2 6 -8 11 -16 22 -17 24 -2 2 -3 0 -3 -6z"/>
 <path d="M1343 623 c4 -3 10 -3 14 0 3 4 0 7 -7 7 -7 0 -10 -3 -7 -7z"/>
 <path d="M1504 618 c-4 -7 -3 -8 4 -4 12 7 16 16 8 16 -3 0 -8 -5 -12 -12z"/>
 <path d="M1713 623 c4 -3 10 -3 14 0 3 4 0 7 -7 7 -7 0 -10 -3 -7 -7z"/>
 <path d="M2283 623 c4 -3 10 -3 14 0 3 4 0 7 -7 7 -7 0 -10 -3 -7 -7z"/>
 <path d="M3580 620 c0 -7 3 -10 7 -7 3 4 3 10 0 14 -4 3 -7 0 -7 -7z"/>
 <path d="M3785 620 c3 -5 8 -10 11 -10 3 0 2 5 -1 10 -3 6 -8 10 -11 10 -3 0 -2 -4 1 -10z"/>
 <path d="M319 603 c-13 -16 -12 -17 4 -4 9 7 17 15 17 17 0 8 -8 3 -21 -13z"/>
 <path d="M376 610 c7 -8 14 -24 17 -35 4 -19 5 -19 6 1 0 12 -7 28 -16 35 -16 12 -17 12 -7 -1z"/>
 <path d="M853 613 c4 -3 10 -3 14 0 3 4 0 7 -7 7 -7 0 -10 -3 -7 -7z"/>
 <path d="M1166 611 c-4 -5 3 -7 14 -4 23 6 26 13 6 13 -8 0 -17 -4 -20 -9z"/>
 <path d="M1795 610 c3 -5 16 -10 28 -9 21 0 21 1 2 9 -28 12 -37 12 -30 0z"/>
 <path d="M2045 610 c-3 -5 -1 -10 4 -10 6 0 11 5 11 10 0 6 -2 10 -4 10 -3 0 -8 -4 -11 -10z"/>
 <path d="M2175 610 c-18 -8 -17 -9 8 -9 15 -1 27 4 27 9 0 12 -8 12 -35 0z"/>
 <path d="M3385 600 c3 -5 8 -10 11 -10 3 0 2 5 -1 10 -3 6 -8 10 -11 10 -3 0 -2 -4 1 -10z"/>
 <path d="M950 590 c0 -7 3 -10 7 -7 3 4 3 10 0 14 -4 3 -7 0 -7 -7z"/>
 <path d="M1604 588 c-4 -7 -3 -8 4 -4 7 4 12 9 12 12 0 8 -9 4 -16 -8z"/>
 <path d="M3685 590 c3 -5 8 -10 11 -10 3 0 2 5 -1 10 -3 6 -8 10 -11 10 -3 0 -2 -4 1 -10z"/>
 <path d="M1040 580 c0 -7 3 -10 7 -7 3 4 3 10 0 14 -4 3 -7 0 -7 -7z"/>
 <path d="M2570 580 c0 -7 3 -10 7 -7 3 4 3 10 0 14 -4 3 -7 0 -7 -7z"/>
 <path d="M120 545 c13 -14 26 -25 28 -25 3 0 -5 11 -18 25 -13 14 -26 25 -28 25 -3 0 5 -11 18 -25z"/>
 <path d="M960 560 c0 -7 3 -10 7 -7 3 4 3 10 0 14 -4 3 -7 0 -7 -7z"/>
 <path d="M1238 563 c7 -3 16 -2 19 1 4 3 -2 6 -13 5 -11 0 -14 -3 -6 -6z"/>
 <path d="M1370 560 c0 -7 3 -10 7 -7 3 4 3 10 0 14 -4 3 -7 0 -7 -7z"/>
 <path d="M2450 560 c0 -7 3 -10 7 -7 3 4 3 10 0 14 -4 3 -7 0 -7 -7z"/>
 <path d="M3591 554 c0 -11 3 -14 6 -6 3 7 2 16 -1 19 -3 4 -6 -2 -5 -13z"/>
 <path d="M518 548 c6 -6 18 -8 28 -6 14 3 12 5 -9 10 -19 3 -25 2 -19 -4z"/>
 <path d="M663 543 c9 -2 23 -2 30 0 6 3 -1 5 -18 5 -16 0 -22 -2 -12 -5z"/>
 <path d="M2851 524 c0 -11 3 -14 6 -6 3 7 2 16 -1 19 -3 4 -6 -2 -5 -13z"/>
 <path d="M711 510 c0 -15 -4 -30 -8 -36 -5 -5 -2 -4 5 2 8 6 12 22 9 35 -4 24 -4 24 -6 -1z"/>
 <path d="M741 514 c0 -11 3 -14 6 -6 3 7 2 16 -1 19 -3 4 -6 -2 -5 -13z"/>
 <path d="M1052 510 c0 -14 2 -19 5 -12 2 6 2 18 0 25 -3 6 -5 1 -5 -13z"/>
 <path d="M2360 520 c0 -7 3 -10 7 -7 3 4 3 10 0 14 -4 3 -7 0 -7 -7z"/>
 <path d="M2580 520 c0 -7 3 -10 7 -7 3 4 3 10 0 14 -4 3 -7 0 -7 -7z"/>
 <path d="M2620 523 c0 -6 8 -17 18 -24 16 -13 16 -13 2 6 -8 11 -16 22 -17 24 -2 2 -3 0 -3 -6z"/>
 <path d="M3258 523 c7 -3 16 -2 19 1 4 3 -2 6 -13 5 -11 0 -14 -3 -6 -6z"/>
 <path d="M3335 520 c3 -5 8 -10 11 -10 3 0 2 5 -1 10 -3 6 -8 10 -11 10 -3 0 -2 -4 1 -10z"/>
 <path d="M1560 510 c0 -7 3 -10 7 -7 3 4 3 10 0 14 -4 3 -7 0 -7 -7z"/>
 <path d="M2490 510 c0 -7 3 -10 7 -7 3 4 3 10 0 14 -4 3 -7 0 -7 -7z"/>
 <path d="M3730 510 c0 -7 3 -10 7 -7 3 4 3 10 0 14 -4 3 -7 0 -7 -7z"/>
 <path d="M3500 500 c0 -7 3 -10 7 -7 3 4 3 10 0 14 -4 3 -7 0 -7 -7z"/>
 <path d="M318 483 c7 -3 16 -2 19 1 4 3 -2 6 -13 5 -11 0 -14 -3 -6 -6z"/>
 <path d="M1160 479 c0 -5 5 -7 10 -4 6 3 10 8 10 11 0 2 -4 4 -10 4 -5 0 -10 -5 -10 -11z"/>
 <path d="M1251 464 c0 -11 3 -14 6 -6 3 7 2 16 -1 19 -3 4 -6 -2 -5 -13z"/>
 <path d="M2830 470 c0 -5 5 -10 11 -10 5 0 7 5 4 10 -3 6 -8 10 -11 10 -2 0 -4 -4 -4 -10z"/>
 <path d="M82 458 c-15 -15 -15 -51 0 -66 7 -7 34 -11 62 -10 l51 1 -55 6 c-53 6 -55 7 -55 36 0 29 2 30 50 36 l50 6 -45 1 c-26 1 -51 -3 -58 -10z"/>
 <path d="M313 463 c15 -2 39 -2 55 0 15 2 2 4 -28 4 -30 0 -43 -2 -27 -4z"/>
 <path d="M510 459 c0 -5 5 -7 10 -4 6 3 10 8 10 11 0 2 -4 4 -10 4 -5 0 -10 -5 -10 -11z"/>
 <path d="M1298 463 c6 -2 18 -2 25 0 6 3 1 5 -13 5 -14 0 -19 -2 -12 -5z"/>
 <path d="M3602 450 c0 -14 2 -19 5 -12 2 6 2 18 0 25 -3 6 -5 1 -5 -13z"/>
 <path d="M754 448 c-4 -7 -3 -8 4 -4 12 7 16 16 8 16 -3 0 -8 -5 -12 -12z"/>
 <path d="M2634 448 c-4 -7 -3 -8 4 -4 7 4 12 9 12 12 0 8 -9 4 -16 -8z"/>
 <path d="M1441 434 c0 -11 3 -14 6 -6 3 7 2 16 -1 19 -3 4 -6 -2 -5 -13z"/>
 <path d="M3470 440 c0 -7 3 -10 7 -7 3 4 3 10 0 14 -4 3 -7 0 -7 -7z"/>
 <path d="M3851 434 c0 -11 3 -14 6 -6 3 7 2 16 -1 19 -3 4 -6 -2 -5 -13z"/>
 <path d="M3232 410 c0 -14 2 -19 5 -12 2 6 2 18 0 25 -3 6 -5 1 -5 -13z"/>
 <path d="M518 408 c6 -6 18 -8 28 -6 14 3 12 5 -9 10 -19 3 -25 2 -19 -4z"/>
 <path d="M940 410 c0 -7 3 -10 7 -7 3 4 3 10 0 14 -4 3 -7 0 -7 -7z"/>
 <path d="M2504 275 c0 -82 2 -115 3 -72 2 43 2 110 0 150 -1 40 -3 5 -3 -78z"/>
 <path d="M2624 330 c0 -52 1 -74 3 -47 2 26 2 68 0 95 -2 26 -3 4 -3 -48z"/>
 <path d="M3265 410 c3 -5 8 -10 11 -10 3 0 2 5 -1 10 -3 6 -8 10 -11 10 -3 0 -2 -4 1 -10z"/>
 <path d="M3512 400 c0 -14 2 -19 5 -12 2 6 2 18 0 25 -3 6 -5 1 -5 -13z"/>
 <path d="M663 403 c9 -2 23 -2 30 0 6 3 -1 5 -18 5 -16 0 -22 -2 -12 -5z"/>
 <path d="M1923 403 c42 -2 112 -2 155 0 42 1 7 3 -78 3 -85 0 -120 -2 -77 -3z"/>
 <path d="M2594 290 c0 -63 1 -89 3 -57 2 31 2 83 0 115 -2 31 -3 5 -3 -58z"/>
 <path d="M313 383 c15 -2 37 -2 50 0 12 2 0 4 -28 4 -27 0 -38 -2 -22 -4z"/>
 <path d="M709 362 c-3 -20 -2 -29 4 -23 5 5 7 19 5 32 -3 20 -5 19 -9 -9z"/>
 <path d="M803 383 c26 -2 67 -2 90 0 23 2 2 3 -48 3 -49 0 -68 -1 -42 -3z"/>
 <path d="M2710 380 c0 -7 3 -10 7 -7 3 4 3 10 0 14 -4 3 -7 0 -7 -7z"/>
 <path d="M3285 380 c3 -5 8 -10 11 -10 3 0 2 5 -1 10 -3 6 -8 10 -11 10 -3 0 -2 -4 1 -10z"/>
 <path d="M2379 363 c-13 -16 -12 -17 4 -4 16 13 21 21 13 21 -2 0 -10 -8 -17 -17z"/>
 <path d="M3490 370 c0 -7 3 -10 7 -7 3 4 3 10 0 14 -4 3 -7 0 -7 -7z"/>
 <path d="M808 363 c23 -2 61 -2 85 0 23 2 4 4 -43 4 -47 0 -66 -2 -42 -4z"/>
 <path d="M994 358 c-4 -7 -3 -8 4 -4 7 4 12 9 12 12 0 8 -9 4 -16 -8z"/>
 <path d="M2983 363 c4 -3 10 -3 14 0 3 4 0 7 -7 7 -7 0 -10 -3 -7 -7z"/>
 <path d="M1441 344 c0 -11 3 -14 6 -6 3 7 2 16 -1 19 -3 4 -6 -2 -5 -13z"/>
 <path d="M3170 326 c0 -19 3 -37 8 -40 4 -2 6 13 4 35 -5 48 -12 51 -12 5z"/>
 <path d="M3851 344 c0 -11 3 -14 6 -6 3 7 2 16 -1 19 -3 4 -6 -2 -5 -13z"/>
 <path d="M940 340 c0 -7 3 -10 7 -7 3 4 3 10 0 14 -4 3 -7 0 -7 -7z"/>
 <path d="M2305 340 c3 -5 8 -10 11 -10 3 0 2 5 -1 10 -3 6 -8 10 -11 10 -3 0 -2 -4 1 -10z"/>
 <path d="M2344 338 c-4 -7 -3 -8 4 -4 12 7 16 16 8 16 -3 0 -8 -5 -12 -12z"/>
 <path d="M71 324 c0 -11 3 -14 6 -6 3 7 2 16 -1 19 -3 4 -6 -2 -5 -13z"/>
 <path d="M213 333 c4 -3 10 -3 14 0 3 4 0 7 -7 7 -7 0 -10 -3 -7 -7z"/>
 <path d="M254 331 c3 -5 15 -7 26 -4 28 7 25 13 -6 13 -14 0 -23 -4 -20 -9z"/>
 <path d="M348 333 c7 -3 16 -2 19 1 4 3 -2 6 -13 5 -11 0 -14 -3 -6 -6z"/>
 <path d="M1540 330 c0 -7 3 -10 7 -7 3 4 3 10 0 14 -4 3 -7 0 -7 -7z"/>
 <path d="M3750 330 c0 -7 3 -10 7 -7 3 4 3 10 0 14 -4 3 -7 0 -7 -7z"/>
 <path d="M510 319 c0 -5 5 -7 10 -4 6 3 10 8 10 11 0 2 -4 4 -10 4 -5 0 -10 -5 -10 -11z"/>
 <path d="M1783 323 c4 -3 10 -3 14 0 3 4 0 7 -7 7 -7 0 -10 -3 -7 -7z"/>
 <path d="M3040 320 c0 -7 3 -10 7 -7 3 4 3 10 0 14 -4 3 -7 0 -7 -7z"/>
 <path d="M3611 314 c0 -11 3 -14 6 -6 3 7 2 16 -1 19 -3 4 -6 -2 -5 -13z"/>
 <path d="M390 310 c0 -7 3 -10 7 -7 3 4 3 10 0 14 -4 3 -7 0 -7 -7z"/>
 <path d="M990 310 c0 -7 3 -10 7 -7 3 4 3 10 0 14 -4 3 -7 0 -7 -7z"/>
 <path d="M1943 313 c4 -3 10 -3 14 0 3 4 0 7 -7 7 -7 0 -10 -3 -7 -7z"/>
 <path d="M3202 300 c0 -14 2 -19 5 -12 2 6 2 18 0 25 -3 6 -5 1 -5 -13z"/>
 <path d="M3295 310 c3 -5 8 -10 11 -10 3 0 2 5 -1 10 -3 6 -8 10 -11 10 -3 0 -2 -4 1 -10z"/>
 <path d="M3320 310 c0 -7 3 -10 7 -7 3 4 3 10 0 14 -4 3 -7 0 -7 -7z"/>
 <path d="M755 300 c3 -5 8 -10 11 -10 3 0 2 5 -1 10 -3 6 -8 10 -11 10 -3 0 -2 -4 1 -10z"/>
 <path d="M1344 298 c-4 -7 -3 -8 4 -4 12 7 16 16 8 16 -3 0 -8 -5 -12 -12z"/>
 <path d="M2715 300 c-3 -5 -3 -14 0 -20 7 -12 131 -14 138 -2 3 4 -26 6 -64 4 -43 -2 -69 0 -69 7 0 6 31 12 73 14 l72 3 -72 2 c-39 1 -75 -2 -78 -8z"/>
 <path d="M2124 288 c-4 -7 -3 -8 4 -4 7 4 12 9 12 12 0 8 -9 4 -16 -8z"/>
 <path d="M3515 287 c-4 -10 -5 -21 -1 -24 10 -10 18 4 13 24 -4 17 -4 17 -12 0z"/>
 <path d="M2970 280 c0 -7 3 -10 7 -7 3 4 3 10 0 14 -4 3 -7 0 -7 -7z"/>
 <path d="M3330 280 c0 -7 3 -10 7 -7 3 4 3 10 0 14 -4 3 -7 0 -7 -7z"/>
 <path d="M3410 280 c0 -7 3 -10 7 -7 3 4 3 10 0 14 -4 3 -7 0 -7 -7z"/>
 <path d="M3430 270 c0 -7 3 -10 7 -7 3 4 3 10 0 14 -4 3 -7 0 -7 -7z"/>
 <path d="M115 260 c3 -5 8 -10 11 -10 3 0 2 5 -1 10 -3 6 -8 10 -11 10 -3 0 -2 -4 1 -10z"/>
 <path d="M1873 255 c0 -8 4 -12 9 -9 5 3 6 10 3 15 -9 13 -12 11 -12 -6z"/>
 <path d="M330 250 c0 -7 3 -10 7 -7 3 4 3 10 0 14 -4 3 -7 0 -7 -7z"/>
 <path d="M720 231 c0 -17 4 -32 8 -35 4 -2 6 11 4 30 -5 42 -12 45 -12 5z"/>
 <path d="M1460 250 c0 -7 3 -10 7 -7 3 4 3 10 0 14 -4 3 -7 0 -7 -7z"/>
 <path d="M3830 250 c0 -7 3 -10 7 -7 3 4 3 10 0 14 -4 3 -7 0 -7 -7z"/>
 <path d="M220 240 c0 -7 3 -10 7 -7 3 4 3 10 0 14 -4 3 -7 0 -7 -7z"/>
 <path d="M350 240 c0 -7 3 -10 7 -7 3 4 3 10 0 14 -4 3 -7 0 -7 -7z"/>
 <path d="M1913 243 c4 -3 10 -3 14 0 3 4 0 7 -7 7 -7 0 -10 -3 -7 -7z"/>
 <path d="M1953 233 c4 -3 10 -3 14 0 3 4 0 7 -7 7 -7 0 -10 -3 -7 -7z"/>
 <path d="M2174 228 c-4 -7 -3 -8 4 -4 7 4 12 9 12 12 0 8 -9 4 -16 -8z"/>
 <path d="M2928 218 c-10 -10 -14 -18 -9 -18 10 0 36 29 30 34 -2 1 -12 -6 -21 -16z"/>
 <path d="M1743 223 c4 -3 10 -3 14 0 3 4 0 7 -7 7 -7 0 -10 -3 -7 -7z"/>
 <path d="M1918 223 c7 -3 16 -2 19 1 4 3 -2 6 -13 5 -11 0 -14 -3 -6 -6z"/>
 <path d="M1955 210 c3 -5 8 -10 11 -10 3 0 2 5 -1 10 -3 6 -8 10 -11 10 -3 0 -2 -4 1 -10z"/>
 <path d="M2000 216 c0 -2 8 -10 18 -17 15 -13 16 -12 3 4 -13 16 -21 21 -21 13z"/>
 <path d="M2139 203 c-13 -16 -12 -17 4 -4 16 13 21 21 13 21 -2 0 -10 -8 -17 -17z"/>
 <path d="M2414 208 c-4 -7 -3 -8 4 -4 12 7 16 16 8 16 -3 0 -8 -5 -12 -12z"/>
 <path d="M406 197 c3 -10 9 -15 12 -12 3 3 0 11 -7 18 -10 9 -11 8 -5 -6z"/>
 <path d="M2978 180 c-3 -17 -1 -33 4 -36 4 -3 8 11 8 30 0 44 -6 47 -12 6z"/>
 <path d="M3174 186 c-3 -7 -4 -35 -2 -62 l3 -49 5 63 c5 63 4 73 -6 48z"/>
 <path d="M3599 183 c-13 -16 -12 -17 4 -4 16 13 21 21 13 21 -2 0 -10 -8 -17 -17z"/>
 <path d="M520 181 c0 -5 9 -7 20 -4 11 3 20 7 20 9 0 2 -9 4 -20 4 -11 0 -20 -4 -20 -9z"/>
 <path d="M668 183 c6 -2 18 -2 25 0 6 3 1 5 -13 5 -14 0 -19 -2 -12 -5z"/>
 <path d="M2482 160 c0 -14 2 -19 5 -12 2 6 2 18 0 25 -3 6 -5 1 -5 -13z"/>
 <path d="M2665 170 l-60 -7 57 -1 c31 -1 60 3 63 8 3 6 5 9 3 8 -2 -1 -30 -4 -63 -8z"/>
 <path d="M2349 153 c-13 -16 -12 -17 4 -4 16 13 21 21 13 21 -2 0 -10 -8 -17 -17z"/>
 <path d="M2857 163 c18 -2 50 -2 70 0 21 2 7 4 -32 4 -38 0 -55 -2 -38 -4z"/>
 <path d="M3361 148 c1 -17 3 -18 6 -6 4 15 20 18 111 21 l107 3 -112 2 c-111 2 -113 2 -112 -20z"/>
 <path d="M936 147 c3 -10 9 -15 12 -12 3 3 0 11 -7 18 -10 9 -11 8 -5 -6z"/>
 <path d="M570 140 c0 -7 3 -10 7 -7 3 4 3 10 0 14 -4 3 -7 0 -7 -7z"/>
 <path d="M988 138 c4 -3 35 -8 69 -10 34 -1 59 0 55 4 -4 3 -35 8 -69 10 -34 1 -59 0 -55 -4z"/>
 <path d="M1290 140 l-75 -6 72 -2 c39 -1 75 3 78 8 3 6 5 9 3 8 -2 -1 -37 -4 -78 -8z"/>
 <path d="M1515 140 c3 -5 8 -10 11 -10 3 0 2 5 -1 10 -3 6 -8 10 -11 10 -3 0 -2 -4 1 -10z"/>
 <path d="M1851 134 c0 -11 3 -14 6 -6 3 7 2 16 -1 19 -3 4 -6 -2 -5 -13z"/>
 <path d="M3774 138 c-4 -7 -3 -8 4 -4 12 7 16 16 8 16 -3 0 -8 -5 -12 -12z"/>
 <path d="M314 128 c-4 -7 -3 -8 4 -4 7 4 12 9 12 12 0 8 -9 4 -16 -8z"/>
 <path d="M670 130 c0 -7 3 -10 7 -7 3 4 3 10 0 14 -4 3 -7 0 -7 -7z"/>
 <path d="M2297 125 c-5 -12 -27 -15 -126 -15 -66 0 -122 -3 -124 -7 -3 -5 50 -7 118 -5 94 2 126 7 136 18 6 8 10 17 7 20 -3 3 -8 -2 -11 -11z"/>
 <path d="M1925 120 c3 -5 8 -10 11 -10 3 0 2 5 -1 10 -3 6 -8 10 -11 10 -3 0 -2 -4 1 -10z"/>
 <path d="M580 110 c0 -7 3 -10 7 -7 3 4 3 10 0 14 -4 3 -7 0 -7 -7z"/>
 <path d="M940 110 c0 -7 3 -10 7 -7 3 4 3 10 0 14 -4 3 -7 0 -7 -7z"/>
 <path d="M2429 93 c-13 -16 -12 -17 4 -4 16 13 21 21 13 21 -2 0 -10 -8 -17 -17z"/>
 <path d="M2515 100 c3 -5 8 -10 11 -10 3 0 2 5 -1 10 -3 6 -8 10 -11 10 -3 0 -2 -4 1 -10z"/>
 <path d="M3270 100 c0 -7 3 -10 7 -7 3 4 3 10 0 14 -4 3 -7 0 -7 -7z"/>
 <path d="M450 90 c0 -7 3 -10 7 -7 3 4 3 10 0 14 -4 3 -7 0 -7 -7z"/>
 <path d="M1955 90 c3 -5 8 -10 11 -10 3 0 2 5 -1 10 -3 6 -8 10 -11 10 -3 0 -2 -4 1 -10z"/>
 <path d="M3080 91 c0 -10 29 -36 34 -30 1 2 -6 12 -16 22 -10 9 -18 13 -18 8z"/>
 <path d="M159 78 c7 -10 25 -17 40 -17 l26 2 -25 4 c-14 3 -32 10 -40 16 -13 11 -13 10 -1 -5z"/>
 <path d="M529 73 c-13 -16 -12 -17 4 -4 9 7 17 15 17 17 0 8 -8 3 -21 -13z"/>
 <path d="M803 83 c26 -2 67 -2 90 0 23 2 2 3 -48 3 -49 0 -68 -1 -42 -3z"/>
 <path d="M2653 83 c59 -2 155 -2 215 0 59 1 10 3 -108 3 -118 0 -167 -2 -107 -3z"/>
 <path d="M1623 63 c4 -3 10 -3 14 0 3 4 0 7 -7 7 -7 0 -10 -3 -7 -7z"/>
 <path d="M3143 63 c4 -3 10 -3 14 0 3 4 0 7 -7 7 -7 0 -10 -3 -7 -7z"/>
 <path d="M3308 63 c7 -3 16 -2 19 1 4 3 -2 6 -13 5 -11 0 -14 -3 -6 -6z"/>
 </g>
<g id="layer2" fill="#5b3714" stroke="none">
 <path d="M192 724 c-12 -8 -22 -25 -22 -37 0 -16 -3 -18 -12 -9 -20 20 -67 14 -93 -13 -38 -37 -32 -69 21 -123 l45 -47 -28 -3 c-47 -6 -52 -17 -51 -110 1 -82 2 -89 31 -121 29 -34 29 -35 9 -42 -44 -17 -42 -95 3 -119 16 -8 38 -25 48 -37 26 -32 89 -32 114 1 11 13 33 27 51 31 35 7 52 30 52 69 0 46 25 28 50 -36 13 -35 28 -69 33 -75 13 -17 89 -16 113 1 13 10 23 11 32 4 14 -12 78 -4 98 13 8 6 14 28 14 49 0 21 6 40 13 43 9 3 11 -6 9 -32 -6 -61 16 -72 134 -69 92 3 100 5 109 26 8 19 17 22 67 22 51 0 58 -2 58 -19 0 -26 46 -61 79 -61 37 0 71 26 71 56 0 23 2 24 70 24 78 0 90 10 90 74 0 48 -28 66 -105 68 l-60 1 62 6 c73 7 88 19 88 70 0 55 -18 71 -77 71 -42 0 -49 3 -44 16 3 9 6 18 6 20 0 2 15 4 33 4 39 0 58 17 86 80 37 81 19 130 -47 130 -22 0 -32 5 -32 15 0 8 -9 24 -20 35 -17 17 -33 20 -111 20 -91 0 -129 -10 -129 -33 0 -19 -71 -9 -96 14 -19 18 -37 19 -271 17 -266 -3 -283 -6 -283 -52 0 -18 -6 -21 -45 -21 -44 0 -45 1 -45 32 0 37 -29 63 -70 63 -14 0 -36 -7 -48 -16z m86 -26 c7 -7 12 -40 12 -77 l0 -66 20 33 c21 34 55 43 78 20 18 -18 14 -39 -17 -83 -22 -31 -34 -40 -54 -38 -15 1 -27 -2 -27 -7 0 -5 24 -10 53 -12 49 -3 52 -5 55 -31 5 -40 -14 -57 -63 -57 -34 0 -44 -4 -48 -20 -5 -18 0 -20 39 -20 30 0 50 -6 63 -19 11 -11 22 -17 25 -13 3 3 6 85 6 183 0 168 1 179 20 189 12 6 72 9 152 8 l133 -3 0 -35 c0 -33 -2 -35 -37 -38 -35 -3 -38 -6 -38 -33 0 -24 4 -29 23 -29 29 0 47 -18 47 -46 0 -27 -17 -39 -47 -35 -20 2 -23 -2 -23 -28 0 -26 4 -31 24 -31 30 0 49 -22 44 -52 -2 -18 -10 -24 -35 -26 -29 -3 -33 -7 -33 -33 0 -33 -19 -30 190 -32 l125 -2 0 -35 0 -35 -120 -2 c-66 -1 -134 -5 -151 -8 -31 -7 -31 -8 -21 -41 13 -41 -3 -64 -43 -64 -33 0 -45 13 -57 60 -6 21 -16 36 -28 38 -15 3 -17 0 -10 -19 16 -53 16 -75 1 -88 -19 -16 -67 -11 -76 9 -4 8 -19 41 -34 73 -19 41 -31 57 -46 57 -13 0 -22 9 -26 25 -10 39 -18 21 -24 -48 l-5 -62 -38 -5 c-28 -4 -41 -12 -50 -30 -21 -42 -82 -37 -82 8 0 11 -11 19 -30 22 -27 5 -30 9 -30 40 0 29 4 36 23 38 12 2 22 8 22 14 0 16 -40 78 -50 78 -5 0 -12 9 -15 21 -8 24 19 59 45 59 36 0 110 -101 110 -150 0 -11 5 -20 10 -20 6 0 10 22 10 49 0 27 3 56 6 64 4 11 -2 16 -23 19 -17 2 -32 11 -38 26 -8 18 -18 22 -55 22 -51 0 -70 13 -70 46 0 30 18 42 70 46 l44 3 -57 61 c-31 34 -57 70 -57 81 0 45 50 57 94 22 l26 -20 0 33 c0 19 5 39 12 46 15 15 61 15 76 0z m656 -14 c9 -8 16 -23 16 -32 0 -12 3 -13 12 -4 16 16 53 15 66 0 5 -7 15 -44 21 -81 14 -79 6 -97 -40 -97 -23 0 -30 5 -34 28 -3 15 -10 41 -14 57 -9 29 -9 29 -10 -10 -1 -23 -6 -46 -13 -53 -16 -16 -170 -16 -186 0 -13 13 -17 165 -4 184 11 18 33 22 104 23 48 1 71 -3 82 -15z m340 -6 c9 -12 16 -34 16 -47 0 -19 3 -22 12 -13 28 28 78 7 78 -32 0 -33 -51 -126 -70 -126 -45 0 -59 36 -35 92 5 14 2 17 -22 15 -20 -1 -30 4 -38 21 -6 15 -17 22 -30 20 -17 -3 -20 -12 -23 -60 -3 -54 7 -74 23 -48 10 16 41 11 60 -10 16 -18 17 -23 5 -45 -7 -13 -23 -34 -36 -46 -22 -21 -24 -21 -49 -5 -14 9 -25 23 -25 31 0 8 -13 15 -32 17 l-33 3 -3 115 c-3 139 -3 140 109 140 69 0 80 -3 93 -22z m-561 -105 c-7 -2 -21 -2 -30 0 -10 3 -4 5 12 5 17 0 24 -2 18 -5z m492 -23 c3 -5 1 -10 -4 -10 -6 0 -11 5 -11 10 0 6 2 10 4 10 3 0 8 -4 11 -10z m-808 -57 c-4 -3 -7 0 -7 7 0 7 3 10 7 7 3 -4 3 -10 0 -14z m327 -48 c-4 -9 -17 -15 -33 -14 -20 1 -22 2 -6 6 11 3 24 9 30 14 13 13 15 11 9 -6z m220 -7 c8 -13 8 -23 0 -35 -9 -15 -26 -18 -100 -18 -86 0 -89 1 -92 23 -7 49 1 53 94 50 70 -2 89 -6 98 -20z m111 -6 c6 -7 24 -16 40 -21 26 -8 22 -9 -30 -10 -34 -1 -69 -7 -80 -15 -19 -13 -20 -12 -17 23 3 34 5 36 40 36 20 0 42 -6 47 -13z m-111 -84 c8 -13 8 -23 0 -35 -9 -15 -26 -18 -100 -18 l-89 0 -3 29 c-2 16 2 33 10 37 7 5 49 8 92 7 62 -2 81 -7 90 -20z m411 -18 l0 -35 -67 -3 -68 -3 0 -34 0 -34 73 -3 72 -3 0 -40 0 -40 -72 -3 c-68 -3 -73 -4 -73 -25 0 -30 -18 -47 -49 -47 -35 0 -48 10 -52 40 -4 23 -9 25 -69 30 l-65 5 0 40 0 40 65 5 c64 5 65 5 65 35 0 29 -1 30 -60 35 -53 4 -60 8 -63 28 -8 52 -6 53 185 50 l178 -3 0 -35z m-630 -30 c3 -5 4 -10 1 -10 -3 0 -8 5 -11 10 -3 6 -4 10 -1 10 3 0 8 -4 11 -10z m355 -44 c8 -2 -9 -4 -37 -5 -29 0 -53 3 -53 7 0 7 52 6 90 -2z m-132 -127 c5 -41 -17 -50 -110 -47 -78 3 -83 4 -86 26 -7 49 1 53 100 50 92 -3 93 -3 96 -29z"/>
 <path d="M520 595 c-17 -20 -6 -45 20 -45 17 0 21 5 18 27 -4 31 -20 40 -38 18z"/>
 <path d="M520 455 c-17 -20 -6 -45 20 -45 17 0 21 5 18 27 -4 31 -20 40 -38 18z"/>
 <path d="M520 315 c-17 -20 -6 -45 20 -45 17 0 21 5 18 27 -4 31 -20 40 -38 18z"/>
 <path d="M825 601 c-8 -26 5 -53 24 -49 20 4 27 48 9 59 -20 13 -26 11 -33 -10z"/>
 <path d="M1536 696 c-24 -23 -59 -74 -77 -112 -33 -67 -34 -72 -34 -194 0 -120 1 -128 32 -192 17 -37 50 -87 73 -112 36 -39 48 -46 80 -46 24 0 43 7 54 19 17 18 18 18 41 -5 13 -13 33 -24 45 -24 30 0 95 35 118 65 l20 25 45 -45 c52 -51 73 -55 114 -21 27 23 38 25 150 27 111 2 123 1 148 -19 36 -29 54 -28 101 6 37 27 40 27 57 10 15 -16 39 -18 245 -18 126 0 232 4 237 9 6 5 24 11 40 13 22 2 33 -2 40 -17 8 -15 23 -21 59 -23 63 -4 76 8 76 74 0 41 4 54 15 54 12 0 35 -55 35 -86 0 -21 37 -44 72 -44 45 0 83 37 76 74 l-5 26 102 0 c103 0 103 0 129 31 14 17 26 38 26 47 0 40 -30 370 -36 397 -6 28 -4 26 33 -20 60 -75 76 -112 81 -191 4 -61 1 -80 -20 -125 -14 -30 -41 -74 -61 -97 -23 -27 -37 -54 -37 -71 0 -38 38 -71 82 -71 29 0 43 8 78 46 23 25 56 75 73 112 31 64 32 72 32 192 0 122 -1 127 -34 194 -44 91 -108 156 -154 156 -37 0 -77 -33 -77 -66 -1 -15 -3 -14 -15 8 -32 58 -193 65 -221 10 -10 -20 -13 -21 -24 -7 -16 19 -69 19 -98 -1 -30 -21 -30 -79 0 -111 20 -21 20 -23 3 -23 -10 0 -27 -7 -37 -17 -17 -15 -18 -12 -18 80 0 88 -2 97 -22 111 -29 20 -67 20 -96 0 -19 -13 -22 -24 -22 -93 l0 -77 -36 4 c-28 3 -34 8 -29 21 20 50 17 78 -10 99 -37 29 -71 28 -100 -4 -20 -21 -25 -23 -25 -10 0 9 -11 28 -25 41 -20 21 -34 25 -85 25 -45 0 -65 -5 -78 -18 -11 -11 -37 -21 -59 -24 -32 -5 -42 -2 -51 13 -15 24 -84 26 -102 4 -11 -14 -15 -13 -28 6 -13 19 -22 21 -68 16 -33 -3 -56 -1 -60 5 -9 13 -121 3 -205 -20 -58 -15 -65 -20 -74 -50 -7 -24 -15 -32 -32 -32 -18 0 -23 6 -23 24 0 13 -6 29 -14 36 -38 31 -229 60 -266 40 -16 -9 -25 -9 -33 -1 -6 6 -26 11 -44 11 -26 0 -43 -10 -77 -44z m102 8 c31 -22 27 -50 -13 -100 -57 -69 -79 -128 -79 -214 -1 -85 26 -158 83 -222 33 -38 37 -57 21 -89 -16 -29 -45 -23 -91 18 -78 71 -128 214 -116 333 10 88 53 186 107 242 51 53 56 55 88 32z m2112 -32 c54 -56 97 -154 107 -242 12 -119 -38 -262 -116 -333 -45 -41 -62 -45 -85 -21 -24 24 -19 53 15 92 57 64 84 137 83 222 0 86 -22 145 -79 214 -40 50 -44 78 -13 100 32 23 37 21 88 -32z m-1908 27 c82 -18 108 -34 108 -70 0 -30 1 -30 48 -27 45 3 47 4 52 38 5 32 9 36 55 48 28 7 82 16 122 19 71 6 72 5 78 -20 13 -49 4 -62 -48 -65 -47 -3 -61 -14 -32 -26 12 -4 15 -28 15 -126 l0 -120 35 0 c23 0 38 -6 41 -15 5 -12 15 -8 49 20 50 40 77 44 99 13 23 -32 20 -41 -21 -82 -49 -47 -77 -55 -106 -28 -22 20 -23 20 -80 2 -57 -18 -127 -62 -127 -81 0 -5 15 -9 34 -9 29 0 33 3 29 20 -6 24 13 50 37 50 22 0 68 -52 76 -86 12 -46 -8 -54 -136 -54 -104 0 -119 -2 -135 -20 -27 -30 -44 -25 -102 32 -57 56 -62 71 -36 100 22 25 37 23 76 -12 35 -30 57 -38 57 -21 0 16 -49 49 -83 57 -70 15 -77 20 -67 54 l9 30 -53 0 c-28 0 -57 5 -64 12 -8 8 -12 53 -12 136 0 115 1 124 20 129 31 8 13 23 -29 23 -20 0 -42 5 -49 12 -13 13 -16 60 -5 71 10 11 86 8 145 -4z m566 -1 c14 -18 62 -174 62 -202 0 -31 -22 -48 -57 -44 -26 3 -30 10 -60 98 -18 52 -32 101 -33 109 -1 39 64 67 88 39z m400 -4 c20 -14 22 -23 22 -113 0 -109 6 -121 60 -121 20 0 41 -5 48 -12 16 -16 16 -220 0 -236 -7 -7 -36 -12 -65 -12 -40 0 -53 -4 -53 -15 0 -12 14 -15 64 -15 35 0 71 -3 80 -6 13 -5 16 2 16 42 -1 27 -5 68 -9 91 -10 52 4 77 39 71 19 -2 27 -12 35 -42 19 -68 36 -57 33 19 l-3 67 -52 20 c-47 17 -53 23 -53 47 0 40 22 55 70 48 l40 -5 0 82 c0 89 8 106 50 106 44 0 50 -16 50 -129 l0 -105 32 -27 c29 -24 32 -29 23 -55 -7 -18 -19 -30 -33 -32 -18 -3 -22 -10 -22 -37 0 -39 17 -57 22 -23 4 28 51 47 76 32 9 -6 23 -25 31 -42 23 -52 33 -37 12 19 -11 28 -38 75 -61 105 -46 59 -49 97 -9 109 43 14 105 -69 150 -199 34 -95 40 -63 8 40 -29 95 -50 133 -109 197 -54 60 -58 71 -33 99 26 28 47 22 96 -31 58 -62 104 -153 133 -261 26 -97 29 -80 13 75 -14 142 -20 155 -62 155 -40 0 -57 15 -57 50 0 40 18 50 86 50 107 0 114 -16 135 -326 l13 -177 -23 -18 c-19 -16 -41 -19 -127 -19 l-104 0 0 -39 c0 -34 -4 -40 -30 -51 -26 -11 -33 -10 -50 5 -11 10 -20 26 -20 36 0 9 -10 43 -22 74 -18 47 -23 54 -29 38 -4 -11 -14 -23 -23 -26 -12 -5 -16 -20 -16 -60 0 -59 -12 -77 -50 -77 -39 0 -50 18 -50 84 0 64 -16 68 -22 6 -2 -28 -8 -36 -26 -38 -13 -2 -29 2 -37 8 -11 9 -14 6 -17 -12 l-3 -23 -222 0 c-169 0 -225 3 -235 13 -9 9 -15 71 -19 225 -5 181 -9 220 -27 270 -24 65 -22 78 14 98 36 19 55 3 76 -60 20 -58 38 -231 38 -368 l0 -93 60 0 c47 0 60 3 60 15 0 10 -10 15 -34 15 -52 0 -66 27 -66 127 0 45 4 93 10 107 8 23 15 26 60 26 l50 0 0 81 c0 71 -2 80 -17 77 -10 -1 -24 1 -30 5 -19 12 -16 64 5 76 26 16 85 13 110 -5z m-131 -69 c45 -79 39 -135 -13 -135 -26 0 -31 6 -61 80 -28 66 -28 76 -5 89 30 19 56 7 79 -34z m296 23 c8 -12 4 -34 -17 -87 -25 -64 -30 -71 -56 -71 -49 0 -56 22 -30 93 12 34 27 68 33 75 14 17 57 11 70 -10z m-1258 -48 c19 0 20 -5 17 -125 -3 -124 -3 -125 -27 -125 -48 0 -74 -80 -37 -113 10 -9 33 -22 50 -28 18 -6 32 -14 32 -17 -1 -4 -15 -16 -33 -27 l-32 -21 -34 41 c-19 22 -45 64 -59 94 -21 45 -24 64 -20 125 5 75 21 116 71 179 21 27 33 35 40 28 6 -6 20 -11 32 -11z m621 -80 c13 -41 32 -82 43 -91 20 -17 20 -17 -12 -41 -27 -20 -37 -22 -64 -14 l-32 10 -3 108 -3 109 24 -3 c21 -3 28 -14 47 -78z m1131 45 c9 -24 -1 -27 -15 -5 -8 13 -8 20 -2 20 6 0 13 -7 17 -15z m-989 -155 c-2 -6 -8 -6 -18 0 -13 9 -13 11 0 20 15 10 25 0 18 -20z m533 -5 l34 -14 -37 -1 c-27 0 -38 4 -38 15 0 18 0 18 41 0z m-1216 -105 c75 -36 86 -47 74 -78 -14 -36 -35 -36 -114 -2 -66 29 -75 36 -75 59 0 30 16 51 38 51 8 0 42 -13 77 -30z m685 -44 c0 -19 -4 -23 -20 -19 -20 5 -20 7 -4 24 22 24 24 24 24 -5z m-128 -63 c-22 -18 -25 -17 -44 16 -22 39 -14 44 27 18 30 -20 32 -23 17 -34z m121 -1 c27 -23 21 -46 -23 -86 -43 -39 -70 -45 -94 -20 -27 26 -19 56 26 95 43 37 58 39 91 11z m-627 -33 c22 -24 13 -43 -36 -76 -54 -37 -100 -26 -100 23 0 16 13 30 43 48 51 31 68 32 93 5z"/>
 <path d="M1855 530 c-3 -5 0 -12 7 -15 25 -10 283 0 283 10 0 14 -281 19 -290 5z"/>
 <path d="M1853 458 c3 -10 41 -13 147 -13 106 0 144 3 148 13 3 9 -31 12 -148 12 -117 0 -151 -3 -147 -12z"/>
 <path d="M1855 390 c4 -6 63 -10 145 -10 82 0 141 4 145 10 4 6 -47 10 -145 10 -98 0 -149 -4 -145 -10z"/>
 <path d="M2000 303 c19 -8 47 -23 61 -34 25 -17 28 -18 40 -2 8 9 28 24 44 35 l30 18 -105 -1 c-103 -1 -104 -1 -70 -16z m87 -10 c-4 -3 -10 -3 -14 0 -3 4 0 7 7 7 7 0 10 -3 7 -7z"/>
 <path d="M2716 375 c-4 -13 7 -15 69 -15 60 0 75 3 75 15 0 12 -14 15 -69 15 -52 0 -70 -4 -75 -15z"/>
 <path d="M2720 290 c0 -6 28 -10 64 -10 36 0 68 5 71 10 4 6 -20 10 -64 10 -41 0 -71 -4 -71 -10z"/>
 </g>
<g id="layer3" fill="#fefefe" stroke="none">
 <path d="M1579 697 c-42 -37 -87 -101 -110 -158 -25 -64 -31 -215 -9 -270 31 -82 56 -125 96 -166 35 -37 46 -44 66 -38 48 15 50 53 6 103 -46 54 -88 152 -88 209 0 90 32 175 87 232 36 37 40 71 13 93 -28 22 -29 22 -61 -5z"/>
 <path d="M3662 704 c-30 -21 -28 -54 6 -90 60 -63 92 -144 92 -237 0 -57 -42 -155 -88 -209 -44 -50 -42 -88 6 -103 42 -13 113 76 162 204 22 55 16 206 -9 270 -23 57 -68 121 -110 158 -31 27 -31 27 -59 7z"/>
 <path d="M202 698 c-7 -7 -12 -27 -12 -46 l0 -33 -26 20 c-34 27 -70 27 -84 1 -15 -27 -5 -54 25 -74 21 -14 75 -86 75 -100 0 -3 -21 -6 -47 -8 -46 -3 -48 -4 -48 -33 0 -29 2 -30 52 -33 44 -3 52 -6 57 -26 11 -43 81 -43 92 0 5 20 13 23 57 26 51 3 52 4 55 36 l3 32 -55 0 c-43 0 -56 3 -56 15 0 10 10 15 30 15 55 0 92 97 47 124 -15 9 -23 5 -48 -22 l-29 -32 0 63 c0 36 -5 68 -12 75 -15 15 -61 15 -76 0z"/>
 <path d="M1700 696 c-6 -8 -10 -25 -8 -38 3 -24 10 -26 113 -45 l40 -7 -40 -5 -40 -6 -3 -128 -3 -127 26 -10 c15 -6 43 -10 63 -10 35 0 37 -2 37 -32 0 -29 4 -33 40 -42 53 -12 99 -39 103 -59 5 -24 -14 -21 -52 8 -18 14 -42 25 -52 25 -23 0 -44 -18 -44 -37 0 -18 106 -123 124 -123 9 0 23 11 32 25 16 24 19 25 135 25 109 0 119 2 129 20 9 17 6 28 -17 63 -16 23 -37 43 -46 45 -26 5 -49 -18 -44 -45 4 -21 1 -23 -35 -23 -35 0 -38 2 -29 19 15 27 50 47 122 69 64 20 64 20 85 1 25 -24 57 -19 95 15 44 38 53 63 34 92 -15 24 -65 35 -65 14 0 -5 -17 -21 -37 -34 -33 -23 -39 -24 -53 -11 -9 8 -28 15 -43 15 l-26 0 -3 123 -3 122 -40 5 c-36 5 -37 6 -15 13 14 3 39 7 55 7 54 0 75 11 75 35 0 61 -16 65 -151 39 -99 -18 -113 -27 -105 -66 5 -28 5 -28 -49 -28 -54 0 -55 0 -55 30 0 38 -34 56 -127 70 -92 13 -109 12 -123 -4z m445 -171 c0 -10 -258 -20 -283 -10 -7 3 -10 10 -7 15 9 14 290 9 290 -5z m3 -67 c-4 -10 -42 -13 -148 -13 -106 0 -144 3 -147 13 -4 9 30 12 147 12 117 0 151 -3 148 -12z m0 -60 c-4 -10 -42 -13 -148 -13 -106 0 -144 3 -147 13 -4 9 30 12 147 12 117 0 151 -3 148 -12z m-191 -85 c-4 -3 -10 -3 -14 0 -3 4 0 7 7 7 7 0 10 -3 7 -7z m172 -27 c-43 -33 -44 -33 -69 -16 -14 10 -41 25 -60 33 -34 15 -33 15 69 16 l104 1 -44 -34z"/>
 <path d="M3091 691 c-6 -11 -11 -53 -11 -94 l0 -75 -40 5 c-48 7 -70 -8 -70 -48 0 -24 6 -30 53 -47 l52 -20 3 -66 c4 -84 -21 -92 -38 -12 -5 27 -10 31 -35 29 -35 -3 -45 -18 -35 -53 4 -14 11 -60 15 -101 6 -61 5 -72 -6 -61 -8 7 -40 12 -81 12 -57 0 -69 3 -78 20 -10 19 -8 20 40 20 79 0 90 17 90 138 0 63 -4 102 -12 110 -7 7 -34 12 -60 12 l-48 0 0 108 c0 71 -4 112 -12 120 -7 7 -36 12 -65 12 -47 0 -55 -3 -65 -25 -13 -29 3 -55 33 -55 17 0 19 -8 19 -80 l0 -80 -43 0 c-24 0 -48 -5 -55 -12 -16 -16 -16 -220 0 -236 7 -7 26 -12 44 -12 30 0 51 -20 37 -34 -11 -11 -109 -6 -121 6 -8 8 -12 59 -12 163 0 165 -20 307 -46 336 -21 23 -57 24 -78 3 -19 -19 -21 -7 10 -95 23 -67 26 -94 31 -269 3 -107 10 -201 16 -207 7 -10 66 -13 233 -13 222 0 224 0 224 21 0 18 3 19 14 9 8 -6 25 -10 38 -8 18 2 24 10 26 38 6 58 22 60 22 2 0 -56 27 -99 57 -88 8 3 19 6 24 6 5 0 9 27 9 60 0 55 2 61 24 70 13 5 26 17 28 27 2 10 17 -19 35 -67 32 -88 42 -98 90 -85 24 6 25 9 18 50 l-6 45 114 0 c162 0 154 -13 133 234 -18 216 -29 264 -66 283 -36 19 -130 13 -144 -10 -19 -30 12 -71 56 -75 35 -3 36 -4 46 -60 6 -31 14 -88 17 -127 3 -38 8 -89 11 -113 3 -26 1 -42 -5 -42 -6 0 -11 13 -11 29 0 15 -4 41 -9 57 -5 16 -15 49 -22 74 -20 71 -58 140 -106 198 -51 60 -82 68 -109 26 -17 -25 -17 -26 33 -77 28 -29 60 -70 71 -92 32 -64 73 -208 62 -219 -5 -5 -11 2 -15 20 -14 66 -58 164 -91 203 -50 58 -104 56 -104 -4 0 -7 14 -27 31 -44 30 -31 89 -134 89 -158 0 -23 -15 -13 -34 21 -21 40 -37 49 -72 40 -17 -4 -24 -13 -24 -31 0 -18 -5 -24 -17 -21 -13 2 -19 14 -21 40 -3 34 -1 37 25 40 25 3 28 7 28 43 0 32 -5 42 -25 52 -24 12 -25 17 -30 130 l-5 118 -32 3 c-23 2 -34 -2 -42 -17z m-231 -316 c0 -12 -15 -15 -75 -15 -60 0 -75 3 -75 15 0 12 15 15 75 15 60 0 75 -3 75 -15z m-2 -82 c-3 -15 -16 -19 -67 -21 -35 -2 -68 1 -74 7 -20 20 6 31 74 31 62 0 70 -2 67 -17z"/>
 <path d="M1113 693 c-39 -8 -44 -25 -41 -139 l3 -109 32 -3 c21 -2 34 -10 38 -23 4 -10 16 -24 28 -30 18 -10 25 -7 49 20 30 33 36 69 16 89 -19 19 -44 14 -62 -10 -15 -22 -15 -19 -13 52 2 62 5 75 19 78 12 2 21 -6 28 -23 9 -23 15 -27 44 -23 l34 4 -15 -38 c-20 -51 -12 -70 29 -66 27 2 36 10 51 41 10 21 20 51 24 67 5 26 2 31 -23 41 -21 7 -34 7 -46 0 -15 -9 -18 -8 -18 12 0 42 -39 67 -101 66 -30 -1 -64 -4 -76 -6z"/>
 <path d="M2336 681 c-16 -18 -16 -23 9 -102 36 -114 45 -129 70 -129 36 0 58 23 52 56 -10 58 -38 150 -53 172 -18 27 -55 29 -78 3z"/>
 <path d="M438 679 c-16 -9 -18 -29 -18 -194 0 -158 -2 -185 -15 -185 -8 0 -15 6 -15 14 0 20 -75 29 -108 14 -24 -12 -27 -20 -30 -71 -3 -62 -16 -75 -27 -27 -14 65 -70 140 -104 140 -45 0 -55 -59 -16 -93 13 -12 27 -34 31 -49 5 -22 2 -27 -18 -30 -19 -2 -23 -9 -23 -38 0 -31 3 -35 28 -38 19 -2 31 -11 37 -28 14 -35 67 -34 80 1 7 19 17 25 38 25 41 0 52 17 52 83 0 42 3 58 13 55 6 -3 13 -14 15 -26 2 -16 10 -22 28 -22 15 0 27 -7 30 -17 4 -10 12 -32 19 -48 8 -17 18 -43 24 -58 13 -33 49 -36 76 -6 19 21 19 21 -10 92 -5 13 -2 17 13 17 16 0 25 -13 40 -52 16 -44 24 -54 46 -56 51 -6 60 15 39 91 -3 13 2 17 27 17 30 0 31 1 28 37 -3 35 -6 38 -35 41 -29 3 -33 7 -33 32 0 24 5 29 28 32 22 2 28 8 30 36 3 30 1 32 -27 32 -29 0 -31 3 -31 34 0 30 3 35 28 38 22 2 28 8 30 36 3 30 1 32 -27 32 -29 0 -31 3 -31 34 0 33 2 35 38 38 35 3 37 5 37 38 l0 35 -135 2 c-80 2 -142 -2 -152 -8z m120 -108 c3 -29 1 -32 -20 -29 -26 3 -35 32 -17 54 18 22 34 12 37 -25z m0 -139 c3 -30 1 -33 -20 -30 -18 2 -24 10 -26 36 -3 30 -1 33 20 30 18 -2 24 -10 26 -36z m0 -135 c3 -25 0 -28 -20 -25 -17 2 -24 11 -26 31 -3 25 0 28 20 25 17 -2 24 -11 26 -31z"/>
 <path d="M744 644 c-7 -46 0 -136 11 -154 9 -15 168 -13 183 2 7 7 12 35 13 63 0 37 3 45 9 30 5 -11 9 -36 9 -55 2 -48 13 -62 47 -58 l29 3 -2 79 c-4 103 -15 116 -74 92 -12 -5 -18 0 -23 18 -6 26 -8 26 -101 26 l-94 0 -7 -46z m124 -56 c-3 -36 -31 -50 -42 -22 -10 26 3 54 25 54 17 0 20 -6 17 -32z"/>
 <path d="M2595 656 c-19 -14 -19 -15 -2 -50 9 -20 17 -42 17 -49 0 -7 11 -25 24 -42 21 -27 26 -28 50 -17 34 15 33 42 -2 112 -30 59 -53 71 -87 46z"/>
 <path d="M2907 652 c-42 -46 -61 -144 -31 -156 40 -15 52 -6 78 59 31 78 32 91 7 105 -27 14 -35 13 -54 -8z"/>
 <path d="M762 448 c-7 -7 -12 -22 -12 -35 0 -22 3 -23 94 -23 83 0 94 2 99 19 10 40 -9 51 -91 51 -47 0 -83 -5 -90 -12z"/>
 <path d="M1001 356 c-7 -8 -9 -25 -5 -40 5 -23 11 -25 62 -28 56 -3 57 -4 57 -33 0 -30 -1 -30 -65 -35 l-65 -5 0 -35 0 -35 65 -5 c65 -5 65 -5 68 -37 3 -26 9 -34 28 -39 40 -10 74 10 74 45 l0 30 73 3 72 3 0 35 0 35 -72 3 -73 3 0 34 0 35 59 0 c66 0 87 15 77 55 l-6 25 -169 0 c-133 0 -171 -3 -180 -14z"/>
 <path d="M750 337 c0 -38 19 -47 102 -47 82 0 101 11 91 51 -5 17 -16 19 -99 19 -91 0 -94 -1 -94 -23z"/>
 <path d="M1692 318 c-7 -7 -12 -24 -12 -39 0 -21 7 -29 33 -39 17 -6 51 -21 75 -33 51 -26 77 -16 77 29 0 24 -8 32 -65 61 -71 36 -90 39 -108 21z"/>
 <path d="M734 256 c-3 -8 -4 -25 -2 -38 3 -23 5 -23 118 -23 l115 0 0 35 0 35 -113 3 c-91 2 -113 0 -118 -12z"/>
 <path d="M2378 172 c-34 -32 -40 -43 -34 -65 10 -40 42 -44 90 -9 43 32 58 71 35 98 -19 23 -48 16 -91 -24z"/>
 <path d="M1753 154 c-46 -27 -54 -51 -27 -78 22 -22 44 -20 87 9 38 27 48 60 25 83 -18 18 -38 15 -85 -14z"/>
 <path d="M757 153 c-4 -3 -7 -19 -7 -35 l0 -28 94 0 c83 0 94 2 99 19 10 41 -9 51 -97 51 -45 0 -86 -3 -89 -7z"/>
 </g>

</svg>