<!DOCTYPE svg PUBLIC "-//W3C//DTD SVG 20010904//EN" "http://www.w3.org/TR/2001/REC-SVG-20010904/DTD/svg10.dtd">
<svg version="1.0" xmlns="http://www.w3.org/2000/svg" width="616px" height="80px" viewBox="0 0 6160 800" preserveAspectRatio="xMidYMid meet">
<g id="layer1" fill="#d3c9bf" stroke="none">
 <path d="M1988 723 c7 -3 16 -2 19 1 4 3 -2 6 -13 5 -11 0 -14 -3 -6 -6z"/>
 <path d="M2448 723 c7 -3 16 -2 19 1 4 3 -2 6 -13 5 -11 0 -14 -3 -6 -6z"/>
 <path d="M2888 723 c7 -3 16 -2 19 1 4 3 -2 6 -13 5 -11 0 -14 -3 -6 -6z"/>
 <path d="M183 713 c4 -3 10 -3 14 0 3 4 0 7 -7 7 -7 0 -10 -3 -7 -7z"/>
 <path d="M728 713 c6 -2 18 -2 25 0 6 3 1 5 -13 5 -14 0 -19 -2 -12 -5z"/>
 <path d="M2513 713 c4 -3 10 -3 14 0 3 4 0 7 -7 7 -7 0 -10 -3 -7 -7z"/>
 <path d="M3794 708 c-4 -7 -3 -8 4 -4 12 7 16 16 8 16 -3 0 -8 -5 -12 -12z"/>
 <path d="M3914 708 c-4 -7 -3 -8 4 -4 7 4 12 9 12 12 0 8 -9 4 -16 -8z"/>
 <path d="M4008 713 c7 -3 16 -2 19 1 4 3 -2 6 -13 5 -11 0 -14 -3 -6 -6z"/>
 <path d="M4418 713 c7 -3 16 -2 19 1 4 3 -2 6 -13 5 -11 0 -14 -3 -6 -6z"/>
 <path d="M4554 698 c-19 -23 -19 -23 2 -5 24 20 54 22 74 5 12 -11 12 -10 1 5 -19 24 -54 21 -77 -5z"/>
 <path d="M4948 713 c12 -2 32 -2 45 0 12 2 2 4 -23 4 -25 0 -35 -2 -22 -4z"/>
 <path d="M5935 710 c3 -5 8 -10 11 -10 3 0 2 5 -1 10 -3 6 -8 10 -11 10 -3 0 -2 -4 1 -10z"/>
 <path d="M604 698 c-4 -7 -3 -8 4 -4 12 7 16 16 8 16 -3 0 -8 -5 -12 -12z"/>
 <path d="M660 706 c0 -2 8 -10 18 -17 15 -13 16 -12 3 4 -13 16 -21 21 -21 13z"/>
 <path d="M2040 700 c0 -7 3 -10 7 -7 3 4 3 10 0 14 -4 3 -7 0 -7 -7z"/>
 <path d="M2563 703 c4 -3 10 -3 14 0 3 4 0 7 -7 7 -7 0 -10 -3 -7 -7z"/>
 <path d="M4363 703 c4 -3 10 -3 14 0 3 4 0 7 -7 7 -7 0 -10 -3 -7 -7z"/>
 <path d="M4725 703 c11 -3 27 -10 35 -17 13 -10 13 -9 1 7 -7 9 -23 16 -35 16 -20 -1 -20 -2 -1 -6z"/>
 <path d="M4905 699 c-4 -6 -5 -12 -2 -15 2 -3 7 2 10 11 7 17 1 20 -8 4z"/>
 <path d="M5743 703 c4 -3 10 -3 14 0 3 4 0 7 -7 7 -7 0 -10 -3 -7 -7z"/>
 <path d="M1940 558 c-3 -81 -1 -144 3 -139 4 4 6 70 5 147 l-3 139 -5 -147z"/>
 <path d="M2412 680 c0 -14 2 -19 5 -12 2 6 2 18 0 25 -3 6 -5 1 -5 -13z"/>
 <path d="M2603 693 c4 -3 10 -3 14 0 3 4 0 7 -7 7 -7 0 -10 -3 -7 -7z"/>
 <path d="M2930 690 c0 -7 3 -10 7 -7 3 4 3 10 0 14 -4 3 -7 0 -7 -7z"/>
 <path d="M2983 693 c4 -3 10 -3 14 0 3 4 0 7 -7 7 -7 0 -10 -3 -7 -7z"/>
 <path d="M3213 693 c4 -3 10 -3 14 0 3 4 0 7 -7 7 -7 0 -10 -3 -7 -7z"/>
 <path d="M3313 693 c4 -3 10 -3 14 0 3 4 0 7 -7 7 -7 0 -10 -3 -7 -7z"/>
 <path d="M4313 693 c4 -3 10 -3 14 0 3 4 0 7 -7 7 -7 0 -10 -3 -7 -7z"/>
 <path d="M5392 593 c-1 -61 1 -114 6 -116 4 -3 6 32 4 76 -4 141 -9 156 -10 40z"/>
 <path d="M5781 683 c7 -12 15 -20 18 -17 3 2 -3 12 -13 22 -17 16 -18 16 -5 -5z"/>
 <path d="M780 680 c0 -7 3 -10 7 -7 3 4 3 10 0 14 -4 3 -7 0 -7 -7z"/>
 <path d="M822 670 c0 -14 2 -19 5 -12 2 6 2 18 0 25 -3 6 -5 1 -5 -13z"/>
 <path d="M1180 686 c0 -2 8 -10 18 -17 15 -13 16 -12 3 4 -13 16 -21 21 -21 13z"/>
 <path d="M2764 678 c-4 -7 -3 -8 4 -4 7 4 12 9 12 12 0 8 -9 4 -16 -8z"/>
 <path d="M4274 678 c-4 -7 -3 -8 4 -4 12 7 16 16 8 16 -3 0 -8 -5 -12 -12z"/>
 <path d="M5487 672 c-10 -10 -17 -23 -17 -28 0 -4 7 1 15 13 8 12 25 24 38 26 21 4 21 4 1 6 -11 0 -28 -7 -37 -17z"/>
 <path d="M111 664 c0 -12 7 -28 17 -35 15 -12 16 -12 6 1 -7 8 -14 24 -17 35 -4 19 -5 19 -6 -1z"/>
 <path d="M3749 663 c-13 -16 -12 -17 4 -4 16 13 21 21 13 21 -2 0 -10 -8 -17 -17z"/>
 <path d="M5119 663 c-13 -16 -12 -17 4 -4 16 13 21 21 13 21 -2 0 -10 -8 -17 -17z"/>
 <path d="M5970 676 c0 -2 8 -10 18 -17 15 -13 16 -12 3 4 -13 16 -21 21 -21 13z"/>
 <path d="M525 628 l-40 -43 43 40 c23 21 42 40 42 42 0 8 -9 0 -45 -39z"/>
 <path d="M1773 663 c4 -3 10 -3 14 0 3 4 0 7 -7 7 -7 0 -10 -3 -7 -7z"/>
 <path d="M1813 663 c4 -3 10 -3 14 0 3 4 0 7 -7 7 -7 0 -10 -3 -7 -7z"/>
 <path d="M3244 555 c0 -66 1 -92 3 -57 2 34 2 88 0 120 -2 31 -3 3 -3 -63z"/>
 <path d="M3294 555 c0 -66 1 -92 3 -57 2 34 2 88 0 120 -2 31 -3 3 -3 -63z"/>
 <path d="M2093 653 c4 -3 10 -3 14 0 3 4 0 7 -7 7 -7 0 -10 -3 -7 -7z"/>
 <path d="M2183 653 c4 -3 10 -3 14 0 3 4 0 7 -7 7 -7 0 -10 -3 -7 -7z"/>
 <path d="M2671 644 c0 -11 3 -14 6 -6 3 7 2 16 -1 19 -3 4 -6 -2 -5 -13z"/>
 <path d="M4540 650 c0 -7 3 -10 7 -7 3 4 3 10 0 14 -4 3 -7 0 -7 -7z"/>
 <path d="M2353 643 c4 -3 10 -3 14 0 3 4 0 7 -7 7 -7 0 -10 -3 -7 -7z"/>
 <path d="M2433 635 c0 -8 4 -15 9 -15 4 0 8 4 8 9 0 6 -4 12 -8 15 -5 3 -9 -1 -9 -9z"/>
 <path d="M4894 638 c-4 -7 -4 -10 1 -6 4 4 15 2 24 -5 14 -11 14 -10 2 6 -16 20 -18 21 -27 5z"/>
 <path d="M5610 643 c0 -6 8 -17 18 -24 16 -13 16 -13 2 6 -8 11 -16 22 -17 24 -2 2 -3 0 -3 -6z"/>
 <path d="M417 630 c6 -8 13 -26 16 -40 l4 -25 2 26 c0 15 -7 33 -16 40 -16 12 -17 12 -6 -1z"/>
 <path d="M838 628 c5 -5 16 -8 23 -6 8 3 3 7 -10 11 -17 4 -21 3 -13 -5z"/>
 <path d="M974 395 c0 -137 2 -195 3 -128 2 67 2 179 0 250 -1 70 -3 16 -3 -122z"/>
 <path d="M2964 550 c0 -52 1 -74 3 -47 2 26 2 68 0 95 -2 26 -3 4 -3 -48z"/>
 <path d="M3574 550 c0 -52 1 -74 3 -47 2 26 2 68 0 95 -2 26 -3 4 -3 -48z"/>
 <path d="M3724 628 c-4 -7 -3 -8 4 -4 7 4 12 9 12 12 0 8 -9 4 -16 -8z"/>
 <path d="M3933 633 c4 -3 10 -3 14 0 3 4 0 7 -7 7 -7 0 -10 -3 -7 -7z"/>
 <path d="M4503 633 c4 -3 10 -3 14 0 3 4 0 7 -7 7 -7 0 -10 -3 -7 -7z"/>
 <path d="M5800 630 c0 -7 3 -10 7 -7 3 4 3 10 0 14 -4 3 -7 0 -7 -7z"/>
 <path d="M6005 630 c3 -5 8 -10 11 -10 3 0 2 5 -1 10 -3 6 -8 10 -11 10 -3 0 -2 -4 1 -10z"/>
 <path d="M4015 620 c3 -5 16 -10 28 -9 21 0 21 1 2 9 -28 12 -37 12 -30 0z"/>
 <path d="M4265 620 c-3 -5 -1 -10 4 -10 6 0 11 5 11 10 0 6 -2 10 -4 10 -3 0 -8 -4 -11 -10z"/>
 <path d="M4395 620 c-18 -8 -17 -9 8 -9 15 -1 27 4 27 9 0 12 -8 12 -35 0z"/>
 <path d="M160 610 c0 -7 3 -10 7 -7 3 4 3 10 0 14 -4 3 -7 0 -7 -7z"/>
 <path d="M1275 600 c-10 -11 -16 -22 -14 -24 2 -2 12 7 22 20 22 29 17 32 -8 4z"/>
 <path d="M2230 610 c0 -7 3 -10 7 -7 3 4 3 10 0 14 -4 3 -7 0 -7 -7z"/>
 <path d="M2563 613 c4 -3 10 -3 14 0 3 4 0 7 -7 7 -7 0 -10 -3 -7 -7z"/>
 <path d="M2845 610 c3 -5 8 -10 11 -10 3 0 2 5 -1 10 -3 6 -8 10 -11 10 -3 0 -2 -4 1 -10z"/>
 <path d="M3067 613 c-3 -5 14 -8 38 -8 24 0 41 3 38 8 -2 4 -19 7 -38 7 -19 0 -36 -3 -38 -7z"/>
 <path d="M3400 616 c0 -2 18 -6 39 -8 22 -2 37 0 35 4 -5 8 -74 11 -74 4z"/>
 <path d="M5605 610 c3 -5 8 -10 11 -10 3 0 2 5 -1 10 -3 6 -8 10 -11 10 -3 0 -2 -4 1 -10z"/>
 <path d="M654 598 c-4 -7 -3 -8 4 -4 7 4 12 9 12 12 0 8 -9 4 -16 -8z"/>
 <path d="M800 600 c0 -7 3 -10 7 -7 3 4 3 10 0 14 -4 3 -7 0 -7 -7z"/>
 <path d="M3824 598 c-4 -7 -3 -8 4 -4 7 4 12 9 12 12 0 8 -9 4 -16 -8z"/>
 <path d="M5905 600 c3 -5 8 -10 11 -10 3 0 2 5 -1 10 -3 6 -8 10 -11 10 -3 0 -2 -4 1 -10z"/>
 <path d="M4790 590 c0 -7 3 -10 7 -7 3 4 3 10 0 14 -4 3 -7 0 -7 -7z"/>
 <path d="M2082 574 c9 -9 21 -15 27 -13 6 2 -2 10 -17 17 -25 11 -25 11 -10 -4z"/>
 <path d="M4670 570 c0 -7 3 -10 7 -7 3 4 3 10 0 14 -4 3 -7 0 -7 -7z"/>
 <path d="M5811 564 c0 -11 3 -14 6 -6 3 7 2 16 -1 19 -3 4 -6 -2 -5 -13z"/>
 <path d="M313 563 c4 -3 10 -3 14 0 3 4 0 7 -7 7 -7 0 -10 -3 -7 -7z"/>
 <path d="M584 538 l-29 -33 33 29 c30 28 37 36 29 36 -2 0 -16 -15 -33 -32z"/>
 <path d="M2634 558 c-4 -7 -3 -8 4 -4 7 4 12 9 12 12 0 8 -9 4 -16 -8z"/>
 <path d="M454 548 c-4 -7 -3 -8 4 -4 12 7 16 16 8 16 -3 0 -8 -5 -12 -12z"/>
 <path d="M2363 553 c4 -3 10 -3 14 0 3 4 0 7 -7 7 -7 0 -10 -3 -7 -7z"/>
 <path d="M2565 550 c3 -5 8 -10 11 -10 3 0 2 5 -1 10 -3 6 -8 10 -11 10 -3 0 -2 -4 1 -10z"/>
 <path d="M1280 540 c0 -7 3 -10 7 -7 3 4 3 10 0 14 -4 3 -7 0 -7 -7z"/>
 <path d="M5071 534 c0 -11 3 -14 6 -6 3 7 2 16 -1 19 -3 4 -6 -2 -5 -13z"/>
 <path d="M720 530 c0 -7 3 -10 7 -7 3 4 3 10 0 14 -4 3 -7 0 -7 -7z"/>
 <path d="M2805 530 c3 -5 8 -10 11 -10 3 0 2 5 -1 10 -3 6 -8 10 -11 10 -3 0 -2 -4 1 -10z"/>
 <path d="M4580 530 c0 -7 3 -10 7 -7 3 4 3 10 0 14 -4 3 -7 0 -7 -7z"/>
 <path d="M4800 530 c0 -7 3 -10 7 -7 3 4 3 10 0 14 -4 3 -7 0 -7 -7z"/>
 <path d="M4840 533 c0 -6 8 -17 18 -24 16 -13 16 -13 2 6 -8 11 -16 22 -17 24 -2 2 -3 0 -3 -6z"/>
 <path d="M5478 533 c7 -3 16 -2 19 1 4 3 -2 6 -13 5 -11 0 -14 -3 -6 -6z"/>
 <path d="M5555 530 c3 -5 8 -10 11 -10 3 0 2 5 -1 10 -3 6 -8 10 -11 10 -3 0 -2 -4 1 -10z"/>
 <path d="M810 521 c0 -6 4 -13 10 -16 6 -3 7 1 4 9 -7 18 -14 21 -14 7z"/>
 <path d="M3780 520 c0 -7 3 -10 7 -7 3 4 3 10 0 14 -4 3 -7 0 -7 -7z"/>
 <path d="M4710 520 c0 -7 3 -10 7 -7 3 4 3 10 0 14 -4 3 -7 0 -7 -7z"/>
 <path d="M5950 520 c0 -7 3 -10 7 -7 3 4 3 10 0 14 -4 3 -7 0 -7 -7z"/>
 <path d="M875 510 c-3 -5 -1 -10 4 -10 6 0 11 5 11 10 0 6 -2 10 -4 10 -3 0 -8 -4 -11 -10z"/>
 <path d="M5720 510 c0 -7 3 -10 7 -7 3 4 3 10 0 14 -4 3 -7 0 -7 -7z"/>
 <path d="M1200 490 c0 -5 5 -10 11 -10 5 0 7 5 4 10 -3 6 -8 10 -11 10 -2 0 -4 -4 -4 -10z"/>
 <path d="M1483 483 c9 -2 23 -2 30 0 6 3 -1 5 -18 5 -16 0 -22 -2 -12 -5z"/>
 <path d="M5050 480 c0 -5 5 -10 11 -10 5 0 7 5 4 10 -3 6 -8 10 -11 10 -2 0 -4 -4 -4 -10z"/>
 <path d="M5822 460 c0 -14 2 -19 5 -12 2 6 2 18 0 25 -3 6 -5 1 -5 -13z"/>
 <path d="M4854 458 c-4 -7 -3 -8 4 -4 7 4 12 9 12 12 0 8 -9 4 -16 -8z"/>
 <path d="M555 450 c3 -5 8 -10 11 -10 3 0 2 5 -1 10 -3 6 -8 10 -11 10 -3 0 -2 -4 1 -10z"/>
 <path d="M2924 448 c-4 -7 -3 -8 4 -4 7 4 12 9 12 12 0 8 -9 4 -16 -8z"/>
 <path d="M3661 444 c0 -11 3 -14 6 -6 3 7 2 16 -1 19 -3 4 -6 -2 -5 -13z"/>
 <path d="M5690 450 c0 -7 3 -10 7 -7 3 4 3 10 0 14 -4 3 -7 0 -7 -7z"/>
 <path d="M6071 444 c0 -11 3 -14 6 -6 3 7 2 16 -1 19 -3 4 -6 -2 -5 -13z"/>
 <path d="M1100 434 c0 -8 5 -12 10 -9 6 3 10 10 10 16 0 5 -4 9 -10 9 -5 0 -10 -7 -10 -16z"/>
 <path d="M5452 420 c0 -14 2 -19 5 -12 2 6 2 18 0 25 -3 6 -5 1 -5 -13z"/>
 <path d="M734 280 c0 -85 2 -120 3 -77 2 42 2 112 0 155 -1 42 -3 7 -3 -78z"/>
 <path d="M875 420 c3 -5 8 -10 11 -10 2 0 4 5 4 10 0 6 -5 10 -11 10 -5 0 -7 -4 -4 -10z"/>
 <path d="M1640 426 c0 -2 8 -10 18 -17 15 -13 16 -12 3 4 -13 16 -21 21 -21 13z"/>
 <path d="M2654 419 c-3 -6 -2 -15 3 -20 5 -5 9 -1 9 11 0 23 -2 24 -12 9z"/>
 <path d="M4724 285 c0 -82 2 -115 3 -72 2 43 2 110 0 150 -1 40 -3 5 -3 -78z"/>
 <path d="M4844 340 c0 -52 1 -74 3 -47 2 26 2 68 0 95 -2 26 -3 4 -3 -48z"/>
 <path d="M5485 420 c3 -5 8 -10 11 -10 3 0 2 5 -1 10 -3 6 -8 10 -11 10 -3 0 -2 -4 1 -10z"/>
 <path d="M5732 410 c0 -14 2 -19 5 -12 2 6 2 18 0 25 -3 6 -5 1 -5 -13z"/>
 <path d="M105 410 c3 -5 8 -10 11 -10 3 0 2 5 -1 10 -3 6 -8 10 -11 10 -3 0 -2 -4 1 -10z"/>
 <path d="M1321 404 c0 -11 3 -14 6 -6 3 7 2 16 -1 19 -3 4 -6 -2 -5 -13z"/>
 <path d="M2368 413 c6 -2 18 -2 25 0 6 3 1 5 -13 5 -14 0 -19 -2 -12 -5z"/>
 <path d="M2768 413 c7 -3 16 -2 19 1 4 3 -2 6 -13 5 -11 0 -14 -3 -6 -6z"/>
 <path d="M2853 413 c4 -3 10 -3 14 0 3 4 0 7 -7 7 -7 0 -10 -3 -7 -7z"/>
 <path d="M4143 413 c42 -2 112 -2 155 0 42 1 7 3 -78 3 -85 0 -120 -2 -77 -3z"/>
 <path d="M2998 403 c7 -3 16 -2 19 1 4 3 -2 6 -13 5 -11 0 -14 -3 -6 -6z"/>
 <path d="M3198 403 c7 -3 16 -2 19 1 4 3 -2 6 -13 5 -11 0 -14 -3 -6 -6z"/>
 <path d="M3328 403 c7 -3 16 -2 19 1 4 3 -2 6 -13 5 -11 0 -14 -3 -6 -6z"/>
 <path d="M3528 403 c7 -3 16 -2 19 1 4 3 -2 6 -13 5 -11 0 -14 -3 -6 -6z"/>
 <path d="M4814 300 c0 -63 1 -89 3 -57 2 31 2 83 0 115 -2 31 -3 5 -3 -58z"/>
 <path d="M135 390 c3 -5 8 -10 11 -10 3 0 2 5 -1 10 -3 6 -8 10 -11 10 -3 0 -2 -4 1 -10z"/>
 <path d="M2333 350 c0 -30 2 -43 4 -27 2 15 2 39 0 55 -2 15 -4 2 -4 -28z"/>
 <path d="M2413 368 c1 -26 7 -33 25 -34 17 -1 18 -1 3 3 -12 3 -22 15 -25 34 -6 28 -6 27 -3 -3z"/>
 <path d="M4930 390 c0 -7 3 -10 7 -7 3 4 3 10 0 14 -4 3 -7 0 -7 -7z"/>
 <path d="M5505 390 c3 -5 8 -10 11 -10 3 0 2 5 -1 10 -3 6 -8 10 -11 10 -3 0 -2 -4 1 -10z"/>
 <path d="M290 386 c0 -2 8 -10 18 -17 15 -13 16 -12 3 4 -13 16 -21 21 -21 13z"/>
 <path d="M1695 380 c3 -5 8 -10 11 -10 3 0 2 5 -1 10 -3 6 -8 10 -11 10 -3 0 -2 -4 1 -10z"/>
 <path d="M4599 373 c-13 -16 -12 -17 4 -4 16 13 21 21 13 21 -2 0 -10 -8 -17 -17z"/>
 <path d="M5710 380 c0 -7 3 -10 7 -7 3 4 3 10 0 14 -4 3 -7 0 -7 -7z"/>
 <path d="M470 369 c0 -5 5 -7 10 -4 6 3 10 8 10 11 0 2 -4 4 -10 4 -5 0 -10 -5 -10 -11z"/>
 <path d="M5203 373 c4 -3 10 -3 14 0 3 4 0 7 -7 7 -7 0 -10 -3 -7 -7z"/>
 <path d="M1308 348 c-10 -10 -14 -18 -9 -18 10 0 36 29 30 34 -2 1 -12 -6 -21 -16z"/>
 <path d="M2230 360 c0 -7 3 -10 7 -7 3 4 3 10 0 14 -4 3 -7 0 -7 -7z"/>
 <path d="M2914 235 c0 -77 2 -107 3 -67 2 40 2 103 0 140 -2 37 -3 4 -3 -73z"/>
 <path d="M3661 354 c0 -11 3 -14 6 -6 3 7 2 16 -1 19 -3 4 -6 -2 -5 -13z"/>
 <path d="M5390 336 c0 -19 3 -37 8 -40 4 -2 6 13 4 35 -5 48 -12 51 -12 5z"/>
 <path d="M6071 354 c0 -11 3 -14 6 -6 3 7 2 16 -1 19 -3 4 -6 -2 -5 -13z"/>
 <path d="M180 356 c0 -2 8 -10 18 -17 15 -13 16 -12 3 4 -13 16 -21 21 -21 13z"/>
 <path d="M515 350 c3 -5 8 -10 11 -10 3 0 2 5 -1 10 -3 6 -8 10 -11 10 -3 0 -2 -4 1 -10z"/>
 <path d="M3461 343 c7 -12 15 -20 18 -17 3 2 -3 12 -13 22 -17 16 -18 16 -5 -5z"/>
 <path d="M4525 350 c3 -5 8 -10 11 -10 3 0 2 5 -1 10 -3 6 -8 10 -11 10 -3 0 -2 -4 1 -10z"/>
 <path d="M4564 348 c-4 -7 -3 -8 4 -4 7 4 12 9 12 12 0 8 -9 4 -16 -8z"/>
 <path d="M850 340 l-35 -7 32 -2 c17 0 35 4 38 9 3 6 5 9 3 9 -2 -1 -19 -5 -38 -9z"/>
 <path d="M2548 338 c5 -5 16 -8 23 -6 8 3 3 7 -10 11 -17 4 -21 3 -13 -5z"/>
 <path d="M3760 340 c0 -7 3 -10 7 -7 3 4 3 10 0 14 -4 3 -7 0 -7 -7z"/>
 <path d="M5970 340 c0 -7 3 -10 7 -7 3 4 3 10 0 14 -4 3 -7 0 -7 -7z"/>
 <path d="M4003 333 c4 -3 10 -3 14 0 3 4 0 7 -7 7 -7 0 -10 -3 -7 -7z"/>
 <path d="M5260 330 c0 -7 3 -10 7 -7 3 4 3 10 0 14 -4 3 -7 0 -7 -7z"/>
 <path d="M5831 324 c0 -11 3 -14 6 -6 3 7 2 16 -1 19 -3 4 -6 -2 -5 -13z"/>
 <path d="M450 320 c0 -7 3 -10 7 -7 3 4 3 10 0 14 -4 3 -7 0 -7 -7z"/>
 <path d="M1885 320 c3 -5 8 -10 11 -10 3 0 2 5 -1 10 -3 6 -8 10 -11 10 -3 0 -2 -4 1 -10z"/>
 <path d="M1942 310 c0 -14 2 -19 5 -12 2 6 2 18 0 25 -3 6 -5 1 -5 -13z"/>
 <path d="M4163 323 c4 -3 10 -3 14 0 3 4 0 7 -7 7 -7 0 -10 -3 -7 -7z"/>
 <path d="M5422 310 c0 -14 2 -19 5 -12 2 6 2 18 0 25 -3 6 -5 1 -5 -13z"/>
 <path d="M5515 320 c3 -5 8 -10 11 -10 3 0 2 5 -1 10 -3 6 -8 10 -11 10 -3 0 -2 -4 1 -10z"/>
 <path d="M5540 320 c0 -7 3 -10 7 -7 3 4 3 10 0 14 -4 3 -7 0 -7 -7z"/>
 <path d="M2738 313 c7 -3 16 -2 19 1 4 3 -2 6 -13 5 -11 0 -14 -3 -6 -6z"/>
 <path d="M3064 220 c0 -58 1 -81 3 -52 2 28 2 76 0 105 -2 28 -3 5 -3 -53z"/>
 <path d="M4935 310 c-3 -5 -3 -14 0 -20 7 -12 131 -14 138 -2 3 4 -26 6 -64 4 -43 -2 -69 0 -69 7 0 6 31 12 73 14 l72 3 -72 2 c-39 1 -75 -2 -78 -8z"/>
 <path d="M1770 306 c0 -2 8 -10 18 -17 15 -13 16 -12 3 4 -13 16 -21 21 -21 13z"/>
 <path d="M4344 298 c-4 -7 -3 -8 4 -4 7 4 12 9 12 12 0 8 -9 4 -16 -8z"/>
 <path d="M5735 297 c-4 -10 -5 -21 -1 -24 10 -10 18 4 13 24 -4 17 -4 17 -12 0z"/>
 <path d="M440 290 c0 -7 3 -10 7 -7 3 4 3 10 0 14 -4 3 -7 0 -7 -7z"/>
 <path d="M1905 290 c3 -5 8 -10 11 -10 3 0 2 5 -1 10 -3 6 -8 10 -11 10 -3 0 -2 -4 1 -10z"/>
 <path d="M2702 208 c-1 -53 1 -99 6 -101 4 -3 6 27 4 66 -4 122 -9 136 -10 35z"/>
 <path d="M5190 290 c0 -7 3 -10 7 -7 3 4 3 10 0 14 -4 3 -7 0 -7 -7z"/>
 <path d="M5550 290 c0 -7 3 -10 7 -7 3 4 3 10 0 14 -4 3 -7 0 -7 -7z"/>
 <path d="M5630 290 c0 -7 3 -10 7 -7 3 4 3 10 0 14 -4 3 -7 0 -7 -7z"/>
 <path d="M245 280 c3 -5 8 -10 11 -10 3 0 2 5 -1 10 -3 6 -8 10 -11 10 -3 0 -2 -4 1 -10z"/>
 <path d="M593 283 c4 -3 10 -3 14 0 3 4 0 7 -7 7 -7 0 -10 -3 -7 -7z"/>
 <path d="M623 283 c4 -3 10 -3 14 0 3 4 0 7 -7 7 -7 0 -10 -3 -7 -7z"/>
 <path d="M2035 281 c-6 -5 -23 -11 -40 -14 l-30 -4 31 -2 c18 0 37 6 44 14 14 16 10 21 -5 6z"/>
 <path d="M2643 283 c4 -3 10 -3 14 0 3 4 0 7 -7 7 -7 0 -10 -3 -7 -7z"/>
 <path d="M5650 280 c0 -7 3 -10 7 -7 3 4 3 10 0 14 -4 3 -7 0 -7 -7z"/>
 <path d="M3167 273 c-4 -3 -7 -11 -7 -17 0 -6 4 -5 9 2 6 10 33 13 109 10 55 -2 98 0 95 5 -5 9 -197 10 -206 0z"/>
 <path d="M4093 265 c0 -8 4 -12 9 -9 5 3 6 10 3 15 -9 13 -12 11 -12 -6z"/>
 <path d="M430 260 c0 -7 3 -10 7 -7 3 4 3 10 0 14 -4 3 -7 0 -7 -7z"/>
 <path d="M1929 258 c12 -16 32 -18 185 -16 l171 2 -169 3 c-114 3 -175 7 -185 16 -14 11 -14 10 -2 -5z"/>
 <path d="M3680 260 c0 -7 3 -10 7 -7 3 4 3 10 0 14 -4 3 -7 0 -7 -7z"/>
 <path d="M6050 260 c0 -7 3 -10 7 -7 3 4 3 10 0 14 -4 3 -7 0 -7 -7z"/>
 <path d="M1740 253 c-83 -4 -101 -13 -99 -52 1 -25 2 -25 8 4 l6 30 83 3 c45 2 82 7 82 12 0 6 -1 9 -2 8 -2 -1 -37 -4 -78 -5z"/>
 <path d="M2303 243 c-3 -10 -8 -21 -9 -24 -2 -4 2 -9 9 -12 8 -3 12 5 12 24 0 33 -3 36 -12 12z"/>
 <path d="M4133 253 c4 -3 10 -3 14 0 3 4 0 7 -7 7 -7 0 -10 -3 -7 -7z"/>
 <path d="M54 238 c-4 -7 -3 -8 4 -4 12 7 16 16 8 16 -3 0 -8 -5 -12 -12z"/>
 <path d="M4173 243 c4 -3 10 -3 14 0 3 4 0 7 -7 7 -7 0 -10 -3 -7 -7z"/>
 <path d="M4394 238 c-4 -7 -3 -8 4 -4 7 4 12 9 12 12 0 8 -9 4 -16 -8z"/>
 <path d="M5148 228 c-10 -10 -14 -18 -9 -18 10 0 36 29 30 34 -2 1 -12 -6 -21 -16z"/>
 <path d="M3963 233 c4 -3 10 -3 14 0 3 4 0 7 -7 7 -7 0 -10 -3 -7 -7z"/>
 <path d="M4138 233 c7 -3 16 -2 19 1 4 3 -2 6 -13 5 -11 0 -14 -3 -6 -6z"/>
 <path d="M692 205 c0 -16 2 -22 5 -12 2 9 2 23 0 30 -3 6 -5 -1 -5 -18z"/>
 <path d="M4175 220 c3 -5 8 -10 11 -10 3 0 2 5 -1 10 -3 6 -8 10 -11 10 -3 0 -2 -4 1 -10z"/>
 <path d="M4220 226 c0 -2 8 -10 18 -17 15 -13 16 -12 3 4 -13 16 -21 21 -21 13z"/>
 <path d="M4359 213 c-13 -16 -12 -17 4 -4 9 7 17 15 17 17 0 8 -8 3 -21 -13z"/>
 <path d="M4634 218 c-4 -7 -3 -8 4 -4 7 4 12 9 12 12 0 8 -9 4 -16 -8z"/>
 <path d="M1230 210 c0 -7 3 -10 7 -7 3 4 3 10 0 14 -4 3 -7 0 -7 -7z"/>
 <path d="M5198 190 c-3 -17 -1 -33 4 -36 4 -3 8 11 8 30 0 44 -6 47 -12 6z"/>
 <path d="M1321 194 c0 -11 3 -14 6 -6 3 7 2 16 -1 19 -3 4 -6 -2 -5 -13z"/>
 <path d="M5394 196 c-3 -7 -4 -35 -2 -62 l3 -49 5 63 c5 63 4 73 -6 48z"/>
 <path d="M5819 193 c-13 -16 -12 -17 4 -4 16 13 21 21 13 21 -2 0 -10 -8 -17 -17z"/>
 <path d="M2389 188 c8 -11 25 -17 45 -17 l31 2 -30 4 c-16 3 -37 10 -45 16 -13 10 -13 10 -1 -5z"/>
 <path d="M3163 190 c3 -12 25 -16 102 -18 54 -1 102 1 106 5 5 4 -37 7 -93 5 -75 -3 -103 0 -110 10 -8 10 -9 10 -5 -2z"/>
 <path d="M827 178 c2 -5 15 -8 28 -8 13 0 26 3 28 8 3 4 -10 7 -28 7 -18 0 -31 -3 -28 -7z"/>
 <path d="M2549 177 c4 -5 32 -7 62 -5 l54 3 -62 5 c-34 3 -58 1 -54 -3z"/>
 <path d="M4702 170 c0 -14 2 -19 5 -12 2 6 2 18 0 25 -3 6 -5 1 -5 -13z"/>
 <path d="M4885 180 l-60 -7 57 -1 c31 -1 60 3 63 8 3 6 5 9 3 8 -2 -1 -30 -4 -63 -8z"/>
 <path d="M4569 163 c-13 -16 -12 -17 4 -4 9 7 17 15 17 17 0 8 -8 3 -21 -13z"/>
 <path d="M5077 173 c18 -2 50 -2 70 0 21 2 7 4 -32 4 -38 0 -55 -2 -38 -4z"/>
 <path d="M5581 158 c1 -17 3 -18 6 -6 4 15 20 18 111 21 l107 3 -112 2 c-111 2 -113 2 -112 -20z"/>
 <path d="M305 150 c3 -5 8 -10 11 -10 2 0 4 5 4 10 0 6 -5 10 -11 10 -5 0 -7 -4 -4 -10z"/>
 <path d="M420 149 c0 -5 5 -7 10 -4 6 3 10 8 10 11 0 2 -4 4 -10 4 -5 0 -10 -5 -10 -11z"/>
 <path d="M1713 153 c32 -2 81 -2 110 0 29 2 3 3 -58 3 -60 0 -84 -1 -52 -3z"/>
 <path d="M1990 143 c0 -13 3 -14 8 -6 5 9 50 13 142 16 l135 3 -142 2 c-130 2 -143 0 -143 -15z"/>
 <path d="M2335 140 c10 -11 20 -20 23 -20 3 0 -3 9 -13 20 -10 11 -20 20 -23 20 -3 0 3 -9 13 -20z"/>
 <path d="M3735 150 c3 -5 8 -10 11 -10 3 0 2 5 -1 10 -3 6 -8 10 -11 10 -3 0 -2 -4 1 -10z"/>
 <path d="M4071 144 c0 -11 3 -14 6 -6 3 7 2 16 -1 19 -3 4 -6 -2 -5 -13z"/>
 <path d="M5994 148 c-4 -7 -3 -8 4 -4 7 4 12 9 12 12 0 8 -9 4 -16 -8z"/>
 <path d="M4517 135 c-5 -12 -27 -15 -126 -15 -66 0 -122 -3 -124 -7 -3 -5 50 -7 118 -5 94 2 126 7 136 18 6 8 10 17 7 20 -3 3 -8 -2 -11 -11z"/>
 <path d="M2660 130 c0 -7 3 -10 7 -7 3 4 3 10 0 14 -4 3 -7 0 -7 -7z"/>
 <path d="M4145 130 c3 -5 8 -10 11 -10 3 0 2 5 -1 10 -3 6 -8 10 -11 10 -3 0 -2 -4 1 -10z"/>
 <path d="M3470 120 c0 -7 3 -10 7 -7 3 4 3 10 0 14 -4 3 -7 0 -7 -7z"/>
 <path d="M1015 110 c3 -5 8 -10 11 -10 3 0 2 5 -1 10 -3 6 -8 10 -11 10 -3 0 -2 -4 1 -10z"/>
 <path d="M2440 109 c0 -5 5 -7 10 -4 6 3 10 8 10 11 0 2 -4 4 -10 4 -5 0 -10 -5 -10 -11z"/>
 <path d="M2540 109 c0 -5 5 -7 10 -4 6 3 10 8 10 11 0 2 -4 4 -10 4 -5 0 -10 -5 -10 -11z"/>
 <path d="M4649 103 c-13 -16 -12 -17 4 -4 16 13 21 21 13 21 -2 0 -10 -8 -17 -17z"/>
 <path d="M4735 110 c3 -5 8 -10 11 -10 3 0 2 5 -1 10 -3 6 -8 10 -11 10 -3 0 -2 -4 1 -10z"/>
 <path d="M5490 110 c0 -7 3 -10 7 -7 3 4 3 10 0 14 -4 3 -7 0 -7 -7z"/>
 <path d="M2365 100 c3 -5 8 -10 11 -10 3 0 2 5 -1 10 -3 6 -8 10 -11 10 -3 0 -2 -4 1 -10z"/>
 <path d="M3075 100 c3 -5 8 -10 11 -10 3 0 2 5 -1 10 -3 6 -8 10 -11 10 -3 0 -2 -4 1 -10z"/>
 <path d="M4175 100 c3 -5 8 -10 11 -10 3 0 2 5 -1 10 -3 6 -8 10 -11 10 -3 0 -2 -4 1 -10z"/>
 <path d="M5300 101 c0 -10 29 -36 34 -30 1 2 -6 12 -16 22 -10 9 -18 13 -18 8z"/>
 <path d="M813 93 c26 -2 67 -2 90 0 23 2 2 3 -48 3 -49 0 -68 -1 -42 -3z"/>
 <path d="M1103 93 c37 -2 96 -2 130 0 34 2 4 3 -68 3 -71 0 -99 -1 -62 -3z"/>
 <path d="M1979 83 c-13 -16 -12 -17 4 -4 9 7 17 15 17 17 0 8 -8 3 -21 -13z"/>
 <path d="M4873 93 c59 -2 155 -2 215 0 59 1 10 3 -108 3 -118 0 -167 -2 -107 -3z"/>
 <path d="M1905 80 c3 -5 8 -10 11 -10 3 0 2 5 -1 10 -3 6 -8 10 -11 10 -3 0 -2 -4 1 -10z"/>
 <path d="M2465 80 c3 -5 8 -10 11 -10 3 0 2 5 -1 10 -3 6 -8 10 -11 10 -3 0 -2 -4 1 -10z"/>
 <path d="M2398 73 c7 -3 16 -2 19 1 4 3 -2 6 -13 5 -11 0 -14 -3 -6 -6z"/>
 <path d="M3843 73 c4 -3 10 -3 14 0 3 4 0 7 -7 7 -7 0 -10 -3 -7 -7z"/>
 <path d="M5363 73 c4 -3 10 -3 14 0 3 4 0 7 -7 7 -7 0 -10 -3 -7 -7z"/>
 <path d="M5528 73 c7 -3 16 -2 19 1 4 3 -2 6 -13 5 -11 0 -14 -3 -6 -6z"/>
 </g>
<g id="layer2" fill="#5b3714" stroke="none">
 <path d="M1937 732 c-14 -15 -17 -42 -17 -155 0 -130 -1 -137 -20 -137 -19 0 -20 7 -20 103 0 130 -10 147 -80 147 -63 0 -80 -22 -80 -102 0 -57 -1 -58 -28 -58 -67 0 -99 -99 -46 -143 67 -56 114 -100 114 -108 0 -5 -27 -9 -60 -9 -67 0 -80 -12 -80 -73 0 -57 21 -67 137 -67 99 0 101 0 107 -25 9 -37 42 -65 75 -65 38 0 81 35 81 66 l0 24 129 0 c71 0 135 2 143 5 7 2 28 -15 47 -41 31 -40 38 -45 75 -45 23 1 59 -2 82 -5 36 -5 44 -2 61 19 15 20 30 26 69 28 27 1 60 -3 73 -10 14 -8 42 -11 67 -8 30 3 47 0 55 -9 15 -19 69 -18 97 2 21 15 22 21 22 173 0 109 -4 161 -12 169 -9 9 -9 12 3 12 8 0 20 -9 27 -20 10 -16 23 -20 64 -20 49 0 50 -1 35 -18 -23 -25 -25 -248 -3 -278 13 -17 30 -19 203 -22 252 -3 237 -13 241 152 2 109 0 132 -14 147 -16 18 -15 19 34 19 76 0 82 14 82 176 0 173 3 169 -165 169 -107 0 -126 -2 -144 -19 -21 -19 -21 -19 -42 0 -17 16 -40 20 -125 22 -57 2 -117 -1 -133 -6 -24 -9 -32 -7 -47 9 -30 34 -103 22 -194 -31 l-45 -26 -33 22 c-34 24 -101 42 -190 51 -60 7 -92 -12 -92 -54 0 -21 -5 -23 -43 -23 -30 0 -49 -6 -60 -18 -22 -24 -22 -70 0 -94 13 -14 14 -21 5 -30 -17 -17 -15 -83 3 -98 22 -18 21 -145 -1 -154 -9 -3 -63 -6 -120 -6 -82 0 -104 3 -104 14 0 10 20 15 78 17 114 6 112 2 112 185 0 192 -1 194 -115 194 -66 0 -75 2 -75 18 0 48 -98 73 -133 34z m87 -12 l26 -10 0 -150 0 -151 43 3 42 3 0 75 c0 67 -2 75 -18 72 -26 -5 -47 16 -47 47 0 39 18 51 77 51 86 0 93 -12 93 -173 0 -90 -4 -137 -12 -145 -7 -7 -44 -12 -95 -12 -80 0 -83 -1 -83 -23 0 -31 -18 -47 -51 -47 -32 0 -59 23 -59 51 0 14 -7 19 -26 19 -27 0 -26 -2 8 -53 l19 -27 170 0 c149 0 170 -2 176 -17 5 -14 8 -13 14 5 8 20 16 22 84 22 43 0 75 4 75 10 0 6 -24 10 -53 10 -29 0 -58 5 -65 12 -7 7 -12 34 -12 60 0 42 3 50 26 60 34 16 58 0 62 -41 2 -23 8 -31 22 -31 14 0 20 9 22 38 3 35 5 37 40 40 36 3 37 2 40 -35 2 -31 7 -39 26 -41 12 -2 22 1 22 7 0 6 -7 11 -15 11 -16 0 -21 35 -5 45 5 3 7 12 3 20 -4 12 -30 15 -134 15 l-129 0 -6 26 c-4 14 -3 29 2 34 5 5 45 10 89 12 l80 3 -45 17 c-25 10 -64 22 -88 28 -42 11 -43 12 -40 48 3 35 5 37 38 36 19 -1 51 -5 70 -9 34 -8 35 -8 18 12 -23 25 -23 46 0 66 17 16 25 16 104 1 89 -16 148 -44 148 -68 0 -7 -8 -24 -18 -36 -14 -17 -22 -20 -42 -12 -14 5 -37 12 -52 16 -24 6 -28 3 -28 -16 0 -14 13 -34 34 -50 l34 -27 40 52 c46 59 85 91 152 123 71 34 103 38 124 15 29 -32 17 -61 -32 -80 l-43 -17 27 -23 c21 -18 25 -29 20 -51 -4 -24 -2 -29 17 -32 17 -2 22 -10 22 -33 l0 -30 -132 -3 c-96 -2 -133 -6 -134 -15 -1 -7 -2 -41 -2 -77 l-2 -65 -65 -5 c-75 -7 -62 -18 25 -22 57 -3 60 -4 60 -28 0 -24 -3 -25 -75 -30 -80 -6 -77 -18 5 -22 46 -3 50 -5 53 -30 3 -28 2 -28 -52 -28 -48 0 -58 -3 -72 -25 -21 -32 -71 -35 -82 -4 l-8 20 -18 -20 c-11 -12 -25 -21 -31 -21 -22 0 -88 89 -82 110 3 11 4 20 2 20 -2 0 -10 3 -19 6 -11 4 -16 0 -16 -13 0 -38 -19 -43 -157 -43 l-133 0 0 -28 c0 -37 -17 -52 -58 -52 -30 0 -35 4 -49 40 l-16 39 -111 3 -111 3 -9 28 c-17 49 0 62 88 65 42 2 76 5 76 8 0 14 -86 105 -125 133 -49 35 -57 61 -28 93 18 20 45 23 74 8 18 -10 19 -7 19 73 0 51 5 88 12 95 16 16 63 15 76 -1 6 -7 13 -64 14 -128 l3 -114 40 0 40 0 3 140 c2 128 4 141 23 158 25 20 29 20 63 7z m1216 -39 c5 -11 10 -68 10 -128 0 -153 0 -153 -144 -153 -92 0 -116 3 -127 16 -18 22 -24 187 -10 242 l12 42 124 0 c113 0 125 -2 135 -19z m321 2 c10 -11 14 -49 14 -133 0 -84 -4 -122 -14 -133 -11 -14 -34 -17 -127 -17 -144 0 -144 0 -144 153 0 60 5 117 10 128 10 17 22 19 129 19 98 0 121 -3 132 -17z m-622 -105 c-1 -24 -4 -34 -6 -23 -3 11 -12 27 -20 37 -13 14 -12 17 4 21 10 3 19 5 21 6 1 0 1 -18 1 -41z m-334 -8 c3 -5 4 -10 1 -10 -3 0 -8 5 -11 10 -3 6 -4 10 -1 10 3 0 8 -4 11 -10z m-495 -80 c0 -43 -3 -50 -20 -50 -17 0 -20 7 -20 50 0 43 3 50 20 50 17 0 20 -7 20 -50z m604 -110 c-2 -49 -14 -67 -14 -22 0 16 -3 37 -6 46 -4 10 -1 16 8 16 10 0 14 -11 12 -40z m181 15 c24 -23 25 -29 25 -158 0 -143 -4 -157 -50 -157 -45 0 -50 15 -50 141 l0 118 -37 3 c-31 2 -39 7 -41 26 -6 38 15 52 75 52 44 0 58 -5 78 -25z m395 0 c11 -13 8 -15 -20 -15 -28 0 -31 2 -20 15 7 8 16 15 20 15 4 0 13 -7 20 -15z m178 -47 c17 -17 17 -229 0 -246 -8 -8 -67 -12 -200 -12 -180 0 -188 1 -199 21 -17 32 -8 227 11 239 23 15 373 13 388 -2z m-695 -41 c15 -10 17 -27 15 -107 l-3 -95 -40 0 -40 0 -3 95 c-2 80 0 97 15 107 9 7 22 13 28 13 6 0 19 -6 28 -13z"/>
 <path d="M2747 542 c-26 -28 -21 -32 35 -32 l52 0 -34 25 c-19 14 -35 25 -35 25 -1 0 -9 -8 -18 -18z"/>
 <path d="M2395 190 c3 -5 19 -10 36 -10 16 0 29 5 29 10 0 6 -16 10 -36 10 -21 0 -33 -4 -29 -10z"/>
 <path d="M3064 597 c-3 -8 -4 -34 -2 -58 l3 -44 40 0 40 0 0 55 0 55 -38 3 c-25 2 -39 -1 -43 -11z m56 -42 c0 -24 -5 -35 -15 -35 -10 0 -15 11 -15 35 0 24 5 35 15 35 10 0 15 -11 15 -35z"/>
 <path d="M3390 550 l0 -61 43 3 42 3 0 55 0 55 -42 3 -43 3 0 -61z m60 5 c0 -28 -4 -35 -20 -35 -16 0 -20 7 -20 35 0 28 4 35 20 35 16 0 20 -7 20 -35z"/>
 <path d="M3164 246 c-3 -13 -3 -34 1 -46 6 -19 12 -21 108 -18 l102 3 0 40 0 40 -102 3 c-102 3 -103 2 -109 -22z m186 -21 c0 -25 -1 -25 -80 -25 -79 0 -80 0 -80 25 0 25 1 25 80 25 79 0 80 0 80 -25z"/>
 <path d="M3756 706 c-24 -23 -59 -74 -77 -112 -33 -67 -34 -72 -34 -194 0 -120 1 -128 32 -192 17 -37 50 -87 73 -112 36 -39 48 -46 80 -46 24 0 43 7 54 19 17 18 18 18 41 -5 13 -13 33 -24 45 -24 30 0 95 35 118 65 l20 25 45 -45 c52 -51 73 -55 114 -21 27 23 38 25 150 27 111 2 123 1 148 -19 36 -29 54 -28 101 6 37 27 40 27 57 10 15 -16 39 -18 245 -18 126 0 232 4 237 9 6 5 24 11 40 13 22 2 33 -2 40 -17 8 -15 23 -21 59 -23 63 -4 76 8 76 74 0 41 4 54 15 54 12 0 35 -55 35 -86 0 -21 37 -44 72 -44 45 0 83 37 76 74 l-5 26 102 0 c103 0 103 0 129 31 14 17 26 38 26 47 0 40 -30 370 -36 397 -6 28 -4 26 33 -20 60 -75 76 -112 81 -191 4 -61 1 -80 -20 -125 -14 -30 -41 -74 -61 -97 -23 -27 -37 -54 -37 -71 0 -38 38 -71 82 -71 29 0 43 8 78 46 23 25 56 75 73 112 31 64 32 72 32 192 0 122 -1 127 -34 194 -44 91 -108 156 -154 156 -37 0 -77 -33 -77 -66 -1 -15 -3 -14 -15 8 -32 58 -193 65 -221 10 -10 -20 -13 -21 -24 -7 -16 19 -69 19 -98 -1 -30 -21 -30 -79 0 -111 20 -21 20 -23 3 -23 -10 0 -27 -7 -37 -17 -17 -15 -18 -12 -18 80 0 88 -2 97 -22 111 -29 20 -67 20 -96 0 -19 -13 -22 -24 -22 -93 l0 -77 -36 4 c-28 3 -34 8 -29 21 20 50 17 78 -10 99 -37 29 -71 28 -100 -4 -20 -21 -25 -23 -25 -10 0 9 -11 28 -25 41 -20 21 -34 25 -85 25 -45 0 -65 -5 -78 -18 -11 -11 -37 -21 -59 -24 -32 -5 -42 -2 -51 13 -15 24 -84 26 -102 4 -11 -14 -15 -13 -28 6 -13 19 -22 21 -68 16 -33 -3 -56 -1 -60 5 -9 13 -121 3 -205 -20 -58 -15 -65 -20 -74 -50 -7 -24 -15 -32 -32 -32 -18 0 -23 6 -23 24 0 13 -6 29 -14 36 -38 31 -229 60 -266 40 -16 -9 -25 -9 -33 -1 -6 6 -26 11 -44 11 -26 0 -43 -10 -77 -44z m102 8 c31 -22 27 -50 -13 -100 -57 -69 -79 -128 -79 -214 -1 -85 26 -158 83 -222 33 -38 37 -57 21 -89 -16 -29 -45 -23 -91 18 -78 71 -128 214 -116 333 10 88 53 186 107 242 51 53 56 55 88 32z m2112 -32 c54 -56 97 -154 107 -242 12 -119 -38 -262 -116 -333 -45 -41 -62 -45 -85 -21 -24 24 -19 53 15 92 57 64 84 137 83 222 0 86 -22 145 -79 214 -40 50 -44 78 -13 100 32 23 37 21 88 -32z m-1908 27 c82 -18 108 -34 108 -70 0 -30 1 -30 48 -27 45 3 47 4 52 38 5 32 9 36 55 48 28 7 82 16 122 19 71 6 72 5 78 -20 13 -49 4 -62 -48 -65 -47 -3 -61 -14 -32 -26 12 -4 15 -28 15 -126 l0 -120 35 0 c23 0 38 -6 41 -15 5 -12 15 -8 49 20 50 40 77 44 99 13 23 -32 20 -41 -21 -82 -49 -47 -77 -55 -106 -28 -22 20 -23 20 -80 2 -57 -18 -127 -62 -127 -81 0 -5 15 -9 34 -9 29 0 33 3 29 20 -6 24 13 50 37 50 22 0 68 -52 76 -86 12 -46 -8 -54 -136 -54 -104 0 -119 -2 -135 -20 -27 -30 -44 -25 -102 32 -57 56 -62 71 -36 100 22 25 37 23 76 -12 35 -30 57 -38 57 -21 0 16 -49 49 -83 57 -70 15 -77 20 -67 54 l9 30 -53 0 c-28 0 -57 5 -64 12 -8 8 -12 53 -12 136 0 115 1 124 20 129 31 8 13 23 -29 23 -20 0 -42 5 -49 12 -13 13 -16 60 -5 71 10 11 86 8 145 -4z m566 -1 c14 -18 62 -174 62 -202 0 -31 -22 -48 -57 -44 -26 3 -30 10 -60 98 -18 52 -32 101 -33 109 -1 39 64 67 88 39z m400 -4 c20 -14 22 -23 22 -113 0 -109 6 -121 60 -121 55 0 60 -11 60 -130 0 -69 -4 -110 -12 -118 -7 -7 -36 -12 -65 -12 -40 0 -53 -4 -53 -15 0 -12 14 -15 64 -15 35 0 71 -3 80 -6 13 -5 16 2 16 42 -1 27 -5 68 -9 91 -10 52 4 77 39 71 19 -2 27 -12 35 -42 19 -68 36 -57 33 19 l-3 67 -52 20 c-47 17 -53 23 -53 47 0 40 22 55 70 48 l40 -5 0 82 c0 89 8 106 50 106 44 0 50 -16 50 -129 l0 -105 32 -27 c29 -24 32 -29 23 -55 -7 -18 -19 -30 -33 -32 -18 -3 -22 -10 -22 -37 0 -39 17 -57 22 -23 4 28 51 47 76 32 9 -6 23 -25 31 -42 23 -52 33 -37 12 19 -11 28 -38 75 -61 105 -46 59 -49 97 -9 109 43 14 105 -69 150 -199 34 -95 40 -63 8 40 -29 95 -50 133 -109 197 -54 60 -58 71 -33 99 26 28 47 22 96 -31 58 -62 104 -153 133 -261 26 -97 29 -80 13 75 -14 142 -20 155 -62 155 -40 0 -57 15 -57 50 0 40 18 50 86 50 107 0 114 -16 135 -326 l13 -177 -23 -18 c-19 -16 -41 -19 -127 -19 l-104 0 0 -39 c0 -34 -4 -40 -30 -51 -26 -11 -33 -10 -50 5 -11 10 -20 26 -20 36 0 9 -10 43 -22 74 -18 47 -23 54 -29 38 -4 -11 -14 -23 -23 -26 -12 -5 -16 -20 -16 -60 0 -59 -12 -77 -50 -77 -39 0 -50 18 -50 84 0 64 -16 68 -22 6 -2 -28 -8 -36 -26 -38 -13 -2 -29 2 -37 8 -11 9 -14 6 -17 -12 l-3 -23 -222 0 c-169 0 -225 3 -235 13 -9 9 -15 71 -19 225 -5 181 -9 220 -27 270 -24 65 -22 78 14 98 36 19 55 3 76 -60 20 -58 38 -231 38 -368 l0 -93 60 0 c47 0 60 3 60 15 0 10 -10 15 -34 15 -52 0 -66 27 -66 127 0 45 4 93 10 107 8 23 15 26 60 26 l50 0 0 81 c0 71 -2 80 -17 77 -10 -1 -24 1 -30 5 -19 12 -16 64 5 76 26 16 85 13 110 -5z m-131 -69 c45 -79 39 -135 -13 -135 -26 0 -31 6 -61 80 -28 66 -28 76 -5 89 30 19 56 7 79 -34z m296 23 c8 -12 4 -34 -17 -87 -25 -64 -30 -71 -56 -71 -49 0 -56 22 -30 93 12 34 27 68 33 75 14 17 57 11 70 -10z m-1258 -48 c19 0 20 -5 17 -125 -3 -124 -3 -125 -27 -125 -48 0 -74 -80 -37 -113 10 -9 33 -22 50 -28 18 -6 32 -14 32 -17 -1 -4 -15 -16 -33 -27 l-32 -21 -34 41 c-19 22 -45 64 -59 94 -21 45 -24 64 -20 125 5 75 21 116 71 179 21 27 33 35 40 28 6 -6 20 -11 32 -11z m621 -80 c13 -41 32 -82 43 -91 20 -17 20 -17 -12 -41 -27 -20 -37 -22 -64 -14 l-32 10 -3 108 -3 109 24 -3 c21 -3 28 -14 47 -78z m1131 45 c9 -24 -1 -27 -15 -5 -8 13 -8 20 -2 20 6 0 13 -7 17 -15z m-989 -155 c-2 -6 -8 -6 -18 0 -13 9 -13 11 0 20 15 10 25 0 18 -20z m533 -5 l34 -14 -37 -1 c-27 0 -38 4 -38 15 0 18 0 18 41 0z m-1216 -105 c75 -36 86 -47 74 -78 -14 -36 -35 -36 -114 -2 -66 29 -75 36 -75 59 0 30 16 51 38 51 8 0 42 -13 77 -30z m685 -44 c0 -19 -4 -23 -20 -19 -20 5 -20 7 -4 24 22 24 24 24 24 -5z m-128 -63 c-22 -18 -25 -17 -44 16 -22 39 -14 44 27 18 30 -20 32 -23 17 -34z m121 -1 c27 -23 21 -46 -23 -86 -43 -39 -70 -45 -94 -20 -27 26 -19 56 26 95 43 37 58 39 91 11z m-627 -33 c22 -24 13 -43 -36 -76 -54 -37 -100 -26 -100 23 0 16 13 30 43 48 51 31 68 32 93 5z"/>
 <path d="M4075 540 c-3 -5 0 -12 7 -15 25 -10 283 0 283 10 0 14 -281 19 -290 5z"/>
 <path d="M4073 468 c3 -10 41 -13 147 -13 106 0 144 3 148 13 3 9 -31 12 -148 12 -117 0 -151 -3 -147 -12z"/>
 <path d="M4075 400 c4 -6 63 -10 145 -10 82 0 141 4 145 10 4 6 -47 10 -145 10 -98 0 -149 -4 -145 -10z"/>
 <path d="M4220 313 c19 -8 47 -23 61 -34 25 -17 28 -18 40 -2 8 9 28 24 44 35 l30 18 -105 -1 c-103 -1 -104 -1 -70 -16z m87 -10 c-4 -3 -10 -3 -14 0 -3 4 0 7 7 7 7 0 10 -3 7 -7z"/>
 <path d="M4936 385 c-4 -13 7 -15 69 -15 60 0 75 3 75 15 0 12 -14 15 -69 15 -52 0 -70 -4 -75 -15z"/>
 <path d="M4940 300 c0 -6 28 -10 64 -10 36 0 68 5 71 10 4 6 -20 10 -64 10 -41 0 -71 -4 -71 -10z"/>
 <path d="M108 723 c-27 -30 -23 -87 7 -111 14 -11 25 -28 25 -39 0 -16 -6 -18 -39 -15 -32 3 -45 -1 -65 -22 -49 -48 -28 -98 64 -154 19 -11 55 -41 80 -66 l44 -46 -92 0 c-80 0 -93 -2 -102 -19 -15 -28 -12 -73 6 -99 14 -21 22 -22 135 -22 l119 0 0 -24 c0 -31 43 -66 80 -66 37 0 80 35 80 66 l0 24 118 0 c78 0 122 4 130 12 9 9 12 6 12 -13 0 -49 25 -59 146 -59 66 0 114 4 121 11 8 8 17 8 31 0 12 -7 80 -11 166 -11 144 0 145 0 165 27 18 22 20 35 15 92 -3 36 -10 79 -15 95 -6 20 -5 33 2 43 18 20 5 141 -20 197 l-21 50 35 36 c40 41 44 66 14 104 -25 32 -75 35 -110 7 -24 -18 -25 -18 -47 -1 -29 24 -173 28 -192 5 -11 -13 -15 -13 -33 0 -29 20 -130 20 -147 0 -11 -14 -15 -14 -29 -1 -11 10 -39 14 -94 14 -69 -1 -83 -5 -122 -30 -24 -16 -60 -47 -79 -68 -20 -22 -36 -34 -36 -27 0 42 -162 116 -270 124 -55 5 -68 2 -82 -14z m159 -28 c159 -52 201 -88 157 -136 -22 -24 -45 -24 -96 1 -23 11 -45 20 -50 20 -12 0 -10 -168 3 -175 6 -4 23 -24 38 -45 l28 -38 32 79 c43 105 99 187 174 254 61 54 106 71 122 45 4 -7 14 -5 28 5 50 35 80 8 97 -85 17 -97 24 -114 43 -118 29 -6 47 17 47 58 0 52 -8 69 -30 63 -23 -6 -44 30 -36 63 6 22 11 24 65 24 42 0 62 -5 72 -17 11 -13 14 -73 14 -295 0 -330 8 -308 -120 -308 -125 0 -119 -13 -126 252 -4 161 -9 232 -20 256 l-14 33 -78 -71 c-42 -40 -77 -77 -76 -83 0 -7 27 -34 60 -60 70 -56 78 -71 58 -106 -24 -42 -53 -38 -114 14 -30 25 -59 44 -64 41 -9 -6 -41 -90 -41 -108 0 -4 53 -8 118 -8 124 0 142 -6 142 -45 0 -39 -18 -45 -140 -45 -126 0 -140 -5 -140 -52 0 -31 -31 -45 -75 -34 -19 5 -25 13 -25 35 0 16 -6 33 -13 39 -7 7 -66 13 -133 14 l-119 3 0 40 0 40 108 5 108 5 -50 56 c-27 31 -79 75 -115 99 -54 35 -66 47 -66 69 0 15 5 32 12 39 15 15 74 16 83 2 3 -5 13 -10 21 -10 10 0 14 12 14 43 0 46 -5 57 -35 73 -26 15 -30 39 -11 69 21 32 45 32 143 0z m827 10 c9 -9 17 -11 21 -5 11 18 48 11 75 -15 l26 -25 24 25 c33 36 87 35 96 -1 5 -21 -1 -33 -31 -64 -38 -39 -38 -39 -22 -72 22 -47 47 -137 47 -168 0 -44 -16 -50 -127 -50 l-104 0 3 -72 3 -73 54 -3 c67 -4 81 1 74 27 -4 16 -13 21 -40 21 -33 0 -34 1 -31 38 l3 37 59 3 c80 4 92 -9 102 -106 10 -106 2 -112 -158 -112 -66 0 -128 5 -139 10 -18 10 -19 24 -19 310 0 229 3 300 13 303 24 10 56 7 71 -8z m-234 -140 c0 -19 -4 -35 -10 -35 -5 0 -10 9 -10 19 0 11 -3 26 -6 35 -4 11 -1 16 10 16 12 0 16 -10 16 -35z m-166 -7 c4 -13 9 -84 13 -159 l6 -137 -27 5 c-25 5 -26 7 -11 23 8 9 15 33 15 52 0 32 -8 43 -57 87 l-58 50 50 51 c27 27 52 50 56 50 4 0 10 -10 13 -22z m-316 -91 c-10 -21 -23 -49 -28 -63 l-10 -25 -25 29 c-20 24 -25 41 -25 85 l0 54 54 -21 54 -21 -20 -38z m166 -176 l19 -21 -46 0 c-26 0 -47 2 -47 4 0 3 4 16 10 31 11 29 29 25 64 -14z m601 -71 c3 -5 1 -10 -4 -10 -6 0 -11 5 -11 10 0 6 2 10 4 10 3 0 8 -4 11 -10z"/>
 <path d="M827 423 c-4 -3 -7 -24 -7 -45 0 -38 1 -39 33 -36 27 2 33 8 35 31 2 16 -2 35 -9 43 -12 15 -41 19 -52 7z m30 -55 c-3 -7 -5 -2 -5 12 0 14 2 19 5 13 2 -7 2 -19 0 -25z"/>
 <path d="M822 223 c3 -35 6 -38 33 -38 27 0 30 3 33 38 3 37 3 37 -33 37 -36 0 -36 0 -33 -37z m35 -15 c-3 -7 -5 -2 -5 12 0 14 2 19 5 13 2 -7 2 -19 0 -25z"/>
 <path d="M1100 557 c0 -48 3 -87 8 -87 4 0 17 26 29 58 l22 57 -29 30 -30 30 0 -88z"/>
 <path d="M1196 458 c-10 -38 -7 -48 14 -48 11 0 20 6 20 13 0 23 -12 57 -20 57 -4 0 -10 -10 -14 -22z"/>
 <path d="M1414 476 c-48 -48 -48 -101 0 -154 30 -33 40 -37 81 -37 41 0 51 4 81 37 48 53 48 106 0 154 -29 29 -41 34 -81 34 -40 0 -52 -5 -81 -34z m135 -12 c63 -53 28 -154 -54 -154 -82 0 -117 101 -54 154 17 14 41 26 54 26 13 0 37 -12 54 -26z"/>
 </g>
<g id="layer3" fill="#fefefe" stroke="none">
 <path d="M3799 707 c-42 -37 -87 -101 -110 -158 -25 -64 -31 -215 -9 -270 31 -82 56 -125 96 -166 35 -37 46 -44 66 -38 48 15 50 53 6 103 -46 54 -88 152 -88 209 0 90 32 175 87 232 36 37 40 71 13 93 -28 22 -29 22 -61 -5z"/>
 <path d="M5882 714 c-30 -21 -28 -54 6 -90 60 -63 92 -144 92 -237 0 -57 -42 -155 -88 -209 -44 -50 -42 -88 6 -103 42 -13 113 76 162 204 22 55 16 206 -9 270 -23 57 -68 121 -110 158 -31 27 -31 27 -59 7z"/>
 <path d="M136 707 c-25 -18 -18 -69 12 -82 19 -8 22 -17 22 -62 0 -40 -4 -53 -14 -53 -8 0 -18 5 -21 10 -9 14 -58 12 -79 -3 -12 -8 -17 -23 -14 -41 2 -22 14 -34 53 -56 50 -28 147 -116 166 -151 9 -18 4 -19 -89 -19 -110 0 -126 -8 -120 -57 l3 -28 133 -3 132 -3 0 -39 c0 -34 4 -41 25 -46 14 -3 36 -3 50 0 21 5 25 12 25 46 l0 39 133 3 132 3 0 40 0 40 -128 3 c-143 3 -138 -1 -101 76 8 16 14 35 14 43 0 22 14 15 65 -31 26 -25 55 -46 64 -49 28 -7 60 11 67 38 7 30 -15 59 -83 107 -24 16 -43 36 -43 44 0 17 77 97 127 132 l32 23 17 -57 c12 -41 18 -117 23 -263 l6 -206 110 0 110 0 3 283 c1 184 -1 290 -8 302 -9 17 -21 20 -71 20 l-60 0 3 -37 c2 -29 8 -39 23 -42 29 -5 35 -19 35 -79 l0 -53 -37 3 -37 3 -12 75 c-16 111 -26 130 -68 130 -21 0 -38 -6 -44 -16 -8 -14 -10 -14 -21 0 -8 9 -22 16 -31 16 -22 0 -148 -112 -176 -155 -37 -59 -81 -141 -98 -187 l-18 -47 -39 47 c-39 46 -39 47 -39 134 l0 88 28 -12 c15 -7 36 -18 47 -25 43 -28 85 -10 85 37 0 30 -22 54 -60 65 -14 4 -29 11 -35 15 -14 10 -102 37 -145 44 -23 4 -43 1 -54 -7z m752 -324 c-3 -46 -4 -48 -35 -51 -33 -3 -33 -3 -33 41 0 52 4 57 42 57 28 0 29 -1 26 -47z m0 -165 c-3 -40 -5 -43 -33 -43 -28 0 -30 3 -33 43 l-3 42 36 0 36 0 -3 -42z"/>
 <path d="M1023 713 c-18 -7 -19 -583 -1 -601 8 -8 56 -12 150 -12 162 0 160 -1 151 108 -8 92 -20 104 -99 100 l-59 -3 -3 -37 c-3 -36 -2 -37 35 -40 30 -2 38 -7 38 -23 0 -18 -8 -20 -67 -23 l-68 -3 0 76 0 75 95 0 c136 0 152 22 112 150 -5 19 -19 51 -30 70 l-19 34 42 36 c37 31 42 41 36 63 -9 38 -59 37 -98 0 l-29 -27 -25 27 c-25 27 -58 35 -69 17 -4 -6 -12 -4 -21 5 -15 15 -47 18 -71 8z m119 -176 c-12 -24 -22 -49 -22 -56 0 -6 -4 -11 -10 -11 -6 0 -10 36 -10 87 l0 88 32 -32 32 -32 -22 -44z m83 -89 c7 -35 5 -38 -15 -38 -20 0 -22 4 -16 31 3 17 6 39 6 47 0 28 18 -1 25 -40z m-105 -7 c0 -6 -4 -13 -10 -16 -5 -3 -10 1 -10 9 0 9 5 16 10 16 6 0 10 -4 10 -9z"/>
 <path d="M1955 708 c-3 -7 -6 -76 -7 -153 l-3 -140 -45 0 -45 0 -3 118 c-3 115 -3 118 -27 127 -16 6 -34 6 -50 0 -24 -9 -25 -13 -25 -95 0 -82 -1 -85 -19 -75 -11 5 -28 10 -39 10 -21 0 -52 -29 -52 -49 0 -7 41 -52 90 -100 50 -49 90 -93 90 -99 0 -7 -31 -12 -82 -14 l-83 -3 -3 -38 -3 -37 111 0 110 0 12 -27 c7 -16 18 -36 26 -45 34 -40 99 -5 86 46 l-6 25 148 3 149 3 3 38 3 37 -175 0 -175 0 -31 45 -31 45 36 0 c32 0 35 -2 35 -30 0 -28 2 -30 38 -30 41 0 62 14 62 42 0 16 10 18 85 18 83 0 86 1 95 26 11 28 12 225 1 264 -14 50 -145 53 -157 4 -7 -29 9 -52 39 -56 20 -3 22 -9 22 -78 l0 -75 -42 -3 -43 -3 0 133 c0 173 -2 178 -51 178 -23 0 -42 -5 -44 -12z"/>
 <path d="M2427 713 c-13 -13 -7 -56 10 -69 29 -20 12 -23 -50 -7 -73 18 -87 13 -87 -31 0 -35 12 -45 53 -47 12 0 45 -11 72 -24 l50 -23 -82 -1 c-46 -1 -85 -6 -88 -12 -4 -5 -4 -21 -1 -35 6 -24 7 -24 135 -24 135 0 150 -5 127 -43 -9 -15 -7 -21 8 -33 15 -10 17 -17 9 -25 -22 -22 -43 -2 -43 41 l0 41 -37 -3 c-37 -3 -38 -4 -41 -46 -3 -38 -6 -43 -25 -40 -17 2 -23 11 -25 41 -3 35 -5 37 -38 37 l-35 0 3 -62 3 -63 58 -3 c81 -4 71 -22 -13 -22 -74 0 -91 -10 -75 -47 4 -10 8 -25 9 -33 1 -8 15 -34 31 -57 34 -47 73 -58 82 -23 7 26 16 25 28 -3 14 -32 69 -32 73 1 3 20 9 22 62 22 44 0 59 4 64 16 11 30 6 33 -56 36 -91 4 -89 26 4 30 70 3 73 4 73 28 0 24 -3 25 -65 28 -75 4 -108 22 -40 22 81 0 90 6 90 59 0 26 -5 52 -12 59 -8 8 -8 15 2 27 10 12 37 15 135 15 95 0 125 3 135 15 16 20 3 55 -21 55 -16 0 -19 5 -14 20 10 30 -2 56 -33 69 l-27 13 49 17 c56 19 61 27 47 64 -28 72 -187 -1 -296 -137 l-30 -37 -32 26 c-21 17 -33 35 -33 51 0 28 13 30 65 9 44 -19 65 -8 65 35 0 32 -20 44 -110 65 -70 16 -123 19 -133 8z m398 -193 c4 -6 -13 -10 -44 -10 -55 0 -60 4 -35 31 15 17 19 17 45 4 15 -8 31 -19 34 -25z m-365 -335 c0 -10 -10 -15 -29 -15 -16 0 -34 7 -41 15 -11 13 -7 15 29 15 30 0 41 -4 41 -15z"/>
 <path d="M3920 706 c-6 -8 -10 -25 -8 -38 3 -24 10 -26 113 -45 l40 -7 -40 -5 -40 -6 -3 -128 -3 -127 26 -10 c15 -6 43 -10 63 -10 35 0 37 -2 37 -32 0 -29 4 -33 40 -42 53 -12 99 -39 103 -59 5 -24 -14 -21 -52 8 -18 14 -42 25 -52 25 -23 0 -44 -18 -44 -37 0 -18 106 -123 124 -123 9 0 23 11 32 25 16 24 19 25 135 25 109 0 119 2 129 20 9 17 6 28 -17 63 -16 23 -37 43 -46 45 -26 5 -49 -18 -44 -45 4 -21 1 -23 -35 -23 -35 0 -38 2 -29 19 15 27 50 47 122 69 64 20 64 20 85 1 25 -24 57 -19 95 15 44 38 53 63 34 92 -15 24 -65 35 -65 14 0 -5 -17 -21 -37 -34 -33 -23 -39 -24 -53 -11 -9 8 -28 15 -43 15 l-26 0 -3 123 -3 122 -40 5 c-36 5 -37 6 -15 13 14 3 39 7 55 7 54 0 75 11 75 35 0 61 -16 65 -151 39 -99 -18 -113 -27 -105 -66 5 -28 5 -28 -49 -28 -54 0 -55 0 -55 30 0 38 -34 56 -127 70 -92 13 -109 12 -123 -4z m445 -171 c0 -10 -258 -20 -283 -10 -7 3 -10 10 -7 15 9 14 290 9 290 -5z m3 -67 c-4 -10 -42 -13 -148 -13 -106 0 -144 3 -147 13 -4 9 30 12 147 12 117 0 151 -3 148 -12z m0 -60 c-4 -10 -42 -13 -148 -13 -106 0 -144 3 -147 13 -4 9 30 12 147 12 117 0 151 -3 148 -12z m-191 -85 c-4 -3 -10 -3 -14 0 -3 4 0 7 7 7 7 0 10 -3 7 -7z m172 -27 c-43 -33 -44 -33 -69 -16 -14 10 -41 25 -60 33 -34 15 -33 15 69 16 l104 1 -44 -34z"/>
 <path d="M5311 701 c-6 -11 -11 -53 -11 -94 l0 -75 -40 5 c-48 7 -70 -8 -70 -48 0 -24 6 -30 53 -47 l52 -20 3 -66 c4 -84 -21 -92 -38 -12 -5 27 -10 31 -35 29 -35 -3 -45 -18 -35 -53 4 -14 11 -60 15 -101 6 -61 5 -72 -6 -61 -8 7 -40 12 -81 12 -57 0 -69 3 -78 20 -10 19 -8 20 40 20 79 0 90 17 90 138 0 63 -4 102 -12 110 -7 7 -34 12 -60 12 l-48 0 0 108 c0 71 -4 112 -12 120 -7 7 -36 12 -65 12 -47 0 -55 -3 -65 -25 -13 -29 3 -55 33 -55 17 0 19 -8 19 -80 l0 -80 -43 0 c-24 0 -48 -5 -55 -12 -16 -16 -16 -220 0 -236 7 -7 26 -12 44 -12 30 0 51 -20 37 -34 -11 -11 -109 -6 -121 6 -8 8 -12 59 -12 163 0 165 -20 307 -46 336 -21 23 -57 24 -78 3 -19 -19 -21 -7 10 -95 23 -67 26 -94 31 -269 3 -107 10 -201 16 -207 7 -10 66 -13 233 -13 222 0 224 0 224 21 0 18 3 19 14 9 8 -6 25 -10 38 -8 18 2 24 10 26 38 6 58 22 60 22 2 0 -56 27 -99 57 -88 8 3 19 6 24 6 5 0 9 27 9 60 0 55 2 61 24 70 13 5 26 17 28 27 2 10 17 -19 35 -67 32 -88 42 -98 90 -85 24 6 25 9 18 50 l-6 45 114 0 c162 0 154 -13 133 234 -18 216 -29 264 -66 283 -36 19 -130 13 -144 -10 -19 -30 12 -71 56 -75 35 -3 36 -4 46 -60 6 -31 14 -88 17 -127 3 -38 8 -89 11 -113 3 -26 1 -42 -5 -42 -6 0 -11 13 -11 29 0 15 -4 41 -9 57 -5 16 -15 49 -22 74 -20 71 -58 140 -106 198 -51 60 -82 68 -109 26 -17 -25 -17 -26 33 -77 28 -29 60 -70 71 -92 32 -64 73 -208 62 -219 -5 -5 -11 2 -15 20 -14 66 -58 164 -91 203 -50 58 -104 56 -104 -4 0 -7 14 -27 31 -44 30 -31 89 -134 89 -158 0 -23 -15 -13 -34 21 -21 40 -37 49 -72 40 -17 -4 -24 -13 -24 -31 0 -18 -5 -24 -17 -21 -13 2 -19 14 -21 40 -3 34 -1 37 25 40 25 3 28 7 28 43 0 32 -5 42 -25 52 -24 12 -25 17 -30 130 l-5 118 -32 3 c-23 2 -34 -2 -42 -17z m-231 -316 c0 -12 -15 -15 -75 -15 -60 0 -75 3 -75 15 0 12 15 15 75 15 60 0 75 -3 75 -15z m-2 -82 c-3 -15 -16 -19 -67 -21 -35 -2 -68 1 -74 7 -20 20 6 31 74 31 62 0 70 -2 67 -17z"/>
 <path d="M4556 691 c-16 -18 -16 -23 9 -102 36 -114 45 -129 70 -129 36 0 58 23 52 56 -10 58 -38 150 -53 172 -18 27 -55 29 -78 3z"/>
 <path d="M2988 689 c-16 -9 -18 -27 -18 -140 0 -114 2 -130 18 -137 22 -9 212 -9 235 0 15 7 17 23 17 142 0 130 -1 134 -22 140 -37 10 -212 6 -230 -5z m157 -134 l0 -60 -40 0 -40 0 -3 49 c-4 69 1 78 45 74 l38 -3 0 -60z"/>
 <path d="M3318 693 c-16 -4 -18 -19 -18 -139 0 -119 2 -135 18 -142 22 -9 212 -9 235 0 15 7 17 23 17 136 0 86 -4 132 -12 140 -12 12 -200 16 -240 5z m157 -138 l0 -60 -42 -3 -43 -3 0 59 c0 32 3 62 7 66 4 4 23 6 43 4 l35 -3 0 -60z"/>
 <path d="M4815 666 c-19 -14 -19 -15 -2 -50 9 -20 17 -42 17 -49 0 -7 11 -25 24 -42 21 -27 26 -28 50 -17 34 15 33 42 -2 112 -30 59 -53 71 -87 46z"/>
 <path d="M5127 662 c-42 -46 -61 -144 -31 -156 40 -15 52 -6 78 59 31 78 32 91 7 105 -27 14 -35 13 -54 -8z"/>
 <path d="M1431 454 c-47 -60 -10 -144 64 -144 74 0 111 84 64 144 -16 21 -29 26 -64 26 -35 0 -48 -5 -64 -26z"/>
 <path d="M2770 412 c-19 -6 -25 -15 -25 -37 0 -27 3 -30 38 -33 l37 -3 0 -118 c0 -130 6 -145 57 -139 l28 3 3 151 c2 119 0 154 -11 163 -18 14 -95 22 -127 13z"/>
 <path d="M3083 353 c-18 -7 -18 -234 -1 -251 8 -8 66 -12 195 -12 l183 0 10 26 c16 42 12 196 -6 222 -15 21 -20 22 -192 21 -97 0 -183 -3 -189 -6z m292 -128 l0 -50 -105 0 -105 0 -3 39 c-6 66 -4 67 110 64 l103 -3 0 -50z"/>
 <path d="M3912 328 c-7 -7 -12 -24 -12 -39 0 -21 7 -29 33 -39 17 -6 51 -21 75 -33 51 -26 77 -16 77 29 0 24 -8 32 -65 61 -71 36 -90 39 -108 21z"/>
 <path d="M2712 208 l3 -103 35 0 35 0 0 100 0 100 -38 3 -38 3 3 -103z"/>
 <path d="M4598 182 c-34 -32 -40 -43 -34 -65 10 -40 42 -44 90 -9 43 32 58 71 35 98 -19 23 -48 16 -91 -24z"/>
 <path d="M3973 164 c-46 -27 -54 -51 -27 -78 22 -22 44 -20 87 9 38 27 48 60 25 83 -18 18 -38 15 -85 -14z"/>
 </g>

</svg>