<!DOCTYPE svg PUBLIC "-//W3C//DTD SVG 20010904//EN" "http://www.w3.org/TR/2001/REC-SVG-20010904/DTD/svg10.dtd">
<svg version="1.0" xmlns="http://www.w3.org/2000/svg" width="365px" height="40px" viewBox="0 0 3650 400" preserveAspectRatio="xMidYMid meet">
<g id="layer1" fill="#ffffff" stroke="none">
 <path d="M1143 383 c-9 -3 -13 -29 -13 -79 0 -90 -18 -99 -22 -11 l-3 62 -35 0 c-34 0 -35 -1 -38 -42 -2 -33 -7 -43 -21 -43 -22 0 -41 -19 -41 -40 0 -9 17 -32 38 -51 37 -34 37 -34 12 -37 -36 -5 -51 -22 -48 -51 3 -24 7 -26 65 -29 51 -2 63 -6 68 -22 9 -29 75 -28 82 0 5 18 14 20 79 20 68 0 75 2 84 23 5 12 9 16 9 9 1 -8 10 -27 22 -43 18 -26 26 -29 74 -29 32 0 55 5 57 12 3 9 25 9 92 -1 117 -16 120 -14 114 99 -3 47 -1 92 5 100 6 11 3 26 -10 50 -19 34 -19 35 1 52 51 41 -33 70 -101 34 -22 -11 -31 -11 -48 -1 -11 7 -46 15 -77 19 -49 5 -59 3 -70 -13 -7 -10 -25 -21 -38 -23 -27 -3 -40 -42 -22 -60 7 -7 7 -17 -1 -29 -9 -14 -9 -21 1 -31 15 -15 16 -94 1 -104 -6 -3 -16 -1 -22 5 -6 6 -36 12 -66 13 -47 1 -50 2 -16 5 59 6 65 15 65 103 0 87 -14 110 -66 110 -16 0 -38 7 -48 15 -20 15 -40 18 -63 8z m97 -128 c0 -14 -4 -25 -10 -25 -5 0 -10 11 -10 25 0 14 5 25 10 25 6 0 10 -11 10 -25z m347 -77 c-3 -7 -5 -2 -5 12 0 14 2 19 5 13 2 -7 2 -19 0 -25z"/>
 <path d="M2207 363 c-38 -41 -57 -94 -57 -166 0 -53 5 -71 33 -117 29 -50 35 -55 67 -55 29 0 36 4 38 23 2 13 -7 35 -22 52 -46 56 -47 145 -1 205 28 38 32 70 9 79 -28 11 -40 7 -67 -21z"/>
 <path d="M3463 383 c-21 -8 -15 -42 12 -78 46 -60 45 -149 -1 -205 -15 -17 -24 -39 -22 -52 2 -19 9 -23 38 -23 32 0 38 5 67 55 28 46 33 63 33 120 0 76 -24 136 -65 168 -28 22 -39 25 -62 15z"/>
 <path d="M63 364 c-3 -9 -1 -25 5 -35 17 -27 15 -39 -6 -39 -44 0 -58 -61 -19 -81 12 -6 35 -23 50 -38 l29 -26 -43 -5 c-48 -6 -70 -30 -53 -57 8 -14 27 -19 76 -21 56 -2 67 -6 71 -22 7 -28 67 -28 74 0 4 16 15 20 77 22 66 3 71 5 74 26 2 13 -2 29 -8 37 -7 8 -9 24 -5 37 6 18 0 28 -31 55 l-39 34 40 34 c22 19 43 35 46 35 11 0 19 -72 19 -177 0 -120 7 -129 94 -119 59 6 51 6 143 0 96 -7 113 2 113 64 0 27 -5 53 -11 59 -8 8 -8 13 0 17 16 10 14 61 -4 103 -15 36 -15 38 6 53 29 23 22 54 -14 58 -16 2 -34 -2 -42 -8 -9 -7 -15 -8 -20 -1 -8 13 -266 13 -282 0 -7 -7 -14 -6 -18 1 -12 19 -54 10 -89 -20 -23 -21 -37 -27 -41 -19 -25 40 -179 67 -192 33z m434 -76 c-3 -8 -6 -5 -6 6 -1 11 2 17 5 13 3 -3 4 -12 1 -19z m-282 -18 c11 0 10 -8 -3 -39 -20 -47 -42 -39 -42 16 0 28 3 34 16 29 9 -3 22 -6 29 -6z m95 -125 c0 -3 -9 -5 -20 -5 -11 0 -20 7 -20 15 0 13 4 14 20 5 11 -6 20 -13 20 -15z"/>
 <path d="M1752 368 c-7 -7 -12 -41 -12 -83 0 -77 9 -95 49 -95 19 0 22 -3 13 -12 -15 -15 -16 -112 -2 -139 10 -17 22 -19 120 -19 98 0 110 2 120 19 14 27 13 124 -2 139 -9 9 -6 12 13 12 40 0 49 18 49 95 0 42 -5 76 -12 83 -16 16 -140 16 -156 0 -9 -9 -15 -9 -24 0 -7 7 -40 12 -78 12 -38 0 -71 -5 -78 -12z m88 -78 c0 -11 -4 -20 -10 -20 -5 0 -10 9 -10 20 0 11 5 20 10 20 6 0 10 -9 10 -20z m180 0 c0 -11 -4 -20 -10 -20 -5 0 -10 9 -10 20 0 11 5 20 10 20 6 0 10 -9 10 -20z m-60 -180 c0 -5 -18 -10 -40 -10 -22 0 -40 5 -40 10 0 6 18 10 40 10 22 0 40 -4 40 -10z"/>
 <path d="M2310 354 c0 -16 7 -28 18 -30 25 -7 19 -125 -9 -150 -27 -24 -24 -41 10 -62 29 -17 29 -18 10 -30 -13 -8 -19 -21 -17 -35 2 -17 11 -23 39 -25 23 -2 40 2 49 12 16 20 37 20 47 1 7 -12 25 -13 96 -8 108 7 127 18 110 64 -16 41 0 55 33 31 19 -15 20 -19 8 -33 -17 -19 -18 -41 -2 -57 16 -16 43 -15 58 3 11 13 15 13 33 0 16 -11 51 -15 134 -15 100 0 114 2 125 19 8 13 17 16 27 11 86 -43 113 -40 122 10 l5 35 10 -35 c9 -31 14 -35 45 -35 28 0 35 4 37 22 3 21 9 23 62 23 81 0 85 8 71 156 -13 146 -18 154 -82 154 -34 0 -51 -5 -55 -15 -5 -11 -10 -12 -24 -3 -37 24 -75 -18 -46 -51 16 -17 16 -19 -3 -24 -18 -4 -20 1 -23 42 -3 45 -3 46 -40 49 l-38 3 0 -45 c0 -36 -3 -44 -15 -40 -37 15 -63 -55 -28 -74 14 -9 14 -11 -5 -21 -19 -10 -22 -9 -22 7 0 10 -5 23 -11 29 -8 8 -6 20 6 43 32 62 0 116 -44 75 -17 -15 -19 -14 -24 5 -4 16 -13 20 -44 20 -21 0 -53 -4 -70 -9 -18 -5 -35 -6 -38 -1 -3 5 -36 8 -73 7 l-67 -2 1 -35 c1 -29 17 -76 42 -122 2 -4 -8 -14 -22 -23 -20 -13 -28 -14 -44 -4 -29 18 -36 126 -9 133 10 2 17 14 17 30 0 25 -2 26 -66 26 -70 0 -104 -12 -104 -35 0 -22 -9 -18 -32 10 -17 22 -27 25 -89 25 -68 0 -69 -1 -69 -26z m750 -226 c0 -25 -4 -38 -9 -33 -8 9 -4 75 5 75 2 0 4 -19 4 -42z m-280 2 c0 -13 -5 -18 -15 -14 -12 5 -13 10 -4 20 15 19 19 18 19 -6z"/>
 <path d="M835 245 c-30 -29 -31 -45 -4 -79 25 -32 59 -33 87 -3 29 31 28 61 -4 86 -34 27 -50 26 -79 -4z"/>
 </g>

</svg>