<!DOCTYPE svg PUBLIC "-//W3C//DTD SVG 20010904//EN" "http://www.w3.org/TR/2001/REC-SVG-20010904/DTD/svg10.dtd">
<svg version="1.0" xmlns="http://www.w3.org/2000/svg" width="1361px" height="200px" viewBox="0 0 13610 2000" preserveAspectRatio="xMidYMid meet">
<g id="layer1" fill="#ffffff" stroke="none">
 <path d="M5483 1831 c-17 -11 -37 -29 -42 -40 -7 -13 -11 -145 -11 -381 l0 -361 -102 3 -103 3 -3 291 -2 291 -31 29 c-29 27 -35 29 -114 29 -79 0 -85 -2 -114 -29 l-31 -30 0 -208 0 -208 -47 30 c-52 33 -98 38 -141 16 -83 -43 -118 -143 -76 -216 11 -18 55 -58 99 -90 78 -56 179 -155 278 -271 26 -31 47 -59 47 -63 0 -3 -82 -6 -183 -6 -153 0 -186 -3 -206 -16 -28 -20 -51 -72 -51 -116 0 -37 31 -111 51 -124 8 -5 135 -11 283 -14 l269 -5 34 -80 c44 -104 76 -135 143 -135 65 0 109 19 144 61 26 30 28 39 24 96 l-4 63 352 0 352 0 26 31 c32 38 40 67 34 130 -4 37 -12 58 -33 79 l-29 30 -426 0 -426 0 -62 90 -63 90 56 0 55 0 0 -48 c0 -84 47 -122 152 -122 99 0 147 42 148 128 l0 42 198 0 c308 0 294 -20 290 433 -3 299 -4 325 -23 362 -31 60 -72 79 -187 83 -139 6 -185 -3 -225 -43 -29 -29 -33 -39 -33 -86 0 -94 56 -157 130 -145 l40 6 0 -180 0 -180 -95 0 -95 0 0 360 0 360 -34 37 c-33 36 -37 38 -108 41 -59 2 -79 -1 -105 -17z"/>
 <path d="M7009 1822 c-136 -87 -287 -329 -351 -564 -19 -72 -22 -108 -23 -263 0 -166 2 -188 28 -279 49 -176 142 -350 246 -459 88 -93 125 -117 184 -117 47 0 54 3 94 45 39 41 43 50 43 95 0 44 -5 55 -45 102 -100 118 -149 187 -185 263 -62 129 -75 189 -74 355 0 138 1 150 32 240 39 111 92 206 165 291 99 115 107 128 107 177 0 33 -7 54 -26 79 -52 68 -122 81 -195 35z"/>
 <path d="M11329 1843 c-14 -2 -41 -17 -60 -32 l-34 -29 -3 -217 c-3 -186 -5 -216 -18 -211 -59 23 -130 37 -158 32 -70 -13 -129 -119 -109 -197 12 -45 47 -67 177 -113 l106 -38 0 -149 c0 -140 -1 -149 -19 -149 -16 0 -22 12 -32 58 -25 122 -29 131 -59 147 -36 19 -91 19 -135 1 -57 -24 -59 -39 -35 -204 12 -81 25 -209 29 -284 7 -132 8 -139 35 -167 50 -52 143 -47 185 10 20 26 22 40 19 105 -2 41 0 74 5 74 4 0 7 -56 7 -124 0 -69 4 -136 10 -150 16 -42 66 -66 138 -66 59 0 66 2 98 34 l34 34 0 136 c0 116 2 136 15 136 29 0 71 28 84 57 13 28 13 27 48 -57 19 -47 46 -127 59 -179 33 -135 76 -173 175 -156 27 5 55 20 81 43 l41 37 -6 65 c-4 36 -9 75 -13 88 l-6 22 269 0 269 0 45 29 c90 57 93 90 54 588 -47 596 -73 717 -165 764 -52 27 -172 42 -269 34 -133 -10 -161 -35 -161 -143 0 -63 22 -110 64 -137 20 -14 38 -16 85 -10 79 9 96 -2 111 -67 13 -63 46 -357 54 -483 l6 -90 -29 105 c-60 216 -128 368 -230 510 -128 179 -206 250 -275 250 -73 0 -146 -68 -146 -135 0 -41 23 -74 105 -155 157 -154 243 -314 321 -599 43 -158 43 -189 0 -51 -72 231 -151 377 -259 483 -96 93 -146 98 -217 21 -40 -43 -42 -49 -38 -93 l5 -48 -39 21 -38 21 0 276 c0 265 -1 277 -21 303 -11 14 -28 30 -37 35 -22 12 -91 19 -123 14z m421 -849 c41 -58 87 -152 116 -235 32 -95 30 -98 -10 -14 -65 132 -136 171 -231 125 -49 -24 -85 -69 -85 -107 0 -14 -6 -23 -15 -23 -12 0 -15 16 -15 80 0 79 0 80 25 80 39 0 81 26 105 65 17 28 21 47 18 91 l-3 56 33 -39 c18 -21 46 -56 62 -79z m387 -316 c-3 -8 -6 -5 -6 6 -1 11 2 17 5 13 3 -3 4 -12 1 -19z"/>
 <path d="M12857 1825 c-45 -31 -67 -71 -67 -122 0 -43 13 -66 80 -138 199 -215 275 -497 206 -767 -38 -148 -88 -236 -236 -413 -41 -48 -50 -66 -50 -98 0 -112 123 -185 217 -128 49 30 142 129 188 201 136 209 195 402 195 635 0 188 -34 334 -116 498 -72 142 -146 238 -247 319 -61 48 -112 52 -170 13z"/>
 <path d="M420 1822 c-67 -33 -104 -128 -76 -196 15 -36 57 -71 99 -81 l27 -7 0 -123 0 -124 -66 35 c-80 41 -135 45 -185 11 -53 -35 -79 -82 -79 -140 0 -44 4 -53 36 -83 19 -19 66 -52 105 -74 152 -90 313 -233 407 -364 l33 -46 -235 0 c-129 0 -246 -4 -260 -10 -45 -17 -68 -66 -63 -139 3 -58 6 -66 40 -97 l37 -34 303 0 304 0 6 -69 c3 -39 11 -79 17 -91 21 -39 70 -60 141 -60 112 0 157 48 158 168 l1 52 303 0 c220 0 309 4 326 13 87 44 94 213 11 254 -18 9 -104 13 -317 13 -168 0 -293 4 -293 9 0 10 65 200 86 250 l14 33 52 -43 c29 -24 82 -70 117 -102 88 -81 117 -97 175 -97 44 0 53 4 91 43 47 47 72 109 61 154 -9 36 -91 115 -233 224 l-111 86 41 49 c76 92 132 146 243 235 68 54 116 101 124 119 18 44 7 106 -27 148 -100 123 -177 103 -396 -108 -205 -197 -338 -402 -445 -688 -22 -57 -42 -104 -45 -105 -3 -1 -20 18 -38 43 -18 25 -56 73 -86 106 l-53 62 2 200 3 200 125 -54 c147 -64 191 -69 241 -27 40 34 59 79 59 139 0 42 -4 51 -39 84 -60 57 -355 177 -556 226 -119 29 -139 29 -185 6z"/>
 <path d="M2834 1826 c-17 -8 -40 -26 -52 -41 l-22 -28 0 -726 c0 -671 1 -729 18 -760 9 -19 30 -44 45 -55 27 -20 43 -21 354 -24 317 -3 326 -2 370 19 35 17 50 32 65 66 19 43 19 48 3 206 -9 89 -23 177 -31 197 -38 89 -104 116 -264 107 -111 -6 -151 -22 -170 -67 -20 -47 -8 -126 23 -158 24 -24 33 -26 97 -24 67 3 70 2 70 -20 0 -13 3 -33 6 -46 l6 -23 -153 3 -154 3 -3 173 -2 172 227 0 c126 0 244 5 264 10 51 14 80 50 86 105 12 99 -47 326 -122 475 l-37 74 44 40 c25 23 68 61 96 86 50 44 52 48 52 99 0 49 -3 57 -39 92 -34 34 -45 39 -84 39 -65 0 -91 -13 -158 -77 l-59 -56 -69 66 c-62 60 -73 67 -109 67 -28 0 -49 -7 -70 -25 l-29 -25 -19 22 c-41 45 -120 60 -180 34z m282 -326 l32 -41 -27 -62 c-26 -57 -64 -165 -74 -212 -3 -11 -5 71 -6 183 l-1 203 22 -15 c12 -9 37 -34 54 -56z m197 -357 c32 -103 32 -103 -13 -103 -22 0 -40 5 -40 11 0 12 33 139 36 139 1 0 9 -21 17 -47z"/>
 <path d="M7426 1810 c-29 -35 -43 -106 -30 -152 14 -47 51 -69 140 -80 44 -5 90 -12 104 -15 24 -4 24 -5 -8 -20 -64 -31 -67 -46 -67 -358 0 -312 2 -323 65 -359 29 -17 56 -22 151 -25 l117 -3 -14 -27 c-8 -14 -14 -38 -14 -53 0 -16 -2 -28 -5 -28 -3 0 -41 20 -83 45 -91 53 -268 125 -309 125 -21 0 -40 -12 -68 -40 -33 -33 -39 -47 -43 -93 -4 -46 -1 -57 22 -84 16 -20 47 -38 79 -49 98 -33 278 -124 243 -124 -10 0 -70 -28 -133 -61 -96 -51 -117 -67 -129 -95 -20 -47 -8 -90 41 -140 37 -39 46 -44 87 -44 90 0 266 114 283 183 10 38 -1 72 -34 109 l-28 32 31 21 c42 28 76 82 76 120 l0 32 43 -9 c23 -6 56 -14 72 -18 l30 -8 -29 -1 c-67 -2 -128 -69 -130 -142 -1 -34 8 -45 142 -178 135 -133 146 -141 183 -141 31 0 47 8 79 36 21 19 42 44 45 55 6 18 19 19 291 19 300 0 328 4 367 47 35 40 33 87 -6 166 -44 88 -87 142 -135 166 l-35 18 54 12 c153 35 189 61 189 136 0 48 -31 102 -70 123 -23 12 -86 11 -120 -3 -13 -4 -15 34 -15 277 0 314 -3 330 -65 360 -31 15 -31 16 -8 21 12 3 58 9 102 13 66 5 83 11 110 34 28 26 31 33 30 88 -1 62 -28 124 -60 136 -25 9 -135 7 -221 -5 -112 -15 -340 -67 -375 -85 -51 -26 -68 -99 -41 -170 4 -12 -16 -14 -120 -14 l-124 0 10 39 c16 61 -7 109 -67 142 -85 47 -349 99 -498 99 -73 0 -77 -1 -102 -30z m1122 -446 c12 -4 22 -13 22 -20 0 -12 -61 -14 -365 -14 -355 0 -405 4 -342 30 24 10 649 13 685 4z m22 -189 c0 -13 -47 -15 -365 -15 -318 0 -365 2 -365 15 0 13 47 15 365 15 318 0 365 -2 365 -15z m0 -175 c0 -6 -127 -10 -360 -10 -233 0 -360 4 -360 10 0 6 127 10 360 10 233 0 360 -4 360 -10z m-21 -231 c-24 -17 -63 -50 -86 -72 l-43 -41 -27 25 c-44 41 -89 69 -151 94 l-57 24 204 1 204 0 -44 -31z m-377 -221 c50 -27 98 -71 98 -92 0 -3 -10 -6 -22 -6 -14 1 -49 26 -91 65 -37 36 -62 65 -56 65 6 0 38 -14 71 -32z m512 0 c-10 -19 -14 -44 -11 -65 l6 -33 -65 0 c-62 0 -64 1 -54 20 10 18 124 110 136 110 3 0 -3 -14 -12 -32z"/>
 <path d="M2025 1816 c-17 -7 -44 -28 -59 -46 -24 -29 -27 -40 -23 -84 2 -28 18 -87 35 -131 61 -163 82 -399 82 -933 0 -352 3 -374 56 -409 25 -16 53 -18 269 -18 216 0 244 2 269 18 57 38 56 25 56 780 l0 693 -22 44 c-17 33 -35 51 -68 68 -41 21 -56 23 -158 20 l-114 -3 -29 -33 c-24 -27 -29 -41 -29 -82 0 -56 18 -107 44 -130 10 -8 39 -14 64 -15 l47 0 3 -137 3 -138 -74 0 -74 0 -7 83 c-10 120 -50 306 -79 371 -40 86 -112 117 -192 82z m425 -866 l0 -100 -65 0 -65 0 0 100 0 100 65 0 65 0 0 -100z m0 -420 l0 -90 -65 0 -65 0 0 90 0 90 65 0 65 0 0 -90z"/>
 <path d="M9245 1816 c-16 -8 -45 -30 -64 -49 -28 -30 -34 -44 -34 -79 1 -24 13 -70 27 -103 15 -32 45 -122 67 -200 68 -235 81 -255 166 -255 62 0 100 17 137 60 32 38 33 70 6 170 -38 137 -112 364 -131 402 -32 62 -105 85 -174 54z"/>
 <path d="M10156 1817 c-49 -15 -77 -52 -83 -112 l-6 -46 -38 37 c-35 34 -41 36 -83 32 -50 -6 -110 -45 -121 -78 -10 -30 -22 -24 -35 18 -19 57 -49 101 -80 117 -37 19 -93 19 -129 1 -41 -22 -91 -83 -91 -111 0 -14 16 -72 35 -129 78 -233 85 -300 94 -838 6 -412 7 -428 27 -455 44 -59 29 -58 627 -61 l548 -3 31 31 c29 29 30 34 26 100 -3 56 -8 75 -26 93 -21 21 -31 22 -202 25 -99 2 -180 7 -180 12 0 5 -3 15 -6 24 -5 14 7 16 92 16 111 0 169 12 201 42 37 34 45 104 41 348 -3 192 -6 230 -21 257 -27 51 -62 63 -176 63 l-100 0 -3 263 -3 264 -28 36 c-20 27 -41 41 -79 52 -60 18 -176 19 -232 2z m29 -254 c43 7 45 1 45 -200 l0 -161 -115 -4 c-114 -3 -115 -3 -147 -36 l-33 -32 -3 -264 c-3 -295 1 -322 58 -351 17 -9 64 -19 103 -22 70 -6 87 -14 87 -41 0 -10 -32 -12 -142 -10 l-143 3 -6 380 c-7 367 -13 459 -45 629 -8 44 -12 81 -10 83 5 6 58 -108 82 -177 25 -72 80 -130 123 -130 46 0 93 23 125 60 33 40 31 70 -18 202 -30 79 -31 86 -13 76 11 -5 34 -8 52 -5z m345 -603 c0 -19 -7 -20 -170 -20 -135 0 -170 3 -170 13 0 8 3 17 7 20 3 4 80 7 170 7 156 0 163 -1 163 -20z m-2 -217 c-3 -16 -20 -18 -162 -21 -157 -2 -175 1 -176 31 0 4 77 7 171 7 157 0 170 -1 167 -17z"/>
 <path d="M10683 1725 c-36 -25 -82 -108 -123 -224 -59 -164 -54 -217 23 -252 58 -26 110 -24 142 4 31 27 155 322 155 370 0 43 -24 75 -74 98 -50 22 -94 24 -123 4z"/>
 <path d="M4080 1227 c-19 -6 -60 -36 -91 -67 -45 -45 -58 -65 -69 -108 -7 -31 -9 -71 -6 -97 9 -56 58 -129 114 -169 37 -26 54 -31 117 -34 94 -5 150 19 205 89 51 65 68 135 50 210 -11 44 -24 64 -70 110 -75 76 -153 96 -250 66z"/>
 <path d="M9338 967 c-35 -29 -84 -68 -110 -85 -25 -18 -56 -44 -67 -58 -46 -58 -11 -168 67 -212 52 -29 77 -28 137 7 62 36 191 153 211 194 30 57 -7 143 -80 188 -53 33 -87 25 -158 -34z"/>
 <path d="M9350 505 c-150 -129 -160 -140 -160 -185 0 -51 19 -88 65 -129 29 -26 44 -31 84 -31 56 0 90 21 200 127 63 61 71 72 71 106 0 49 -19 85 -69 130 -34 30 -49 37 -84 37 -37 0 -50 -7 -107 -55z"/>
 </g>

</svg>