<!DOCTYPE svg PUBLIC "-//W3C//DTD SVG 20010904//EN" "http://www.w3.org/TR/2001/REC-SVG-20010904/DTD/svg10.dtd">
<svg version="1.0" xmlns="http://www.w3.org/2000/svg" width="1268px" height="200px" viewBox="0 0 12680 2000" preserveAspectRatio="xMidYMid meet">
<g id="layer1" fill="#ffffff" stroke="none">
 <path d="M495 1841 c-79 -19 -105 -61 -105 -168 l0 -65 -55 51 c-80 72 -137 79 -198 22 -39 -35 -57 -73 -57 -117 0 -34 9 -46 108 -143 59 -58 122 -128 140 -156 l33 -50 -103 -3 c-80 -2 -106 -7 -121 -20 -73 -66 -55 -189 33 -224 24 -10 24 -10 4 -18 -27 -10 -72 -65 -80 -96 -11 -42 6 -77 67 -141 34 -36 72 -88 89 -125 l30 -63 -50 -3 c-40 -2 -54 -8 -75 -33 -20 -25 -25 -41 -25 -89 0 -84 25 -112 107 -118 l61 -4 5 -40 c6 -48 28 -73 74 -89 90 -29 183 18 183 93 l0 38 63 1 c78 0 124 16 150 51 18 24 21 47 25 175 3 87 8 140 13 128 4 -11 8 -32 8 -47 1 -39 46 -71 93 -66 37 3 38 2 62 -52 25 -56 68 -165 100 -253 25 -66 49 -80 136 -75 63 3 73 7 106 38 35 34 36 37 31 95 -3 36 -15 82 -31 114 -14 30 -26 56 -26 58 0 2 13 3 29 3 28 0 31 -4 65 -108 45 -133 69 -162 138 -162 87 0 158 47 158 104 0 29 -19 110 -35 148 -6 16 -1 18 34 18 90 0 127 46 119 151 -4 52 -9 66 -32 86 -22 19 -38 23 -92 23 l-64 0 0 55 0 55 58 0 c75 0 103 25 110 100 9 93 -32 140 -123 140 l-45 0 0 60 0 60 59 0 c54 0 62 3 85 31 21 25 26 41 26 86 0 49 -4 59 -34 89 -30 30 -40 34 -85 34 l-51 0 0 55 0 55 55 0 c63 0 119 20 133 47 32 62 20 158 -25 193 -26 21 -34 21 -357 18 -313 -3 -333 -4 -366 -24 -65 -38 -65 -32 -68 -514 -1 -239 -5 -442 -8 -450 -4 -11 -12 -6 -31 19 -38 48 -78 61 -184 61 -79 0 -90 2 -85 16 3 9 6 26 6 39 0 23 2 23 116 27 l116 3 29 33 c25 28 29 40 29 91 0 49 -4 65 -26 90 l-26 31 -119 0 c-103 0 -119 2 -119 16 0 12 5 14 18 8 9 -4 34 -9 54 -12 32 -3 42 1 77 35 47 44 131 186 131 221 0 38 -31 93 -64 113 -68 41 -132 17 -187 -70 l-29 -45 0 150 0 150 -29 28 c-16 15 -46 32 -67 37 -44 10 -48 10 -89 0z m845 -366 l0 -55 -40 0 -40 0 0 55 0 55 40 0 40 0 0 -55z m0 -355 l0 -60 -40 0 -40 0 0 60 0 60 40 0 40 0 0 -60z m-946 -193 c11 -57 70 -97 143 -97 32 0 35 -2 27 -22 -4 -13 -10 -81 -13 -153 -6 -133 -9 -138 -30 -50 -30 124 -143 294 -223 334 l-43 21 66 0 67 0 6 -33z m946 -162 l0 -55 -40 0 -40 0 0 55 0 55 40 0 40 0 0 -55z"/>
 <path d="M4014 1841 c-47 -21 -54 -45 -55 -211 -2 -136 -3 -146 -9 -77 -10 102 -27 161 -56 192 -20 22 -32 25 -88 25 -55 0 -69 -4 -95 -26 -37 -31 -39 -65 -16 -220 8 -54 15 -129 15 -165 0 -125 28 -159 133 -159 65 0 86 9 105 45 10 17 11 11 12 -32 l0 -53 -106 0 -106 0 -34 -34 c-31 -31 -34 -39 -34 -93 0 -80 15 -106 69 -119 34 -8 56 -23 93 -63 81 -88 82 -80 -33 -162 -116 -82 -137 -113 -119 -179 6 -21 22 -53 36 -69 25 -30 84 -54 108 -45 7 3 31 -26 57 -67 105 -169 134 -195 205 -184 39 5 57 16 91 50 27 26 43 51 43 66 -1 39 -33 99 -104 192 -37 48 -64 92 -61 98 10 15 22 3 75 -76 59 -87 81 -105 133 -105 74 0 147 63 147 127 0 44 -36 99 -177 268 l-108 130 37 -4 c32 -3 38 -7 38 -27 0 -28 29 -60 66 -74 74 -29 128 5 149 90 12 51 13 39 14 -165 1 -239 11 -327 38 -358 26 -29 90 -55 179 -72 112 -21 336 -87 424 -124 47 -20 92 -31 121 -31 42 0 50 4 91 48 52 56 67 111 45 165 -15 36 -94 84 -176 108 l-44 13 7 90 c3 49 6 120 6 158 l0 68 93 0 c101 1 127 10 158 56 22 33 26 121 8 157 -31 61 -46 67 -151 67 l-98 0 0 43 c0 51 16 199 32 287 9 53 13 60 18 39 13 -47 30 -67 64 -79 49 -16 107 2 142 42 24 30 26 37 21 98 -8 101 -68 256 -117 305 -40 40 -40 40 -120 40 l-79 0 -50 -49 c-27 -27 -65 -80 -85 -118 -20 -39 -36 -61 -36 -50 0 35 -49 81 -123 116 -91 43 -251 94 -319 101 -68 8 -106 -15 -138 -80 -27 -57 -24 -124 9 -159 l21 -23 -30 5 c-38 5 -87 -14 -103 -42 -7 -11 -15 -66 -18 -121 -4 -70 -6 -30 -7 137 -2 234 -2 237 -26 265 -21 24 -31 28 -92 30 -38 2 -79 -1 -90 -6z m426 -302 c0 -24 -2 -24 -29 5 l-22 23 25 -4 c17 -4 26 -12 26 -24z m445 -154 c-7 -50 -16 -143 -20 -207 l-7 -118 -69 0 -69 0 0 205 0 206 30 -16 c42 -22 103 -19 125 5 10 11 19 19 21 17 1 -1 -3 -43 -11 -92z m-447 -194 l-3 -39 -23 19 -24 19 21 26 c12 15 22 41 23 58 1 28 2 28 5 -6 2 -21 3 -55 1 -77z m-165 -22 c-7 -8 -13 -21 -13 -27 0 -7 -9 -12 -20 -12 -18 0 -20 7 -20 59 l0 59 33 -31 c28 -27 31 -34 20 -48z m567 -508 l0 -118 -52 10 c-29 6 -56 15 -60 21 -4 6 -8 55 -8 109 l0 97 60 0 60 0 0 -119z"/>
 <path d="M6049 1822 c-136 -87 -287 -329 -351 -564 -19 -72 -22 -108 -23 -263 0 -166 2 -188 28 -279 49 -176 142 -350 246 -459 88 -93 125 -117 184 -117 47 0 54 3 94 45 39 41 43 50 43 95 0 44 -5 55 -45 102 -100 118 -149 187 -185 263 -62 129 -75 189 -74 355 0 138 1 150 32 240 39 111 92 206 165 291 99 115 107 128 107 177 0 33 -7 54 -26 79 -52 68 -122 81 -195 35z"/>
 <path d="M10369 1843 c-14 -2 -41 -17 -60 -32 l-34 -29 -3 -217 c-3 -186 -5 -216 -18 -211 -59 23 -130 37 -158 32 -70 -13 -129 -119 -109 -197 12 -45 47 -67 177 -113 l106 -38 0 -149 c0 -140 -1 -149 -19 -149 -16 0 -22 12 -32 58 -25 122 -29 131 -59 147 -36 19 -91 19 -135 1 -57 -24 -59 -39 -35 -204 12 -81 25 -209 29 -284 7 -132 8 -139 35 -167 50 -52 143 -47 185 10 20 26 22 40 19 105 -2 41 0 74 5 74 4 0 7 -56 7 -124 0 -69 4 -136 10 -150 16 -42 66 -66 138 -66 59 0 66 2 98 34 l34 34 0 136 c0 116 2 136 15 136 29 0 71 28 84 57 13 28 13 27 48 -57 19 -47 46 -127 59 -179 33 -135 76 -173 175 -156 27 5 55 20 81 43 l41 37 -6 65 c-4 36 -9 75 -13 88 l-6 22 269 0 269 0 45 29 c90 57 93 90 54 588 -47 596 -73 717 -165 764 -52 27 -172 42 -269 34 -133 -10 -161 -35 -161 -143 0 -63 22 -110 64 -137 20 -14 38 -16 85 -10 79 9 96 -2 111 -67 13 -63 46 -357 54 -483 l6 -90 -29 105 c-60 216 -128 368 -230 510 -128 179 -206 250 -275 250 -73 0 -146 -68 -146 -135 0 -41 23 -74 105 -155 157 -154 243 -314 321 -599 43 -158 43 -189 0 -51 -72 231 -151 377 -259 483 -96 93 -146 98 -217 21 -40 -43 -42 -49 -38 -93 l5 -48 -39 21 -38 21 0 276 c0 265 -1 277 -21 303 -11 14 -28 30 -37 35 -22 12 -91 19 -123 14z m421 -849 c41 -58 87 -152 116 -235 32 -95 30 -98 -10 -14 -65 132 -136 171 -231 125 -49 -24 -85 -69 -85 -107 0 -14 -6 -23 -15 -23 -12 0 -15 16 -15 80 0 79 0 80 25 80 39 0 81 26 105 65 17 28 21 47 18 91 l-3 56 33 -39 c18 -21 46 -56 62 -79z m387 -316 c-3 -8 -6 -5 -6 6 -1 11 2 17 5 13 3 -3 4 -12 1 -19z"/>
 <path d="M11897 1825 c-45 -31 -67 -71 -67 -122 0 -43 13 -66 80 -138 199 -215 275 -497 206 -767 -38 -148 -88 -236 -236 -413 -41 -48 -50 -66 -50 -98 0 -112 123 -185 217 -128 49 30 142 129 188 201 136 209 195 402 195 635 0 188 -34 334 -116 498 -72 142 -146 238 -247 319 -61 48 -112 52 -170 13z"/>
 <path d="M6466 1810 c-29 -35 -43 -106 -30 -152 14 -47 51 -69 140 -80 44 -5 90 -12 104 -15 24 -4 24 -5 -8 -20 -64 -31 -67 -46 -67 -358 0 -312 2 -323 65 -359 29 -17 56 -22 151 -25 l117 -3 -14 -27 c-8 -14 -14 -38 -14 -53 0 -16 -2 -28 -5 -28 -3 0 -41 20 -83 45 -91 53 -268 125 -309 125 -21 0 -40 -12 -68 -40 -33 -33 -39 -47 -43 -93 -4 -46 -1 -57 22 -84 16 -20 47 -38 79 -49 98 -33 278 -124 243 -124 -10 0 -70 -28 -133 -61 -96 -51 -117 -67 -129 -95 -20 -47 -8 -90 41 -140 37 -39 46 -44 87 -44 90 0 266 114 283 183 10 38 -1 72 -34 109 l-28 32 31 21 c42 28 76 82 76 120 l0 32 43 -9 c23 -6 56 -14 72 -18 l30 -8 -29 -1 c-67 -2 -128 -69 -130 -142 -1 -34 8 -45 142 -178 135 -133 146 -141 183 -141 31 0 47 8 79 36 21 19 42 44 45 55 6 18 19 19 291 19 300 0 328 4 367 47 35 40 33 87 -6 166 -44 88 -87 142 -135 166 l-35 18 54 12 c153 35 189 61 189 136 0 48 -31 102 -70 123 -23 12 -86 11 -120 -3 -13 -4 -15 34 -15 277 0 314 -3 330 -65 360 -31 15 -31 16 -8 21 12 3 58 9 102 13 66 5 83 11 110 34 28 26 31 33 30 88 -1 62 -28 124 -60 136 -25 9 -135 7 -221 -5 -112 -15 -340 -67 -375 -85 -51 -26 -68 -99 -41 -170 4 -12 -16 -14 -120 -14 l-124 0 10 39 c16 61 -7 109 -67 142 -85 47 -349 99 -498 99 -73 0 -77 -1 -102 -30z m1122 -446 c12 -4 22 -13 22 -20 0 -12 -61 -14 -365 -14 -355 0 -405 4 -342 30 24 10 649 13 685 4z m22 -189 c0 -13 -47 -15 -365 -15 -318 0 -365 2 -365 15 0 13 47 15 365 15 318 0 365 -2 365 -15z m0 -175 c0 -6 -127 -10 -360 -10 -233 0 -360 4 -360 10 0 6 127 10 360 10 233 0 360 -4 360 -10z m-21 -231 c-24 -17 -63 -50 -86 -72 l-43 -41 -27 25 c-44 41 -89 69 -151 94 l-57 24 204 1 204 0 -44 -31z m-377 -221 c50 -27 98 -71 98 -92 0 -3 -10 -6 -22 -6 -14 1 -49 26 -91 65 -37 36 -62 65 -56 65 6 0 38 -14 71 -32z m512 0 c-10 -19 -14 -44 -11 -65 l6 -33 -65 0 c-62 0 -64 1 -54 20 10 18 124 110 136 110 3 0 -3 -14 -12 -32z"/>
 <path d="M8285 1816 c-16 -8 -45 -30 -64 -49 -28 -30 -34 -44 -34 -79 1 -24 13 -70 27 -103 15 -32 45 -122 67 -200 68 -235 81 -255 166 -255 62 0 100 17 137 60 32 38 33 70 6 170 -38 137 -112 364 -131 402 -32 62 -105 85 -174 54z"/>
 <path d="M9196 1817 c-49 -15 -77 -52 -83 -112 l-6 -46 -38 37 c-35 34 -41 36 -83 32 -50 -6 -110 -45 -121 -78 -10 -30 -22 -24 -35 18 -19 57 -49 101 -80 117 -37 19 -93 19 -129 1 -41 -22 -91 -83 -91 -111 0 -14 16 -72 35 -129 78 -233 85 -300 94 -838 6 -412 7 -428 27 -455 44 -59 29 -58 627 -61 l548 -3 31 31 c29 29 30 34 26 100 -3 56 -8 75 -26 93 -21 21 -31 22 -202 25 -99 2 -180 7 -180 12 0 5 -3 15 -6 24 -5 14 7 16 92 16 111 0 169 12 201 42 37 34 45 104 41 348 -3 192 -6 230 -21 257 -27 51 -62 63 -176 63 l-100 0 -3 263 -3 264 -28 36 c-20 27 -41 41 -79 52 -60 18 -176 19 -232 2z m29 -254 c43 7 45 1 45 -200 l0 -161 -115 -4 c-114 -3 -115 -3 -147 -36 l-33 -32 -3 -264 c-3 -295 1 -322 58 -351 17 -9 64 -19 103 -22 70 -6 87 -14 87 -41 0 -10 -32 -12 -142 -10 l-143 3 -6 380 c-7 367 -13 459 -45 629 -8 44 -12 81 -10 83 5 6 58 -108 82 -177 25 -72 80 -130 123 -130 46 0 93 23 125 60 33 40 31 70 -18 202 -30 79 -31 86 -13 76 11 -5 34 -8 52 -5z m345 -603 c0 -19 -7 -20 -170 -20 -135 0 -170 3 -170 13 0 8 3 17 7 20 3 4 80 7 170 7 156 0 163 -1 163 -20z m-2 -217 c-3 -16 -20 -18 -162 -21 -157 -2 -175 1 -176 31 0 4 77 7 171 7 157 0 170 -1 167 -17z"/>
 <path d="M2161 1782 c-81 -40 -91 -90 -91 -432 0 -341 10 -387 90 -434 29 -17 58 -20 232 -24 l198 -5 0 -113 0 -114 -309 0 -309 0 -31 -35 c-62 -70 -37 -217 41 -244 19 -7 137 -11 319 -11 l289 0 0 -80 c0 -74 2 -82 29 -112 28 -32 33 -33 114 -36 l85 -4 38 35 c38 35 39 37 42 116 l4 81 293 0 c185 0 303 4 323 11 18 6 41 26 53 45 18 29 21 47 17 104 -3 60 -7 73 -33 100 l-29 30 -313 0 -313 0 0 114 0 113 203 5 c235 5 267 14 302 83 19 38 20 60 20 375 0 387 -2 396 -77 430 -41 19 -70 20 -598 20 -509 0 -558 -1 -589 -18z m957 -434 l-3 -173 -370 0 -370 0 -3 160 c-1 87 0 165 2 172 4 10 83 13 376 13 l370 0 -2 -172z"/>
 <path d="M9723 1725 c-36 -25 -82 -108 -123 -224 -59 -164 -54 -217 23 -252 58 -26 110 -24 142 4 31 27 155 322 155 370 0 43 -24 75 -74 98 -50 22 -94 24 -123 4z"/>
 <path d="M8378 967 c-35 -29 -84 -68 -110 -85 -25 -18 -56 -44 -67 -58 -46 -58 -11 -168 67 -212 52 -29 77 -28 137 7 62 36 191 153 211 194 30 57 -7 143 -80 188 -53 33 -87 25 -158 -34z"/>
 <path d="M8390 505 c-150 -129 -160 -140 -160 -185 0 -51 19 -88 65 -129 29 -26 44 -31 84 -31 56 0 90 21 200 127 63 61 71 72 71 106 0 49 -19 85 -69 130 -34 30 -49 37 -84 37 -37 0 -50 -7 -107 -55z"/>
 </g>

</svg>