<!DOCTYPE svg PUBLIC "-//W3C//DTD SVG 20010904//EN" "http://www.w3.org/TR/2001/REC-SVG-20010904/DTD/svg10.dtd">
<svg version="1.0" xmlns="http://www.w3.org/2000/svg" width="187px" height="40px" viewBox="0 0 1870 400" preserveAspectRatio="xMidYMid meet">
<g id="layer1" fill="#ffffff" stroke="none">
 <path d="M114 346 c-24 -24 -34 -43 -34 -65 0 -28 -3 -31 -30 -31 -28 0 -30 -2 -30 -40 0 -39 1 -40 35 -40 44 0 46 -18 3 -22 -60 -6 -47 -78 13 -78 24 0 29 -4 29 -25 0 -48 81 -45 88 3 2 12 12 22 24 24 52 8 47 70 -6 76 -14 2 -26 8 -26 14 0 5 7 7 16 4 8 -3 24 -1 35 4 13 8 25 7 40 -1 48 -25 98 81 67 141 -23 43 -75 70 -135 70 -49 0 -59 -4 -89 -34z m121 -56 c20 -7 26 -16 23 -33 -2 -14 -9 -21 -18 -18 -8 2 -27 6 -42 9 -40 6 -37 47 4 51 4 1 19 -4 33 -9z"/>
 <path d="M481 366 c-6 -8 -20 -45 -29 -82 -18 -69 -18 -69 -51 -66 -63 6 -82 -42 -32 -79 25 -18 28 -27 24 -53 -9 -59 59 -78 85 -23 7 15 17 27 21 27 15 0 21 -13 10 -26 -19 -23 -1 -54 32 -54 28 0 69 30 69 50 0 6 11 10 24 10 41 0 77 39 83 91 5 41 2 50 -27 82 -35 40 -87 56 -125 39 -22 -10 -22 -9 -14 26 6 28 4 41 -8 54 -19 22 -46 23 -62 4z m111 -166 c32 0 38 -3 38 -20 0 -29 -21 -34 -73 -18 -42 12 -44 15 -36 37 7 19 12 22 21 13 7 -7 29 -12 50 -12z"/>
 <path d="M832 368 c-16 -16 -15 -28 4 -50 16 -17 15 -19 -9 -38 -33 -26 -43 -71 -24 -110 l15 -30 -32 0 c-38 0 -56 -15 -56 -47 0 -30 33 -43 105 -43 44 0 56 -4 65 -20 13 -25 77 -28 86 -5 4 9 19 15 36 15 41 0 68 17 68 43 0 33 -19 47 -62 47 l-38 0 0 75 c0 84 -14 121 -56 154 -29 23 -83 28 -102 9z m68 -158 c0 -5 -7 -10 -15 -10 -8 0 -15 5 -15 10 0 6 7 10 15 10 8 0 15 -4 15 -10z"/>
 <path d="M1662 368 c-18 -18 -15 -39 13 -80 25 -36 25 -37 4 -43 -11 -4 -22 -5 -23 -3 -1 1 -15 24 -30 50 -30 53 -51 68 -94 68 -40 0 -72 -37 -72 -84 0 -52 30 -91 88 -112 72 -27 84 -54 24 -54 -41 0 -62 -14 -62 -41 0 -30 29 -42 108 -47 101 -6 113 5 89 81 -13 40 -14 53 -4 59 8 5 14 0 17 -15 5 -17 13 -22 40 -22 33 0 35 2 38 37 2 26 10 41 23 49 15 8 19 19 17 42 -3 28 -7 32 -35 35 -18 2 -33 8 -33 14 0 6 -11 26 -26 45 -26 34 -60 43 -82 21z m-108 -114 c3 -8 2 -12 -4 -9 -6 3 -10 10 -10 16 0 14 7 11 14 -7z"/>
 <path d="M1174 350 c-38 -15 -66 -61 -60 -98 6 -43 22 -62 50 -62 29 0 46 18 46 51 0 23 5 28 36 33 19 4 60 2 90 -4 62 -13 84 -4 84 36 0 40 -35 54 -135 53 -49 0 -100 -4 -111 -9z"/>
 <path d="M1152 118 c-15 -15 -15 -51 0 -66 8 -8 46 -12 105 -12 55 0 93 -4 93 -10 0 -5 9 -10 20 -10 11 0 20 -4 20 -10 0 -19 59 -11 70 9 15 29 12 51 -7 58 -10 3 -26 13 -36 21 -9 8 -20 12 -24 9 -3 -4 -13 -2 -20 5 -20 16 -206 21 -221 6z"/>
 </g>

</svg>