<!DOCTYPE svg PUBLIC "-//W3C//DTD SVG 20010904//EN" "http://www.w3.org/TR/2001/REC-SVG-20010904/DTD/svg10.dtd">
<svg version="1.0" xmlns="http://www.w3.org/2000/svg" width="900px" height="200px" viewBox="0 0 9000 2000" preserveAspectRatio="xMidYMid meet">
<g id="layer1" fill="#ffffff" stroke="none">
 <path d="M4189 1851 c-70 -22 -119 -87 -119 -156 0 -68 21 -89 148 -155 64 -33 135 -75 157 -94 l40 -35 -40 11 c-22 5 -78 8 -125 6 -70 -3 -94 -9 -138 -33 -66 -36 -116 -91 -151 -164 -23 -50 -26 -68 -26 -166 0 -98 3 -116 27 -167 33 -71 101 -138 176 -175 53 -25 66 -28 179 -28 l123 0 0 -34 0 -34 -107 7 c-60 3 -180 13 -268 21 -88 9 -205 18 -260 22 -99 6 -100 6 -134 -23 -37 -31 -61 -79 -61 -121 1 -47 35 -110 71 -128 51 -27 502 -74 717 -75 l32 0 0 -69 c0 -55 4 -74 22 -96 28 -36 76 -55 138 -55 107 0 160 47 160 141 l0 59 83 0 c103 0 292 17 333 31 57 18 78 52 82 130 5 79 -8 108 -60 135 -36 18 -83 20 -289 10 l-145 -8 -10 164 c-9 153 -9 166 10 218 17 45 21 80 21 190 0 122 -3 143 -29 223 -37 112 -83 184 -178 273 -134 127 -295 201 -379 175z m180 -695 c36 -19 51 -55 51 -121 0 -44 -4 -57 -22 -69 -56 -40 -147 -27 -173 24 -8 16 -15 50 -15 75 0 86 80 131 159 91z"/>
 <path d="M8135 1831 c-45 -11 -69 -26 -103 -65 -64 -73 -52 -128 63 -281 37 -49 87 -128 110 -176 l44 -86 -117 -37 c-64 -20 -133 -39 -152 -42 l-35 -5 -53 118 c-111 250 -213 388 -330 445 -60 30 -75 33 -152 33 -111 -1 -171 -27 -240 -102 -62 -68 -80 -124 -80 -249 0 -117 23 -192 84 -277 109 -154 257 -237 478 -268 l85 -12 53 -149 c29 -82 50 -151 47 -155 -7 -6 -169 9 -292 28 -132 20 -195 -27 -195 -145 0 -74 25 -121 75 -142 19 -8 132 -23 252 -34 429 -40 440 -40 508 30 61 63 57 95 -47 370 -47 124 -84 227 -82 228 4 6 247 62 251 59 2 -3 10 -43 17 -89 17 -101 27 -123 66 -143 38 -20 142 -20 180 0 52 27 63 64 57 190 -4 60 -9 121 -12 135 -5 23 2 29 75 69 107 59 130 86 130 157 0 65 -16 100 -65 143 -46 40 -104 42 -176 6 l-50 -26 -11 31 c-22 64 -99 212 -146 282 -51 75 -132 158 -154 158 -7 0 -22 2 -33 4 -11 3 -33 1 -50 -3z m-683 -428 c50 -55 178 -268 166 -278 -9 -8 -102 29 -144 57 -63 43 -94 102 -94 178 0 31 3 60 7 63 14 14 40 6 65 -20z"/>
 <path d="M925 1814 c-141 -34 -204 -65 -271 -136 -91 -96 -124 -190 -124 -354 l0 -101 -129 -11 c-76 -6 -141 -17 -159 -26 -44 -22 -65 -76 -60 -149 4 -54 8 -63 43 -95 l38 -35 152 7 152 7 7 -62 c12 -116 16 -109 -66 -109 -172 0 -259 -38 -273 -119 -9 -54 9 -112 46 -146 l31 -30 148 2 148 1 6 -91 c10 -126 20 -160 61 -196 61 -53 168 -54 224 -2 42 40 54 93 41 193 -5 45 -9 82 -7 83 1 1 40 -1 87 -4 156 -13 201 14 208 123 4 55 1 71 -18 102 -31 49 -73 64 -197 73 -57 4 -107 12 -112 17 -5 5 -12 44 -15 88 l-7 79 38 -6 c100 -16 213 -20 243 -7 51 21 70 58 70 135 0 60 -3 69 -28 95 -16 16 -46 33 -68 39 -50 13 -195 31 -252 31 l-44 0 4 88 c4 117 25 157 97 194 46 24 65 28 142 28 103 0 180 -24 235 -73 52 -45 68 -82 68 -158 0 -56 -5 -77 -37 -142 -47 -96 -48 -134 -5 -183 40 -45 82 -64 143 -64 37 0 51 6 83 35 68 61 132 242 132 372 0 71 -25 173 -56 234 -56 112 -195 213 -349 255 -58 16 -325 29 -370 18z"/>
 <path d="M2445 1798 c-38 -30 -48 -57 -115 -321 -67 -267 -127 -478 -139 -490 -4 -4 -57 10 -116 32 -62 24 -125 41 -149 41 -85 0 -136 -62 -136 -164 0 -83 32 -113 183 -175 65 -26 119 -50 119 -52 1 -2 -20 -68 -46 -146 -51 -154 -52 -169 -7 -216 41 -44 80 -60 149 -61 61 -1 65 1 96 35 24 26 44 69 75 161 l42 125 144 -42 c80 -23 148 -44 150 -47 3 -3 -26 -39 -64 -80 -39 -42 -75 -87 -81 -102 -31 -83 68 -196 161 -183 53 7 138 72 195 150 43 58 45 65 42 117 l-3 55 105 1 c145 0 200 22 296 118 93 93 116 149 122 297 7 177 -27 279 -126 378 -105 105 -214 145 -397 146 -108 0 -125 -3 -170 -25 -63 -31 -95 -78 -95 -137 0 -60 23 -109 62 -133 38 -23 79 -25 175 -8 116 19 189 -10 231 -92 26 -52 28 -104 6 -160 -46 -115 -187 -114 -554 3 -72 23 -105 38 -104 48 1 8 20 75 42 149 111 372 162 579 162 661 0 45 -45 104 -97 125 -51 22 -125 18 -158 -8z"/>
 <path d="M6005 1730 c-301 -23 -460 -99 -531 -255 -65 -141 -22 -372 81 -435 30 -19 47 -22 102 -18 63 4 67 6 110 52 44 45 45 49 39 93 -3 25 -14 67 -23 93 -22 63 -9 94 50 120 76 34 165 42 384 37 183 -4 220 -7 308 -30 55 -15 116 -27 135 -27 107 0 181 126 136 233 -29 71 -103 103 -281 126 -118 14 -384 20 -510 11z"/>
 <path d="M5600 593 c-39 -40 -40 -42 -40 -111 0 -66 2 -74 32 -108 18 -20 46 -43 63 -50 45 -18 406 -37 640 -32 165 3 206 6 234 21 40 20 50 22 33 5 -7 -7 -12 -29 -12 -51 0 -74 85 -122 151 -86 30 15 137 164 150 208 14 47 -6 93 -51 116 -65 34 -104 14 -164 -83 -31 -50 -39 -54 -24 -11 14 41 5 115 -19 148 -11 14 -36 34 -56 44 -33 17 -46 17 -155 6 -118 -12 -191 -10 -639 18 l-102 6 -41 -40z"/>
 <path d="M6894 388 c-28 -32 -119 -158 -133 -185 -19 -37 -13 -73 18 -104 24 -23 38 -29 74 -29 42 0 48 4 100 59 99 108 123 196 68 252 -38 37 -97 41 -127 7z"/>
 </g>

</svg>