<!DOCTYPE svg PUBLIC "-//W3C//DTD SVG 20010904//EN" "http://www.w3.org/TR/2001/REC-SVG-20010904/DTD/svg10.dtd">
<svg version="1.0" xmlns="http://www.w3.org/2000/svg" width="451px" height="80px" viewBox="0 0 4510 800" preserveAspectRatio="xMidYMid meet">
<g id="layer1" fill="#5b3714" stroke="none">
 <path d="M4163 750 c-57 -23 -56 -86 2 -170 l46 -64 -37 -13 c-21 -7 -38 -12 -39 -11 -2 2 -17 31 -34 65 -56 113 -115 163 -191 163 -49 0 -90 -20 -119 -56 -17 -21 -21 -41 -21 -98 0 -62 4 -78 29 -117 34 -55 84 -87 164 -108 55 -15 61 -19 73 -54 l13 -38 -72 7 c-64 6 -74 4 -90 -14 -13 -14 -17 -32 -15 -62 5 -69 26 -79 193 -86 135 -6 141 -6 160 15 26 30 24 73 -9 159 -16 40 -26 75 -24 77 2 3 15 6 29 7 19 2 25 -2 27 -22 6 -42 30 -60 82 -60 25 0 51 5 58 12 7 7 12 39 12 75 0 35 4 63 9 63 5 0 23 13 40 29 37 35 41 76 10 115 -16 21 -29 26 -63 26 -40 0 -43 2 -64 45 -12 24 -38 62 -58 85 -37 41 -64 49 -111 30z m93 -47 c13 -14 39 -55 56 -90 24 -49 35 -62 47 -57 39 16 53 15 71 -1 11 -10 20 -31 20 -46 0 -23 -9 -34 -40 -54 l-40 -25 6 -53 c7 -59 -9 -87 -49 -87 -35 0 -48 14 -54 59 -5 37 -9 42 -27 37 -12 -2 -38 -8 -59 -12 -30 -5 -37 -10 -32 -23 33 -81 65 -176 65 -190 0 -10 -9 -26 -20 -36 -18 -16 -29 -16 -143 -6 -147 13 -155 15 -164 49 -12 48 5 57 105 55 l90 -2 -18 52 c-10 29 -21 59 -25 68 -4 11 -24 18 -56 22 -67 8 -127 43 -164 95 -26 38 -30 52 -30 109 0 60 2 67 33 94 26 23 42 29 78 29 25 0 58 -7 73 -16 34 -20 83 -91 112 -161 12 -29 27 -53 33 -52 27 2 110 35 113 45 2 6 -19 45 -47 85 -27 41 -50 80 -50 87 0 21 39 52 65 52 15 0 36 -11 51 -27z"/>
 <path d="M3897 583 c-22 -22 9 -93 48 -111 48 -22 58 -17 39 21 -21 41 -63 97 -73 97 -4 0 -11 -3 -14 -7z m48 -73 c3 -5 4 -10 1 -10 -3 0 -8 5 -11 10 -3 6 -4 10 -1 10 3 0 8 -4 11 -10z"/>
 <path d="M47 732 c-25 -27 -21 -77 13 -146 16 -33 32 -78 36 -98 6 -37 5 -38 -24 -38 -49 0 -56 -18 -48 -128 8 -103 17 -122 63 -122 21 0 23 -4 23 -60 0 -48 4 -61 19 -70 55 -29 121 4 121 60 0 43 26 38 40 -7 7 -21 19 -46 28 -55 22 -26 69 -23 95 6 30 32 78 38 92 11 14 -26 86 -33 105 -10 7 8 22 15 34 15 13 0 33 11 46 25 21 22 29 48 47 151 5 30 6 31 33 21 28 -10 28 -11 14 -50 -29 -81 -11 -122 58 -134 50 -8 75 10 95 68 16 45 20 49 43 44 34 -9 35 -11 16 -39 -37 -57 -3 -126 62 -126 37 0 112 65 112 96 0 16 11 22 58 32 38 8 67 21 82 37 l23 24 19 -24 c18 -23 26 -25 104 -25 l84 0 -6 -43 c-6 -39 -3 -46 21 -65 34 -27 95 -29 118 -4 8 9 21 31 29 48 l13 32 55 -18 c72 -24 73 -24 108 5 23 20 41 25 81 25 l51 0 6 -40 c9 -54 46 -84 93 -76 46 7 71 32 71 71 0 29 2 31 30 27 44 -6 70 20 70 73 0 58 -15 74 -84 85 -32 5 -60 11 -61 12 -1 2 -11 30 -22 63 -12 33 -24 68 -28 77 -6 15 -2 15 31 -3 22 -11 59 -19 86 -19 l48 0 0 -51 c0 -66 13 -89 50 -89 l30 0 -20 -20 c-26 -26 -27 -90 -2 -113 32 -29 90 -21 158 22 l62 39 6 -31 c10 -49 33 -67 86 -67 74 0 80 12 80 171 0 74 3 151 6 171 l6 37 22 -32 c18 -27 29 -33 65 -35 52 -4 91 26 91 67 -1 37 -32 101 -70 145 -84 95 -187 89 -240 -14 -20 -39 -40 -167 -40 -254 0 -47 -1 -48 -18 -33 -24 22 -80 22 -104 0 -17 -15 -18 -13 -18 49 l0 65 41 18 c64 29 99 67 99 107 0 54 -23 78 -75 78 -24 0 -47 -5 -51 -11 -3 -6 -14 2 -25 20 -32 52 -64 66 -154 66 -117 0 -181 -40 -200 -123 l-7 -33 -23 26 c-17 17 -34 25 -58 25 -39 0 -87 -33 -87 -59 0 -14 -6 -17 -24 -14 -14 3 -48 -6 -80 -21 -102 -48 -214 -53 -230 -10 -16 42 48 64 185 64 60 0 99 4 107 12 17 17 15 89 -4 116 -14 21 -23 22 -133 22 -150 0 -210 -17 -267 -74 -48 -48 -63 -105 -45 -173 22 -82 86 -129 191 -140 100 -10 67 -23 -59 -23 l-118 0 -6 51 c-9 70 -36 118 -86 154 -40 28 -48 30 -137 30 l-94 0 4 25 c18 88 17 95 -4 123 -17 22 -30 27 -64 27 -28 0 -48 -6 -58 -17 -12 -14 -88 -271 -88 -298 0 -3 -16 2 -36 10 -20 8 -45 15 -55 15 -15 0 -19 7 -19 32 0 18 -9 41 -20 53 l-20 22 20 44 c27 61 26 93 -6 118 -34 27 -68 27 -95 0 -19 -19 -22 -19 -38 -5 -20 18 -72 21 -88 5 -8 -8 -13 -8 -17 0 -9 15 -89 14 -104 -1 -9 -9 -16 -8 -30 5 -23 21 -71 22 -100 1 -16 -11 -22 -25 -22 -55 0 -50 -12 -50 -35 2 -10 22 -28 47 -39 55 -29 20 -80 18 -99 -4z m981 -18 c31 -21 28 -48 -18 -214 -23 -78 -39 -144 -38 -145 2 -2 37 -13 78 -25 138 -42 194 -29 194 45 0 53 -23 69 -107 75 l-72 5 -3 35 c-5 47 16 60 95 60 119 0 184 -56 191 -165 7 -112 -56 -185 -161 -185 -42 0 -44 -1 -39 -25 3 -19 -4 -33 -31 -60 -41 -41 -78 -46 -101 -13 -22 30 -21 32 19 77 l35 38 -66 18 c-35 10 -66 16 -68 14 -1 -2 -11 -29 -22 -59 -18 -52 -21 -55 -55 -58 -25 -2 -40 3 -53 17 -17 19 -17 22 0 73 10 29 19 56 19 60 0 4 -25 20 -55 35 -45 23 -56 33 -58 56 -7 56 33 71 108 41 23 -9 43 -15 45 -12 2 2 21 69 41 148 46 180 64 205 122 164z m762 -4 c22 -22 25 -42 10 -70 -9 -17 -21 -19 -113 -18 -83 2 -109 -1 -142 -17 -32 -16 -41 -26 -43 -51 -2 -25 3 -37 25 -54 24 -19 37 -22 98 -18 48 3 90 14 132 32 72 33 93 31 112 -8 12 -26 11 -31 -8 -55 -60 -73 -119 -156 -116 -160 3 -2 33 -13 67 -25 66 -22 76 -35 64 -81 -9 -35 -39 -39 -112 -15 -36 12 -66 20 -68 19 -1 -2 -10 -25 -20 -51 -20 -53 -42 -66 -83 -46 -23 11 -28 20 -27 48 0 19 4 42 8 51 6 13 -2 17 -40 23 -26 3 -70 6 -98 6 -58 0 -76 12 -76 51 0 47 18 53 153 45 l123 -6 19 37 c11 21 21 40 22 43 2 3 -32 4 -74 2 -65 -2 -85 1 -123 20 -58 30 -90 77 -90 135 0 123 93 180 298 182 69 1 85 -2 102 -19z m-1625 -55 c17 -33 31 -62 33 -65 2 -3 8 3 13 13 6 9 19 17 31 17 15 0 18 4 13 18 -23 55 -12 82 35 82 36 0 50 -18 65 -84 15 -65 6 -86 -38 -86 -25 0 -36 -7 -50 -31 -9 -17 -27 -33 -38 -36 -17 -5 -20 -11 -15 -36 3 -16 6 -48 6 -71 0 -22 5 -48 10 -56 9 -13 12 -13 21 3 5 9 19 17 30 17 20 0 58 35 59 54 0 4 -13 25 -30 46 -32 41 -37 59 -18 78 38 38 86 -4 144 -124 21 -43 42 -74 50 -74 11 0 13 6 9 23 -10 32 -51 101 -69 117 -9 7 -16 25 -16 41 0 23 6 30 27 35 36 9 52 -3 92 -70 l35 -58 22 44 c42 83 90 108 120 62 13 -18 11 -25 -10 -55 -33 -46 -76 -120 -76 -130 0 -5 15 -9 33 -9 46 0 59 -12 55 -51 -3 -33 -5 -34 -53 -39 -31 -3 -50 -10 -49 -17 3 -44 4 -44 28 -16 l25 28 21 -21 c18 -18 20 -25 11 -42 -19 -36 -42 -53 -62 -47 -12 4 -21 1 -25 -9 -8 -21 -39 -29 -64 -16 -17 9 -20 21 -20 75 0 50 -3 65 -14 65 -11 0 -16 -14 -18 -48 l-3 -47 -42 -3 c-34 -3 -42 -7 -45 -25 -2 -17 -11 -23 -34 -25 -31 -3 -33 -1 -54 64 -14 41 -25 62 -30 54 -5 -7 -19 -11 -33 -8 -25 5 -26 3 -29 -46 l-3 -51 -40 0 -40 0 -6 205 c-7 214 -10 232 -53 317 -14 29 -26 58 -26 66 0 23 24 38 55 35 26 -3 34 -12 60 -63z m295 51 c15 -19 3 -121 -16 -136 -7 -7 -23 -10 -36 -8 -21 3 -23 9 -26 60 -2 32 2 67 8 78 13 23 52 27 70 6z m104 -1 c12 -12 14 -28 9 -63 -8 -66 -19 -82 -52 -82 -37 0 -42 16 -31 86 12 72 39 94 74 59z m130 9 c20 -8 20 -44 1 -91 -21 -50 -43 -73 -71 -73 -43 0 -47 31 -14 104 29 67 43 76 84 60z m1637 -17 c19 -12 38 -36 43 -52 6 -17 11 -32 13 -34 1 -2 16 7 33 19 38 27 76 21 92 -15 16 -35 -9 -67 -77 -100 l-55 -27 0 -74 c0 -69 -2 -75 -24 -85 -14 -7 -36 -9 -50 -5 -25 6 -26 10 -26 70 l0 63 -64 5 c-129 11 -190 93 -140 189 34 66 185 93 255 46z m444 -39 c39 -33 85 -114 85 -147 0 -27 -43 -55 -73 -47 -14 3 -31 22 -45 51 -44 91 -63 41 -65 -176 -2 -169 -8 -189 -55 -189 -49 0 -62 25 -62 114 0 104 17 292 31 334 6 18 22 46 36 62 20 25 32 30 69 30 34 0 51 -6 79 -32z m-762 -106 c16 -29 46 -98 67 -155 l39 -102 58 -7 c77 -10 104 -46 70 -93 -11 -14 -22 -17 -55 -12 l-42 5 0 -42 c0 -49 -13 -66 -51 -66 -34 0 -59 24 -59 55 0 47 -9 55 -62 55 -68 0 -88 13 -88 55 0 40 20 55 74 55 20 0 36 2 36 4 0 13 -70 169 -87 193 -31 44 -35 64 -18 90 13 20 23 24 53 21 33 -3 40 -8 65 -56z m-1420 -19 c2 -5 -3 -21 -13 -36 l-17 -28 -18 27 c-14 22 -15 28 -4 35 17 11 46 12 52 2z m-309 -105 c26 -34 23 -51 -14 -61 -22 -6 -30 10 -30 59 0 42 11 43 44 2z m841 -5 c62 6 95 -11 95 -48 0 -49 -50 -54 -168 -18 -56 18 -55 16 -31 81 l9 22 21 -21 c18 -18 29 -21 74 -16z m810 -29 c14 -31 25 -60 25 -65 0 -5 -14 -9 -32 -9 -18 0 -41 -9 -53 -20 -20 -18 -25 -19 -59 -7 l-38 13 58 72 c33 39 62 71 67 72 4 0 18 -25 32 -56z m-1830 -64 c0 -95 0 -95 -25 -95 -24 0 -25 2 -28 84 -3 100 0 113 30 109 22 -3 23 -7 23 -98z m573 11 c-15 -5 -19 4 -11 24 6 18 7 18 13 -1 4 -10 3 -21 -2 -23z m1826 -7 c9 -8 16 -29 16 -45 0 -32 -42 -69 -118 -103 -39 -18 -43 -18 -67 -2 -25 16 -32 40 -17 63 10 16 144 103 159 103 6 0 19 -7 27 -16z"/>
 <path d="M353 315 c-15 -8 -19 -15 -13 -26 8 -12 13 -11 31 7 24 25 14 36 -18 19z"/>
 <path d="M387 233 c-22 -6 -17 -27 6 -31 12 -2 17 3 17 17 0 12 -1 20 -2 20 -2 -1 -11 -3 -21 -6z"/>
 <path d="M2178 619 c-24 -13 -23 -46 1 -59 22 -11 61 -13 85 -4 19 7 21 45 4 62 -15 15 -66 15 -90 1z m72 -30 c0 -5 -13 -9 -30 -9 -32 0 -41 16 -12 22 21 5 42 -1 42 -13z"/>
 <path d="M3330 707 c-30 -7 -65 -18 -76 -25 -30 -16 -74 -70 -74 -89 0 -14 -2 -14 -18 0 -23 21 -105 23 -121 3 -6 -7 -16 -39 -22 -71 -13 -69 -53 -185 -80 -229 -24 -39 -25 -98 -1 -119 22 -20 66 -31 97 -23 33 9 72 78 117 211 21 61 37 102 38 93 0 -24 48 -58 80 -58 15 0 40 10 55 22 24 19 27 26 23 69 -5 48 -5 49 30 60 33 11 132 8 270 -7 68 -8 92 11 92 68 0 52 -13 73 -52 88 -48 18 -291 22 -358 7z m357 -35 c31 -17 39 -56 18 -88 -14 -22 -22 -25 -48 -20 -152 27 -189 30 -254 19 -77 -14 -97 -31 -82 -71 20 -53 -12 -91 -68 -80 -30 5 -55 66 -50 121 5 60 42 101 107 122 57 19 343 16 377 -3z m-549 -98 c16 -11 22 -25 22 -51 0 -56 -37 -179 -78 -263 -32 -64 -41 -75 -65 -78 -31 -4 -77 21 -77 41 0 6 16 44 35 83 20 40 47 116 60 170 29 116 49 136 103 98z"/>
 <path d="M3235 268 c-23 -35 -19 -90 9 -117 23 -21 36 -23 188 -28 155 -6 164 -7 185 -29 12 -13 32 -24 44 -24 12 0 27 -7 33 -14 6 -8 23 -18 38 -22 23 -5 34 0 62 28 58 58 58 128 1 142 -15 4 -40 16 -55 28 -18 13 -37 19 -51 15 -14 -4 -27 1 -38 13 -14 16 -39 19 -208 24 -190 5 -192 5 -208 -16z m393 -22 c17 -10 15 -71 -2 -86 -20 -16 -313 -15 -350 1 -31 14 -42 48 -27 78 11 20 18 21 189 18 98 -2 183 -6 190 -11z m101 -40 c23 -27 -39 -111 -76 -104 -28 5 -27 33 3 77 28 42 53 51 73 27z m79 -57 c4 -35 -43 -91 -72 -87 -31 4 -31 33 1 78 33 47 66 51 71 9z"/>
 </g>
<g id="layer2" fill="#fefefe" stroke="none">
 <path d="M958 713 c-8 -10 -31 -83 -52 -163 -20 -79 -39 -146 -41 -148 -2 -3 -22 3 -45 12 -75 30 -115 15 -108 -41 2 -23 13 -33 58 -56 30 -15 55 -31 55 -35 0 -4 -9 -31 -19 -60 -17 -51 -17 -54 0 -73 13 -14 28 -19 53 -17 34 3 37 6 55 58 11 30 21 57 22 59 2 2 33 -4 68 -14 l66 -18 -35 -38 c-40 -45 -41 -47 -19 -77 23 -33 60 -28 101 13 27 27 34 41 31 60 -5 24 -3 25 39 25 105 0 168 73 161 185 -7 109 -72 165 -191 165 -79 0 -100 -13 -95 -60 l3 -35 72 -5 c84 -6 107 -22 107 -75 0 -74 -56 -87 -194 -45 -41 12 -76 23 -78 25 -1 1 15 67 38 145 46 166 49 193 18 214 -29 21 -51 20 -70 -1z"/>
 <path d="M1550 716 c-108 -23 -160 -77 -160 -169 0 -58 32 -105 90 -135 38 -19 58 -22 123 -20 42 2 76 1 74 -2 -1 -3 -11 -22 -22 -43 l-19 -37 -123 6 c-135 8 -153 2 -153 -45 0 -39 18 -51 76 -51 28 0 72 -3 98 -6 38 -6 46 -10 40 -23 -4 -9 -8 -32 -8 -51 -1 -28 4 -37 27 -48 41 -20 63 -7 83 46 10 26 19 49 20 51 2 1 32 -7 68 -19 73 -24 103 -20 112 15 12 46 2 59 -64 81 -34 12 -64 23 -67 25 -3 4 56 87 116 160 19 24 20 29 8 55 -19 39 -40 41 -112 8 -42 -18 -84 -29 -132 -32 -61 -4 -74 -1 -98 18 -22 17 -27 29 -25 54 2 25 11 35 43 51 33 16 59 19 142 17 92 -1 104 1 113 18 15 28 12 48 -10 70 -17 17 -33 20 -102 19 -46 0 -108 -6 -138 -13z"/>
 <path d="M4160 710 c-11 -11 -20 -26 -20 -32 0 -7 23 -46 50 -87 28 -40 49 -79 47 -85 -3 -10 -86 -43 -113 -45 -6 -1 -21 23 -33 52 -29 70 -78 141 -112 161 -15 9 -48 16 -73 16 -36 0 -52 -6 -78 -29 -31 -27 -33 -34 -33 -94 0 -57 4 -71 30 -109 37 -52 97 -87 164 -95 32 -4 52 -11 56 -22 4 -9 15 -39 25 -68 l18 -52 -90 2 c-100 2 -117 -7 -105 -55 9 -34 17 -36 164 -49 114 -10 125 -10 143 6 11 10 20 26 20 36 0 14 -32 109 -65 190 -5 13 2 18 32 23 21 4 47 10 59 12 18 5 22 0 27 -37 6 -45 19 -59 54 -59 40 0 56 28 49 87 l-6 53 40 25 c31 20 40 31 40 54 0 15 -9 36 -20 46 -18 16 -32 17 -71 1 -12 -5 -23 8 -47 57 -55 112 -105 144 -152 97z m-217 -152 c14 -18 32 -48 41 -65 14 -28 14 -33 2 -33 -46 0 -96 51 -96 98 0 42 22 42 53 0z"/>
 <path d="M62 708 c-17 -17 -15 -32 14 -91 43 -85 46 -103 53 -317 l6 -205 40 0 40 0 3 51 c3 49 4 51 29 46 14 -3 28 1 33 8 5 8 16 -13 30 -54 21 -65 23 -67 54 -64 23 2 32 8 34 25 3 18 11 22 45 25 l42 3 3 47 c2 34 7 48 18 48 11 0 14 -15 14 -65 0 -54 3 -66 20 -75 25 -13 56 -5 64 16 4 10 13 13 25 9 20 -6 43 11 62 47 9 17 7 24 -11 42 l-21 21 -25 -28 c-24 -28 -25 -28 -28 16 -1 7 18 14 49 17 48 5 50 6 53 39 4 39 -9 51 -55 51 -18 0 -33 4 -33 9 0 10 43 84 76 130 21 30 23 37 10 55 -30 46 -78 21 -120 -62 l-22 -44 -35 58 c-40 67 -56 79 -92 70 -21 -5 -27 -12 -27 -35 0 -16 7 -34 16 -41 18 -16 59 -85 69 -117 4 -17 2 -23 -9 -23 -8 0 -29 31 -50 74 -58 120 -106 162 -144 124 -19 -19 -14 -37 18 -78 17 -21 30 -42 30 -46 -1 -19 -39 -54 -59 -54 -11 0 -25 -8 -30 -17 -9 -16 -12 -16 -21 -3 -5 8 -10 34 -10 56 0 23 -3 55 -6 71 -5 25 -2 31 15 36 11 3 29 19 38 36 14 24 25 31 50 31 44 0 53 21 38 86 -15 66 -29 84 -65 84 -47 0 -58 -27 -35 -82 5 -14 2 -18 -13 -18 -12 0 -25 -8 -31 -17 -5 -10 -11 -16 -13 -13 -2 3 -16 32 -33 65 -26 51 -34 60 -60 63 -17 2 -36 -3 -43 -10z m309 -412 c-18 -18 -23 -19 -31 -7 -6 11 -2 18 13 26 32 17 42 6 18 -19z m39 -77 c0 -14 -5 -19 -17 -17 -23 4 -28 25 -6 31 10 3 19 5 21 6 1 0 2 -8 2 -20z"/>
 <path d="M390 700 c-6 -11 -10 -46 -8 -78 3 -51 5 -57 26 -60 13 -2 29 1 36 8 19 15 31 117 16 136 -18 21 -57 17 -70 -6z"/>
 <path d="M512 712 c-14 -10 -34 -115 -25 -137 7 -21 60 -19 71 3 19 36 22 110 6 127 -17 17 -33 19 -52 7z"/>
 <path d="M610 654 c-33 -73 -29 -104 14 -104 28 0 50 23 71 73 28 68 17 97 -36 97 -15 0 -28 -17 -49 -66z"/>
 <path d="M2133 701 c-46 -21 -73 -62 -73 -110 0 -76 54 -120 156 -129 l64 -5 0 -63 c0 -60 1 -64 26 -70 14 -4 36 -2 50 5 22 10 24 16 24 85 l0 74 55 27 c68 33 93 65 77 100 -16 36 -54 42 -92 15 -17 -12 -32 -21 -33 -19 -2 2 -7 17 -13 34 -5 16 -24 40 -43 52 -44 30 -137 31 -198 4z m135 -83 c17 -17 15 -55 -4 -62 -24 -9 -63 -7 -85 4 -24 13 -25 46 -1 59 24 14 75 14 90 -1z"/>
 <path d="M2627 660 c-14 -16 -30 -44 -36 -62 -14 -42 -31 -230 -31 -334 0 -89 13 -114 62 -114 47 0 53 20 55 189 2 217 21 267 65 176 26 -53 55 -66 93 -41 31 21 31 44 1 105 -37 72 -86 111 -140 111 -37 0 -49 -5 -69 -30z"/>
 <path d="M3310 675 c-65 -21 -102 -62 -107 -122 -5 -55 20 -116 50 -121 56 -11 88 27 68 80 -15 40 5 57 82 71 65 11 102 8 254 -19 26 -5 34 -2 48 20 21 32 13 71 -18 88 -34 19 -320 22 -377 3z"/>
 <path d="M1895 587 c-17 -26 -13 -46 18 -90 17 -24 87 -180 87 -193 0 -2 -16 -4 -36 -4 -54 0 -74 -15 -74 -55 0 -42 20 -55 88 -55 53 0 62 -8 62 -55 0 -31 25 -55 59 -55 38 0 51 17 51 66 l0 42 42 -5 c33 -5 44 -2 55 12 34 47 7 83 -70 93 l-58 7 -39 102 c-21 57 -51 126 -67 155 -25 48 -32 53 -65 56 -30 3 -40 -1 -53 -21z"/>
 <path d="M3072 581 c-7 -4 -24 -52 -37 -105 -13 -54 -40 -130 -60 -170 -19 -39 -35 -77 -35 -83 0 -20 46 -45 77 -41 24 3 33 14 65 78 41 84 78 207 78 263 0 51 -49 83 -88 58z"/>
 <path d="M55 417 c-3 -7 -5 -52 -3 -98 3 -82 4 -84 28 -84 25 0 25 0 25 95 0 91 -1 95 -23 98 -12 2 -24 -3 -27 -11z"/>
 <path d="M2395 304 c-38 -24 -73 -50 -77 -57 -15 -23 -8 -47 17 -63 24 -16 28 -16 67 2 76 34 118 71 118 103 0 30 -22 61 -43 61 -7 0 -43 -21 -82 -46z"/>
 <path d="M3249 239 c-15 -30 -4 -64 27 -78 37 -16 330 -17 350 -1 17 15 19 76 2 86 -7 5 -92 9 -190 11 -171 3 -178 2 -189 -18z"/>
 <path d="M3656 179 c-30 -44 -31 -72 -3 -77 37 -7 99 77 76 104 -20 24 -45 15 -73 -27z"/>
 <path d="M3737 140 c-32 -45 -32 -74 -1 -78 29 -4 76 52 72 87 -5 42 -38 38 -71 -9z"/>
 </g>

</svg>