<!DOCTYPE svg PUBLIC "-//W3C//DTD SVG 20010904//EN" "http://www.w3.org/TR/2001/REC-SVG-20010904/DTD/svg10.dtd">
<svg version="1.0" xmlns="http://www.w3.org/2000/svg" width="1214px" height="200px" viewBox="0 0 12140 2000" preserveAspectRatio="xMidYMid meet">
<g id="layer1" fill="#ffffff" stroke="none">
 <path d="M11305 1841 c-45 -11 -69 -26 -103 -65 -64 -73 -52 -128 63 -281 37 -49 87 -128 110 -176 l44 -86 -117 -37 c-64 -20 -133 -39 -152 -42 l-35 -5 -53 118 c-111 250 -213 388 -330 445 -60 30 -75 33 -152 33 -111 -1 -171 -27 -240 -102 -62 -68 -80 -124 -80 -249 0 -117 23 -192 84 -277 109 -154 257 -237 478 -268 l85 -12 53 -149 c29 -82 50 -151 47 -155 -7 -6 -169 9 -292 28 -132 20 -195 -27 -195 -145 0 -74 25 -121 75 -142 19 -8 132 -23 252 -34 429 -40 440 -40 508 30 61 63 57 95 -47 370 -47 124 -84 227 -82 228 4 6 247 62 251 59 2 -3 10 -43 17 -89 17 -101 27 -123 66 -143 38 -20 142 -20 180 0 52 27 63 64 57 190 -4 60 -9 121 -12 135 -5 23 2 29 75 69 107 59 130 86 130 157 0 65 -16 100 -65 143 -46 40 -104 42 -176 6 l-50 -26 -11 31 c-22 64 -99 212 -146 282 -51 75 -132 158 -154 158 -7 0 -22 2 -33 4 -11 3 -33 1 -50 -3z m-683 -428 c50 -55 178 -268 166 -278 -9 -8 -102 29 -144 57 -63 43 -94 102 -94 178 0 31 3 60 7 63 14 14 40 6 65 -20z"/>
 <path d="M4160 1829 c-340 -32 -540 -164 -581 -385 -25 -134 11 -261 102 -358 120 -129 284 -178 519 -157 58 5 105 9 106 8 1 -1 -20 -40 -47 -86 -27 -46 -50 -88 -51 -92 -2 -5 -61 -2 -133 6 -71 8 -213 15 -314 15 l-183 0 -40 -40 -40 -40 4 -74 c6 -130 36 -146 275 -147 158 0 266 -9 278 -21 3 -3 -4 -27 -16 -54 -11 -27 -23 -75 -26 -106 -6 -56 -5 -58 33 -97 78 -77 209 -81 258 -7 9 15 32 69 49 119 32 91 32 92 64 90 18 -2 93 -23 167 -48 75 -25 145 -45 156 -45 69 0 140 90 140 176 0 47 -3 55 -39 87 -38 34 -137 73 -274 108 -26 6 -47 14 -47 18 0 18 130 195 208 283 120 136 132 154 132 201 0 55 -34 122 -74 147 -58 35 -114 28 -222 -30 -206 -112 -479 -140 -611 -64 -77 44 -92 154 -29 213 13 13 55 35 93 49 67 27 71 27 328 27 232 1 263 3 286 18 75 50 68 200 -11 259 -49 36 -245 48 -460 27z"/>
 <path d="M835 1824 c-141 -34 -204 -65 -271 -136 -91 -96 -124 -190 -124 -354 l0 -101 -129 -11 c-76 -6 -141 -17 -159 -26 -44 -22 -65 -76 -60 -149 4 -54 8 -63 43 -95 l38 -35 152 7 152 7 7 -62 c12 -116 16 -109 -66 -109 -172 0 -259 -38 -273 -119 -9 -54 9 -112 46 -146 l31 -30 148 2 148 1 6 -91 c10 -126 20 -160 61 -196 61 -53 168 -54 224 -2 42 40 54 93 41 193 -5 45 -9 82 -7 83 1 1 40 -1 87 -4 156 -13 201 14 208 123 4 55 1 71 -18 102 -31 49 -73 64 -197 73 -57 4 -107 12 -112 17 -5 5 -12 44 -15 88 l-7 79 38 -6 c100 -16 213 -20 243 -7 51 21 70 58 70 135 0 60 -3 69 -28 95 -16 16 -46 33 -68 39 -50 13 -195 31 -252 31 l-44 0 4 88 c4 117 25 157 97 194 46 24 65 28 142 28 103 0 180 -24 235 -73 52 -45 68 -82 68 -158 0 -56 -5 -77 -37 -142 -47 -96 -48 -134 -5 -183 40 -45 82 -64 143 -64 37 0 51 6 83 35 68 61 132 242 132 372 0 71 -25 173 -56 234 -56 112 -195 213 -349 255 -58 16 -325 29 -370 18z"/>
 <path d="M2355 1808 c-38 -30 -48 -57 -115 -321 -67 -267 -127 -478 -139 -490 -4 -4 -57 10 -116 32 -62 24 -125 41 -149 41 -85 0 -136 -62 -136 -164 0 -83 32 -113 183 -175 65 -26 119 -50 119 -52 1 -2 -20 -68 -46 -146 -51 -154 -52 -169 -7 -216 41 -44 80 -60 149 -61 61 -1 65 1 96 35 24 26 44 69 75 161 l42 125 144 -42 c80 -23 148 -44 150 -47 3 -3 -26 -39 -64 -80 -39 -42 -75 -87 -81 -102 -31 -83 68 -196 161 -183 53 7 138 72 195 150 43 58 45 65 42 117 l-3 55 105 1 c145 0 200 22 296 118 93 93 116 149 122 297 7 177 -27 279 -126 378 -105 105 -214 145 -397 146 -108 0 -125 -3 -170 -25 -63 -31 -95 -78 -95 -137 0 -60 23 -109 62 -133 38 -23 79 -25 175 -8 116 19 189 -10 231 -92 26 -52 28 -104 6 -160 -46 -115 -187 -114 -554 3 -72 23 -105 38 -104 48 1 8 20 75 42 149 111 372 162 579 162 661 0 45 -45 104 -97 125 -51 22 -125 18 -158 -8z"/>
 <path d="M5775 1809 c-151 -22 -266 -94 -323 -203 -23 -44 -27 -63 -27 -141 0 -71 5 -100 22 -137 28 -62 99 -130 170 -164 70 -33 203 -57 294 -52 l69 3 0 -146 c0 -132 2 -149 21 -172 51 -66 221 -56 261 16 9 14 15 82 18 201 l5 179 79 34 c96 41 203 110 234 152 45 61 41 139 -9 196 -62 70 -140 70 -234 0 -61 -46 -75 -48 -75 -12 0 37 -45 120 -86 159 -85 81 -238 113 -419 87z m157 -269 c41 -12 58 -45 58 -111 0 -37 -1 -38 -47 -46 -111 -18 -214 4 -229 49 -25 80 98 141 218 108z"/>
 <path d="M7145 1741 c-74 -19 -153 -88 -195 -171 -58 -113 -93 -381 -116 -891 -11 -240 6 -301 96 -346 54 -28 101 -29 157 -3 81 36 81 38 81 409 0 233 5 359 16 442 16 124 38 193 58 187 7 -2 34 -46 59 -96 55 -114 91 -151 148 -159 85 -12 201 67 201 137 0 125 -188 403 -313 464 -56 28 -144 40 -192 27z"/>
 <path d="M9175 1740 c-301 -23 -460 -99 -531 -255 -65 -141 -22 -372 81 -435 30 -19 47 -22 102 -18 63 4 67 6 110 52 44 45 45 49 39 93 -3 25 -14 67 -23 93 -22 63 -9 94 50 120 76 34 165 42 384 37 183 -4 220 -7 308 -30 55 -15 116 -27 135 -27 107 0 181 126 136 233 -29 71 -103 103 -281 126 -118 14 -384 20 -510 11z"/>
 <path d="M5058 1520 c-57 -30 -83 -75 -83 -140 1 -49 6 -64 52 -136 28 -44 72 -123 98 -174 47 -93 135 -308 135 -329 0 -7 -25 -11 -65 -11 -99 0 -160 -17 -190 -52 -21 -25 -25 -39 -25 -98 0 -63 3 -73 30 -104 44 -50 83 -60 205 -51 135 9 139 7 154 -92 17 -108 27 -135 61 -168 26 -25 41 -30 95 -33 56 -4 70 -1 109 22 25 15 50 35 56 46 13 24 13 105 -1 153 -6 21 -9 42 -7 46 2 4 47 1 101 -7 86 -12 101 -12 121 1 34 23 56 78 56 142 0 121 -53 155 -270 170 l-95 7 -35 112 c-40 130 -152 411 -205 517 -48 96 -100 166 -136 184 -39 21 -117 18 -161 -5z"/>
 <path d="M8158 1455 c-41 -23 -55 -59 -79 -197 -29 -171 -105 -393 -190 -556 -82 -159 -87 -191 -37 -248 61 -69 161 -94 225 -55 46 28 88 96 154 247 116 264 179 486 182 641 2 89 -9 114 -66 157 -36 27 -149 33 -189 11z"/>
 <path d="M6389 803 c-35 -25 -107 -73 -160 -105 -121 -73 -159 -113 -159 -169 0 -90 66 -159 150 -159 55 0 138 40 280 135 115 76 150 119 150 183 0 92 -66 162 -153 162 -38 0 -55 -7 -108 -47z"/>
 <path d="M8770 603 c-39 -40 -40 -42 -40 -111 0 -66 2 -74 32 -108 18 -20 46 -43 63 -50 45 -18 406 -37 640 -32 165 3 206 6 234 21 40 20 50 22 33 5 -7 -7 -12 -29 -12 -51 0 -74 85 -122 151 -86 30 15 137 164 150 208 14 47 -6 93 -51 116 -65 34 -104 14 -164 -83 -31 -50 -39 -54 -24 -11 14 41 5 115 -19 148 -11 14 -36 34 -56 44 -33 17 -46 17 -155 6 -118 -12 -191 -10 -639 18 l-102 6 -41 -40z"/>
 <path d="M10064 398 c-28 -32 -119 -158 -133 -185 -19 -37 -13 -73 18 -104 24 -23 38 -29 74 -29 42 0 48 4 100 59 99 108 123 196 68 252 -38 37 -97 41 -127 7z"/>
 </g>

</svg>