<!DOCTYPE svg PUBLIC "-//W3C//DTD SVG 20010904//EN" "http://www.w3.org/TR/2001/REC-SVG-20010904/DTD/svg10.dtd">
<svg version="1.0" xmlns="http://www.w3.org/2000/svg" width="183px" height="40px" viewBox="0 0 1830 400" preserveAspectRatio="xMidYMid meet">
<g id="layer1" fill="#ffffff" stroke="none">
 <path d="M106 349 c-15 -18 -26 -43 -26 -60 0 -26 -4 -29 -30 -29 -28 0 -30 -2 -30 -40 0 -39 1 -40 35 -40 44 0 46 -18 3 -22 -26 -2 -34 -8 -36 -26 -5 -31 15 -52 49 -52 23 0 28 -5 31 -27 2 -22 9 -29 31 -31 33 -4 57 13 57 39 0 10 9 19 21 21 53 8 49 70 -5 76 -14 2 -26 8 -26 14 0 5 7 7 16 4 8 -3 24 -1 35 4 13 8 25 7 40 -1 18 -9 25 -7 48 15 21 22 26 36 26 77 0 45 -4 54 -33 80 -30 26 -39 29 -106 29 -71 0 -75 -2 -100 -31z m129 -49 c20 -7 26 -16 23 -33 -2 -14 -9 -21 -18 -18 -8 2 -27 6 -42 9 -40 6 -37 47 4 51 4 1 19 -4 33 -9z"/>
 <path d="M475 370 c-3 -6 -14 -40 -24 -78 -17 -67 -17 -67 -50 -64 -63 6 -82 -42 -32 -79 25 -18 28 -27 24 -53 -9 -59 59 -78 85 -23 7 15 17 27 21 27 15 0 21 -13 10 -26 -6 -7 -8 -22 -4 -34 5 -15 15 -20 41 -20 28 0 38 6 52 30 11 19 25 30 39 30 39 0 74 41 80 91 5 41 2 50 -27 82 -35 40 -87 56 -125 39 -22 -10 -22 -9 -14 26 5 23 4 41 -3 49 -12 15 -64 17 -73 3z m117 -160 c32 0 38 -3 38 -20 0 -29 -21 -34 -73 -18 -42 12 -44 15 -36 37 7 19 12 22 21 13 7 -7 29 -12 50 -12z"/>
 <path d="M770 351 c-66 -66 -18 -171 79 -171 17 0 31 -4 31 -8 0 -4 -29 -6 -65 -4 -69 5 -95 -6 -95 -38 0 -27 33 -50 73 -50 32 0 36 -3 39 -27 2 -23 8 -29 35 -31 25 -2 35 2 48 21 14 23 19 24 50 14 41 -12 65 2 65 40 0 18 -8 28 -30 36 -16 6 -30 15 -30 19 0 4 14 23 30 41 33 38 38 68 14 88 -13 10 -23 10 -62 -4 -26 -10 -64 -17 -84 -17 -31 0 -38 4 -38 19 0 15 10 21 40 26 22 4 52 4 68 0 34 -7 55 12 50 47 -3 22 -8 23 -96 26 -91 3 -93 2 -122 -27z"/>
 <path d="M1155 355 c-14 -13 -25 -32 -25 -41 0 -16 -1 -16 -18 -1 -25 22 -45 21 -67 -3 -17 -19 -17 -22 15 -81 17 -33 30 -61 28 -62 -34 -18 -44 -28 -46 -46 -5 -30 15 -51 49 -51 21 0 28 -5 31 -22 3 -20 9 -23 43 -23 34 0 40 3 43 23 2 12 8 20 13 16 15 -9 39 16 39 40 0 29 -18 46 -49 46 -22 0 -28 8 -42 50 l-17 50 21 -15 c12 -8 34 -15 49 -15 24 0 28 -4 28 -29 0 -16 6 -34 14 -40 7 -6 11 -22 8 -36 -5 -29 13 -55 38 -55 26 0 100 58 100 79 0 26 -25 44 -55 39 -23 -5 -25 -2 -25 28 0 23 5 34 18 38 11 4 29 17 42 31 22 23 22 25 6 51 -13 19 -23 24 -40 20 -16 -4 -29 1 -41 14 -14 16 -31 20 -77 20 -49 0 -63 -4 -83 -25z m90 -55 c-3 -5 -12 -7 -20 -3 -21 7 -19 13 6 13 11 0 18 -4 14 -10z"/>
 <path d="M1464 345 c-23 -35 -33 -94 -34 -190 0 -85 8 -105 45 -105 38 0 45 19 45 119 0 89 1 94 16 73 17 -25 56 -29 74 -7 17 21 5 58 -31 100 -40 45 -89 49 -115 10z"/>
 <path d="M1702 298 c-6 -6 -12 -23 -12 -37 0 -15 -12 -53 -25 -86 -31 -76 -31 -93 1 -107 24 -11 29 -9 49 14 34 39 67 134 63 182 -3 37 -6 41 -33 44 -17 2 -36 -3 -43 -10z"/>
 </g>

</svg>