<!DOCTYPE svg PUBLIC "-//W3C//DTD SVG 20010904//EN" "http://www.w3.org/TR/2001/REC-SVG-20010904/DTD/svg10.dtd">
<svg version="1.0" xmlns="http://www.w3.org/2000/svg" width="360px" height="80px" viewBox="0 0 3600 800" preserveAspectRatio="xMidYMid meet">
<g id="layer1" fill="#fffefe" stroke="none">
 <path d="M1698 723 c-19 -5 -34 -44 -25 -67 3 -8 32 -27 63 -43 71 -36 82 -56 26 -47 -104 17 -178 -85 -138 -190 21 -54 73 -86 140 -86 40 0 46 -3 46 -21 0 -19 -4 -21 -42 -15 -24 3 -91 8 -150 12 -101 6 -107 5 -117 -15 -13 -24 -5 -67 14 -75 7 -2 76 -10 154 -17 l140 -12 3 -36 c3 -32 6 -36 35 -39 47 -5 73 13 73 48 l0 30 69 0 c97 0 121 11 121 54 0 43 -15 49 -112 44 -85 -3 -88 0 -80 112 10 155 6 193 -27 246 -35 56 -88 102 -134 115 -18 5 -34 8 -37 8 -3 -1 -13 -3 -22 -6z m83 -253 c13 -7 19 -21 19 -44 0 -42 -19 -60 -52 -47 -37 14 -50 35 -39 64 14 35 39 44 72 27z"/>
 <path d="M1032 708 c-6 -7 -18 -42 -27 -78 -9 -36 -20 -78 -25 -95 -5 -16 -17 -56 -25 -87 -17 -62 -25 -67 -71 -43 -58 30 -108 10 -102 -40 2 -23 12 -33 43 -48 22 -11 47 -23 55 -27 19 -10 17 -48 -6 -95 -16 -34 -16 -37 2 -56 13 -14 28 -19 53 -17 35 3 37 6 56 65 15 48 24 61 35 57 8 -4 35 -11 60 -16 25 -6 49 -14 54 -18 5 -5 -8 -25 -28 -46 -41 -43 -41 -42 -20 -72 23 -33 55 -27 98 17 29 30 36 43 31 62 -6 23 -4 24 47 25 108 1 153 51 152 171 0 69 -2 74 -34 109 -49 50 -80 64 -147 64 -67 0 -103 -19 -103 -54 0 -34 21 -46 77 -44 64 3 100 -19 109 -67 13 -69 -48 -98 -146 -71 -146 41 -138 37 -129 65 5 14 18 60 30 101 12 41 28 94 35 118 8 23 14 54 14 67 0 47 -62 84 -88 53z"/>
 <path d="M3212 697 c-12 -13 -22 -28 -22 -34 0 -6 23 -41 50 -79 28 -38 49 -76 48 -84 -4 -20 -44 -38 -91 -42 -38 -3 -39 -2 -58 46 -57 151 -160 214 -250 153 -63 -42 -61 -145 4 -225 24 -31 47 -45 95 -61 34 -12 71 -21 81 -21 20 0 35 -25 55 -93 l14 -48 -89 7 -89 6 -10 -27 c-24 -62 9 -77 197 -90 91 -7 91 -7 108 19 15 23 16 32 5 71 -7 25 -17 48 -21 51 -5 3 -9 13 -9 22 0 9 -7 30 -15 46 -21 40 -20 43 23 51 20 3 47 9 59 12 19 4 22 0 28 -41 6 -38 11 -46 29 -47 62 -4 80 17 71 84 -6 46 -5 48 30 68 53 32 59 84 12 113 -13 8 -25 7 -48 -6 -28 -17 -30 -17 -35 0 -3 9 -16 40 -31 69 -49 100 -97 127 -141 80z m-198 -179 c37 -66 34 -78 -15 -58 -51 22 -84 120 -40 120 14 0 31 -19 55 -62z"/>
 <path d="M80 689 c-10 -17 -5 -34 26 -97 l38 -77 4 -205 c2 -113 5 -211 7 -217 6 -16 57 -17 73 -1 7 7 12 34 12 60 0 45 1 47 19 36 15 -9 23 -9 34 0 12 10 17 6 31 -22 9 -19 16 -42 16 -53 1 -47 56 -59 75 -16 7 17 19 23 50 25 l40 3 3 47 c2 34 7 48 18 48 11 0 14 -15 14 -65 0 -54 3 -66 20 -75 25 -13 56 -5 64 16 4 10 13 13 25 9 20 -6 43 11 62 47 9 17 7 24 -11 42 l-21 21 -28 -35 -29 -34 2 34 c1 33 4 35 41 38 50 4 65 17 65 53 0 22 -6 30 -25 35 -14 3 -36 3 -50 0 -14 -4 -25 -4 -25 -1 0 11 63 121 74 130 28 22 36 51 20 73 -31 44 -76 16 -119 -75 l-24 -48 -16 39 c-23 56 -64 106 -85 106 -58 0 -66 -41 -20 -98 32 -41 65 -111 55 -120 -12 -12 -37 14 -50 51 -17 50 -84 145 -106 152 -24 8 -59 -11 -59 -31 0 -9 16 -34 35 -56 l34 -41 -22 -28 c-12 -15 -32 -28 -44 -28 -12 -1 -27 -9 -32 -18 -9 -16 -12 -16 -21 -3 -5 8 -10 29 -11 45 0 17 -3 52 -5 78 -3 33 -1 46 6 42 14 -9 40 13 51 42 6 16 17 23 35 23 43 0 63 25 54 63 -25 97 -32 107 -70 107 -47 0 -58 -27 -35 -82 5 -13 2 -18 -8 -18 -8 0 -25 -12 -36 -27 -19 -26 -20 -27 -21 -6 0 30 -47 120 -66 127 -30 11 -53 6 -64 -15z m330 -387 c0 -4 -10 -13 -21 -21 -18 -11 -23 -11 -30 0 -5 9 -1 18 14 26 21 11 37 9 37 -5z m30 -93 c0 -15 -5 -20 -22 -17 -27 4 -35 25 -11 31 31 8 33 7 33 -14z"/>
 <path d="M410 691 c-14 -27 -13 -114 2 -129 31 -31 64 -1 73 70 6 43 5 54 -11 65 -26 19 -52 16 -64 -6z"/>
 <path d="M533 702 c-7 -4 -15 -27 -18 -51 -3 -23 -6 -45 -6 -49 -1 -4 -1 -17 0 -30 1 -19 6 -23 28 -20 30 3 46 29 57 90 9 50 -24 83 -61 60z"/>
 <path d="M658 693 c-9 -10 -25 -40 -37 -67 -20 -46 -20 -50 -5 -68 33 -36 69 -16 99 55 27 64 17 97 -29 97 -7 0 -20 -8 -28 -17z"/>
 <path d="M2311 665 c-54 -18 -98 -58 -106 -97 -8 -35 11 -123 31 -139 20 -16 82 -3 86 19 3 9 0 29 -5 44 -14 43 5 65 70 78 66 14 194 8 247 -11 43 -16 66 -6 81 35 8 22 5 31 -17 53 -26 26 -29 26 -185 29 -118 3 -169 0 -202 -11z"/>
 <path d="M82 412 c-9 -6 -12 -33 -10 -98 3 -88 3 -89 28 -89 25 0 25 0 25 95 0 76 -3 95 -15 97 -8 2 -21 -1 -28 -5z"/>
 <path d="M2250 226 c-16 -31 -6 -60 26 -75 37 -16 330 -17 350 -1 17 15 19 76 2 86 -7 4 -92 9 -189 10 -175 3 -176 3 -189 -20z"/>
 <path d="M2661 170 c-36 -45 -37 -73 -4 -78 16 -2 29 9 54 44 31 45 31 48 14 61 -26 18 -28 18 -64 -27z"/>
 <path d="M2760 161 c0 -5 -12 -23 -26 -40 -27 -33 -26 -57 2 -68 12 -4 26 4 45 28 31 37 36 58 17 77 -14 14 -38 16 -38 3z"/>
 </g>
<g id="layer2" fill="#dfd9d2" stroke="none">
 <path d="M1693 723 c4 -3 10 -3 14 0 3 4 0 7 -7 7 -7 0 -10 -3 -7 -7z"/>
 <path d="M1743 723 c4 -3 10 -3 14 0 3 4 0 7 -7 7 -7 0 -10 -3 -7 -7z"/>
 <path d="M3209 703 c-13 -16 -12 -17 4 -4 9 7 17 15 17 17 0 8 -8 3 -21 -13z"/>
 <path d="M463 703 c4 -3 10 -3 14 0 3 4 0 7 -7 7 -7 0 -10 -3 -7 -7z"/>
 <path d="M654 698 c-4 -7 -3 -8 4 -4 12 7 16 16 8 16 -3 0 -8 -5 -12 -12z"/>
 <path d="M1010 680 c0 -7 3 -10 7 -7 3 4 3 10 0 14 -4 3 -7 0 -7 -7z"/>
 <path d="M1825 680 c3 -5 8 -10 11 -10 3 0 2 5 -1 10 -3 6 -8 10 -11 10 -3 0 -2 -4 1 -10z"/>
 <path d="M2613 673 c4 -3 10 -3 14 0 3 4 0 7 -7 7 -7 0 -10 -3 -7 -7z"/>
 <path d="M360 660 c0 -7 3 -10 7 -7 3 4 3 10 0 14 -4 3 -7 0 -7 -7z"/>
 <path d="M2303 663 c4 -3 10 -3 14 0 3 4 0 7 -7 7 -7 0 -10 -3 -7 -7z"/>
 <path d="M70 650 c0 -7 3 -10 7 -7 3 4 3 10 0 14 -4 3 -7 0 -7 -7z"/>
 <path d="M510 650 c0 -7 3 -10 7 -7 3 4 3 10 0 14 -4 3 -7 0 -7 -7z"/>
 <path d="M2695 650 c3 -5 8 -10 11 -10 3 0 2 5 -1 10 -3 6 -8 10 -11 10 -3 0 -2 -4 1 -10z"/>
 <path d="M1000 640 c0 -7 3 -10 7 -7 3 4 3 10 0 14 -4 3 -7 0 -7 -7z"/>
 <path d="M1875 630 c3 -5 8 -10 11 -10 3 0 2 5 -1 10 -3 6 -8 10 -11 10 -3 0 -2 -4 1 -10z"/>
 <path d="M234 598 c-4 -7 -3 -8 4 -4 12 7 16 16 8 16 -3 0 -8 -5 -12 -12z"/>
 <path d="M990 600 c0 -7 3 -10 7 -7 3 4 3 10 0 14 -4 3 -7 0 -7 -7z"/>
 <path d="M580 590 c0 -7 3 -10 7 -7 3 4 3 10 0 14 -4 3 -7 0 -7 -7z"/>
 <path d="M2840 590 c0 -7 3 -10 7 -7 3 4 3 10 0 14 -4 3 -7 0 -7 -7z"/>
 <path d="M501 574 c0 -11 3 -14 6 -6 3 7 2 16 -1 19 -3 4 -6 -2 -5 -13z"/>
 <path d="M1785 580 c3 -5 8 -10 11 -10 3 0 2 5 -1 10 -3 6 -8 10 -11 10 -3 0 -2 -4 1 -10z"/>
 <path d="M210 569 c0 -5 5 -7 10 -4 6 3 10 8 10 11 0 2 -4 4 -10 4 -5 0 -10 -5 -10 -11z"/>
 <path d="M470 570 c0 -7 3 -10 7 -7 3 4 3 10 0 14 -4 3 -7 0 -7 -7z"/>
 <path d="M2553 573 c4 -3 10 -3 14 0 3 4 0 7 -7 7 -7 0 -10 -3 -7 -7z"/>
 <path d="M2975 570 c3 -5 8 -10 11 -10 3 0 2 5 -1 10 -3 6 -8 10 -11 10 -3 0 -2 -4 1 -10z"/>
 <path d="M369 553 c-13 -16 -12 -17 4 -4 16 13 21 21 13 21 -2 0 -10 -8 -17 -17z"/>
 <path d="M405 560 c3 -5 8 -10 11 -10 3 0 2 5 -1 10 -3 6 -8 10 -11 10 -3 0 -2 -4 1 -10z"/>
 <path d="M564 558 c-4 -7 -3 -8 4 -4 12 7 16 16 8 16 -3 0 -8 -5 -12 -12z"/>
 <path d="M600 566 c0 -2 8 -10 18 -17 15 -13 16 -12 3 4 -13 16 -21 21 -21 13z"/>
 <path d="M980 560 c0 -7 3 -10 7 -7 3 4 3 10 0 14 -4 3 -7 0 -7 -7z"/>
 <path d="M2603 563 c4 -3 10 -3 14 0 3 4 0 7 -7 7 -7 0 -10 -3 -7 -7z"/>
 <path d="M120 550 c0 -7 3 -10 7 -7 3 4 3 10 0 14 -4 3 -7 0 -7 -7z"/>
 <path d="M1090 550 c0 -7 3 -10 7 -7 3 4 3 10 0 14 -4 3 -7 0 -7 -7z"/>
 <path d="M3380 551 c0 -6 4 -13 10 -16 6 -3 7 1 4 9 -7 18 -14 21 -14 7z"/>
 <path d="M3265 540 c3 -5 8 -10 11 -10 3 0 2 5 -1 10 -3 6 -8 10 -11 10 -3 0 -2 -4 1 -10z"/>
 <path d="M1139 523 c-13 -17 -13 -17 6 -3 11 8 22 16 24 17 2 2 0 3 -6 3 -6 0 -17 -8 -24 -17z"/>
 <path d="M130 520 c0 -7 3 -10 7 -7 3 4 3 10 0 14 -4 3 -7 0 -7 -7z"/>
 <path d="M1920 520 c0 -7 3 -10 7 -7 3 4 3 10 0 14 -4 3 -7 0 -7 -7z"/>
 <path d="M2840 520 c0 -7 3 -10 7 -7 3 4 3 10 0 14 -4 3 -7 0 -7 -7z"/>
 <path d="M2310 510 c0 -7 3 -10 7 -7 3 4 3 10 0 14 -4 3 -7 0 -7 -7z"/>
 <path d="M1370 485 c13 -14 26 -25 28 -25 3 0 -5 11 -18 25 -13 14 -26 25 -28 25 -3 0 5 -11 18 -25z"/>
 <path d="M2200 500 c0 -7 3 -10 7 -7 3 4 3 10 0 14 -4 3 -7 0 -7 -7z"/>
 <path d="M525 490 c3 -5 8 -10 11 -10 3 0 2 5 -1 10 -3 6 -8 10 -11 10 -3 0 -2 -4 1 -10z"/>
 <path d="M960 490 c0 -7 3 -10 7 -7 3 4 3 10 0 14 -4 3 -7 0 -7 -7z"/>
 <path d="M395 480 c3 -5 8 -10 11 -10 3 0 2 5 -1 10 -3 6 -8 10 -11 10 -3 0 -2 -4 1 -10z"/>
 <path d="M1070 480 c0 -7 3 -10 7 -7 3 4 3 10 0 14 -4 3 -7 0 -7 -7z"/>
 <path d="M2320 480 c0 -7 3 -10 7 -7 3 4 3 10 0 14 -4 3 -7 0 -7 -7z"/>
 <path d="M140 470 c0 -7 3 -10 7 -7 3 4 3 10 0 14 -4 3 -7 0 -7 -7z"/>
 <path d="M3253 473 c4 -3 10 -3 14 0 3 4 0 7 -7 7 -7 0 -10 -3 -7 -7z"/>
 <path d="M2210 460 c0 -7 3 -10 7 -7 3 4 3 10 0 14 -4 3 -7 0 -7 -7z"/>
 <path d="M3223 463 c4 -3 10 -3 14 0 3 4 0 7 -7 7 -7 0 -10 -3 -7 -7z"/>
 <path d="M415 450 c3 -5 8 -10 11 -10 3 0 2 5 -1 10 -3 6 -8 10 -11 10 -3 0 -2 -4 1 -10z"/>
 <path d="M950 450 c0 -7 3 -10 7 -7 3 4 3 10 0 14 -4 3 -7 0 -7 -7z"/>
 <path d="M1135 450 c3 -5 8 -10 11 -10 3 0 2 5 -1 10 -3 6 -8 10 -11 10 -3 0 -2 -4 1 -10z"/>
 <path d="M1060 440 c0 -7 3 -10 7 -7 3 4 3 10 0 14 -4 3 -7 0 -7 -7z"/>
 <path d="M1223 443 c4 -3 10 -3 14 0 3 4 0 7 -7 7 -7 0 -10 -3 -7 -7z"/>
 <path d="M694 428 c-4 -7 -3 -8 4 -4 7 4 12 9 12 12 0 8 -9 4 -16 -8z"/>
 <path d="M1920 430 c0 -7 3 -10 7 -7 3 4 3 10 0 14 -4 3 -7 0 -7 -7z"/>
 <path d="M2895 420 c10 -11 20 -20 23 -20 3 0 -3 9 -13 20 -10 11 -20 20 -23 20 -3 0 3 -9 13 -20z"/>
 <path d="M335 420 c3 -5 8 -10 11 -10 3 0 2 5 -1 10 -3 6 -8 10 -11 10 -3 0 -2 -4 1 -10z"/>
 <path d="M940 420 c0 -7 3 -10 7 -7 3 4 3 10 0 14 -4 3 -7 0 -7 -7z"/>
 <path d="M1700 420 c0 -7 3 -10 7 -7 3 4 3 10 0 14 -4 3 -7 0 -7 -7z"/>
 <path d="M1050 410 c0 -7 3 -10 7 -7 3 4 3 10 0 14 -4 3 -7 0 -7 -7z"/>
 <path d="M1410 410 c0 -7 3 -10 7 -7 3 4 3 10 0 14 -4 3 -7 0 -7 -7z"/>
 <path d="M230 400 c0 -7 3 -10 7 -7 3 4 3 10 0 14 -4 3 -7 0 -7 -7z"/>
 <path d="M575 400 c3 -5 8 -10 11 -10 3 0 2 5 -1 10 -3 6 -8 10 -11 10 -3 0 -2 -4 1 -10z"/>
 <path d="M674 398 c-4 -7 -3 -8 4 -4 7 4 12 9 12 12 0 8 -9 4 -16 -8z"/>
 <path d="M355 390 c3 -5 8 -10 11 -10 3 0 2 5 -1 10 -3 6 -8 10 -11 10 -3 0 -2 -4 1 -10z"/>
 <path d="M903 393 c4 -3 10 -3 14 0 3 4 0 7 -7 7 -7 0 -10 -3 -7 -7z"/>
 <path d="M1763 373 c4 -3 10 -3 14 0 3 4 0 7 -7 7 -7 0 -10 -3 -7 -7z"/>
 <path d="M2983 363 c4 -3 10 -3 14 0 3 4 0 7 -7 7 -7 0 -10 -3 -7 -7z"/>
 <path d="M3023 353 c4 -3 10 -3 14 0 3 4 0 7 -7 7 -7 0 -10 -3 -7 -7z"/>
 <path d="M470 340 c0 -7 3 -10 7 -7 3 4 3 10 0 14 -4 3 -7 0 -7 -7z"/>
 <path d="M1310 340 c0 -7 3 -10 7 -7 3 4 3 10 0 14 -4 3 -7 0 -7 -7z"/>
 <path d="M3320 330 c0 -7 3 -10 7 -7 3 4 3 10 0 14 -4 3 -7 0 -7 -7z"/>
 <path d="M630 310 c0 -5 5 -10 11 -10 5 0 7 5 4 10 -3 6 -8 10 -11 10 -2 0 -4 -4 -4 -10z"/>
 <path d="M813 313 c4 -3 10 -3 14 0 3 4 0 7 -7 7 -7 0 -10 -3 -7 -7z"/>
 <path d="M1123 313 c4 -3 10 -3 14 0 3 4 0 7 -7 7 -7 0 -10 -3 -7 -7z"/>
 <path d="M1410 310 c0 -7 3 -10 7 -7 3 4 3 10 0 14 -4 3 -7 0 -7 -7z"/>
 <path d="M3100 310 c0 -7 3 -10 7 -7 3 4 3 10 0 14 -4 3 -7 0 -7 -7z"/>
 <path d="M3420 311 c0 -6 -10 -16 -22 -21 -16 -6 -18 -9 -7 -9 19 -1 45 26 35 36 -3 3 -6 1 -6 -6z"/>
 <path d="M863 293 c4 -3 10 -3 14 0 3 4 0 7 -7 7 -7 0 -10 -3 -7 -7z"/>
 <path d="M1203 293 c4 -3 10 -3 14 0 3 4 0 7 -7 7 -7 0 -10 -3 -7 -7z"/>
 <path d="M1910 290 c0 -7 3 -10 7 -7 3 4 3 10 0 14 -4 3 -7 0 -7 -7z"/>
 <path d="M3110 280 c0 -7 3 -10 7 -7 3 4 3 10 0 14 -4 3 -7 0 -7 -7z"/>
 <path d="M3353 283 c4 -3 10 -3 14 0 3 4 0 7 -7 7 -7 0 -10 -3 -7 -7z"/>
 <path d="M890 260 c0 -7 3 -10 7 -7 3 4 3 10 0 14 -4 3 -7 0 -7 -7z"/>
 <path d="M1613 263 c4 -3 10 -3 14 0 3 4 0 7 -7 7 -7 0 -10 -3 -7 -7z"/>
 <path d="M3230 260 c0 -7 3 -10 7 -7 3 4 3 10 0 14 -4 3 -7 0 -7 -7z"/>
 <path d="M1003 243 c4 -3 10 -3 14 0 3 4 0 7 -7 7 -7 0 -10 -3 -7 -7z"/>
 <path d="M1933 243 c4 -3 10 -3 14 0 3 4 0 7 -7 7 -7 0 -10 -3 -7 -7z"/>
 <path d="M2393 243 c4 -3 10 -3 14 0 3 4 0 7 -7 7 -7 0 -10 -3 -7 -7z"/>
 <path d="M714 228 c-4 -7 -3 -8 4 -4 7 4 12 9 12 12 0 8 -9 4 -16 -8z"/>
 <path d="M880 230 c0 -7 3 -10 7 -7 3 4 3 10 0 14 -4 3 -7 0 -7 -7z"/>
 <path d="M432 210 c0 -14 2 -19 5 -12 2 6 2 18 0 25 -3 6 -5 1 -5 -13z"/>
 <path d="M1073 223 c4 -3 10 -3 14 0 3 4 0 7 -7 7 -7 0 -10 -3 -7 -7z"/>
 <path d="M1113 213 c4 -3 10 -3 14 0 3 4 0 7 -7 7 -7 0 -10 -3 -7 -7z"/>
 <path d="M3053 213 c4 -3 10 -3 14 0 3 4 0 7 -7 7 -7 0 -10 -3 -7 -7z"/>
 <path d="M870 200 c0 -7 3 -10 7 -7 3 4 3 10 0 14 -4 3 -7 0 -7 -7z"/>
 <path d="M1490 200 c0 -7 3 -10 7 -7 3 4 3 10 0 14 -4 3 -7 0 -7 -7z"/>
 <path d="M2674 198 c-4 -7 -3 -8 4 -4 7 4 12 9 12 12 0 8 -9 4 -16 -8z"/>
 <path d="M240 196 c0 -2 8 -10 18 -17 15 -13 16 -12 3 4 -13 16 -21 21 -21 13z"/>
 <path d="M294 188 c-4 -7 -3 -8 4 -4 12 7 16 16 8 16 -3 0 -8 -5 -12 -12z"/>
 <path d="M1210 185 c0 -8 2 -15 4 -15 2 0 6 7 10 15 3 8 1 15 -4 15 -6 0 -10 -7 -10 -15z"/>
 <path d="M1293 193 c4 -3 10 -3 14 0 3 4 0 7 -7 7 -7 0 -10 -3 -7 -7z"/>
 <path d="M2940 190 c0 -7 3 -10 7 -7 3 4 3 10 0 14 -4 3 -7 0 -7 -7z"/>
 <path d="M1104 168 l-19 -23 23 19 c12 11 22 21 22 23 0 8 -8 2 -26 -19z"/>
 <path d="M630 170 c-8 -5 -12 -12 -9 -15 4 -3 12 1 19 10 14 17 11 19 -10 5z"/>
 <path d="M2654 168 c-4 -7 -3 -8 4 -4 12 7 16 16 8 16 -3 0 -8 -5 -12 -12z"/>
 <path d="M320 160 c0 -7 3 -10 7 -7 3 4 3 10 0 14 -4 3 -7 0 -7 -7z"/>
 <path d="M2795 160 c3 -5 8 -10 11 -10 3 0 2 5 -1 10 -3 6 -8 10 -11 10 -3 0 -2 -4 1 -10z"/>
 <path d="M2073 153 c4 -3 10 -3 14 0 3 4 0 7 -7 7 -7 0 -10 -3 -7 -7z"/>
 <path d="M330 130 c0 -7 3 -10 7 -7 3 4 3 10 0 14 -4 3 -7 0 -7 -7z"/>
 <path d="M2704 128 c-4 -7 -3 -8 4 -4 12 7 16 16 8 16 -3 0 -8 -5 -12 -12z"/>
 <path d="M2734 128 c-4 -7 -3 -8 4 -4 12 7 16 16 8 16 -3 0 -8 -5 -12 -12z"/>
 <path d="M1179 103 l-24 -28 28 24 c25 23 32 31 24 31 -2 0 -14 -12 -28 -27z"/>
 <path d="M2963 123 c4 -3 10 -3 14 0 3 4 0 7 -7 7 -7 0 -10 -3 -7 -7z"/>
 <path d="M224 88 c-4 -7 -3 -8 4 -4 12 7 16 16 8 16 -3 0 -8 -5 -12 -12z"/>
 <path d="M2784 88 c-4 -7 -3 -8 4 -4 12 7 16 16 8 16 -3 0 -8 -5 -12 -12z"/>
 <path d="M404 78 c-4 -7 -3 -8 4 -4 7 4 12 9 12 12 0 8 -9 4 -16 -8z"/>
 <path d="M2715 60 c3 -5 8 -10 11 -10 3 0 2 5 -1 10 -3 6 -8 10 -11 10 -3 0 -2 -4 1 -10z"/>
 </g>
<g id="layer3" fill="#5b3714" stroke="none">
 <path d="M1671 734 c-39 -33 -41 -74 -6 -109 13 -14 30 -25 37 -25 7 0 -6 -9 -29 -21 -64 -32 -86 -74 -81 -159 3 -60 7 -73 33 -100 l29 -30 -75 6 c-74 6 -76 6 -97 -21 -28 -35 -28 -67 1 -100 18 -21 36 -27 97 -35 41 -5 103 -10 138 -10 59 0 62 -1 62 -25 0 -37 33 -65 78 -65 46 0 82 24 82 54 0 22 4 24 82 28 92 6 118 23 118 82 0 61 -18 71 -115 69 l-86 -3 7 138 c6 129 5 141 -16 190 -25 58 -82 115 -144 143 -55 25 -79 24 -115 -7z m119 -25 c86 -51 129 -118 137 -210 3 -32 1 -72 -6 -90 -7 -20 -9 -57 -5 -96 l7 -63 78 0 c98 0 109 -4 109 -44 0 -48 -14 -56 -107 -56 l-83 0 0 -29 c0 -38 -20 -53 -67 -49 -36 3 -38 5 -41 39 l-3 36 -142 12 c-78 7 -149 17 -159 22 -22 12 -24 62 -3 79 15 13 170 9 268 -7 33 -5 37 -3 37 16 0 18 -6 21 -46 21 -67 0 -119 32 -140 86 -40 106 34 206 140 190 39 -7 40 -6 23 11 -9 10 -39 29 -65 43 -50 27 -62 52 -42 89 14 28 64 27 110 0z"/>
 <path d="M1728 469 c-22 -12 -24 -62 -4 -78 8 -7 27 -11 43 -9 24 3 28 8 31 38 5 49 -30 73 -70 49z m49 -35 c3 -8 1 -20 -6 -27 -14 -14 -47 15 -37 32 10 16 36 13 43 -5z"/>
 <path d="M3213 740 c-57 -23 -56 -86 2 -170 l46 -64 -37 -13 c-21 -7 -38 -12 -39 -11 -2 2 -17 31 -34 65 -56 113 -115 163 -191 163 -49 0 -90 -20 -119 -56 -17 -21 -21 -41 -21 -98 0 -62 4 -78 29 -117 34 -55 84 -87 164 -108 55 -15 61 -19 73 -54 l13 -38 -72 7 c-64 6 -74 4 -90 -14 -13 -14 -17 -32 -15 -62 5 -69 26 -79 193 -86 135 -6 141 -6 160 15 26 30 24 73 -9 159 -16 40 -26 75 -24 77 2 3 15 6 29 7 19 2 25 -2 27 -22 6 -42 30 -60 82 -60 25 0 51 5 58 12 7 7 12 39 12 75 0 35 4 63 9 63 5 0 23 13 40 29 37 35 41 76 10 115 -16 21 -29 26 -63 26 -40 0 -43 2 -64 45 -12 24 -38 62 -58 85 -37 41 -64 49 -111 30z m91 -45 c13 -14 38 -53 56 -87 18 -35 34 -64 35 -65 1 -2 15 3 33 9 27 10 34 9 51 -7 12 -10 21 -31 21 -46 0 -23 -9 -34 -40 -54 l-40 -25 6 -55 c8 -63 -4 -85 -45 -85 -39 0 -52 13 -58 59 -5 37 -9 42 -27 37 -12 -2 -38 -8 -59 -12 -30 -5 -37 -10 -31 -23 28 -68 64 -175 64 -190 0 -10 -9 -26 -20 -36 -18 -16 -29 -16 -152 -6 -141 12 -158 20 -158 67 0 39 23 47 115 40 l84 -6 -24 65 c-14 36 -25 67 -25 69 0 2 -23 6 -51 9 -67 8 -127 43 -164 95 -26 38 -30 52 -30 109 0 60 2 67 33 94 26 23 42 29 78 29 25 0 58 -7 73 -16 34 -20 83 -91 112 -161 12 -29 27 -53 33 -52 24 1 110 36 113 45 2 5 -19 43 -47 84 -27 41 -50 80 -50 85 0 6 7 21 16 33 21 31 68 29 98 -3z"/>
 <path d="M2947 573 c-22 -22 9 -93 48 -111 48 -22 58 -17 39 21 -21 41 -63 97 -73 97 -4 0 -11 -3 -14 -7z m48 -73 c3 -5 4 -10 1 -10 -3 0 -8 5 -11 10 -3 6 -4 10 -1 10 3 0 8 -4 11 -10z"/>
 <path d="M67 722 c-25 -27 -21 -77 13 -146 16 -33 32 -78 36 -98 6 -37 5 -38 -24 -38 -49 0 -56 -18 -48 -128 8 -103 17 -122 63 -122 21 0 23 -4 23 -60 0 -48 4 -61 19 -70 55 -29 121 4 121 60 0 43 26 38 40 -7 7 -21 19 -46 28 -55 22 -26 69 -23 95 6 30 32 78 38 92 11 14 -26 86 -33 105 -10 7 8 22 15 34 15 13 0 33 11 46 25 21 22 29 48 47 151 7 45 -11 74 -47 74 -17 0 -30 4 -30 8 0 5 18 34 40 66 45 63 50 99 20 131 l-20 22 20 44 c27 61 26 93 -6 118 -34 27 -68 27 -95 0 -19 -19 -22 -19 -38 -5 -20 18 -72 21 -88 5 -8 -8 -13 -8 -17 0 -9 15 -89 14 -104 -1 -9 -9 -16 -8 -30 5 -23 21 -71 22 -100 1 -16 -11 -22 -25 -22 -55 0 -50 -12 -50 -35 2 -10 22 -28 47 -39 55 -29 20 -80 18 -99 -4z m118 -77 c17 -33 31 -62 33 -65 2 -3 8 3 13 13 6 9 19 17 31 17 15 0 18 4 13 18 -23 55 -12 82 35 82 36 0 50 -18 66 -87 15 -67 8 -83 -40 -83 -24 0 -35 -7 -49 -31 -9 -17 -27 -33 -38 -36 -17 -5 -20 -11 -15 -36 3 -16 6 -48 6 -71 0 -22 5 -48 10 -56 9 -13 12 -13 21 3 5 9 20 17 32 17 12 0 30 12 41 26 18 26 18 26 -13 70 -34 49 -37 64 -19 82 38 38 89 -6 146 -126 19 -41 41 -72 49 -72 10 0 12 6 8 23 -10 32 -51 101 -69 117 -21 16 -21 66 0 74 45 17 75 -5 114 -84 l23 -44 22 44 c43 85 91 110 121 64 13 -18 9 -27 -36 -96 -28 -42 -50 -81 -50 -87 0 -6 15 -11 33 -11 46 0 59 -12 55 -51 -3 -33 -5 -34 -53 -39 -31 -3 -50 -10 -49 -17 1 -7 2 -18 3 -25 0 -6 12 -1 26 12 l25 24 21 -21 c17 -17 19 -24 10 -41 -19 -36 -42 -53 -62 -47 -12 4 -21 1 -25 -9 -8 -21 -39 -29 -64 -16 -17 9 -20 21 -20 75 0 50 -3 65 -14 65 -11 0 -16 -14 -18 -48 l-3 -47 -42 -3 c-34 -3 -42 -7 -45 -25 -2 -17 -11 -23 -35 -25 -29 -3 -32 -1 -48 50 -23 70 -22 69 -50 58 -17 -6 -27 -6 -32 3 -5 7 -10 -11 -13 -43 l-5 -55 -40 0 -40 0 -6 205 c-6 213 -13 249 -59 328 -35 58 -20 95 35 90 26 -3 34 -12 60 -63z m299 48 c4 -9 4 -43 0 -75 -6 -50 -10 -59 -30 -64 -44 -11 -54 1 -54 61 0 31 5 65 10 76 13 24 65 26 74 2z m100 2 c16 -17 13 -91 -6 -127 -9 -19 -62 -25 -73 -8 -9 15 13 133 27 142 19 12 35 10 52 -7z m130 9 c21 -8 20 -49 -3 -99 -22 -49 -43 -68 -72 -63 -40 6 -43 28 -10 101 30 68 43 77 85 61z m-101 -181 c2 -5 -3 -21 -13 -36 l-17 -28 -18 27 c-14 22 -15 28 -4 35 17 11 46 12 52 2z m-309 -105 c26 -34 23 -51 -14 -61 -22 -6 -30 10 -30 59 0 42 11 43 44 2z m-179 -98 c0 -95 0 -95 -25 -95 -24 0 -25 2 -28 84 -3 100 0 113 30 109 22 -3 23 -7 23 -98z"/>
 <path d="M373 305 c-15 -8 -19 -15 -13 -26 8 -12 13 -11 31 7 24 25 14 36 -18 19z"/>
 <path d="M407 223 c-22 -6 -17 -27 6 -31 12 -2 17 3 17 17 0 12 -1 20 -2 20 -2 -1 -11 -3 -21 -6z"/>
 <path d="M1008 723 c-12 -14 -88 -271 -88 -298 0 -3 -16 2 -36 10 -71 29 -120 9 -130 -55 -7 -45 20 -81 74 -99 l40 -14 -14 -40 c-29 -81 -11 -122 58 -134 50 -8 75 10 95 68 16 45 20 49 43 44 34 -9 35 -11 16 -39 -37 -57 -3 -126 62 -126 37 0 112 65 112 96 0 16 11 22 58 32 45 9 66 20 95 49 75 78 74 216 -3 293 -48 48 -102 64 -193 57 l-68 -4 5 26 c18 89 18 96 -4 124 -17 22 -30 27 -64 27 -28 0 -48 -6 -58 -17z m90 -19 c13 -9 22 -26 22 -42 0 -21 -36 -162 -77 -303 -3 -12 14 -21 79 -40 141 -40 192 -28 192 46 0 53 -23 69 -107 75 l-72 5 -3 33 c-5 52 10 62 92 62 124 0 187 -54 194 -163 7 -113 -55 -187 -158 -187 -36 0 -40 -2 -40 -26 0 -34 -59 -94 -93 -94 -23 0 -57 31 -57 52 0 4 16 25 35 47 l35 38 -66 18 c-35 10 -66 16 -68 14 -1 -2 -11 -29 -22 -59 -18 -52 -21 -55 -55 -58 -25 -2 -40 3 -53 17 -18 19 -17 22 2 81 l21 60 -36 15 c-19 8 -39 15 -43 15 -18 0 -41 40 -38 66 6 49 47 55 138 19 13 -4 23 21 53 132 20 76 37 142 37 147 0 16 32 46 49 46 9 0 27 -7 39 -16z m97 -291 c62 6 95 -11 95 -48 0 -49 -50 -54 -168 -18 -56 18 -55 16 -31 81 l9 22 21 -21 c18 -18 29 -21 74 -16z"/>
 <path d="M2330 697 c-69 -16 -91 -28 -125 -69 -25 -30 -27 -37 -23 -111 3 -72 6 -81 31 -103 35 -30 76 -31 112 -2 24 19 27 26 23 69 -5 48 -5 49 30 60 33 11 132 8 270 -7 68 -8 92 11 92 68 0 52 -13 73 -52 88 -48 18 -291 22 -358 7z m357 -35 c31 -17 39 -56 18 -88 -14 -22 -22 -25 -48 -20 -152 27 -189 30 -254 19 -76 -13 -97 -31 -82 -70 13 -34 11 -49 -7 -67 -22 -22 -67 -20 -90 5 -14 16 -19 36 -19 84 0 54 4 67 25 90 53 57 87 65 280 62 101 -2 163 -7 177 -15z"/>
 <path d="M2235 258 c-23 -35 -19 -90 9 -117 23 -21 36 -23 188 -28 155 -6 164 -7 185 -29 12 -13 32 -24 44 -24 12 0 27 -7 33 -14 6 -8 23 -18 38 -22 23 -5 34 0 62 28 58 58 58 128 1 142 -15 4 -40 16 -55 28 -18 13 -37 19 -51 15 -14 -4 -27 1 -38 13 -14 16 -39 19 -208 24 -190 5 -192 5 -208 -16z m393 -22 c17 -10 15 -71 -2 -86 -20 -16 -313 -15 -350 1 -31 14 -42 48 -27 78 11 20 18 21 189 18 98 -2 183 -6 190 -11z m101 -40 c23 -27 -39 -111 -76 -104 -28 5 -27 33 3 77 28 42 53 51 73 27z m79 -57 c4 -35 -43 -91 -72 -87 -31 4 -31 33 1 78 33 47 66 51 71 9z"/>
 </g>

</svg>