<!DOCTYPE svg PUBLIC "-//W3C//DTD SVG 20010904//EN" "http://www.w3.org/TR/2001/REC-SVG-20010904/DTD/svg10.dtd">
<svg version="1.0" xmlns="http://www.w3.org/2000/svg" width="356px" height="40px" viewBox="0 0 3560 400" preserveAspectRatio="xMidYMid meet">
<g id="layer1" fill="#ffffff" stroke="none">
 <path d="M473 383 c-7 -2 -13 -15 -13 -28 0 -16 15 -34 53 -61 l52 -38 -35 -7 c-26 -6 -40 -3 -53 9 -14 12 -22 14 -35 6 -21 -13 -51 -71 -52 -99 0 -41 45 -60 70 -30 11 14 14 13 24 -7 16 -32 56 -31 73 2 6 14 15 34 19 45 6 17 8 15 14 -14 12 -50 33 -67 65 -53 19 9 25 19 25 45 0 122 -127 263 -207 230z"/>
 <path d="M2127 363 c-38 -41 -57 -94 -57 -166 0 -53 5 -71 33 -117 29 -50 35 -55 67 -55 29 0 36 4 38 23 2 13 -7 35 -22 52 -46 56 -47 145 -1 205 28 38 32 70 9 79 -28 11 -40 7 -67 -21z"/>
 <path d="M3383 383 c-21 -8 -15 -42 12 -78 46 -60 45 -149 -1 -205 -15 -17 -24 -39 -22 -52 2 -19 9 -23 38 -23 32 0 38 5 67 55 28 46 33 63 33 120 0 76 -24 136 -65 168 -28 22 -39 25 -62 15z"/>
 <path d="M745 368 c-3 -8 -4 -88 -3 -178 l3 -165 28 -3 c39 -5 57 14 57 57 0 36 2 38 54 60 72 30 93 53 78 86 -17 37 -38 41 -82 16 -21 -11 -40 -21 -43 -21 -4 0 -7 35 -9 78 l-3 77 -38 3 c-24 2 -39 -1 -42 -10z"/>
 <path d="M1072 368 c-7 -7 -12 -18 -12 -25 0 -11 -4 -11 -20 -1 -15 10 -25 10 -38 2 -28 -18 -25 -48 9 -109 17 -31 30 -57 28 -59 -2 -2 -14 -9 -27 -15 -18 -10 -22 -19 -20 -44 l3 -32 67 -3 c64 -3 67 -4 70 -30 2 -21 9 -28 31 -30 33 -4 57 13 57 39 0 11 7 19 16 19 13 0 14 -3 4 -15 -20 -24 -4 -42 45 -49 37 -6 51 -4 66 10 20 18 25 49 9 59 -5 3 -10 20 -10 36 0 24 -6 33 -29 42 -29 12 -29 13 -11 35 10 12 26 43 36 67 16 43 16 46 -2 66 -31 34 -56 21 -91 -51 l-32 -65 0 57 c-1 31 -5 68 -11 82 -9 24 -14 26 -68 26 -32 0 -63 -5 -70 -12z m58 -133 c0 -36 -4 -65 -9 -65 -4 0 -6 11 -4 24 3 13 -5 42 -16 65 l-21 41 25 0 c24 0 25 -2 25 -65z"/>
 <path d="M1415 368 c-3 -8 -4 -88 -3 -178 l3 -165 28 -3 c39 -5 57 14 57 57 0 36 2 38 54 60 72 30 93 53 78 86 -17 37 -38 41 -82 16 -21 -11 -40 -21 -43 -21 -4 0 -7 35 -9 78 l-3 77 -38 3 c-24 2 -39 -1 -42 -10z"/>
 <path d="M1668 369 c-24 -14 -22 -40 7 -95 20 -38 25 -61 25 -124 0 -62 4 -80 18 -93 22 -20 43 -22 60 -5 18 18 15 176 -3 229 -16 44 -60 99 -79 99 -6 0 -19 -5 -28 -11z"/>
 <path d="M1832 364 c-21 -14 -22 -22 -22 -163 0 -150 5 -171 40 -171 37 0 50 33 50 124 0 48 4 85 9 82 5 -3 18 -26 30 -51 22 -47 52 -60 79 -33 32 32 -14 131 -88 189 -47 36 -71 42 -98 23z"/>
 <path d="M2230 354 c0 -16 7 -28 18 -30 25 -7 19 -125 -9 -150 -27 -24 -24 -41 10 -62 29 -17 29 -18 10 -30 -13 -8 -19 -21 -17 -35 2 -17 11 -23 39 -25 23 -2 40 2 49 12 16 20 37 20 47 1 7 -12 25 -13 96 -8 108 7 127 18 110 64 -16 41 0 55 33 31 19 -15 20 -19 8 -33 -17 -19 -18 -41 -2 -57 16 -16 43 -15 58 3 11 13 15 13 33 0 16 -11 51 -15 134 -15 100 0 114 2 125 19 8 13 17 16 27 11 86 -43 113 -40 122 10 l5 35 10 -35 c9 -31 14 -35 45 -35 28 0 35 4 37 22 3 21 9 23 62 23 81 0 85 8 71 156 -13 146 -18 154 -82 154 -34 0 -51 -5 -55 -15 -5 -11 -10 -12 -24 -3 -37 24 -75 -18 -46 -51 16 -17 16 -19 -3 -24 -18 -4 -20 1 -23 42 -3 45 -3 46 -40 49 l-38 3 0 -45 c0 -36 -3 -44 -15 -40 -37 15 -63 -55 -28 -74 14 -9 14 -11 -5 -21 -19 -10 -22 -9 -22 7 0 10 -5 23 -11 29 -8 8 -6 20 6 43 32 62 0 116 -44 75 -17 -15 -19 -14 -24 5 -4 16 -13 20 -44 20 -21 0 -53 -4 -70 -9 -18 -5 -35 -6 -38 -1 -3 5 -36 8 -73 7 l-67 -2 1 -35 c1 -29 17 -76 42 -122 2 -4 -8 -14 -22 -23 -20 -13 -28 -14 -44 -4 -29 18 -36 126 -9 133 10 2 17 14 17 30 0 25 -2 26 -66 26 -70 0 -104 -12 -104 -35 0 -22 -9 -18 -32 10 -17 22 -27 25 -89 25 -68 0 -69 -1 -69 -26z m750 -226 c0 -25 -4 -38 -9 -33 -8 9 -4 75 5 75 2 0 4 -19 4 -42z m-280 2 c0 -13 -5 -18 -15 -14 -12 5 -13 10 -4 20 15 19 19 18 19 -6z"/>
 <path d="M266 303 c-31 -27 -70 -65 -87 -87 l-32 -38 -48 53 c-40 46 -50 52 -66 43 -10 -6 -19 -25 -21 -45 -3 -30 5 -43 53 -97 31 -34 63 -62 71 -62 7 0 66 48 129 107 114 107 131 133 103 161 -21 21 -45 13 -102 -35z"/>
 <path d="M252 154 c-28 -19 -29 -67 -2 -94 25 -25 41 -25 74 1 33 26 35 71 4 93 -28 20 -48 20 -76 0z"/>
 </g>

</svg>