<!DOCTYPE svg PUBLIC "-//W3C//DTD SVG 20010904//EN" "http://www.w3.org/TR/2001/REC-SVG-20010904/DTD/svg10.dtd">
<svg version="1.0" xmlns="http://www.w3.org/2000/svg" width="606px" height="80px" viewBox="0 0 6060 800" preserveAspectRatio="xMidYMid meet">
<g id="layer1" fill="#d3c9bf" stroke="none">
 <path d="M1360 713 c19 -3 42 -10 50 -16 13 -10 13 -10 1 6 -9 11 -26 16 -50 15 l-36 -1 35 -4z"/>
 <path d="M2490 713 c19 -3 42 -10 50 -16 13 -10 13 -10 1 6 -9 11 -26 16 -50 15 l-36 -1 35 -4z"/>
 <path d="M3674 708 c-4 -7 -3 -8 4 -4 12 7 16 16 8 16 -3 0 -8 -5 -12 -12z"/>
 <path d="M3794 708 c-4 -7 -3 -8 4 -4 12 7 16 16 8 16 -3 0 -8 -5 -12 -12z"/>
 <path d="M3888 713 c7 -3 16 -2 19 1 4 3 -2 6 -13 5 -11 0 -14 -3 -6 -6z"/>
 <path d="M4298 713 c7 -3 16 -2 19 1 4 3 -2 6 -13 5 -11 0 -14 -3 -6 -6z"/>
 <path d="M4434 698 c-19 -23 -19 -23 2 -5 24 20 54 22 74 5 12 -11 12 -10 1 5 -19 24 -54 21 -77 -5z"/>
 <path d="M4828 713 c12 -2 32 -2 45 0 12 2 2 4 -23 4 -25 0 -35 -2 -22 -4z"/>
 <path d="M5815 710 c3 -5 8 -10 11 -10 3 0 2 5 -1 10 -3 6 -8 10 -11 10 -3 0 -2 -4 1 -10z"/>
 <path d="M955 700 c3 -5 8 -10 11 -10 3 0 2 5 -1 10 -3 6 -8 10 -11 10 -3 0 -2 -4 1 -10z"/>
 <path d="M2031 707 c2 -1 13 -9 24 -17 19 -14 19 -14 6 3 -7 9 -18 17 -24 17 -6 0 -8 -1 -6 -3z"/>
 <path d="M4243 703 c4 -3 10 -3 14 0 3 4 0 7 -7 7 -7 0 -10 -3 -7 -7z"/>
 <path d="M4605 703 c11 -3 27 -10 35 -17 13 -10 13 -9 1 7 -7 9 -23 16 -35 16 -20 -1 -20 -2 -1 -6z"/>
 <path d="M4785 699 c-4 -6 -5 -12 -2 -15 2 -3 7 2 10 11 7 17 1 20 -8 4z"/>
 <path d="M5623 703 c4 -3 10 -3 14 0 3 4 0 7 -7 7 -7 0 -10 -3 -7 -7z"/>
 <path d="M4193 693 c4 -3 10 -3 14 0 3 4 0 7 -7 7 -7 0 -10 -3 -7 -7z"/>
 <path d="M5272 593 c-1 -61 1 -114 6 -116 4 -3 6 32 4 76 -4 141 -9 156 -10 40z"/>
 <path d="M5661 683 c7 -12 15 -20 18 -17 3 2 -3 12 -13 22 -17 16 -18 16 -5 -5z"/>
 <path d="M985 680 c3 -5 8 -10 11 -10 3 0 2 5 -1 10 -3 6 -8 10 -11 10 -3 0 -2 -4 1 -10z"/>
 <path d="M1304 400 c0 -162 2 -229 3 -147 2 81 2 213 0 295 -1 81 -3 14 -3 -148z"/>
 <path d="M2434 400 c0 -162 2 -229 3 -147 2 81 2 213 0 295 -1 81 -3 14 -3 -148z"/>
 <path d="M4154 678 c-4 -7 -3 -8 4 -4 7 4 12 9 12 12 0 8 -9 4 -16 -8z"/>
 <path d="M5367 672 c-10 -10 -17 -23 -17 -28 0 -4 7 1 15 13 8 12 25 24 38 26 21 4 21 4 1 6 -11 0 -28 -7 -37 -17z"/>
 <path d="M3629 663 c-13 -16 -12 -17 4 -4 16 13 21 21 13 21 -2 0 -10 -8 -17 -17z"/>
 <path d="M4999 663 c-13 -16 -12 -17 4 -4 9 7 17 15 17 17 0 8 -8 3 -21 -13z"/>
 <path d="M5850 676 c0 -2 8 -10 18 -17 15 -13 16 -12 3 4 -13 16 -21 21 -21 13z"/>
 <path d="M2071 654 c0 -11 3 -14 6 -6 3 7 2 16 -1 19 -3 4 -6 -2 -5 -13z"/>
 <path d="M4420 650 c0 -7 3 -10 7 -7 3 4 3 10 0 14 -4 3 -7 0 -7 -7z"/>
 <path d="M4774 638 c-4 -7 -4 -10 1 -6 4 4 15 2 24 -5 14 -11 14 -10 2 6 -16 20 -18 21 -27 5z"/>
 <path d="M5490 643 c0 -6 8 -17 18 -24 16 -13 16 -13 2 6 -8 11 -16 22 -17 24 -2 2 -3 0 -3 -6z"/>
 <path d="M660 636 c0 -2 8 -10 18 -17 15 -13 16 -12 3 4 -13 16 -21 21 -21 13z"/>
 <path d="M1785 620 c10 -11 20 -20 23 -20 3 0 -3 9 -13 20 -10 11 -20 20 -23 20 -3 0 3 -9 13 -20z"/>
 <path d="M2253 633 c4 -3 10 -3 14 0 3 4 0 7 -7 7 -7 0 -10 -3 -7 -7z"/>
 <path d="M2283 633 c4 -3 10 -3 14 0 3 4 0 7 -7 7 -7 0 -10 -3 -7 -7z"/>
 <path d="M3604 628 c-4 -7 -3 -8 4 -4 7 4 12 9 12 12 0 8 -9 4 -16 -8z"/>
 <path d="M3813 633 c4 -3 10 -3 14 0 3 4 0 7 -7 7 -7 0 -10 -3 -7 -7z"/>
 <path d="M4383 633 c4 -3 10 -3 14 0 3 4 0 7 -7 7 -7 0 -10 -3 -7 -7z"/>
 <path d="M5680 630 c0 -7 3 -10 7 -7 3 4 3 10 0 14 -4 3 -7 0 -7 -7z"/>
 <path d="M5885 630 c3 -5 8 -10 11 -10 3 0 2 5 -1 10 -3 6 -8 10 -11 10 -3 0 -2 -4 1 -10z"/>
 <path d="M584 618 c-4 -7 -3 -8 4 -4 7 4 12 9 12 12 0 8 -9 4 -16 -8z"/>
 <path d="M3112 384 c-2 -249 1 -274 32 -274 5 0 2 6 -7 13 -15 11 -17 41 -20 262 l-2 250 -3 -251z"/>
 <path d="M3895 620 c3 -5 16 -10 28 -9 21 0 21 1 2 9 -28 12 -37 12 -30 0z"/>
 <path d="M4145 620 c-3 -5 -1 -10 4 -10 6 0 11 5 11 10 0 6 -2 10 -4 10 -3 0 -8 -4 -11 -10z"/>
 <path d="M4275 620 c-18 -8 -17 -9 8 -9 15 -1 27 4 27 9 0 12 -8 12 -35 0z"/>
 <path d="M1859 608 c7 -10 23 -17 35 -17 20 1 20 2 1 6 -11 3 -27 10 -35 17 -13 10 -13 9 -1 -6z"/>
 <path d="M2965 610 c3 -5 8 -10 11 -10 3 0 2 5 -1 10 -3 6 -8 10 -11 10 -3 0 -2 -4 1 -10z"/>
 <path d="M5485 610 c3 -5 8 -10 11 -10 3 0 2 5 -1 10 -3 6 -8 10 -11 10 -3 0 -2 -4 1 -10z"/>
 <path d="M1955 600 c3 -5 8 -10 11 -10 3 0 2 5 -1 10 -3 6 -8 10 -11 10 -3 0 -2 -4 1 -10z"/>
 <path d="M3704 598 c-4 -7 -3 -8 4 -4 7 4 12 9 12 12 0 8 -9 4 -16 -8z"/>
 <path d="M5785 600 c3 -5 8 -10 11 -10 3 0 2 5 -1 10 -3 6 -8 10 -11 10 -3 0 -2 -4 1 -10z"/>
 <path d="M692 575 c0 -16 2 -22 5 -12 2 9 2 23 0 30 -3 6 -5 -1 -5 -18z"/>
 <path d="M4670 590 c0 -7 3 -10 7 -7 3 4 3 10 0 14 -4 3 -7 0 -7 -7z"/>
 <path d="M4550 570 c0 -7 3 -10 7 -7 3 4 3 10 0 14 -4 3 -7 0 -7 -7z"/>
 <path d="M5691 564 c0 -11 3 -14 6 -6 3 7 2 16 -1 19 -3 4 -6 -2 -5 -13z"/>
 <path d="M499 543 l-24 -28 28 24 c25 23 32 31 24 31 -2 0 -14 -12 -28 -27z"/>
 <path d="M1105 560 c3 -5 8 -10 11 -10 3 0 2 5 -1 10 -3 6 -8 10 -11 10 -3 0 -2 -4 1 -10z"/>
 <path d="M2855 560 c3 -5 8 -10 11 -10 3 0 2 5 -1 10 -3 6 -8 10 -11 10 -3 0 -2 -4 1 -10z"/>
 <path d="M2990 560 c0 -7 3 -10 7 -7 3 4 3 10 0 14 -4 3 -7 0 -7 -7z"/>
 <path d="M970 556 c0 -2 8 -10 18 -17 15 -13 16 -12 3 4 -13 16 -21 21 -21 13z"/>
 <path d="M1695 550 c3 -5 8 -10 11 -10 3 0 2 5 -1 10 -3 6 -8 10 -11 10 -3 0 -2 -4 1 -10z"/>
 <path d="M4951 534 c0 -11 3 -14 6 -6 3 7 2 16 -1 19 -3 4 -6 -2 -5 -13z"/>
 <path d="M3222 339 c-1 -118 -6 -210 -12 -217 -5 -7 -3 -6 5 1 13 11 15 45 12 218 l-2 204 -3 -206z"/>
 <path d="M3245 530 c3 -5 8 -10 11 -10 3 0 2 5 -1 10 -3 6 -8 10 -11 10 -3 0 -2 -4 1 -10z"/>
 <path d="M4460 530 c0 -7 3 -10 7 -7 3 4 3 10 0 14 -4 3 -7 0 -7 -7z"/>
 <path d="M4680 530 c0 -7 3 -10 7 -7 3 4 3 10 0 14 -4 3 -7 0 -7 -7z"/>
 <path d="M4720 533 c0 -6 8 -17 18 -24 16 -13 16 -13 2 6 -8 11 -16 22 -17 24 -2 2 -3 0 -3 -6z"/>
 <path d="M5358 533 c7 -3 16 -2 19 1 4 3 -2 6 -13 5 -11 0 -14 -3 -6 -6z"/>
 <path d="M5435 530 c3 -5 8 -10 11 -10 3 0 2 5 -1 10 -3 6 -8 10 -11 10 -3 0 -2 -4 1 -10z"/>
 <path d="M654 518 c-4 -7 -3 -8 4 -4 7 4 12 9 12 12 0 8 -9 4 -16 -8z"/>
 <path d="M3405 520 c3 -5 8 -10 11 -10 3 0 2 5 -1 10 -3 6 -8 10 -11 10 -3 0 -2 -4 1 -10z"/>
 <path d="M3660 520 c0 -7 3 -10 7 -7 3 4 3 10 0 14 -4 3 -7 0 -7 -7z"/>
 <path d="M4590 520 c0 -7 3 -10 7 -7 3 4 3 10 0 14 -4 3 -7 0 -7 -7z"/>
 <path d="M5830 520 c0 -7 3 -10 7 -7 3 4 3 10 0 14 -4 3 -7 0 -7 -7z"/>
 <path d="M2310 510 c0 -7 3 -10 7 -7 3 4 3 10 0 14 -4 3 -7 0 -7 -7z"/>
 <path d="M5600 510 c0 -7 3 -10 7 -7 3 4 3 10 0 14 -4 3 -7 0 -7 -7z"/>
 <path d="M100 503 c14 -3 36 -14 50 -26 l25 -22 -24 28 c-16 17 -34 27 -50 26 l-26 -2 25 -4z"/>
 <path d="M3010 500 c0 -7 3 -10 7 -7 3 4 3 10 0 14 -4 3 -7 0 -7 -7z"/>
 <path d="M3275 500 c3 -5 8 -10 11 -10 3 0 2 5 -1 10 -3 6 -8 10 -11 10 -3 0 -2 -4 1 -10z"/>
 <path d="M4930 480 c0 -5 5 -10 11 -10 5 0 7 5 4 10 -3 6 -8 10 -11 10 -2 0 -4 -4 -4 -10z"/>
 <path d="M589 463 c-13 -16 -12 -17 4 -4 9 7 17 15 17 17 0 8 -8 3 -21 -13z"/>
 <path d="M1035 470 c3 -5 8 -10 11 -10 3 0 2 5 -1 10 -3 6 -8 10 -11 10 -3 0 -2 -4 1 -10z"/>
 <path d="M5702 460 c0 -14 2 -19 5 -12 2 6 2 18 0 25 -3 6 -5 1 -5 -13z"/>
 <path d="M1640 466 c0 -2 8 -10 18 -17 15 -13 16 -12 3 4 -13 16 -21 21 -21 13z"/>
 <path d="M2770 466 c0 -2 8 -10 18 -17 15 -13 16 -12 3 4 -13 16 -21 21 -21 13z"/>
 <path d="M3305 460 c3 -5 8 -10 11 -10 3 0 2 5 -1 10 -3 6 -8 10 -11 10 -3 0 -2 -4 1 -10z"/>
 <path d="M4734 458 c-4 -7 -3 -8 4 -4 12 7 16 16 8 16 -3 0 -8 -5 -12 -12z"/>
 <path d="M3541 444 c0 -11 3 -14 6 -6 3 7 2 16 -1 19 -3 4 -6 -2 -5 -13z"/>
 <path d="M5570 450 c0 -7 3 -10 7 -7 3 4 3 10 0 14 -4 3 -7 0 -7 -7z"/>
 <path d="M5951 444 c0 -11 3 -14 6 -6 3 7 2 16 -1 19 -3 4 -6 -2 -5 -13z"/>
 <path d="M750 440 c0 -7 3 -10 7 -7 3 4 3 10 0 14 -4 3 -7 0 -7 -7z"/>
 <path d="M364 408 l-29 -33 33 29 c30 28 37 36 29 36 -2 0 -16 -15 -33 -32z"/>
 <path d="M1890 430 c0 -7 3 -10 7 -7 3 4 3 10 0 14 -4 3 -7 0 -7 -7z"/>
 <path d="M2910 430 c0 -7 3 -10 7 -7 3 4 3 10 0 14 -4 3 -7 0 -7 -7z"/>
 <path d="M3325 430 c3 -5 8 -10 11 -10 3 0 2 5 -1 10 -3 6 -8 10 -11 10 -3 0 -2 -4 1 -10z"/>
 <path d="M5332 420 c0 -14 2 -19 5 -12 2 6 2 18 0 25 -3 6 -5 1 -5 -13z"/>
 <path d="M1170 420 c0 -7 3 -10 7 -7 3 4 3 10 0 14 -4 3 -7 0 -7 -7z"/>
 <path d="M2264 418 c-4 -7 -3 -8 4 -4 12 7 16 16 8 16 -3 0 -8 -5 -12 -12z"/>
 <path d="M4604 285 c0 -82 2 -115 3 -72 2 43 2 110 0 150 -1 40 -3 5 -3 -78z"/>
 <path d="M4724 340 c0 -52 1 -74 3 -47 2 26 2 68 0 95 -2 26 -3 4 -3 -48z"/>
 <path d="M5365 420 c3 -5 8 -10 11 -10 3 0 2 5 -1 10 -3 6 -8 10 -11 10 -3 0 -2 -4 1 -10z"/>
 <path d="M5612 410 c0 -14 2 -19 5 -12 2 6 2 18 0 25 -3 6 -5 1 -5 -13z"/>
 <path d="M850 410 c0 -7 3 -10 7 -7 3 4 3 10 0 14 -4 3 -7 0 -7 -7z"/>
 <path d="M900 410 c0 -7 3 -10 7 -7 3 4 3 10 0 14 -4 3 -7 0 -7 -7z"/>
 <path d="M4023 413 c42 -2 112 -2 155 0 42 1 7 3 -78 3 -85 0 -120 -2 -77 -3z"/>
 <path d="M4694 300 c0 -63 1 -89 3 -57 2 31 2 83 0 115 -2 31 -3 5 -3 -58z"/>
 <path d="M65 390 c3 -5 8 -10 11 -10 3 0 2 5 -1 10 -3 6 -8 10 -11 10 -3 0 -2 -4 1 -10z"/>
 <path d="M215 390 c3 -5 8 -10 11 -10 3 0 2 5 -1 10 -3 6 -8 10 -11 10 -3 0 -2 -4 1 -10z"/>
 <path d="M1000 390 c0 -7 3 -10 7 -7 3 4 3 10 0 14 -4 3 -7 0 -7 -7z"/>
 <path d="M4810 390 c0 -7 3 -10 7 -7 3 4 3 10 0 14 -4 3 -7 0 -7 -7z"/>
 <path d="M5385 390 c3 -5 8 -10 11 -10 3 0 2 5 -1 10 -3 6 -8 10 -11 10 -3 0 -2 -4 1 -10z"/>
 <path d="M4479 373 c-13 -16 -12 -17 4 -4 9 7 17 15 17 17 0 8 -8 3 -21 -13z"/>
 <path d="M5590 380 c0 -7 3 -10 7 -7 3 4 3 10 0 14 -4 3 -7 0 -7 -7z"/>
 <path d="M3033 345 c0 -22 2 -30 4 -17 2 12 2 30 0 40 -3 9 -5 -1 -4 -23z"/>
 <path d="M5083 373 c4 -3 10 -3 14 0 3 4 0 7 -7 7 -7 0 -10 -3 -7 -7z"/>
 <path d="M2921 354 c0 -11 3 -14 6 -6 3 7 2 16 -1 19 -3 4 -6 -2 -5 -13z"/>
 <path d="M3541 354 c0 -11 3 -14 6 -6 3 7 2 16 -1 19 -3 4 -6 -2 -5 -13z"/>
 <path d="M5270 336 c0 -19 3 -37 8 -40 4 -2 6 13 4 35 -5 48 -12 51 -12 5z"/>
 <path d="M5951 354 c0 -11 3 -14 6 -6 3 7 2 16 -1 19 -3 4 -6 -2 -5 -13z"/>
 <path d="M830 350 c0 -7 3 -10 7 -7 3 4 3 10 0 14 -4 3 -7 0 -7 -7z"/>
 <path d="M1624 348 c-4 -7 -3 -8 4 -4 7 4 12 9 12 12 0 8 -9 4 -16 -8z"/>
 <path d="M2754 348 c-4 -7 -3 -8 4 -4 7 4 12 9 12 12 0 8 -9 4 -16 -8z"/>
 <path d="M4405 350 c3 -5 8 -10 11 -10 3 0 2 5 -1 10 -3 6 -8 10 -11 10 -3 0 -2 -4 1 -10z"/>
 <path d="M4444 348 c-4 -7 -3 -8 4 -4 12 7 16 16 8 16 -3 0 -8 -5 -12 -12z"/>
 <path d="M105 340 c3 -5 8 -10 11 -10 3 0 2 5 -1 10 -3 6 -8 10 -11 10 -3 0 -2 -4 1 -10z"/>
 <path d="M1080 340 c0 -7 3 -10 7 -7 3 4 3 10 0 14 -4 3 -7 0 -7 -7z"/>
 <path d="M1190 340 c0 -7 3 -10 7 -7 3 4 3 10 0 14 -4 3 -7 0 -7 -7z"/>
 <path d="M3640 340 c0 -7 3 -10 7 -7 3 4 3 10 0 14 -4 3 -7 0 -7 -7z"/>
 <path d="M5850 340 c0 -7 3 -10 7 -7 3 4 3 10 0 14 -4 3 -7 0 -7 -7z"/>
 <path d="M990 330 c0 -7 3 -10 7 -7 3 4 3 10 0 14 -4 3 -7 0 -7 -7z"/>
 <path d="M3459 323 c-13 -16 -12 -17 4 -4 9 7 17 15 17 17 0 8 -8 3 -21 -13z"/>
 <path d="M3883 333 c4 -3 10 -3 14 0 3 4 0 7 -7 7 -7 0 -10 -3 -7 -7z"/>
 <path d="M5140 330 c0 -7 3 -10 7 -7 3 4 3 10 0 14 -4 3 -7 0 -7 -7z"/>
 <path d="M5711 324 c0 -11 3 -14 6 -6 3 7 2 16 -1 19 -3 4 -6 -2 -5 -13z"/>
 <path d="M424 308 l-19 -23 23 19 c21 18 27 26 19 26 -2 0 -12 -10 -23 -22z"/>
 <path d="M4043 323 c4 -3 10 -3 14 0 3 4 0 7 -7 7 -7 0 -10 -3 -7 -7z"/>
 <path d="M5302 310 c0 -14 2 -19 5 -12 2 6 2 18 0 25 -3 6 -5 1 -5 -13z"/>
 <path d="M5395 320 c3 -5 8 -10 11 -10 3 0 2 5 -1 10 -3 6 -8 10 -11 10 -3 0 -2 -4 1 -10z"/>
 <path d="M5420 320 c0 -7 3 -10 7 -7 3 4 3 10 0 14 -4 3 -7 0 -7 -7z"/>
 <path d="M4815 310 c-3 -5 -3 -14 0 -20 7 -12 131 -14 138 -2 3 4 -26 6 -64 4 -43 -2 -69 0 -69 7 0 6 31 12 73 14 l72 3 -72 2 c-39 1 -75 -2 -78 -8z"/>
 <path d="M573 303 c4 -3 10 -3 14 0 3 4 0 7 -7 7 -7 0 -10 -3 -7 -7z"/>
 <path d="M1533 303 c4 -3 10 -3 14 0 3 4 0 7 -7 7 -7 0 -10 -3 -7 -7z"/>
 <path d="M2663 303 c4 -3 10 -3 14 0 3 4 0 7 -7 7 -7 0 -10 -3 -7 -7z"/>
 <path d="M4224 298 c-4 -7 -3 -8 4 -4 7 4 12 9 12 12 0 8 -9 4 -16 -8z"/>
 <path d="M5615 297 c-4 -10 -5 -21 -1 -24 10 -10 18 4 13 24 -4 17 -4 17 -12 0z"/>
 <path d="M145 290 c3 -5 8 -10 11 -10 3 0 2 5 -1 10 -3 6 -8 10 -11 10 -3 0 -2 -4 1 -10z"/>
 <path d="M5070 290 c0 -7 3 -10 7 -7 3 4 3 10 0 14 -4 3 -7 0 -7 -7z"/>
 <path d="M5430 290 c0 -7 3 -10 7 -7 3 4 3 10 0 14 -4 3 -7 0 -7 -7z"/>
 <path d="M5510 290 c0 -7 3 -10 7 -7 3 4 3 10 0 14 -4 3 -7 0 -7 -7z"/>
 <path d="M5530 280 c0 -7 3 -10 7 -7 3 4 3 10 0 14 -4 3 -7 0 -7 -7z"/>
 <path d="M3973 265 c0 -8 4 -12 9 -9 5 3 6 10 3 15 -9 13 -12 11 -12 -6z"/>
 <path d="M1176 255 c-11 -8 -15 -15 -9 -15 6 0 16 7 23 15 16 19 11 19 -14 0z"/>
 <path d="M3560 260 c0 -7 3 -10 7 -7 3 4 3 10 0 14 -4 3 -7 0 -7 -7z"/>
 <path d="M5930 260 c0 -7 3 -10 7 -7 3 4 3 10 0 14 -4 3 -7 0 -7 -7z"/>
 <path d="M543 253 c4 -3 10 -3 14 0 3 4 0 7 -7 7 -7 0 -10 -3 -7 -7z"/>
 <path d="M630 250 c0 -7 3 -10 7 -7 3 4 3 10 0 14 -4 3 -7 0 -7 -7z"/>
 <path d="M885 250 c3 -5 8 -10 11 -10 3 0 2 5 -1 10 -3 6 -8 10 -11 10 -3 0 -2 -4 1 -10z"/>
 <path d="M4013 253 c4 -3 10 -3 14 0 3 4 0 7 -7 7 -7 0 -10 -3 -7 -7z"/>
 <path d="M4053 243 c4 -3 10 -3 14 0 3 4 0 7 -7 7 -7 0 -10 -3 -7 -7z"/>
 <path d="M4274 238 c-4 -7 -3 -8 4 -4 12 7 16 16 8 16 -3 0 -8 -5 -12 -12z"/>
 <path d="M5028 228 c-10 -10 -14 -18 -9 -18 10 0 36 29 30 34 -2 1 -12 -6 -21 -16z"/>
 <path d="M462 220 c0 -14 2 -19 5 -12 2 6 2 18 0 25 -3 6 -5 1 -5 -13z"/>
 <path d="M918 233 c6 -2 18 -2 25 0 6 3 1 5 -13 5 -14 0 -19 -2 -12 -5z"/>
 <path d="M3843 233 c4 -3 10 -3 14 0 3 4 0 7 -7 7 -7 0 -10 -3 -7 -7z"/>
 <path d="M4018 233 c7 -3 16 -2 19 1 4 3 -2 6 -13 5 -11 0 -14 -3 -6 -6z"/>
 <path d="M580 220 c0 -7 3 -10 7 -7 3 4 3 10 0 14 -4 3 -7 0 -7 -7z"/>
 <path d="M4055 220 c3 -5 8 -10 11 -10 3 0 2 5 -1 10 -3 6 -8 10 -11 10 -3 0 -2 -4 1 -10z"/>
 <path d="M4100 226 c0 -2 8 -10 18 -17 15 -13 16 -12 3 4 -13 16 -21 21 -21 13z"/>
 <path d="M4239 213 c-13 -16 -12 -17 4 -4 16 13 21 21 13 21 -2 0 -10 -8 -17 -17z"/>
 <path d="M4514 218 c-4 -7 -3 -8 4 -4 7 4 12 9 12 12 0 8 -9 4 -16 -8z"/>
 <path d="M2315 211 c-6 -5 -19 -11 -30 -14 -19 -4 -19 -5 1 -6 12 0 27 6 34 14 14 16 10 20 -5 6z"/>
 <path d="M5078 190 c-3 -17 -1 -33 4 -36 4 -3 8 11 8 30 0 44 -6 47 -12 6z"/>
 <path d="M5274 196 c-3 -7 -4 -35 -2 -62 l3 -49 5 63 c5 63 4 73 -6 48z"/>
 <path d="M5699 193 c-13 -16 -12 -17 4 -4 16 13 21 21 13 21 -2 0 -10 -8 -17 -17z"/>
 <path d="M1770 194 c82 -8 198 -8 193 -1 -2 4 -55 6 -116 5 -62 -1 -96 -3 -77 -4z"/>
 <path d="M2107 193 c18 -2 50 -2 70 0 21 2 7 4 -32 4 -38 0 -55 -2 -38 -4z"/>
 <path d="M4582 170 c0 -14 2 -19 5 -12 2 6 2 18 0 25 -3 6 -5 1 -5 -13z"/>
 <path d="M4765 180 l-60 -7 57 -1 c31 -1 60 3 63 8 3 6 5 9 3 8 -2 -1 -30 -4 -63 -8z"/>
 <path d="M485 160 c10 -11 20 -20 23 -20 3 0 -3 9 -13 20 -10 11 -20 20 -23 20 -3 0 3 -9 13 -20z"/>
 <path d="M4449 163 c-13 -16 -12 -17 4 -4 9 7 17 15 17 17 0 8 -8 3 -21 -13z"/>
 <path d="M4957 173 c18 -2 50 -2 70 0 21 2 7 4 -32 4 -38 0 -55 -2 -38 -4z"/>
 <path d="M5461 158 c1 -17 3 -18 6 -6 4 15 20 18 111 21 l107 3 -112 2 c-111 2 -113 2 -112 -20z"/>
 <path d="M2361 144 c0 -11 3 -14 6 -6 3 7 2 16 -1 19 -3 4 -6 -2 -5 -13z"/>
 <path d="M3615 150 c3 -5 8 -10 11 -10 3 0 2 5 -1 10 -3 6 -8 10 -11 10 -3 0 -2 -4 1 -10z"/>
 <path d="M3951 144 c0 -11 3 -14 6 -6 3 7 2 16 -1 19 -3 4 -6 -2 -5 -13z"/>
 <path d="M5874 148 c-4 -7 -3 -8 4 -4 12 7 16 16 8 16 -3 0 -8 -5 -12 -12z"/>
 <path d="M2284 138 c-4 -7 -3 -8 4 -4 7 4 12 9 12 12 0 8 -9 4 -16 -8z"/>
 <path d="M4397 135 c-5 -12 -27 -15 -126 -15 -66 0 -122 -3 -124 -7 -3 -5 50 -7 118 -5 94 2 126 7 136 18 6 8 10 17 7 20 -3 3 -8 -2 -11 -11z"/>
 <path d="M523 133 c4 -3 10 -3 14 0 3 4 0 7 -7 7 -7 0 -10 -3 -7 -7z"/>
 <path d="M563 133 c4 -3 10 -3 14 0 3 4 0 7 -7 7 -7 0 -10 -3 -7 -7z"/>
 <path d="M4025 130 c3 -5 8 -10 11 -10 3 0 2 5 -1 10 -3 6 -8 10 -11 10 -3 0 -2 -4 1 -10z"/>
 <path d="M2160 111 c0 -11 4 -22 9 -25 4 -3 6 6 3 19 -5 30 -12 33 -12 6z"/>
 <path d="M2244 118 c-4 -7 -3 -8 4 -4 7 4 12 9 12 12 0 8 -9 4 -16 -8z"/>
 <path d="M4529 103 c-13 -16 -12 -17 4 -4 16 13 21 21 13 21 -2 0 -10 -8 -17 -17z"/>
 <path d="M4615 110 c3 -5 8 -10 11 -10 3 0 2 5 -1 10 -3 6 -8 10 -11 10 -3 0 -2 -4 1 -10z"/>
 <path d="M5370 110 c0 -7 3 -10 7 -7 3 4 3 10 0 14 -4 3 -7 0 -7 -7z"/>
 <path d="M1399 93 c-13 -16 -12 -17 4 -4 16 13 21 21 13 21 -2 0 -10 -8 -17 -17z"/>
 <path d="M2529 93 c-13 -16 -12 -17 4 -4 16 13 21 21 13 21 -2 0 -10 -8 -17 -17z"/>
 <path d="M4055 100 c3 -5 8 -10 11 -10 3 0 2 5 -1 10 -3 6 -8 10 -11 10 -3 0 -2 -4 1 -10z"/>
 <path d="M5180 101 c0 -10 29 -36 34 -30 1 2 -6 12 -16 22 -10 9 -18 13 -18 8z"/>
 <path d="M2334 88 c-4 -7 -3 -8 4 -4 7 4 12 9 12 12 0 8 -9 4 -16 -8z"/>
 <path d="M4753 93 c59 -2 155 -2 215 0 59 1 10 3 -108 3 -118 0 -167 -2 -107 -3z"/>
 <path d="M3723 73 c4 -3 10 -3 14 0 3 4 0 7 -7 7 -7 0 -10 -3 -7 -7z"/>
 <path d="M5243 73 c4 -3 10 -3 14 0 3 4 0 7 -7 7 -7 0 -10 -3 -7 -7z"/>
 <path d="M5408 73 c7 -3 16 -2 19 1 4 3 -2 6 -13 5 -11 0 -14 -3 -6 -6z"/>
 </g>
<g id="layer2" fill="#5b3714" stroke="none">
 <path d="M831 724 c-26 -33 -27 -86 -3 -106 9 -8 37 -26 62 -40 25 -15 61 -43 80 -63 l35 -37 -30 6 c-18 4 -41 0 -58 -9 -27 -14 -30 -13 -50 10 -30 34 -76 42 -104 18 -24 -20 -73 -130 -80 -180 -4 -25 1 -37 21 -57 44 -45 102 -31 135 32 l19 37 -5 -41 c-7 -57 21 -86 79 -82 54 4 76 34 92 129 l13 74 11 -40 c6 -22 14 -58 18 -80 9 -57 29 -75 81 -75 51 0 83 26 83 68 0 46 -36 176 -66 233 -33 67 -124 163 -189 200 -66 38 -116 39 -144 3z m127 -22 c56 -26 151 -127 184 -198 52 -112 73 -225 46 -252 -14 -14 -57 -16 -76 -3 -8 4 -20 41 -28 82 -25 131 -82 214 -189 276 -41 24 -51 35 -53 60 -2 23 3 35 20 47 23 17 39 15 96 -12z m-116 -229 c30 -27 19 -89 -29 -165 -18 -29 -30 -38 -51 -38 -55 0 -67 42 -32 110 11 22 20 45 20 52 0 24 31 58 52 58 12 0 30 -7 40 -17z m152 -32 c16 -18 17 -27 6 -91 -15 -88 -43 -127 -84 -116 -15 4 -30 14 -33 22 -8 21 16 153 34 182 17 27 54 29 77 3z"/>
 <path d="M3636 706 c-24 -23 -59 -74 -77 -112 -33 -67 -34 -72 -34 -194 0 -120 1 -128 32 -192 17 -37 50 -87 73 -112 36 -39 48 -46 80 -46 24 0 43 7 54 19 17 18 18 18 41 -5 13 -13 33 -24 45 -24 30 0 95 35 118 65 l20 25 45 -45 c52 -51 73 -55 114 -21 27 23 38 25 150 27 111 2 123 1 148 -19 36 -29 54 -28 101 6 37 27 40 27 57 10 15 -16 39 -18 245 -18 126 0 232 4 237 9 6 5 24 11 40 13 22 2 33 -2 40 -17 8 -15 23 -21 59 -23 63 -4 76 8 76 74 0 41 4 54 15 54 12 0 35 -55 35 -86 0 -21 37 -44 72 -44 45 0 83 37 76 74 l-5 26 102 0 c103 0 103 0 129 31 14 17 26 38 26 47 0 40 -30 370 -36 397 -6 28 -4 26 33 -20 60 -75 76 -112 81 -191 4 -61 1 -80 -20 -125 -14 -30 -41 -74 -61 -97 -23 -27 -37 -54 -37 -71 0 -38 38 -71 82 -71 29 0 43 8 78 46 23 25 56 75 73 112 31 64 32 72 32 192 0 122 -1 127 -34 194 -44 91 -108 156 -154 156 -37 0 -77 -33 -77 -66 -1 -15 -3 -14 -15 8 -32 58 -193 65 -221 10 -10 -20 -13 -21 -24 -7 -16 19 -69 19 -98 -1 -30 -21 -30 -79 0 -111 20 -21 20 -23 3 -23 -10 0 -27 -7 -37 -17 -17 -15 -18 -12 -18 80 0 88 -2 97 -22 111 -29 20 -67 20 -96 0 -19 -13 -22 -24 -22 -93 l0 -77 -36 4 c-28 3 -34 8 -29 21 20 50 17 78 -10 99 -37 29 -71 28 -100 -4 -20 -21 -25 -23 -25 -10 0 9 -11 28 -25 41 -20 21 -34 25 -85 25 -45 0 -65 -5 -78 -18 -11 -11 -37 -21 -59 -24 -32 -5 -42 -2 -51 13 -15 24 -84 26 -102 4 -11 -14 -15 -13 -28 6 -13 19 -22 21 -68 16 -33 -3 -56 -1 -60 5 -9 13 -121 3 -205 -20 -58 -15 -65 -20 -74 -50 -7 -24 -15 -32 -32 -32 -18 0 -23 6 -23 24 0 13 -6 29 -14 36 -38 31 -229 60 -266 40 -16 -9 -25 -9 -33 -1 -6 6 -26 11 -44 11 -26 0 -43 -10 -77 -44z m102 8 c31 -22 27 -50 -13 -100 -57 -69 -79 -128 -79 -214 -1 -85 26 -158 83 -222 33 -38 37 -57 21 -89 -16 -29 -45 -23 -91 18 -78 71 -128 214 -116 333 10 88 53 186 107 242 51 53 56 55 88 32z m2112 -32 c54 -56 97 -154 107 -242 12 -119 -38 -262 -116 -333 -45 -41 -62 -45 -85 -21 -24 24 -19 53 15 92 57 64 84 137 83 222 0 86 -22 145 -79 214 -40 50 -44 78 -13 100 32 23 37 21 88 -32z m-1908 27 c82 -18 108 -34 108 -70 0 -30 1 -30 48 -27 45 3 47 4 52 38 5 32 9 36 55 48 28 7 82 16 122 19 71 6 72 5 78 -20 13 -49 4 -62 -48 -65 -47 -3 -61 -14 -32 -26 12 -4 15 -28 15 -126 l0 -120 35 0 c23 0 38 -6 41 -15 5 -12 15 -8 49 20 50 40 77 44 99 13 23 -32 20 -41 -21 -82 -49 -47 -77 -55 -106 -28 -22 20 -23 20 -80 2 -57 -18 -127 -62 -127 -81 0 -5 15 -9 34 -9 29 0 33 3 29 20 -6 24 13 50 37 50 22 0 68 -52 76 -86 12 -46 -8 -54 -136 -54 -104 0 -119 -2 -135 -20 -27 -30 -44 -25 -102 32 -57 56 -62 71 -36 100 22 25 37 23 76 -12 35 -30 57 -38 57 -21 0 16 -49 49 -83 57 -70 15 -77 20 -67 54 l9 30 -53 0 c-28 0 -57 5 -64 12 -8 8 -12 53 -12 136 0 115 1 124 20 129 31 8 13 23 -29 23 -20 0 -42 5 -49 12 -13 13 -16 60 -5 71 10 11 86 8 145 -4z m566 -1 c14 -18 62 -174 62 -202 0 -31 -22 -48 -57 -44 -26 3 -30 10 -60 98 -18 52 -32 101 -33 109 -1 39 64 67 88 39z m400 -4 c20 -14 22 -23 22 -113 0 -109 6 -121 60 -121 20 0 41 -5 48 -12 16 -16 16 -220 0 -236 -7 -7 -36 -12 -65 -12 -40 0 -53 -4 -53 -15 0 -12 14 -15 64 -15 35 0 71 -3 80 -6 13 -5 16 2 16 42 -1 27 -5 68 -9 91 -10 52 4 77 39 71 19 -2 27 -12 35 -42 19 -68 36 -57 33 19 l-3 67 -52 20 c-47 17 -53 23 -53 47 0 40 22 55 70 48 l40 -5 0 82 c0 89 8 106 50 106 44 0 50 -16 50 -129 l0 -105 32 -27 c29 -24 32 -29 23 -55 -7 -18 -19 -30 -33 -32 -18 -3 -22 -10 -22 -37 0 -39 17 -57 22 -23 4 28 51 47 76 32 9 -6 23 -25 31 -42 23 -52 33 -37 12 19 -11 28 -38 75 -61 105 -46 59 -49 97 -9 109 43 14 105 -69 150 -199 34 -95 40 -63 8 40 -29 95 -50 133 -109 197 -54 60 -58 71 -33 99 26 28 47 22 96 -31 58 -62 104 -153 133 -261 26 -97 29 -80 13 75 -14 142 -20 155 -62 155 -40 0 -57 15 -57 50 0 40 18 50 86 50 107 0 114 -16 135 -326 l13 -177 -23 -18 c-19 -16 -41 -19 -127 -19 l-104 0 0 -39 c0 -34 -4 -40 -30 -51 -26 -11 -33 -10 -50 5 -11 10 -20 26 -20 36 0 9 -10 43 -22 74 -18 47 -23 54 -29 38 -4 -11 -14 -23 -23 -26 -12 -5 -16 -20 -16 -60 0 -59 -12 -77 -50 -77 -39 0 -50 18 -50 84 0 64 -16 68 -22 6 -2 -28 -8 -36 -26 -38 -13 -2 -29 2 -37 8 -11 9 -14 6 -17 -12 l-3 -23 -222 0 c-169 0 -225 3 -235 13 -9 9 -15 71 -19 225 -5 181 -9 220 -27 270 -24 65 -22 78 14 98 36 19 55 3 76 -60 20 -58 38 -231 38 -368 l0 -93 60 0 c47 0 60 3 60 15 0 10 -10 15 -34 15 -52 0 -66 27 -66 127 0 45 4 93 10 107 8 23 15 26 60 26 l50 0 0 81 c0 71 -2 80 -17 77 -10 -1 -24 1 -30 5 -19 12 -16 64 5 76 26 16 85 13 110 -5z m-131 -69 c45 -79 39 -135 -13 -135 -26 0 -31 6 -61 80 -28 66 -28 76 -5 89 30 19 56 7 79 -34z m296 23 c8 -12 4 -34 -17 -87 -25 -64 -30 -71 -56 -71 -49 0 -56 22 -30 93 12 34 27 68 33 75 14 17 57 11 70 -10z m-1258 -48 c19 0 20 -5 17 -125 -3 -124 -3 -125 -27 -125 -48 0 -74 -80 -37 -113 10 -9 33 -22 50 -28 18 -6 32 -14 32 -17 -1 -4 -15 -16 -33 -27 l-32 -21 -34 41 c-19 22 -45 64 -59 94 -21 45 -24 64 -20 125 5 75 21 116 71 179 21 27 33 35 40 28 6 -6 20 -11 32 -11z m621 -80 c13 -41 32 -82 43 -91 20 -17 20 -17 -12 -41 -27 -20 -37 -22 -64 -14 l-32 10 -3 108 -3 109 24 -3 c21 -3 28 -14 47 -78z m1131 45 c9 -24 -1 -27 -15 -5 -8 13 -8 20 -2 20 6 0 13 -7 17 -15z m-989 -155 c-2 -6 -8 -6 -18 0 -13 9 -13 11 0 20 15 10 25 0 18 -20z m533 -5 l34 -14 -37 -1 c-27 0 -38 4 -38 15 0 18 0 18 41 0z m-1216 -105 c75 -36 86 -47 74 -78 -14 -36 -35 -36 -114 -2 -66 29 -75 36 -75 59 0 30 16 51 38 51 8 0 42 -13 77 -30z m685 -44 c0 -19 -4 -23 -20 -19 -20 5 -20 7 -4 24 22 24 24 24 24 -5z m-128 -63 c-22 -18 -25 -17 -44 16 -22 39 -14 44 27 18 30 -20 32 -23 17 -34z m121 -1 c27 -23 21 -46 -23 -86 -43 -39 -70 -45 -94 -20 -27 26 -19 56 26 95 43 37 58 39 91 11z m-627 -33 c22 -24 13 -43 -36 -76 -54 -37 -100 -26 -100 23 0 16 13 30 43 48 51 31 68 32 93 5z"/>
 <path d="M3955 540 c-3 -5 0 -12 7 -15 25 -10 283 0 283 10 0 14 -281 19 -290 5z"/>
 <path d="M3953 468 c3 -10 41 -13 147 -13 106 0 144 3 148 13 3 9 -31 12 -148 12 -117 0 -151 -3 -147 -12z"/>
 <path d="M3955 400 c4 -6 63 -10 145 -10 82 0 141 4 145 10 4 6 -47 10 -145 10 -98 0 -149 -4 -145 -10z"/>
 <path d="M4100 313 c19 -8 47 -23 61 -34 25 -17 28 -18 40 -2 8 9 28 24 44 35 l30 18 -105 -1 c-103 -1 -104 -1 -70 -16z m87 -10 c-4 -3 -10 -3 -14 0 -3 4 0 7 7 7 7 0 10 -3 7 -7z"/>
 <path d="M4816 385 c-4 -13 7 -15 69 -15 60 0 75 3 75 15 0 12 -14 15 -69 15 -52 0 -70 -4 -75 -15z"/>
 <path d="M4820 300 c0 -6 28 -10 64 -10 36 0 68 5 71 10 4 6 -20 10 -64 10 -41 0 -71 -4 -71 -10z"/>
 <path d="M1297 722 c-15 -16 -17 -54 -17 -324 0 -297 1 -305 21 -324 15 -13 35 -19 67 -18 64 1 82 26 82 113 l0 66 106 49 c139 65 167 103 129 175 -27 52 -64 54 -156 6 -38 -19 -70 -35 -73 -35 -4 0 -6 61 -6 135 0 122 -2 137 -20 155 -27 27 -110 28 -133 2z m111 -14 c8 -8 12 -59 12 -165 0 -98 4 -153 10 -153 6 0 46 18 90 40 82 41 117 49 138 28 18 -18 14 -73 -6 -91 -24 -22 -99 -60 -173 -87 l-59 -22 0 -77 c0 -47 -5 -82 -12 -89 -17 -17 -68 -15 -90 5 -17 15 -18 38 -18 301 0 252 2 288 17 304 18 20 73 24 91 6z"/>
 <path d="M1892 730 c-42 -10 -72 -37 -72 -66 0 -22 -1 -22 -30 -7 -39 19 -84 9 -110 -24 -27 -35 -25 -61 10 -117 17 -26 46 -79 65 -117 l35 -69 -33 0 c-45 0 -72 -30 -72 -80 0 -69 21 -80 147 -80 l108 0 0 -38 c0 -53 28 -77 86 -76 58 1 74 16 74 70 0 43 1 44 32 44 25 0 29 -3 20 -12 -7 -7 -12 -29 -12 -50 0 -41 23 -62 63 -57 12 2 34 -5 49 -15 39 -25 72 -14 108 36 34 46 38 83 13 110 -10 11 -17 37 -18 63 -1 58 -25 85 -77 85 l-40 0 26 30 c39 47 89 159 94 213 6 63 -14 87 -73 87 -52 0 -59 -7 -124 -139 -55 -113 -60 -134 -35 -169 14 -21 14 -22 -5 -22 -20 0 -21 5 -21 174 0 96 -3 182 -6 191 -15 39 -113 56 -202 35z m172 -42 c13 -18 16 -56 16 -205 l0 -183 119 0 c129 0 131 -1 131 -59 0 -31 -16 -51 -43 -51 -10 0 -15 -4 -12 -10 7 -12 -17 -60 -43 -83 -24 -22 -65 -19 -70 5 -2 10 9 33 23 53 l27 35 -66 0 -66 0 0 -43 c0 -51 -13 -67 -56 -67 -39 0 -52 14 -56 65 l-3 40 -118 5 c-127 5 -137 10 -137 61 0 15 6 31 13 37 7 6 64 13 128 14 l114 3 0 145 0 145 -47 0 c-56 0 -70 12 -66 56 4 45 34 59 125 59 63 0 74 -3 87 -22z m-261 -80 c14 -18 41 -66 61 -105 53 -107 47 -153 -22 -153 -31 0 -35 4 -58 58 -14 31 -41 78 -60 105 -38 52 -42 81 -17 109 26 29 68 23 96 -14z m516 16 c29 -21 25 -57 -17 -144 -51 -103 -73 -130 -107 -130 -35 0 -55 15 -55 42 0 10 25 70 55 133 60 124 73 134 124 99z m-379 -174 c0 -116 -1 -120 -22 -120 -20 0 -21 1 -3 20 24 26 16 79 -22 159 l-29 61 38 0 38 0 0 -120z m415 -284 c16 -12 17 -17 6 -44 -17 -40 -55 -75 -78 -70 -31 6 -27 49 7 91 35 41 38 43 65 23z"/>
 <path d="M2427 722 c-15 -16 -17 -54 -17 -324 0 -297 1 -305 21 -324 15 -13 35 -19 67 -18 64 1 82 26 82 113 l0 66 106 49 c139 65 167 103 129 175 -27 52 -64 54 -156 6 -38 -19 -70 -35 -73 -35 -4 0 -6 61 -6 135 0 122 -2 137 -20 155 -27 27 -110 28 -133 2z m111 -14 c8 -8 12 -59 12 -165 0 -98 4 -153 10 -153 6 0 46 18 90 40 82 41 117 49 138 28 18 -18 14 -73 -6 -91 -24 -22 -99 -60 -173 -87 l-59 -22 0 -77 c0 -47 -5 -82 -12 -89 -17 -17 -68 -15 -90 5 -17 15 -18 38 -18 301 0 252 2 288 17 304 18 20 73 24 91 6z"/>
 <path d="M2819 691 c-39 -39 -37 -72 6 -131 56 -76 67 -119 72 -275 5 -124 8 -143 26 -162 25 -27 81 -31 115 -7 21 14 22 21 22 162 0 166 -14 240 -59 331 -55 108 -124 140 -182 82z m113 -28 c71 -75 97 -168 105 -363 7 -165 3 -174 -64 -168 l-38 3 -7 130 c-9 185 -21 232 -79 306 -33 42 -37 74 -12 101 24 27 65 23 95 -9z"/>
 <path d="M3111 684 c-20 -26 -21 -39 -21 -301 l0 -274 36 -15 c43 -18 100 -10 114 17 6 10 10 100 10 200 l0 183 26 -35 c15 -19 38 -59 52 -89 13 -30 32 -63 40 -72 31 -37 126 -10 138 38 16 65 -51 189 -159 291 -74 71 -98 83 -167 83 -41 0 -52 -4 -69 -26z m142 -15 c61 -32 153 -133 193 -211 52 -104 43 -153 -28 -146 -30 3 -36 9 -66 71 -19 37 -53 88 -77 115 l-44 47 -1 -206 c0 -146 -3 -208 -12 -217 -17 -17 -83 -15 -97 2 -9 10 -11 85 -9 269 3 234 5 257 22 276 25 27 65 27 119 0z"/>
 <path d="M590 653 c-19 -10 -97 -80 -174 -156 -76 -76 -140 -137 -141 -135 -1 2 -26 36 -54 76 -59 80 -74 92 -124 92 -47 0 -77 -34 -77 -86 0 -36 9 -52 78 -135 111 -134 135 -152 190 -146 37 4 53 14 101 61 l56 55 -3 -52 c-3 -47 0 -57 26 -85 26 -28 36 -32 82 -32 44 0 56 4 81 29 25 25 29 37 29 83 0 47 -4 58 -29 82 -26 25 -35 28 -85 24 l-55 -3 37 38 c20 21 72 68 115 104 74 62 77 66 77 108 0 77 -59 113 -130 78z m94 -35 c30 -42 20 -62 -66 -136 -46 -39 -132 -121 -193 -181 -154 -155 -164 -154 -310 29 -41 52 -75 104 -75 116 0 29 43 66 71 62 21 -3 49 -35 146 -164 l21 -29 102 108 c194 205 266 250 304 195z m-72 -335 c39 -37 38 -84 -1 -124 -37 -36 -79 -38 -118 -5 -22 19 -28 32 -28 66 0 81 89 119 147 63z"/>
 <path d="M524 235 c-10 -25 4 -47 28 -43 17 2 24 11 26 31 3 23 0 27 -23 27 -14 0 -28 -7 -31 -15z"/>
 </g>
<g id="layer3" fill="#fefefe" stroke="none">
 <path d="M862 714 c-34 -24 -27 -74 13 -94 63 -33 112 -72 142 -113 35 -50 73 -156 73 -203 0 -57 43 -80 89 -48 21 15 23 22 17 68 -20 149 -99 283 -207 353 -81 52 -99 57 -127 37z"/>
 <path d="M3679 707 c-42 -37 -87 -101 -110 -158 -25 -64 -31 -215 -9 -270 31 -82 56 -125 96 -166 35 -37 46 -44 66 -38 48 15 50 53 6 103 -46 54 -88 152 -88 209 0 90 32 175 87 232 36 37 40 71 13 93 -28 22 -29 22 -61 -5z"/>
 <path d="M5762 714 c-30 -21 -28 -54 6 -90 60 -63 92 -144 92 -237 0 -57 -42 -155 -88 -209 -44 -50 -42 -88 6 -103 42 -13 113 76 162 204 22 55 16 206 -9 270 -23 57 -68 121 -110 158 -31 27 -31 27 -59 7z"/>
 <path d="M3800 706 c-6 -8 -10 -25 -8 -38 3 -24 10 -26 113 -45 l40 -7 -40 -5 -40 -6 -3 -128 -3 -127 26 -10 c15 -6 43 -10 63 -10 35 0 37 -2 37 -32 0 -29 4 -33 40 -42 53 -12 99 -39 103 -59 5 -24 -14 -21 -52 8 -18 14 -42 25 -52 25 -23 0 -44 -18 -44 -37 0 -18 106 -123 124 -123 9 0 23 11 32 25 16 24 19 25 135 25 109 0 119 2 129 20 9 17 6 28 -17 63 -16 23 -37 43 -46 45 -26 5 -49 -18 -44 -45 4 -21 1 -23 -35 -23 -35 0 -38 2 -29 19 15 27 50 47 122 69 64 20 64 20 85 1 25 -24 57 -19 95 15 44 38 53 63 34 92 -15 24 -65 35 -65 14 0 -5 -17 -21 -37 -34 -33 -23 -39 -24 -53 -11 -9 8 -28 15 -43 15 l-26 0 -3 123 -3 122 -40 5 c-36 5 -37 6 -15 13 14 3 39 7 55 7 54 0 75 11 75 35 0 61 -16 65 -151 39 -99 -18 -113 -27 -105 -66 5 -28 5 -28 -49 -28 -54 0 -55 0 -55 30 0 38 -34 56 -127 70 -92 13 -109 12 -123 -4z m445 -171 c0 -10 -258 -20 -283 -10 -7 3 -10 10 -7 15 9 14 290 9 290 -5z m3 -67 c-4 -10 -42 -13 -148 -13 -106 0 -144 3 -147 13 -4 9 30 12 147 12 117 0 151 -3 148 -12z m0 -60 c-4 -10 -42 -13 -148 -13 -106 0 -144 3 -147 13 -4 9 30 12 147 12 117 0 151 -3 148 -12z m-191 -85 c-4 -3 -10 -3 -14 0 -3 4 0 7 7 7 7 0 10 -3 7 -7z m172 -27 c-43 -33 -44 -33 -69 -16 -14 10 -41 25 -60 33 -34 15 -33 15 69 16 l104 1 -44 -34z"/>
 <path d="M5191 701 c-6 -11 -11 -53 -11 -94 l0 -75 -40 5 c-48 7 -70 -8 -70 -48 0 -24 6 -30 53 -47 l52 -20 3 -66 c4 -84 -21 -92 -38 -12 -5 27 -10 31 -35 29 -35 -3 -45 -18 -35 -53 4 -14 11 -60 15 -101 6 -61 5 -72 -6 -61 -8 7 -40 12 -81 12 -57 0 -69 3 -78 20 -10 19 -8 20 40 20 79 0 90 17 90 138 0 63 -4 102 -12 110 -7 7 -34 12 -60 12 l-48 0 0 108 c0 71 -4 112 -12 120 -7 7 -36 12 -65 12 -47 0 -55 -3 -65 -25 -13 -29 3 -55 33 -55 17 0 19 -8 19 -80 l0 -80 -43 0 c-24 0 -48 -5 -55 -12 -16 -16 -16 -220 0 -236 7 -7 26 -12 44 -12 30 0 51 -20 37 -34 -11 -11 -109 -6 -121 6 -8 8 -12 59 -12 163 0 165 -20 307 -46 336 -21 23 -57 24 -78 3 -19 -19 -21 -7 10 -95 23 -67 26 -94 31 -269 3 -107 10 -201 16 -207 7 -10 66 -13 233 -13 222 0 224 0 224 21 0 18 3 19 14 9 8 -6 25 -10 38 -8 18 2 24 10 26 38 6 58 22 60 22 2 0 -56 27 -99 57 -88 8 3 19 6 24 6 5 0 9 27 9 60 0 55 2 61 24 70 13 5 26 17 28 27 2 10 17 -19 35 -67 32 -88 42 -98 90 -85 24 6 25 9 18 50 l-6 45 114 0 c162 0 154 -13 133 234 -18 216 -29 264 -66 283 -36 19 -130 13 -144 -10 -19 -30 12 -71 56 -75 35 -3 36 -4 46 -60 6 -31 14 -88 17 -127 3 -38 8 -89 11 -113 3 -26 1 -42 -5 -42 -6 0 -11 13 -11 29 0 15 -4 41 -9 57 -5 16 -15 49 -22 74 -20 71 -58 140 -106 198 -51 60 -82 68 -109 26 -17 -25 -17 -26 33 -77 28 -29 60 -70 71 -92 32 -64 73 -208 62 -219 -5 -5 -11 2 -15 20 -14 66 -58 164 -91 203 -50 58 -104 56 -104 -4 0 -7 14 -27 31 -44 30 -31 89 -134 89 -158 0 -23 -15 -13 -34 21 -21 40 -37 49 -72 40 -17 -4 -24 -13 -24 -31 0 -18 -5 -24 -17 -21 -13 2 -19 14 -21 40 -3 34 -1 37 25 40 25 3 28 7 28 43 0 32 -5 42 -25 52 -24 12 -25 17 -30 130 l-5 118 -32 3 c-23 2 -34 -2 -42 -17z m-231 -316 c0 -12 -15 -15 -75 -15 -60 0 -75 3 -75 15 0 12 15 15 75 15 60 0 75 -3 75 -15z m-2 -82 c-3 -15 -16 -19 -67 -21 -35 -2 -68 1 -74 7 -20 20 6 31 74 31 62 0 70 -2 67 -17z"/>
 <path d="M1317 703 c-4 -3 -7 -140 -7 -303 0 -317 1 -320 50 -320 45 0 60 28 60 108 0 65 2 71 23 78 40 12 169 74 198 95 34 24 39 67 11 92 -27 24 -39 22 -138 -28 l-89 -44 -3 151 c-1 91 -7 157 -13 165 -12 13 -80 18 -92 6z"/>
 <path d="M1880 697 c-16 -8 -26 -23 -28 -40 -5 -43 14 -59 67 -55 l46 2 0 -149 0 -150 -118 -3 c-113 -3 -118 -4 -129 -27 -6 -13 -8 -35 -4 -49 6 -25 7 -25 129 -28 l122 -3 3 -45 c3 -50 21 -70 62 -70 38 0 50 18 50 72 l0 48 65 0 c36 0 65 -3 65 -6 0 -3 -9 -19 -21 -35 -25 -36 -22 -73 7 -77 27 -4 87 73 78 100 -4 13 0 18 14 18 31 0 45 25 38 65 l-7 35 -119 0 -118 0 -4 186 c-3 181 -4 186 -27 205 -28 23 -131 26 -171 6z"/>
 <path d="M2447 703 c-4 -3 -7 -140 -7 -303 0 -317 1 -320 50 -320 45 0 60 28 60 108 0 65 2 71 23 78 40 12 169 74 198 95 34 24 39 67 11 92 -27 24 -39 22 -138 -28 l-89 -44 -3 151 c-1 91 -7 157 -13 165 -12 13 -80 18 -92 6z"/>
 <path d="M4436 691 c-16 -18 -16 -23 9 -102 36 -114 45 -129 70 -129 36 0 58 23 52 56 -10 58 -38 150 -53 172 -18 27 -55 29 -78 3z"/>
 <path d="M2842 674 c-30 -21 -28 -60 7 -99 53 -60 72 -133 80 -295 l6 -145 42 -3 c62 -5 67 11 58 177 -7 150 -15 190 -53 271 -46 100 -90 129 -140 94z"/>
 <path d="M3136 672 c-15 -17 -16 -48 -14 -283 l3 -264 28 -9 c19 -7 34 -7 45 0 15 10 17 36 20 218 2 152 6 206 14 206 19 0 86 -80 108 -130 36 -80 48 -95 75 -98 33 -4 65 23 65 55 0 31 -31 92 -86 169 -87 123 -210 188 -258 136z"/>
 <path d="M4695 666 c-19 -14 -19 -15 -2 -50 9 -20 17 -42 17 -49 0 -7 11 -25 24 -42 21 -27 26 -28 50 -17 34 15 33 42 -2 112 -30 59 -53 71 -87 46z"/>
 <path d="M5007 662 c-42 -46 -61 -144 -31 -156 40 -15 52 -6 78 59 31 78 32 91 7 105 -27 14 -35 13 -54 -8z"/>
 <path d="M575 607 c-22 -17 -96 -89 -165 -159 -69 -71 -131 -128 -137 -128 -6 0 -14 7 -17 16 -8 20 -39 61 -90 120 -43 49 -80 58 -109 26 -27 -30 -20 -49 41 -125 32 -40 68 -87 81 -105 26 -38 69 -62 108 -62 22 1 54 27 158 131 72 72 156 152 187 177 48 39 58 52 58 78 0 34 -26 64 -56 64 -10 -1 -37 -15 -59 -33z"/>
 <path d="M1707 622 c-25 -27 -21 -46 19 -110 20 -31 45 -77 56 -102 22 -51 32 -60 69 -60 59 0 61 55 7 164 -54 110 -112 151 -151 108z"/>
 <path d="M2260 633 c-17 -4 -120 -212 -120 -243 0 -38 71 -54 97 -22 25 31 103 197 103 219 0 31 -41 54 -80 46z"/>
 <path d="M749 423 c-52 -116 -48 -159 17 -151 21 2 33 14 54 53 52 97 45 165 -16 165 -20 0 -29 -12 -55 -67z"/>
 <path d="M922 448 c-5 -7 -18 -48 -28 -91 -21 -90 -15 -110 33 -115 40 -4 56 22 71 113 11 66 11 71 -9 88 -25 20 -52 22 -67 5z"/>
 <path d="M3792 328 c-7 -7 -12 -24 -12 -39 0 -21 7 -29 33 -39 17 -6 51 -21 75 -33 51 -26 77 -16 77 29 0 24 -8 32 -65 61 -71 36 -90 39 -108 21z"/>
 <path d="M498 289 c-53 -40 -32 -129 35 -152 25 -9 83 17 97 43 15 28 5 82 -19 104 -30 27 -82 30 -113 5z m76 -45 c9 -8 16 -18 16 -22 -1 -39 -63 -42 -68 -3 -6 37 26 52 52 25z"/>
 <path d="M4478 182 c-34 -32 -40 -43 -34 -65 10 -40 42 -44 90 -9 43 32 58 71 35 98 -19 23 -48 16 -91 -24z"/>
 <path d="M3853 164 c-46 -27 -54 -51 -27 -78 22 -22 44 -20 87 9 38 27 48 60 25 83 -18 18 -38 15 -85 -14z"/>
 <path d="M2290 138 c-53 -73 -19 -121 40 -56 41 44 38 98 -5 98 -2 0 -17 -19 -35 -42z"/>
 </g>

</svg>