<!--?xml version="1.0" encoding="utf-8"?-->
<!-- Generator: Adobe Illustrator 19.1.1, SVG Export Plug-In . SVG Version: 6.00 Build 0)  -->
<svg version="1.1" id="_x31_0" xmlns="http://www.w3.org/2000/svg" xmlns:xlink="http://www.w3.org/1999/xlink" x="0px" y="0px" viewBox="0 0 512 512" style="width: 256px; height: 256px; opacity: 1;" xml:space="preserve">
<style type="text/css">
	.st0{fill:#374149;}
</style>
<g>
	<path class="st0" d="M206.943,84.676h98.106c6.34,0,11.496-5.16,11.496-11.5V37.824C316.545,16.969,299.576,0,278.725,0h-45.45
		c-20.855,0-37.824,16.969-37.824,37.824v35.352C195.451,79.516,200.607,84.676,206.943,84.676z" style="fill: rgb(255, 255, 255);"></path>
	<path class="st0" d="M325.877,148.992v-34.144c0-4.574-3.722-8.294-8.301-8.294H194.42c-4.578,0-8.297,3.719-8.297,8.294v34.144
		c-15.602,14.871-40.246,46.492-40.246,97.742v211.953c0,29.395,23.918,53.313,53.313,53.313h113.617
		c29.398,0,53.317-23.918,53.317-53.313V246.734C366.123,195.484,341.478,163.863,325.877,148.992z M331.15,259.313h-84.695
		c-4.828,0-8.758,3.93-8.758,8.758v13.008c0,4.824,3.93,8.754,8.758,8.754h84.594h0.102v61.336h-84.695
		c-4.828,0-8.758,3.93-8.758,8.758v13.008c0,4.824,3.93,8.754,8.758,8.754h84.695v77c0,10.118-8.23,18.344-18.344,18.344H199.19
		c-10.114,0-18.34-8.226-18.34-18.344v-77h26.238c4.828,0,8.754-3.93,8.754-8.754v-13.008c0-4.828-3.926-8.758-8.754-8.758h-26.234
		h-0.004v-61.309v-0.027h26.238c4.828,0,8.754-3.93,8.754-8.754V268.07c0-4.828-3.926-8.758-8.754-8.758H180.85v-12.578
		c0-55.711,37.996-79.523,38.378-79.758l1.867-1.141v-24.305h69.754h0.054l0.008,24.309l1.859,1.137
		c0.383,0.234,38.379,24.046,38.379,79.758V259.313z" style="fill: rgb(255, 255, 255);"></path>
</g>
</svg>
