<!DOCTYPE svg PUBLIC "-//W3C//DTD SVG 20010904//EN" "http://www.w3.org/TR/2001/REC-SVG-20010904/DTD/svg10.dtd">
<svg version="1.0" xmlns="http://www.w3.org/2000/svg" width="1600px" height="138px" viewBox="0 0 16000 1380" preserveAspectRatio="xMidYMid meet">
<g id="layer1" fill="#ffffff" stroke="none">
 <path d="M2601 1254 c-20 -25 -21 -39 -21 -255 0 -224 0 -229 -20 -229 -30 0 -75 -26 -99 -56 -40 -51 -24 -110 59 -215 49 -62 117 -203 150 -309 7 -25 24 -60 37 -77 20 -28 30 -33 64 -33 80 0 137 57 124 123 -6 26 -5 30 6 20 7 -7 37 -13 67 -13 46 0 58 4 83 29 27 27 29 35 29 101 0 63 2 71 18 68 15 -3 18 -20 22 -142 5 -138 5 -139 33 -160 37 -27 97 -27 134 0 27 20 28 25 31 123 l3 101 27 -6 c15 -4 34 -10 43 -15 8 -4 38 -11 66 -15 59 -7 86 4 113 49 23 38 25 93 10 277 -13 145 -25 214 -45 253 -13 26 -13 27 13 27 15 1 40 11 56 24 28 23 28 25 24 107 -9 191 -59 219 -399 219 -207 0 -279 -11 -318 -51 -37 -37 -41 -65 -41 -311 l0 -208 -24 0 c-14 0 -32 -10 -40 -22 -15 -21 -16 3 -16 278 l0 301 -23 21 c-19 18 -35 22 -84 22 -55 0 -64 -3 -82 -26z m763 -204 c42 -9 56 -23 56 -55 0 -11 6 -32 14 -47 l14 -26 -64 -4 -64 -3 0 31 c0 45 -29 67 -92 67 -35 1 -62 -5 -80 -17 l-28 -18 0 -185 c0 -170 -1 -184 -17 -181 -17 3 -18 21 -18 218 l0 215 55 6 c89 9 182 9 224 -1z m-4 -330 c8 0 25 -188 17 -196 -2 -3 -16 1 -31 7 -25 12 -26 14 -26 107 0 82 2 93 16 88 9 -3 19 -6 24 -6z m-512 -234 c21 -7 22 -13 22 -92 0 -46 -2 -84 -3 -84 -2 0 -16 33 -32 73 -15 39 -32 76 -36 82 -5 5 -9 20 -9 34 0 22 1 23 18 9 9 -9 27 -19 40 -22z"/>
 <path d="M3951 1258 c-89 -60 -91 -175 -4 -221 15 -8 60 -31 98 -51 118 -61 210 -130 276 -207 49 -57 126 -196 148 -266 25 -77 45 -73 -353 -73 l-354 0 -27 -32 c-24 -28 -27 -38 -23 -87 4 -45 10 -59 37 -83 l31 -28 395 0 395 0 0 -23 c0 -31 65 -106 107 -123 89 -37 191 5 229 95 41 97 -25 221 -126 237 -37 6 -40 9 -40 40 0 65 -41 193 -99 311 -93 188 -305 391 -511 491 -93 44 -136 49 -179 20z m824 -1033 c0 -26 -3 -30 -29 -30 -32 0 -53 23 -43 49 5 12 16 16 39 14 29 -3 33 -6 33 -33z"/>
 <path d="M5266 1248 c-31 -28 -38 -41 -43 -86 -6 -50 -5 -53 31 -87 21 -19 45 -35 54 -35 9 0 26 -7 36 -15 11 -8 26 -15 33 -15 44 0 206 -102 261 -164 34 -39 76 -109 87 -143 l6 -23 -370 0 -370 0 -30 -37 c-41 -49 -43 -117 -7 -160 l24 -28 474 0 c435 0 476 1 501 18 62 40 70 112 28 243 -70 220 -209 376 -441 497 -148 77 -216 85 -274 35z"/>
 <path d="M9991 1256 c-19 -20 -22 -33 -19 -82 3 -56 5 -60 38 -77 25 -13 28 -16 10 -12 -60 15 -132 17 -157 4 -30 -16 -53 -58 -53 -98 0 -38 60 -91 105 -91 28 0 57 -6 130 -26 23 -7 3 -10 -80 -14 l-110 -5 -18 -37 c-21 -43 -15 -100 14 -129 17 -17 36 -19 149 -19 l129 0 -24 -25 c-14 -13 -25 -31 -25 -40 0 -19 4 -20 -73 15 -87 39 -108 38 -146 -5 -23 -27 -31 -45 -31 -74 0 -45 23 -70 94 -100 l48 -21 -26 -21 c-15 -12 -44 -47 -66 -79 -52 -76 -53 -115 -6 -164 57 -61 113 -46 183 49 l22 30 1 -43 c0 -64 34 -92 112 -92 49 0 63 4 83 25 14 13 25 34 25 47 0 23 1 23 114 20 l115 -3 6 -29 c10 -46 40 -65 100 -65 43 0 59 5 79 24 14 14 26 35 26 48 0 23 1 23 114 23 132 0 137 3 144 83 3 42 0 57 -16 77 -19 23 -27 25 -131 28 l-111 4 0 29 0 29 89 0 c85 0 91 1 110 26 29 37 28 94 -4 128 l-24 26 -211 0 -211 0 18 25 18 24 216 1 c203 0 218 1 243 21 22 17 26 28 26 73 0 60 -27 96 -72 96 -25 0 -26 2 -16 33 13 44 -3 82 -47 108 -19 12 -35 24 -35 28 0 8 73 31 100 31 12 0 32 12 45 26 32 35 33 89 2 135 -21 32 -26 34 -87 37 -44 2 -77 -2 -105 -14 -105 -44 -152 -71 -223 -126 -42 -34 -71 -55 -64 -47 6 7 12 29 12 49 0 49 -38 84 -110 100 -30 6 -73 16 -95 22 -76 20 -190 38 -246 38 -46 0 -59 -4 -78 -24z m382 -232 c33 -8 69 -13 79 -11 17 5 17 2 -4 -31 -26 -44 -35 -61 -42 -85 -5 -15 -14 -11 -66 29 -53 40 -60 50 -60 80 0 40 5 41 93 18z m317 -144 l25 -20 -43 0 c-40 0 -42 1 -32 20 13 25 19 25 50 0z m-372 -235 c6 -14 16 -25 23 -25 6 0 1 -12 -10 -26 -13 -16 -21 -41 -21 -64 0 -23 8 -48 21 -64 19 -25 25 -26 110 -26 l89 0 0 -30 0 -30 -96 0 c-52 0 -104 -5 -115 -10 -18 -10 -19 -6 -19 118 0 116 -2 132 -21 156 l-20 26 24 0 c16 0 28 -8 35 -25z"/>
 <path d="M11394 1219 c-82 -79 -140 -178 -185 -314 -35 -107 -36 -302 -1 -438 21 -81 104 -231 161 -290 94 -99 149 -113 207 -51 49 51 46 88 -9 150 -98 112 -138 186 -163 304 -39 183 11 342 163 514 56 63 59 107 10 154 -27 26 -41 32 -76 32 -39 0 -49 -6 -107 -61z"/>
 <path d="M11731 1254 c-24 -30 -36 -83 -26 -114 11 -33 63 -60 119 -60 l49 0 -24 -26 c-23 -25 -24 -31 -27 -209 -2 -103 1 -199 6 -219 l11 -36 -48 6 c-45 6 -49 4 -79 -30 -21 -24 -32 -47 -32 -67 0 -35 34 -89 56 -89 22 0 174 -70 174 -80 0 -3 -24 -16 -53 -29 -103 -49 -136 -87 -116 -138 17 -45 59 -83 92 -83 34 0 124 42 169 80 28 24 33 34 33 73 0 26 -7 53 -15 63 -15 18 -14 21 13 47 18 17 27 22 23 12 -23 -60 -23 -60 87 -170 124 -124 142 -130 200 -66 l36 40 206 3 207 3 25 29 c21 24 24 36 19 68 -11 66 -79 167 -115 169 -9 0 13 9 49 20 36 10 73 28 83 40 24 30 21 78 -7 114 -21 26 -30 30 -73 29 l-48 -2 0 198 c0 196 0 199 -24 224 l-24 26 60 0 c64 0 93 18 108 68 7 26 -10 89 -33 115 -24 28 -148 20 -307 -19 -149 -37 -171 -54 -160 -126 l5 -38 -75 0 -75 0 6 25 c10 42 -14 84 -60 104 -82 36 -250 71 -344 71 -43 0 -54 -4 -71 -26z m779 -324 c10 -6 -70 -10 -235 -10 -165 0 -245 4 -235 10 9 6 110 10 235 10 125 0 226 -4 235 -10z m-473 -409 c-12 -32 -3 -34 -92 13 l-30 16 67 0 66 0 -11 -29z m463 12 c-14 -9 -37 -27 -52 -41 -26 -24 -29 -24 -46 -9 -10 9 -41 28 -68 42 l-49 25 120 0 c114 0 118 -1 95 -17z m-408 -128 c0 -5 -5 -11 -11 -13 -6 -2 -11 4 -11 13 0 9 5 15 11 13 6 -2 11 -8 11 -13z m206 -74 c7 -21 -15 -11 -44 21 l-29 32 35 -22 c19 -11 36 -26 38 -31z m292 14 c0 -21 -5 -25 -30 -25 -36 0 -37 3 -8 30 29 26 38 25 38 -5z"/>
 <path d="M14376 1249 c-25 -30 -26 -35 -26 -170 0 -76 -2 -139 -4 -139 -2 0 -20 7 -39 15 -50 21 -71 19 -104 -9 -41 -34 -60 -95 -43 -135 11 -29 57 -61 85 -61 7 0 33 -9 59 -20 l46 -21 0 -96 c0 -71 -3 -94 -11 -86 -6 6 -14 32 -16 57 -9 77 -72 108 -144 70 -35 -18 -34 16 -6 -287 16 -183 23 -197 94 -197 30 0 49 6 63 20 l20 20 0 -25 c0 -38 26 -82 52 -89 13 -3 42 -6 66 -6 34 0 48 6 67 26 22 24 25 36 25 113 l1 86 35 22 35 23 23 -53 c12 -28 28 -77 35 -108 20 -86 39 -104 105 -103 45 0 61 5 81 24 24 23 26 31 23 87 l-3 62 192 3 192 3 30 29 c31 30 31 30 31 140 0 105 -7 217 -31 471 -28 304 -58 344 -252 345 -96 0 -99 -1 -128 -29 -21 -22 -29 -39 -29 -66 l0 -37 -46 41 c-41 35 -53 41 -94 41 -62 0 -100 -37 -100 -97 0 -38 6 -48 63 -105 70 -70 120 -139 154 -211 33 -71 29 -69 -28 16 -64 95 -109 132 -163 132 -32 0 -44 -6 -67 -35 -16 -19 -29 -45 -29 -58 0 -14 -5 -22 -12 -20 -10 4 -14 56 -18 201 -5 190 -6 196 -29 221 -20 22 -34 26 -77 26 -46 0 -55 -4 -78 -31z m690 -207 c15 -10 63 -326 52 -338 -2 -2 -13 24 -23 59 -18 64 -69 172 -111 238 l-23 38 32 4 c57 7 62 7 73 -1z m-326 -407 c38 -64 38 -73 -1 -41 -17 14 -43 26 -57 26 -45 0 -96 -33 -109 -71 l-12 -34 0 48 c-1 40 2 47 18 47 30 0 81 65 81 103 l0 32 25 -30 c14 -16 39 -52 55 -80z"/>
 <path d="M15461 1251 c-26 -24 -31 -37 -31 -73 0 -38 6 -51 48 -99 122 -137 157 -226 157 -394 0 -156 -38 -255 -145 -380 -51 -60 -60 -76 -60 -110 0 -31 7 -48 31 -74 28 -31 33 -33 80 -29 45 5 57 11 104 58 56 55 143 200 168 280 35 110 39 139 35 281 -4 125 -8 155 -31 222 -46 130 -107 228 -188 301 -44 40 -57 46 -94 46 -34 0 -50 -6 -74 -29z"/>
 <path d="M12985 1260 c-11 -4 -31 -20 -45 -34 -30 -33 -30 -81 1 -150 12 -28 30 -82 40 -120 29 -115 31 -120 56 -153 21 -29 30 -33 68 -33 36 0 50 6 79 34 20 18 37 44 38 57 4 59 16 -193 17 -359 l1 -183 -31 36 c-26 29 -38 35 -71 35 -33 0 -49 -7 -87 -41 -104 -91 -101 -87 -101 -134 0 -36 6 -50 34 -79 50 -53 88 -50 163 12 32 27 64 56 72 66 13 15 16 13 31 -22 31 -70 47 -72 463 -72 l364 0 22 24 c19 20 22 33 19 82 -4 77 -17 84 -165 84 -69 0 -113 4 -113 10 0 6 28 10 64 10 86 0 132 20 151 68 13 30 16 70 13 204 -3 151 -5 169 -24 195 -20 26 -26 28 -103 31 l-81 3 0 29 0 29 36 -24 c53 -36 97 -33 128 8 15 19 26 40 26 48 0 8 4 19 9 25 20 20 61 139 61 175 0 28 -6 42 -25 58 -36 27 -82 36 -112 20 -29 -16 -73 -93 -99 -174 l-19 -60 -5 115 c-7 162 -33 192 -165 189 -89 -2 -108 -10 -131 -55 -19 -38 -22 -40 -40 -27 -29 22 -94 10 -121 -21 -27 -32 -33 -32 -33 -5 0 12 -16 37 -36 55 -49 47 -87 46 -143 -3 -39 -33 -43 -39 -37 -72 4 -25 2 -31 -4 -21 -5 8 -10 23 -10 33 0 27 -38 95 -59 107 -23 12 -68 12 -96 0z m675 -305 l0 -125 -78 0 c-69 0 -81 -3 -100 -23 -22 -23 -22 -30 -20 -227 l3 -203 25 -19 c14 -10 49 -21 78 -25 87 -10 70 -23 -31 -23 l-94 0 -6 293 c-3 160 -11 316 -17 345 -7 29 -10 55 -8 58 3 2 15 -22 28 -54 43 -106 90 -134 157 -92 58 35 60 49 18 187 -6 17 -2 22 17 26 12 2 24 5 26 6 1 0 2 -55 2 -124z m-471 75 c0 -10 -3 -8 -9 5 -12 27 -12 43 0 25 5 -8 9 -22 9 -30z m21 -65 c0 -5 -5 -3 -10 5 -5 8 -10 20 -10 25 0 6 5 3 10 -5 5 -8 10 -19 10 -25z m608 -302 c-32 -2 -84 -2 -115 0 -32 2 -6 3 57 3 63 0 89 -1 58 -3z m47 -153 c-3 -6 -52 -10 -111 -10 -63 0 -104 4 -104 10 0 6 44 10 111 10 71 0 108 -4 104 -10z"/>
 <path d="M655 1243 c-108 -28 -161 -53 -203 -96 -107 -110 -109 -262 -4 -369 40 -42 29 -50 -30 -23 -18 8 -67 24 -108 35 -41 12 -85 26 -98 31 -43 17 -99 11 -128 -14 -20 -18 -28 -35 -31 -74 -3 -27 0 -59 6 -71 6 -11 57 -43 113 -72 57 -28 135 -71 173 -95 39 -25 77 -48 85 -52 42 -22 101 -68 91 -71 -6 -2 -34 1 -61 7 -28 6 -79 11 -114 11 -55 0 -65 -3 -90 -29 -24 -25 -27 -34 -24 -87 3 -54 6 -60 37 -81 29 -20 47 -23 125 -23 115 0 295 -17 368 -36 32 -8 77 -14 102 -14 40 0 46 3 70 40 29 43 34 103 12 132 -13 18 -80 69 -231 176 -54 38 -80 62 -65 58 14 -2 63 -10 110 -16 47 -6 113 -15 146 -20 165 -26 233 2 234 98 0 45 -20 85 -48 97 -9 4 -55 11 -102 16 -119 11 -157 21 -234 60 -91 46 -142 95 -151 147 -16 99 43 131 242 131 l132 1 25 33 c39 51 36 105 -8 151 l-33 36 -124 -1 c-76 -1 -147 -7 -184 -16z"/>
 <path d="M6341 1243 c-48 -24 -61 -63 -61 -190 0 -83 -3 -104 -12 -95 -7 7 -37 12 -68 12 -68 0 -95 -23 -106 -87 -10 -64 8 -83 143 -148 102 -50 263 -149 263 -162 0 -6 -18 5 -55 32 -16 12 -56 34 -88 49 -50 24 -63 26 -90 16 -52 -18 -77 -48 -77 -95 0 -22 5 -46 11 -52 7 -7 3 -12 -15 -17 -17 -4 -33 -21 -47 -48 -18 -34 -20 -55 -17 -129 3 -81 5 -91 31 -116 l27 -28 194 -3 c193 -3 194 -3 200 -26 3 -12 15 -35 27 -49 18 -24 27 -27 83 -27 69 0 98 19 111 73 l7 27 183 0 c101 0 195 4 209 10 41 15 56 58 56 163 l0 95 -34 30 c-27 23 -31 33 -24 47 15 26 2 95 -22 119 -25 25 -91 27 -136 4 -84 -44 -121 -67 -172 -108 -63 -51 -75 -86 -48 -140 l14 -30 -139 0 -140 0 20 26 c35 44 25 86 -33 137 -21 19 -24 25 -9 18 12 -6 37 -30 57 -53 90 -104 152 -102 222 7 48 77 161 152 347 231 120 50 142 73 132 131 -3 23 -19 53 -35 71 -25 28 -36 32 -77 32 -27 0 -54 -5 -61 -12 -9 -9 -12 10 -13 87 -1 130 -14 172 -59 196 -32 17 -61 19 -350 19 -273 0 -319 -3 -349 -17z m539 -213 l0 -30 -195 0 -195 0 0 30 0 30 195 0 195 0 0 -30z m-115 -284 l-70 -65 -30 28 c-16 15 -52 44 -79 64 l-49 37 149 0 149 0 -70 -64z m-376 -374 c-33 -6 -49 5 -49 33 l0 26 35 -28 c32 -25 33 -28 14 -31z m641 23 c0 -22 -4 -25 -36 -25 l-37 0 34 24 c19 13 35 25 37 25 1 1 2 -10 2 -24z"/>
 <path d="M7485 1245 c-53 -28 -57 -38 -63 -137 -4 -92 -5 -94 -34 -107 -17 -8 -34 -27 -43 -48 -33 -79 -11 -124 73 -148 31 -10 82 -27 112 -39 l55 -21 -97 -3 c-91 -3 -98 -4 -118 -29 -24 -31 -27 -91 -5 -133 l15 -30 202 -2 c150 -2 202 -6 206 -15 3 -10 -34 -13 -163 -13 -229 0 -235 -5 -235 -202 0 -117 13 -168 48 -187 13 -7 98 -11 227 -11 l206 0 24 26 c23 25 25 34 27 172 4 198 23 201 23 3 0 -144 1 -150 24 -175 l24 -26 207 0 207 0 24 26 c23 25 24 30 24 180 0 208 18 195 -258 192 -191 -3 -207 -2 -207 14 0 16 20 18 248 20 l247 3 19 38 c21 45 16 97 -15 128 -16 16 -33 19 -116 19 -86 0 -95 2 -73 13 14 7 43 18 65 25 128 38 145 46 159 68 40 60 -5 154 -73 154 -20 0 -21 6 -21 100 0 93 -2 103 -24 125 -32 32 -67 37 -249 33 -156 -3 -157 -3 -184 -31 l-28 -27 0 -155 c0 -177 6 -192 84 -202 l42 -6 -47 -48 c-42 -42 -54 -49 -88 -49 -33 0 -47 7 -92 50 -52 49 -52 50 -25 50 15 0 43 10 62 23 l34 23 3 155 2 155 -30 29 -31 30 -172 3 c-142 2 -177 0 -202 -13z m235 -205 c0 -29 -1 -30 -50 -30 -49 0 -50 1 -50 30 0 29 1 30 50 30 49 0 50 -1 50 -30z m510 0 c0 -29 -1 -30 -50 -30 -49 0 -50 1 -50 30 0 29 1 30 50 30 49 0 50 -1 50 -30z m-510 -715 c0 -24 -2 -25 -65 -25 -63 0 -65 1 -65 25 0 24 2 25 65 25 63 0 65 -1 65 -25z m545 0 c0 -18 -8 -20 -62 -23 -62 -3 -63 -2 -63 23 0 25 1 26 63 23 54 -3 62 -5 62 -23z"/>
 <path d="M9000 1253 c-77 -5 -184 -25 -213 -40 -15 -8 -37 -28 -47 -46 -18 -29 -20 -51 -20 -209 0 -173 0 -177 25 -206 34 -40 88 -52 244 -52 l131 0 0 -35 0 -35 -155 0 -154 0 -23 -30 c-18 -25 -29 -30 -64 -30 -37 0 -50 -6 -85 -40 -38 -36 -41 -42 -34 -77 4 -25 24 -56 61 -96 30 -33 82 -96 114 -141 105 -145 95 -136 152 -136 66 0 118 36 118 81 l0 29 269 0 c329 0 349 5 369 95 10 49 -10 401 -27 465 -24 89 -34 115 -49 133 -14 16 -12 17 29 17 59 0 109 42 108 92 -1 82 -54 189 -106 213 -91 44 -383 66 -643 48z m502 -220 c4 -2 19 -27 33 -56 l25 -52 -91 -5 c-86 -5 -92 -7 -119 -36 -26 -30 -29 -31 -44 -15 -14 13 -47 17 -189 21 l-172 5 0 70 0 70 85 6 c86 6 459 0 472 -8z m-89 -315 l42 -3 8 -85 c4 -47 6 -119 5 -160 l-3 -75 -259 -3 -260 -2 -28 27 -29 28 201 5 202 5 24 28 c23 27 24 35 24 155 0 116 1 125 15 105 11 -15 28 -23 58 -25z"/>
 <path d="M1870 1225 c-44 -32 -59 -60 -60 -107 0 -42 43 -93 88 -105 29 -7 68 -27 125 -64 64 -43 117 -157 119 -257 2 -107 -57 -224 -133 -262 -55 -29 -83 -24 -87 15 -9 106 -79 327 -150 475 -88 183 -150 235 -282 234 -64 0 -82 -4 -123 -28 -113 -67 -174 -238 -147 -417 37 -255 201 -439 448 -505 71 -19 311 -19 373 0 127 39 245 141 301 263 30 66 31 73 32 208 1 130 -1 145 -28 220 -34 95 -65 141 -143 216 -73 71 -104 91 -176 118 -76 28 -115 27 -157 -4z m-343 -337 c23 -26 70 -122 103 -213 20 -56 70 -237 70 -256 0 -12 -85 26 -125 57 -31 24 -64 70 -106 151 -23 44 -43 147 -35 184 10 51 37 99 55 99 10 0 27 -10 38 -22z"/>
 <path d="M13042 667 c-26 -24 -65 -53 -85 -66 -20 -12 -40 -34 -43 -47 -10 -39 4 -89 34 -117 60 -57 113 -44 215 54 61 59 67 68 67 104 -1 44 -15 69 -57 97 -45 29 -77 23 -131 -25z"/>
 <path d="M5100 367 c-38 -19 -51 -54 -47 -121 6 -100 -14 -96 435 -96 l383 0 24 25 c21 20 25 33 25 88 0 55 -3 67 -26 88 l-26 24 -371 3 c-286 1 -378 -1 -397 -11z"/>
 </g>

</svg>