<!DOCTYPE svg PUBLIC "-//W3C//DTD SVG 20010904//EN" "http://www.w3.org/TR/2001/REC-SVG-20010904/DTD/svg10.dtd">
<svg version="1.0" xmlns="http://www.w3.org/2000/svg" width="748px" height="80px" viewBox="0 0 7480 800" preserveAspectRatio="xMidYMid meet">
<g id="layer1" fill="#d3c9bf" stroke="none">
 <path d="M3659 703 c-13 -16 -12 -17 4 -4 16 13 21 21 13 21 -2 0 -10 -8 -17 -17z"/>
 <path d="M243 703 c4 -3 10 -3 14 0 3 4 0 7 -7 7 -7 0 -10 -3 -7 -7z"/>
 <path d="M3753 703 c4 -3 10 -3 14 0 3 4 0 7 -7 7 -7 0 -10 -3 -7 -7z"/>
 <path d="M5064 698 c-4 -7 -3 -8 4 -4 12 7 16 16 8 16 -3 0 -8 -5 -12 -12z"/>
 <path d="M5184 698 c-4 -7 -3 -8 4 -4 12 7 16 16 8 16 -3 0 -8 -5 -12 -12z"/>
 <path d="M5278 703 c7 -3 16 -2 19 1 4 3 -2 6 -13 5 -11 0 -14 -3 -6 -6z"/>
 <path d="M5688 703 c7 -3 16 -2 19 1 4 3 -2 6 -13 5 -11 0 -14 -3 -6 -6z"/>
 <path d="M5824 688 c-19 -23 -19 -23 2 -5 24 20 54 22 74 5 12 -11 12 -10 1 5 -19 24 -54 21 -77 -5z"/>
 <path d="M6218 703 c12 -2 32 -2 45 0 12 2 2 4 -23 4 -25 0 -35 -2 -22 -4z"/>
 <path d="M7205 700 c3 -5 8 -10 11 -10 3 0 2 5 -1 10 -3 6 -8 10 -11 10 -3 0 -2 -4 1 -10z"/>
 <path d="M3128 693 c12 -2 30 -2 40 0 9 3 -1 5 -23 4 -22 0 -30 -2 -17 -4z"/>
 <path d="M3373 693 c9 -2 23 -2 30 0 6 3 -1 5 -18 5 -16 0 -22 -2 -12 -5z"/>
 <path d="M3803 693 c4 -3 10 -3 14 0 3 4 0 7 -7 7 -7 0 -10 -3 -7 -7z"/>
 <path d="M4195 690 c3 -5 8 -10 11 -10 3 0 2 5 -1 10 -3 6 -8 10 -11 10 -3 0 -2 -4 1 -10z"/>
 <path d="M5633 693 c4 -3 10 -3 14 0 3 4 0 7 -7 7 -7 0 -10 -3 -7 -7z"/>
 <path d="M5995 693 c11 -3 27 -10 35 -17 13 -10 13 -9 1 7 -7 9 -23 16 -35 16 -20 -1 -20 -2 -1 -6z"/>
 <path d="M6175 689 c-4 -6 -5 -12 -2 -15 2 -3 7 2 10 11 7 17 1 20 -8 4z"/>
 <path d="M7013 693 c4 -3 10 -3 14 0 3 4 0 7 -7 7 -7 0 -10 -3 -7 -7z"/>
 <path d="M3043 683 c4 -3 10 -3 14 0 3 4 0 7 -7 7 -7 0 -10 -3 -7 -7z"/>
 <path d="M3453 683 c4 -3 10 -3 14 0 3 4 0 7 -7 7 -7 0 -10 -3 -7 -7z"/>
 <path d="M3853 683 c4 -3 10 -3 14 0 3 4 0 7 -7 7 -7 0 -10 -3 -7 -7z"/>
 <path d="M5583 683 c4 -3 10 -3 14 0 3 4 0 7 -7 7 -7 0 -10 -3 -7 -7z"/>
 <path d="M6662 583 c-1 -61 1 -114 6 -116 4 -3 6 32 4 76 -4 141 -9 156 -10 40z"/>
 <path d="M7051 673 c7 -12 15 -20 18 -17 3 2 -3 12 -13 22 -17 16 -18 16 -5 -5z"/>
 <path d="M3009 663 c-13 -16 -12 -17 4 -4 9 7 17 15 17 17 0 8 -8 3 -21 -13z"/>
 <path d="M4409 663 c-13 -16 -12 -17 4 -4 16 13 21 21 13 21 -2 0 -10 -8 -17 -17z"/>
 <path d="M4470 676 c0 -2 8 -10 18 -17 15 -13 16 -12 3 4 -13 16 -21 21 -21 13z"/>
 <path d="M4740 670 c0 -7 3 -10 7 -7 3 4 3 10 0 14 -4 3 -7 0 -7 -7z"/>
 <path d="M5544 668 c-4 -7 -3 -8 4 -4 12 7 16 16 8 16 -3 0 -8 -5 -12 -12z"/>
 <path d="M6757 662 c-10 -10 -17 -23 -17 -28 0 -4 7 1 15 13 8 12 25 24 38 26 21 4 21 4 1 6 -11 0 -28 -7 -37 -17z"/>
 <path d="M1421 654 c0 -11 3 -14 6 -6 3 7 2 16 -1 19 -3 4 -6 -2 -5 -13z"/>
 <path d="M1851 654 c0 -11 3 -14 6 -6 3 7 2 16 -1 19 -3 4 -6 -2 -5 -13z"/>
 <path d="M5019 653 c-13 -16 -12 -17 4 -4 9 7 17 15 17 17 0 8 -8 3 -21 -13z"/>
 <path d="M6389 653 c-13 -16 -12 -17 4 -4 9 7 17 15 17 17 0 8 -8 3 -21 -13z"/>
 <path d="M7240 666 c0 -2 8 -10 18 -17 15 -13 16 -12 3 4 -13 16 -21 21 -21 13z"/>
 <path d="M1075 650 c3 -5 8 -10 11 -10 3 0 2 5 -1 10 -3 6 -8 10 -11 10 -3 0 -2 -4 1 -10z"/>
 <path d="M3930 650 c0 -7 3 -10 7 -7 3 4 3 10 0 14 -4 3 -7 0 -7 -7z"/>
 <path d="M2273 590 c0 -36 2 -50 4 -32 2 17 2 47 0 65 -2 17 -4 3 -4 -33z"/>
 <path d="M2303 590 c0 -36 2 -50 4 -32 2 17 2 47 0 65 -2 17 -4 3 -4 -33z"/>
 <path d="M5810 640 c0 -7 3 -10 7 -7 3 4 3 10 0 14 -4 3 -7 0 -7 -7z"/>
 <path d="M1105 630 c3 -5 8 -10 11 -10 3 0 2 5 -1 10 -3 6 -8 10 -11 10 -3 0 -2 -4 1 -10z"/>
 <path d="M4555 630 c3 -5 8 -10 11 -10 3 0 2 5 -1 10 -3 6 -8 10 -11 10 -3 0 -2 -4 1 -10z"/>
 <path d="M6164 628 c-4 -7 -4 -10 1 -6 4 4 15 2 24 -5 14 -11 14 -10 2 6 -16 20 -18 21 -27 5z"/>
 <path d="M6880 633 c0 -6 8 -17 18 -24 16 -13 16 -13 2 6 -8 11 -16 22 -17 24 -2 2 -3 0 -3 -6z"/>
 <path d="M395 620 c3 -5 8 -10 11 -10 3 0 2 5 -1 10 -3 6 -8 10 -11 10 -3 0 -2 -4 1 -10z"/>
 <path d="M4994 618 c-4 -7 -3 -8 4 -4 12 7 16 16 8 16 -3 0 -8 -5 -12 -12z"/>
 <path d="M5203 623 c4 -3 10 -3 14 0 3 4 0 7 -7 7 -7 0 -10 -3 -7 -7z"/>
 <path d="M5773 623 c4 -3 10 -3 14 0 3 4 0 7 -7 7 -7 0 -10 -3 -7 -7z"/>
 <path d="M7070 620 c0 -7 3 -10 7 -7 3 4 3 10 0 14 -4 3 -7 0 -7 -7z"/>
 <path d="M7275 620 c3 -5 8 -10 11 -10 3 0 2 5 -1 10 -3 6 -8 10 -11 10 -3 0 -2 -4 1 -10z"/>
 <path d="M1583 613 c31 -2 83 -2 115 0 31 2 5 3 -58 3 -63 0 -89 -1 -57 -3z"/>
 <path d="M2178 593 c5 -21 7 -23 10 -9 2 10 0 22 -6 28 -6 6 -7 0 -4 -19z"/>
 <path d="M2468 593 c5 -21 7 -23 10 -9 2 10 0 22 -6 28 -6 6 -7 0 -4 -19z"/>
 <path d="M3540 610 c0 -7 3 -10 7 -7 3 4 3 10 0 14 -4 3 -7 0 -7 -7z"/>
 <path d="M5285 610 c3 -5 16 -10 28 -9 21 0 21 1 2 9 -28 12 -37 12 -30 0z"/>
 <path d="M5535 610 c-3 -5 -1 -10 4 -10 6 0 11 5 11 10 0 6 -2 10 -4 10 -3 0 -8 -4 -11 -10z"/>
 <path d="M5665 610 c-18 -8 -17 -9 8 -9 15 -1 27 4 27 9 0 12 -8 12 -35 0z"/>
 <path d="M1510 586 c0 -14 4 -27 8 -30 5 -3 6 8 4 25 -5 35 -12 38 -12 5z"/>
 <path d="M3233 603 c15 -2 37 -2 50 0 12 2 0 4 -28 4 -27 0 -38 -2 -22 -4z"/>
 <path d="M3643 603 c4 -3 10 -3 14 0 3 4 0 7 -7 7 -7 0 -10 -3 -7 -7z"/>
 <path d="M3910 594 c-17 -9 -20 -14 -9 -14 9 0 22 7 29 15 15 18 13 18 -20 -1z"/>
 <path d="M4640 600 c0 -7 3 -10 7 -7 3 4 3 10 0 14 -4 3 -7 0 -7 -7z"/>
 <path d="M6875 600 c3 -5 8 -10 11 -10 3 0 2 5 -1 10 -3 6 -8 10 -11 10 -3 0 -2 -4 1 -10z"/>
 <path d="M913 593 c4 -3 10 -3 14 0 3 4 0 7 -7 7 -7 0 -10 -3 -7 -7z"/>
 <path d="M3800 571 c0 -17 4 -32 8 -35 4 -2 6 11 4 30 -5 42 -12 45 -12 5z"/>
 <path d="M3843 593 c4 -3 10 -3 14 0 3 4 0 7 -7 7 -7 0 -10 -3 -7 -7z"/>
 <path d="M5094 588 c-4 -7 -3 -8 4 -4 12 7 16 16 8 16 -3 0 -8 -5 -12 -12z"/>
 <path d="M7175 590 c3 -5 8 -10 11 -10 3 0 2 5 -1 10 -3 6 -8 10 -11 10 -3 0 -2 -4 1 -10z"/>
 <path d="M3440 580 c0 -7 3 -10 7 -7 3 4 3 10 0 14 -4 3 -7 0 -7 -7z"/>
 <path d="M3550 571 c0 -10 6 -23 13 -30 11 -8 13 -5 9 19 -5 33 -22 41 -22 11z"/>
 <path d="M4105 580 c3 -5 8 -10 11 -10 3 0 2 5 -1 10 -3 6 -8 10 -11 10 -3 0 -2 -4 1 -10z"/>
 <path d="M6060 580 c0 -7 3 -10 7 -7 3 4 3 10 0 14 -4 3 -7 0 -7 -7z"/>
 <path d="M2100 570 c0 -7 3 -10 7 -7 3 4 3 10 0 14 -4 3 -7 0 -7 -7z"/>
 <path d="M2390 570 c0 -7 3 -10 7 -7 3 4 3 10 0 14 -4 3 -7 0 -7 -7z"/>
 <path d="M4444 568 c-4 -7 -3 -8 4 -4 12 7 16 16 8 16 -3 0 -8 -5 -12 -12z"/>
 <path d="M4635 560 c-3 -5 -1 -10 4 -10 6 0 11 5 11 10 0 6 -2 10 -4 10 -3 0 -8 -4 -11 -10z"/>
 <path d="M5940 560 c0 -7 3 -10 7 -7 3 4 3 10 0 14 -4 3 -7 0 -7 -7z"/>
 <path d="M7081 554 c0 -11 3 -14 6 -6 3 7 2 16 -1 19 -3 4 -6 -2 -5 -13z"/>
 <path d="M1743 553 c4 -3 10 -3 14 0 3 4 0 7 -7 7 -7 0 -10 -3 -7 -7z"/>
 <path d="M2575 553 c11 -3 27 -10 35 -17 13 -10 13 -9 1 7 -7 9 -23 16 -35 16 -20 -1 -20 -2 -1 -6z"/>
 <path d="M3914 548 c-4 -7 -3 -8 4 -4 7 4 12 9 12 12 0 8 -9 4 -16 -8z"/>
 <path d="M4240 545 c-7 -9 -11 -17 -9 -20 3 -2 10 5 17 15 14 24 10 26 -8 5z"/>
 <path d="M1035 540 c3 -5 8 -10 11 -10 3 0 2 5 -1 10 -3 6 -8 10 -11 10 -3 0 -2 -4 1 -10z"/>
 <path d="M1383 533 c4 -3 10 -3 14 0 3 4 0 7 -7 7 -7 0 -10 -3 -7 -7z"/>
 <path d="M3465 530 c3 -5 8 -10 11 -10 3 0 2 5 -1 10 -3 6 -8 10 -11 10 -3 0 -2 -4 1 -10z"/>
 <path d="M6341 524 c0 -11 3 -14 6 -6 3 7 2 16 -1 19 -3 4 -6 -2 -5 -13z"/>
 <path d="M1955 521 c-3 -5 -1 -12 5 -16 5 -3 10 1 10 9 0 18 -6 21 -15 7z"/>
 <path d="M4014 518 c-4 -7 -3 -8 4 -4 12 7 16 16 8 16 -3 0 -8 -5 -12 -12z"/>
 <path d="M5850 520 c0 -7 3 -10 7 -7 3 4 3 10 0 14 -4 3 -7 0 -7 -7z"/>
 <path d="M6070 520 c0 -7 3 -10 7 -7 3 4 3 10 0 14 -4 3 -7 0 -7 -7z"/>
 <path d="M6110 523 c0 -6 8 -17 18 -24 16 -13 16 -13 2 6 -8 11 -16 22 -17 24 -2 2 -3 0 -3 -6z"/>
 <path d="M6748 523 c7 -3 16 -2 19 1 4 3 -2 6 -13 5 -11 0 -14 -3 -6 -6z"/>
 <path d="M6825 520 c3 -5 8 -10 11 -10 3 0 2 5 -1 10 -3 6 -8 10 -11 10 -3 0 -2 -4 1 -10z"/>
 <path d="M1075 510 c3 -5 8 -10 11 -10 3 0 2 5 -1 10 -3 6 -8 10 -11 10 -3 0 -2 -4 1 -10z"/>
 <path d="M3643 513 c4 -3 10 -3 14 0 3 4 0 7 -7 7 -7 0 -10 -3 -7 -7z"/>
 <path d="M4045 510 c3 -5 8 -10 11 -10 3 0 2 5 -1 10 -3 6 -8 10 -11 10 -3 0 -2 -4 1 -10z"/>
 <path d="M5050 510 c0 -7 3 -10 7 -7 3 4 3 10 0 14 -4 3 -7 0 -7 -7z"/>
 <path d="M5980 510 c0 -7 3 -10 7 -7 3 4 3 10 0 14 -4 3 -7 0 -7 -7z"/>
 <path d="M7220 510 c0 -7 3 -10 7 -7 3 4 3 10 0 14 -4 3 -7 0 -7 -7z"/>
 <path d="M515 500 c3 -5 8 -10 11 -10 3 0 2 5 -1 10 -3 6 -8 10 -11 10 -3 0 -2 -4 1 -10z"/>
 <path d="M1312 490 c0 -14 2 -19 5 -12 2 6 2 18 0 25 -3 6 -5 1 -5 -13z"/>
 <path d="M2254 498 c-4 -7 -3 -8 4 -4 12 7 16 16 8 16 -3 0 -8 -5 -12 -12z"/>
 <path d="M2315 500 c3 -5 8 -10 11 -10 3 0 2 5 -1 10 -3 6 -8 10 -11 10 -3 0 -2 -4 1 -10z"/>
 <path d="M3460 506 c0 -2 8 -10 18 -17 15 -13 16 -12 3 4 -13 16 -21 21 -21 13z"/>
 <path d="M3683 503 c4 -3 10 -3 14 0 3 4 0 7 -7 7 -7 0 -10 -3 -7 -7z"/>
 <path d="M3850 506 c0 -2 8 -10 18 -17 15 -13 16 -12 3 4 -13 16 -21 21 -21 13z"/>
 <path d="M3890 500 c0 -7 3 -10 7 -7 3 4 3 10 0 14 -4 3 -7 0 -7 -7z"/>
 <path d="M6990 500 c0 -7 3 -10 7 -7 3 4 3 10 0 14 -4 3 -7 0 -7 -7z"/>
 <path d="M360 497 c0 -2 15 -16 33 -33 l32 -29 -29 33 c-28 30 -36 37 -36 29z"/>
 <path d="M3103 493 c4 -3 10 -3 14 0 3 4 0 7 -7 7 -7 0 -10 -3 -7 -7z"/>
 <path d="M3997 494 c-4 -4 -4 -11 -1 -15 6 -11 94 -12 94 -1 0 4 -21 5 -46 3 -32 -2 -44 0 -40 8 8 12 3 15 -7 5z"/>
 <path d="M1105 480 c3 -5 8 -10 11 -10 3 0 2 5 -1 10 -3 6 -8 10 -11 10 -3 0 -2 -4 1 -10z"/>
 <path d="M1952 462 c-11 -25 -11 -25 4 -10 9 9 15 21 13 27 -2 6 -10 -2 -17 -17z"/>
 <path d="M2604 478 c-4 -7 -3 -8 4 -4 12 7 16 16 8 16 -3 0 -8 -5 -12 -12z"/>
 <path d="M3305 480 c3 -5 8 -10 11 -10 3 0 2 5 -1 10 -3 6 -8 10 -11 10 -3 0 -2 -4 1 -10z"/>
 <path d="M3660 480 l-75 -6 83 -2 c53 -1 81 2 77 8 -3 6 -7 9 -8 8 -1 -1 -36 -4 -77 -8z"/>
 <path d="M2195 470 c3 -5 8 -10 11 -10 3 0 2 5 -1 10 -3 6 -8 10 -11 10 -3 0 -2 -4 1 -10z"/>
 <path d="M2753 473 c9 -2 23 -2 30 0 6 3 -1 5 -18 5 -16 0 -22 -2 -12 -5z"/>
 <path d="M4153 473 c9 -2 25 -2 35 0 9 3 1 5 -18 5 -19 0 -27 -2 -17 -5z"/>
 <path d="M6320 470 c0 -5 5 -10 11 -10 5 0 7 5 4 10 -3 6 -8 10 -11 10 -2 0 -4 -4 -4 -10z"/>
 <path d="M1525 460 c3 -5 8 -10 11 -10 3 0 2 5 -1 10 -3 6 -8 10 -11 10 -3 0 -2 -4 1 -10z"/>
 <path d="M2003 463 c4 -3 10 -3 14 0 3 4 0 7 -7 7 -7 0 -10 -3 -7 -7z"/>
 <path d="M3490 460 c0 -7 3 -10 7 -7 3 4 3 10 0 14 -4 3 -7 0 -7 -7z"/>
 <path d="M4640 466 c0 -2 8 -10 18 -17 15 -13 16 -12 3 4 -13 16 -21 21 -21 13z"/>
 <path d="M4739 453 c-13 -16 -12 -17 4 -4 16 13 21 21 13 21 -2 0 -10 -8 -17 -17z"/>
 <path d="M7092 450 c0 -14 2 -19 5 -12 2 6 2 18 0 25 -3 6 -5 1 -5 -13z"/>
 <path d="M2533 453 c4 -3 10 -3 14 0 3 4 0 7 -7 7 -7 0 -10 -3 -7 -7z"/>
 <path d="M3323 385 c0 -44 2 -61 4 -37 2 23 2 59 0 80 -2 20 -4 1 -4 -43z"/>
 <path d="M4210 439 c0 -11 4 -18 10 -14 5 3 7 12 3 20 -7 21 -13 19 -13 -6z"/>
 <path d="M6124 448 c-4 -7 -3 -8 4 -4 12 7 16 16 8 16 -3 0 -8 -5 -12 -12z"/>
 <path d="M1260 440 c0 -7 3 -10 7 -7 3 4 3 10 0 14 -4 3 -7 0 -7 -7z"/>
 <path d="M1343 443 c4 -3 10 -3 14 0 3 4 0 7 -7 7 -7 0 -10 -3 -7 -7z"/>
 <path d="M1555 440 c3 -5 8 -10 11 -10 3 0 2 5 -1 10 -3 6 -8 10 -11 10 -3 0 -2 -4 1 -10z"/>
 <path d="M1714 438 c-4 -7 -3 -8 4 -4 12 7 16 16 8 16 -3 0 -8 -5 -12 -12z"/>
 <path d="M4931 434 c0 -11 3 -14 6 -6 3 7 2 16 -1 19 -3 4 -6 -2 -5 -13z"/>
 <path d="M6960 440 c0 -7 3 -10 7 -7 3 4 3 10 0 14 -4 3 -7 0 -7 -7z"/>
 <path d="M7341 434 c0 -11 3 -14 6 -6 3 7 2 16 -1 19 -3 4 -6 -2 -5 -13z"/>
 <path d="M2095 430 c3 -5 8 -10 11 -10 3 0 2 5 -1 10 -3 6 -8 10 -11 10 -3 0 -2 -4 1 -10z"/>
 <path d="M2483 433 c4 -3 10 -3 14 0 3 4 0 7 -7 7 -7 0 -10 -3 -7 -7z"/>
 <path d="M3345 430 c3 -5 8 -10 11 -10 3 0 2 5 -1 10 -3 6 -8 10 -11 10 -3 0 -2 -4 1 -10z"/>
 <path d="M1883 423 c4 -3 10 -3 14 0 3 4 0 7 -7 7 -7 0 -10 -3 -7 -7z"/>
 <path d="M3500 420 c0 -7 3 -10 7 -7 3 4 3 10 0 14 -4 3 -7 0 -7 -7z"/>
 <path d="M6722 410 c0 -14 2 -19 5 -12 2 6 2 18 0 25 -3 6 -5 1 -5 -13z"/>
 <path d="M1270 410 c0 -7 3 -10 7 -7 3 4 3 10 0 14 -4 3 -7 0 -7 -7z"/>
 <path d="M1612 395 c15 -16 29 -27 31 -24 3 2 -10 15 -27 28 l-31 24 27 -28z"/>
 <path d="M3033 413 c4 -3 10 -3 14 0 3 4 0 7 -7 7 -7 0 -10 -3 -7 -7z"/>
 <path d="M5994 275 c0 -82 2 -115 3 -72 2 43 2 110 0 150 -1 40 -3 5 -3 -78z"/>
 <path d="M6114 330 c0 -52 1 -74 3 -47 2 26 2 68 0 95 -2 26 -3 4 -3 -48z"/>
 <path d="M6755 410 c3 -5 8 -10 11 -10 3 0 2 5 -1 10 -3 6 -8 10 -11 10 -3 0 -2 -4 1 -10z"/>
 <path d="M7002 400 c0 -14 2 -19 5 -12 2 6 2 18 0 25 -3 6 -5 1 -5 -13z"/>
 <path d="M5413 403 c42 -2 112 -2 155 0 42 1 7 3 -78 3 -85 0 -120 -2 -77 -3z"/>
 <path d="M2600 390 c0 -7 3 -10 7 -7 3 4 3 10 0 14 -4 3 -7 0 -7 -7z"/>
 <path d="M3222 380 c0 -14 2 -19 5 -12 2 6 2 18 0 25 -3 6 -5 1 -5 -13z"/>
 <path d="M6084 290 c0 -63 1 -89 3 -57 2 31 2 83 0 115 -2 31 -3 5 -3 -58z"/>
 <path d="M1794 378 c-4 -7 -3 -8 4 -4 12 7 16 16 8 16 -3 0 -8 -5 -12 -12z"/>
 <path d="M3411 374 c0 -11 3 -14 6 -6 3 7 2 16 -1 19 -3 4 -6 -2 -5 -13z"/>
 <path d="M6200 380 c0 -7 3 -10 7 -7 3 4 3 10 0 14 -4 3 -7 0 -7 -7z"/>
 <path d="M6775 380 c3 -5 8 -10 11 -10 3 0 2 5 -1 10 -3 6 -8 10 -11 10 -3 0 -2 -4 1 -10z"/>
 <path d="M1971 364 c0 -11 3 -14 6 -6 3 7 2 16 -1 19 -3 4 -6 -2 -5 -13z"/>
 <path d="M5869 363 c-13 -16 -12 -17 4 -4 9 7 17 15 17 17 0 8 -8 3 -21 -13z"/>
 <path d="M6980 370 c0 -7 3 -10 7 -7 3 4 3 10 0 14 -4 3 -7 0 -7 -7z"/>
 <path d="M1433 363 c4 -3 10 -3 14 0 3 4 0 7 -7 7 -7 0 -10 -3 -7 -7z"/>
 <path d="M1853 363 c4 -3 10 -3 14 0 3 4 0 7 -7 7 -7 0 -10 -3 -7 -7z"/>
 <path d="M1901 353 c7 -12 15 -20 18 -17 3 2 -3 12 -13 22 -17 16 -18 16 -5 -5z"/>
 <path d="M6473 363 c4 -3 10 -3 14 0 3 4 0 7 -7 7 -7 0 -10 -3 -7 -7z"/>
 <path d="M1465 350 c3 -5 8 -10 11 -10 3 0 2 5 -1 10 -3 6 -8 10 -11 10 -3 0 -2 -4 1 -10z"/>
 <path d="M3512 335 c0 -16 2 -22 5 -12 2 9 2 23 0 30 -3 6 -5 -1 -5 -18z"/>
 <path d="M3608 353 c7 -3 16 -2 19 1 4 3 -2 6 -13 5 -11 0 -14 -3 -6 -6z"/>
 <path d="M3878 353 c6 -2 18 -2 25 0 6 3 1 5 -13 5 -14 0 -19 -2 -12 -5z"/>
 <path d="M4592 343 c3 -15 18 -19 105 -23 55 -3 99 -2 96 3 -2 4 -47 7 -100 7 -80 0 -94 2 -89 15 3 8 1 15 -5 15 -6 0 -9 -8 -7 -17z"/>
 <path d="M4931 344 c0 -11 3 -14 6 -6 3 7 2 16 -1 19 -3 4 -6 -2 -5 -13z"/>
 <path d="M6660 326 c0 -19 3 -37 8 -40 4 -2 6 13 4 35 -5 48 -12 51 -12 5z"/>
 <path d="M7341 344 c0 -11 3 -14 6 -6 3 7 2 16 -1 19 -3 4 -6 -2 -5 -13z"/>
 <path d="M2600 340 c0 -7 3 -10 7 -7 3 4 3 10 0 14 -4 3 -7 0 -7 -7z"/>
 <path d="M3029 333 c-13 -16 -12 -17 4 -4 16 13 21 21 13 21 -2 0 -10 -8 -17 -17z"/>
 <path d="M3711 337 c-1 -12 -6 -16 -13 -11 -10 5 -10 4 -1 -6 16 -17 26 -8 20 17 -4 17 -5 17 -6 0z"/>
 <path d="M5795 340 c3 -5 8 -10 11 -10 3 0 2 5 -1 10 -3 6 -8 10 -11 10 -3 0 -2 -4 1 -10z"/>
 <path d="M5834 338 c-4 -7 -3 -8 4 -4 12 7 16 16 8 16 -3 0 -8 -5 -12 -12z"/>
 <path d="M5030 330 c0 -7 3 -10 7 -7 3 4 3 10 0 14 -4 3 -7 0 -7 -7z"/>
 <path d="M7240 330 c0 -7 3 -10 7 -7 3 4 3 10 0 14 -4 3 -7 0 -7 -7z"/>
 <path d="M1585 290 c21 -22 41 -40 44 -40 3 0 -13 18 -34 40 -21 22 -41 40 -44 40 -3 0 13 -18 34 -40z"/>
 <path d="M4348 323 c29 -2 74 -2 100 0 26 2 2 3 -53 3 -55 0 -76 -1 -47 -3z"/>
 <path d="M5273 323 c4 -3 10 -3 14 0 3 4 0 7 -7 7 -7 0 -10 -3 -7 -7z"/>
 <path d="M6530 320 c0 -7 3 -10 7 -7 3 4 3 10 0 14 -4 3 -7 0 -7 -7z"/>
 <path d="M7101 314 c0 -11 3 -14 6 -6 3 7 2 16 -1 19 -3 4 -6 -2 -5 -13z"/>
 <path d="M1754 308 c-4 -7 -3 -8 4 -4 12 7 16 16 8 16 -3 0 -8 -5 -12 -12z"/>
 <path d="M1901 297 c-13 -21 -12 -21 5 -5 10 10 16 20 13 22 -3 3 -11 -5 -18 -17z"/>
 <path d="M4182 300 c0 -14 2 -19 5 -12 2 6 2 18 0 25 -3 6 -5 1 -5 -13z"/>
 <path d="M5433 313 c4 -3 10 -3 14 0 3 4 0 7 -7 7 -7 0 -10 -3 -7 -7z"/>
 <path d="M6692 300 c0 -14 2 -19 5 -12 2 6 2 18 0 25 -3 6 -5 1 -5 -13z"/>
 <path d="M6785 310 c3 -5 8 -10 11 -10 3 0 2 5 -1 10 -3 6 -8 10 -11 10 -3 0 -2 -4 1 -10z"/>
 <path d="M6810 310 c0 -7 3 -10 7 -7 3 4 3 10 0 14 -4 3 -7 0 -7 -7z"/>
 <path d="M1382 294 c10 -10 20 -16 22 -13 3 3 -5 11 -17 18 -21 13 -21 12 -5 -5z"/>
 <path d="M1545 290 c10 -11 20 -20 23 -20 3 0 -3 9 -13 20 -10 11 -20 20 -23 20 -3 0 3 -9 13 -20z"/>
 <path d="M6205 300 c-3 -5 -3 -14 0 -20 7 -12 131 -14 138 -2 3 4 -26 6 -64 4 -43 -2 -69 0 -69 7 0 6 31 12 73 14 l72 3 -72 2 c-39 1 -75 -2 -78 -8z"/>
 <path d="M2125 290 l-100 -6 103 -2 c62 -1 102 2 102 8 0 6 -1 9 -2 8 -2 -1 -48 -5 -103 -8z"/>
 <path d="M5614 288 c-4 -7 -3 -8 4 -4 7 4 12 9 12 12 0 8 -9 4 -16 -8z"/>
 <path d="M7005 287 c-4 -10 -5 -21 -1 -24 10 -10 18 4 13 24 -4 17 -4 17 -12 0z"/>
 <path d="M2393 283 c32 -2 81 -2 110 0 29 2 3 3 -58 3 -60 0 -84 -1 -52 -3z"/>
 <path d="M3304 278 c-4 -7 -3 -8 4 -4 7 4 12 9 12 12 0 8 -9 4 -16 -8z"/>
 <path d="M6460 280 c0 -7 3 -10 7 -7 3 4 3 10 0 14 -4 3 -7 0 -7 -7z"/>
 <path d="M6820 280 c0 -7 3 -10 7 -7 3 4 3 10 0 14 -4 3 -7 0 -7 -7z"/>
 <path d="M6900 280 c0 -7 3 -10 7 -7 3 4 3 10 0 14 -4 3 -7 0 -7 -7z"/>
 <path d="M620 270 c0 -7 3 -10 7 -7 3 4 3 10 0 14 -4 3 -7 0 -7 -7z"/>
 <path d="M1253 273 c4 -3 10 -3 14 0 3 4 0 7 -7 7 -7 0 -10 -3 -7 -7z"/>
 <path d="M1344 268 c-4 -7 -3 -8 4 -4 12 7 16 16 8 16 -3 0 -8 -5 -12 -12z"/>
 <path d="M1669 263 c-13 -16 -12 -17 4 -4 16 13 21 21 13 21 -2 0 -10 -8 -17 -17z"/>
 <path d="M2004 268 c-4 -7 -3 -8 4 -4 7 4 12 9 12 12 0 8 -9 4 -16 -8z"/>
 <path d="M2273 273 c4 -3 10 -3 14 0 3 4 0 7 -7 7 -7 0 -10 -3 -7 -7z"/>
 <path d="M2566 267 c3 -10 9 -15 12 -12 3 3 0 11 -7 18 -10 9 -11 8 -5 -6z"/>
 <path d="M4280 270 c0 -7 3 -10 7 -7 3 4 3 10 0 14 -4 3 -7 0 -7 -7z"/>
 <path d="M6920 270 c0 -7 3 -10 7 -7 3 4 3 10 0 14 -4 3 -7 0 -7 -7z"/>
 <path d="M496 253 c-6 -14 -5 -15 5 -6 7 7 10 15 7 18 -3 3 -9 -2 -12 -12z"/>
 <path d="M1430 241 c0 -17 2 -31 4 -31 8 0 13 51 5 56 -5 3 -9 -9 -9 -25z"/>
 <path d="M3060 261 c0 -5 8 -15 18 -22 15 -12 16 -12 5 2 -7 9 -10 19 -6 22 3 4 1 7 -5 7 -7 0 -12 -4 -12 -9z"/>
 <path d="M5363 255 c0 -8 4 -12 9 -9 5 3 6 10 3 15 -9 13 -12 11 -12 -6z"/>
 <path d="M4950 250 c0 -7 3 -10 7 -7 3 4 3 10 0 14 -4 3 -7 0 -7 -7z"/>
 <path d="M7320 250 c0 -7 3 -10 7 -7 3 4 3 10 0 14 -4 3 -7 0 -7 -7z"/>
 <path d="M1330 240 c0 -7 3 -10 7 -7 3 4 3 10 0 14 -4 3 -7 0 -7 -7z"/>
 <path d="M1465 240 c3 -5 8 -10 11 -10 3 0 2 5 -1 10 -3 6 -8 10 -11 10 -3 0 -2 -4 1 -10z"/>
 <path d="M1842 230 c0 -14 2 -19 5 -12 2 6 2 18 0 25 -3 6 -5 1 -5 -13z"/>
 <path d="M4234 228 l-19 -23 25 20 c14 11 27 21 29 22 2 2 0 3 -6 3 -5 0 -18 -10 -29 -22z"/>
 <path d="M5403 243 c4 -3 10 -3 14 0 3 4 0 7 -7 7 -7 0 -10 -3 -7 -7z"/>
 <path d="M1546 225 c-11 -8 -15 -15 -9 -15 6 0 16 7 23 15 16 19 11 19 -14 0z"/>
 <path d="M1943 205 c0 -22 2 -30 4 -17 2 12 2 30 0 40 -3 9 -5 -1 -4 -23z"/>
 <path d="M2273 185 c0 -33 2 -45 4 -27 2 18 2 45 0 60 -2 15 -4 0 -4 -33z"/>
 <path d="M2303 185 c0 -33 2 -45 4 -27 2 18 2 45 0 60 -2 15 -4 0 -4 -33z"/>
 <path d="M4392 228 c-7 -7 -12 -16 -12 -22 0 -5 6 -3 13 6 6 9 21 18 32 21 20 5 20 5 0 6 -12 0 -26 -4 -33 -11z"/>
 <path d="M4669 223 c-12 -16 -12 -17 1 -7 8 7 24 14 35 17 19 4 19 5 -1 6 -12 0 -28 -7 -35 -16z"/>
 <path d="M5443 233 c4 -3 10 -3 14 0 3 4 0 7 -7 7 -7 0 -10 -3 -7 -7z"/>
 <path d="M5664 228 c-4 -7 -3 -8 4 -4 7 4 12 9 12 12 0 8 -9 4 -16 -8z"/>
 <path d="M6418 218 c-10 -10 -14 -18 -9 -18 10 0 36 29 30 34 -2 1 -12 -6 -21 -16z"/>
 <path d="M5233 223 c4 -3 10 -3 14 0 3 4 0 7 -7 7 -7 0 -10 -3 -7 -7z"/>
 <path d="M5408 223 c7 -3 16 -2 19 1 4 3 -2 6 -13 5 -11 0 -14 -3 -6 -6z"/>
 <path d="M653 213 c4 -3 10 -3 14 0 3 4 0 7 -7 7 -7 0 -10 -3 -7 -7z"/>
 <path d="M1503 213 c4 -3 10 -3 14 0 3 4 0 7 -7 7 -7 0 -10 -3 -7 -7z"/>
 <path d="M1763 213 c4 -3 10 -3 14 0 3 4 0 7 -7 7 -7 0 -10 -3 -7 -7z"/>
 <path d="M4060 210 c0 -5 5 -10 11 -10 5 0 7 5 4 10 -3 6 -8 10 -11 10 -2 0 -4 -4 -4 -10z"/>
 <path d="M5445 210 c3 -5 8 -10 11 -10 3 0 2 5 -1 10 -3 6 -8 10 -11 10 -3 0 -2 -4 1 -10z"/>
 <path d="M5490 216 c0 -2 8 -10 18 -17 15 -13 16 -12 3 4 -13 16 -21 21 -21 13z"/>
 <path d="M5629 203 c-13 -16 -12 -17 4 -4 16 13 21 21 13 21 -2 0 -10 -8 -17 -17z"/>
 <path d="M5904 208 c-4 -7 -3 -8 4 -4 7 4 12 9 12 12 0 8 -9 4 -16 -8z"/>
 <path d="M695 190 c10 -11 20 -20 23 -20 3 0 -3 9 -13 20 -10 11 -20 20 -23 20 -3 0 3 -9 13 -20z"/>
 <path d="M3713 150 c0 -36 2 -50 4 -32 2 17 2 47 0 65 -2 17 -4 3 -4 -33z"/>
 <path d="M6468 180 c-3 -17 -1 -33 4 -36 4 -3 8 11 8 30 0 44 -6 47 -12 6z"/>
 <path d="M2177 181 c-4 -17 -3 -21 5 -13 5 5 8 16 6 23 -3 8 -7 3 -11 -10z"/>
 <path d="M2390 186 c0 -8 4 -17 9 -20 5 -4 7 3 4 14 -6 23 -13 26 -13 6z"/>
 <path d="M6664 186 c-3 -7 -4 -35 -2 -62 l3 -49 5 63 c5 63 4 73 -6 48z"/>
 <path d="M7089 183 c-13 -16 -12 -17 4 -4 9 7 17 15 17 17 0 8 -8 3 -21 -13z"/>
 <path d="M4225 180 c3 -5 8 -10 11 -10 3 0 2 5 -1 10 -3 6 -8 10 -11 10 -3 0 -2 -4 1 -10z"/>
 <path d="M4845 170 c3 -5 8 -10 11 -10 3 0 2 5 -1 10 -3 6 -8 10 -11 10 -3 0 -2 -4 1 -10z"/>
 <path d="M5972 160 c0 -14 2 -19 5 -12 2 6 2 18 0 25 -3 6 -5 1 -5 -13z"/>
 <path d="M6155 170 l-60 -7 57 -1 c31 -1 60 3 63 8 3 6 5 9 3 8 -2 -1 -30 -4 -63 -8z"/>
 <path d="M1331 154 c0 -11 3 -14 6 -6 3 7 2 16 -1 19 -3 4 -6 -2 -5 -13z"/>
 <path d="M2473 163 c4 -3 10 -3 14 0 3 4 0 7 -7 7 -7 0 -10 -3 -7 -7z"/>
 <path d="M5839 153 c-13 -16 -12 -17 4 -4 16 13 21 21 13 21 -2 0 -10 -8 -17 -17z"/>
 <path d="M6347 163 c18 -2 50 -2 70 0 21 2 7 4 -32 4 -38 0 -55 -2 -38 -4z"/>
 <path d="M6851 148 c1 -17 3 -18 6 -6 4 15 20 18 111 21 l107 3 -112 2 c-111 2 -113 2 -112 -20z"/>
 <path d="M70 156 c0 -2 8 -10 18 -17 15 -13 16 -12 3 4 -13 16 -21 21 -21 13z"/>
 <path d="M722 130 c0 -14 2 -19 5 -12 2 6 2 18 0 25 -3 6 -5 1 -5 -13z"/>
 <path d="M4530 138 c0 -6 3 -8 7 -5 3 4 13 1 22 -6 14 -11 14 -10 2 6 -15 20 -31 22 -31 5z"/>
 <path d="M5005 140 c3 -5 8 -10 11 -10 3 0 2 5 -1 10 -3 6 -8 10 -11 10 -3 0 -2 -4 1 -10z"/>
 <path d="M5341 134 c0 -11 3 -14 6 -6 3 7 2 16 -1 19 -3 4 -6 -2 -5 -13z"/>
 <path d="M7264 138 c-4 -7 -3 -8 4 -4 12 7 16 16 8 16 -3 0 -8 -5 -12 -12z"/>
 <path d="M600 130 c0 -7 3 -10 7 -7 3 4 3 10 0 14 -4 3 -7 0 -7 -7z"/>
 <path d="M3025 130 c3 -5 8 -10 11 -10 3 0 2 5 -1 10 -3 6 -8 10 -11 10 -3 0 -2 -4 1 -10z"/>
 <path d="M5787 125 c-5 -12 -27 -15 -126 -15 -66 0 -122 -3 -124 -7 -3 -5 50 -7 118 -5 94 2 126 7 136 18 6 8 10 17 7 20 -3 3 -8 -2 -11 -11z"/>
 <path d="M3473 123 c4 -3 10 -3 14 0 3 4 0 7 -7 7 -7 0 -10 -3 -7 -7z"/>
 <path d="M5415 120 c3 -5 8 -10 11 -10 3 0 2 5 -1 10 -3 6 -8 10 -11 10 -3 0 -2 -4 1 -10z"/>
 <path d="M1400 114 c83 -8 188 -8 183 -1 -2 4 -52 6 -111 5 -59 -1 -91 -3 -72 -4z"/>
 <path d="M1743 113 c31 -2 83 -2 115 0 31 2 5 3 -58 3 -63 0 -89 -1 -57 -3z"/>
 <path d="M2570 110 c0 -7 3 -10 7 -7 3 4 3 10 0 14 -4 3 -7 0 -7 -7z"/>
 <path d="M3654 98 l-19 -23 23 19 c12 11 22 21 22 23 0 8 -8 2 -26 -19z"/>
 <path d="M4060 109 c0 -5 5 -7 10 -4 6 3 10 8 10 11 0 2 -4 4 -10 4 -5 0 -10 -5 -10 -11z"/>
 <path d="M4465 110 l-60 -7 57 -1 c31 -1 60 3 63 8 3 6 5 9 3 8 -2 -1 -30 -4 -63 -8z"/>
 <path d="M3045 100 c3 -5 8 -10 11 -10 3 0 2 5 -1 10 -3 6 -8 10 -11 10 -3 0 -2 -4 1 -10z"/>
 <path d="M4723 103 c26 -2 67 -2 90 0 23 2 2 3 -48 3 -49 0 -68 -1 -42 -3z"/>
 <path d="M5919 93 c-13 -16 -12 -17 4 -4 9 7 17 15 17 17 0 8 -8 3 -21 -13z"/>
 <path d="M6005 100 c3 -5 8 -10 11 -10 3 0 2 5 -1 10 -3 6 -8 10 -11 10 -3 0 -2 -4 1 -10z"/>
 <path d="M6760 100 c0 -7 3 -10 7 -7 3 4 3 10 0 14 -4 3 -7 0 -7 -7z"/>
 <path d="M555 90 c3 -5 8 -10 11 -10 3 0 2 5 -1 10 -3 6 -8 10 -11 10 -3 0 -2 -4 1 -10z"/>
 <path d="M5445 90 c3 -5 8 -10 11 -10 3 0 2 5 -1 10 -3 6 -8 10 -11 10 -3 0 -2 -4 1 -10z"/>
 <path d="M6570 91 c0 -10 29 -36 34 -30 1 2 -6 12 -16 22 -10 9 -18 13 -18 8z"/>
 <path d="M2243 83 c4 -3 10 -3 14 0 3 4 0 7 -7 7 -7 0 -10 -3 -7 -7z"/>
 <path d="M2323 83 c4 -3 10 -3 14 0 3 4 0 7 -7 7 -7 0 -10 -3 -7 -7z"/>
 <path d="M4389 73 c-13 -16 -12 -17 4 -4 16 13 21 21 13 21 -2 0 -10 -8 -17 -17z"/>
 <path d="M6143 83 c59 -2 155 -2 215 0 59 1 10 3 -108 3 -118 0 -167 -2 -107 -3z"/>
 <path d="M1595 70 c3 -5 8 -10 11 -10 3 0 2 5 -1 10 -3 6 -8 10 -11 10 -3 0 -2 -4 1 -10z"/>
 <path d="M4008 63 c7 -3 16 -2 19 1 4 3 -2 6 -13 5 -11 0 -14 -3 -6 -6z"/>
 <path d="M5113 63 c4 -3 10 -3 14 0 3 4 0 7 -7 7 -7 0 -10 -3 -7 -7z"/>
 <path d="M6633 63 c4 -3 10 -3 14 0 3 4 0 7 -7 7 -7 0 -10 -3 -7 -7z"/>
 <path d="M6798 63 c7 -3 16 -2 19 1 4 3 -2 6 -13 5 -11 0 -14 -3 -6 -6z"/>
 <path d="M603 43 c4 -3 10 -3 14 0 3 4 0 7 -7 7 -7 0 -10 -3 -7 -7z"/>
 <path d="M663 43 c4 -3 10 -3 14 0 3 4 0 7 -7 7 -7 0 -10 -3 -7 -7z"/>
 </g>
<g id="layer2" fill="#5b3714" stroke="none">
 <path d="M879 721 c-34 -26 -45 -76 -24 -108 9 -13 53 -41 98 -63 45 -21 91 -47 102 -57 27 -24 65 -74 65 -84 0 -5 -90 -9 -200 -9 -187 0 -201 -1 -220 -20 -13 -13 -20 -33 -20 -60 0 -27 7 -47 20 -60 19 -19 33 -20 291 -20 l271 0 29 29 c32 33 35 54 16 127 l-13 50 46 -25 46 -24 -23 -23 c-13 -13 -23 -33 -23 -46 0 -13 -7 -32 -15 -42 -10 -13 -15 -44 -15 -91 0 -100 7 -105 143 -105 65 0 107 -4 107 -10 0 -24 41 -50 80 -50 32 0 43 5 62 30 l22 30 108 0 c95 0 109 2 120 19 11 18 13 17 27 -13 l16 -31 134 -3 c92 -2 138 1 148 9 10 9 17 9 25 1 17 -17 270 -16 286 0 16 16 17 204 1 214 -7 4 -2 11 13 18 18 9 24 21 26 54 4 48 -10 72 -42 73 -15 0 -11 4 14 12 59 20 68 108 12 132 -18 8 -22 18 -22 55 0 25 -7 56 -16 68 -14 21 -22 22 -138 22 -81 0 -126 -4 -134 -12 -9 -9 -15 -9 -24 0 -8 8 -52 12 -133 12 -144 0 -155 -6 -155 -87 0 -55 -7 -61 -77 -67 l-33 -3 0 62 c0 96 3 95 -242 95 -242 0 -238 2 -238 -98 l0 -61 -28 5 c-42 9 -82 -27 -82 -74 l0 -37 -21 42 c-28 56 -140 160 -216 201 -82 43 -139 51 -174 23z m160 -48 c132 -66 234 -195 248 -311 3 -29 1 -57 -6 -71 -12 -21 -13 -21 -289 -19 l-277 3 0 45 0 45 215 3 c118 1 218 6 223 11 13 13 -27 83 -72 124 -41 37 -129 87 -154 87 -21 0 -57 39 -57 62 0 32 29 58 65 58 18 0 64 -17 104 -37z m805 11 c12 -11 16 -35 16 -89 l0 -73 30 11 c23 9 35 9 50 -1 16 -10 21 -9 30 8 6 11 20 20 30 20 18 0 20 7 20 58 0 32 5 63 12 70 8 8 48 12 114 12 81 0 104 -3 115 -16 17 -21 24 -131 10 -166 -9 -24 -16 -28 -48 -28 l-37 0 39 -40 c51 -52 79 -52 130 0 l39 40 -37 0 c-32 0 -39 4 -48 28 -14 35 -7 145 10 166 11 13 34 16 115 16 66 0 106 -4 114 -12 7 -7 12 -38 12 -70 0 -50 3 -58 19 -58 26 0 43 -24 39 -56 -3 -23 -13 -30 -88 -58 l-85 -31 60 -3 c97 -4 105 -7 105 -46 0 -22 -6 -36 -16 -40 -9 -3 -76 -6 -150 -6 -110 0 -134 -3 -134 -14 0 -8 -8 -21 -17 -28 -14 -10 -18 -28 -18 -88 0 -114 5 -110 -133 -110 -78 0 -122 4 -130 12 -7 7 -12 44 -12 95 0 101 3 103 129 103 74 0 91 3 91 15 0 12 -19 15 -115 15 -112 0 -116 1 -126 24 -8 17 -8 29 0 45 10 18 21 21 79 21 63 0 65 1 44 15 -12 9 -46 24 -76 34 -45 15 -55 15 -62 4 -5 -8 -39 -27 -75 -42 -91 -38 -174 -95 -198 -137 -28 -47 -57 -45 -106 7 -44 46 -151 118 -205 139 -68 26 -86 56 -53 92 18 20 63 24 81 6 9 -9 12 5 12 64 0 111 -7 108 220 108 158 0 191 -3 204 -16z m485 -220 c7 -6 -21 -34 -34 -34 -6 0 -20 9 -29 19 -17 18 -17 19 1 24 17 4 53 -1 62 -9z m-322 -30 c-3 -3 -12 -4 -19 -1 -8 3 -5 6 6 6 11 1 17 -2 13 -5z m-45 -16 c-20 -20 -15 -96 7 -109 11 -8 16 -19 13 -31 -4 -18 -6 -18 -23 -2 -11 9 -19 30 -19 46 0 38 -16 68 -38 68 -9 0 1 9 23 19 49 23 52 24 37 9z m-453 -93 c44 -32 61 -51 61 -68 0 -48 -46 -62 -90 -27 -33 26 -40 25 -40 -5 l0 -25 199 0 199 0 4 29 c5 32 3 32 -45 -2 -57 -39 -112 10 -66 59 30 32 121 84 146 84 10 0 24 -5 31 -12 15 -15 16 -54 2 -63 -15 -9 -12 -25 5 -25 40 0 45 -129 5 -150 -10 -5 -66 -10 -124 -10 -101 0 -105 -1 -108 -22 -2 -19 -10 -24 -46 -26 -37 -3 -43 0 -52 22 -9 26 -11 26 -113 26 -130 0 -147 9 -147 81 0 61 13 89 42 89 17 0 19 3 10 12 -7 7 -12 21 -12 33 0 59 58 59 139 0z m1052 -45 c16 -9 19 -22 19 -93 0 -51 -5 -88 -12 -95 -8 -8 -52 -12 -130 -12 -138 0 -133 -4 -133 108 0 97 7 102 138 102 54 0 107 -5 118 -10z m-876 -55 c6 -2 -14 -4 -43 -4 -29 -1 -51 3 -48 7 4 7 67 5 91 -3z"/>
 <path d="M2105 610 c-3 -5 -3 -19 0 -30 5 -15 15 -20 41 -20 33 0 35 2 32 28 -2 22 -8 28 -35 30 -17 2 -34 -2 -38 -8z m52 -26 c-3 -3 -12 -4 -19 -1 -8 3 -5 6 6 6 11 1 17 -2 13 -5z"/>
 <path d="M2395 610 c-3 -5 -3 -19 0 -30 5 -15 15 -20 41 -20 33 0 35 2 32 28 -2 22 -8 28 -35 30 -17 2 -34 -2 -38 -8z m52 -26 c-3 -3 -12 -4 -19 -1 -8 3 -5 6 6 6 11 1 17 -2 13 -5z"/>
 <path d="M1522 583 l3 -28 95 -3 c120 -4 140 1 140 33 l0 25 -121 0 -120 0 3 -27z m171 0 c-29 -2 -77 -2 -105 0 -29 2 -6 3 52 3 58 0 81 -1 53 -3z"/>
 <path d="M1536 462 c48 -41 104 -82 111 -82 4 1 30 21 56 45 l49 45 -113 0 c-62 0 -109 -4 -103 -8z m129 -32 c-16 -18 -19 -18 -41 -3 -13 8 -24 17 -24 19 0 2 19 4 42 4 40 0 41 0 23 -20z"/>
 <path d="M2093 194 c-9 -23 10 -36 48 -32 26 2 35 8 37 26 3 20 -1 22 -38 22 -28 0 -43 -5 -47 -16z"/>
 <path d="M2402 188 c2 -17 10 -24 33 -26 37 -3 60 11 52 32 -4 11 -19 16 -47 16 -37 0 -41 -2 -38 -22z"/>
 <path d="M3636 718 c-9 -12 -16 -35 -16 -50 0 -41 -37 -42 -75 0 -19 21 -45 37 -70 42 -55 13 -391 12 -437 0 -59 -17 -68 -38 -68 -167 0 -149 3 -153 135 -153 57 0 95 -4 95 -10 0 -6 -36 -10 -89 -10 -66 0 -92 -4 -101 -15 -7 -8 -21 -15 -32 -15 -26 0 -78 -53 -78 -79 0 -12 16 -39 36 -61 19 -21 57 -67 82 -102 41 -54 52 -63 83 -66 38 -3 89 28 89 54 0 11 28 14 159 14 l160 0 20 26 21 27 0 -25 c0 -50 75 -87 119 -59 10 7 23 3 39 -10 35 -27 87 -25 118 6 36 36 105 36 128 0 13 -20 25 -25 61 -25 35 0 48 5 63 25 17 21 28 25 76 25 45 0 58 4 68 20 12 18 15 16 60 -32 44 -48 49 -50 85 -45 21 4 45 15 54 26 11 14 31 20 75 22 54 4 61 2 82 -23 31 -36 74 -37 108 -3 21 21 34 25 106 27 80 3 83 4 92 30 6 18 6 38 0 55 -8 23 -16 29 -49 31 -47 4 -62 21 -32 37 17 8 22 20 22 53 0 32 4 42 16 42 41 0 68 92 35 119 -10 8 -12 24 -9 52 7 48 -16 79 -59 79 -26 0 -28 3 -29 38 -3 96 -40 125 -153 120 -59 -3 -72 -7 -91 -29 -19 -23 -24 -25 -40 -13 -32 24 -69 16 -113 -22 -32 -27 -42 -43 -42 -65 0 -28 -2 -29 -48 -29 -55 0 -81 -20 -83 -61 -1 -21 -2 -20 -10 8 -5 18 -14 35 -20 38 -6 4 5 14 23 23 28 15 33 23 36 59 6 79 -54 103 -158 64 -28 -11 -67 -31 -86 -46 -23 -18 -34 -22 -34 -12 0 29 -40 48 -139 67 -134 26 -166 26 -185 -2z m189 -25 c101 -19 115 -27 115 -62 0 -42 -19 -54 -71 -42 -60 14 -59 15 -59 -18 0 -22 10 -37 38 -60 l38 -30 12 33 c7 19 35 57 64 85 64 64 143 103 201 99 42 -3 42 -3 42 -42 0 -38 -1 -39 -49 -53 l-50 -15 32 -25 c33 -26 40 -51 20 -71 -9 -9 -6 -12 15 -12 16 0 32 -8 39 -20 12 -19 24 -20 232 -20 193 0 217 2 206 15 -10 12 -46 15 -204 15 -203 0 -216 3 -216 46 0 32 14 38 87 35 58 -2 80 8 53 24 -32 20 33 105 80 105 53 0 67 -50 25 -90 -14 -13 -25 -27 -25 -32 0 -4 40 -8 89 -8 95 0 115 9 105 47 -5 17 -15 23 -48 25 -39 3 -41 5 -44 37 -4 44 8 51 88 51 92 0 108 -13 112 -93 l3 -62 40 -5 c38 -5 40 -7 40 -40 0 -33 -2 -35 -35 -38 -19 -2 -41 -9 -49 -15 -11 -10 -2 -13 45 -17 l59 -5 0 -35 0 -35 -124 -5 c-85 -3 -126 -9 -128 -17 -3 -9 22 -13 94 -15 l98 -3 0 -35 0 -35 -102 -3 c-111 -3 -120 -9 -77 -48 31 -30 32 -30 44 1 5 14 17 28 25 31 24 9 75 -16 75 -37 0 -14 9 -19 48 -21 47 -3 47 -3 47 -38 l0 -35 -84 -3 c-71 -2 -87 -6 -98 -22 -23 -33 -58 -25 -94 21 -33 41 -33 42 -47 20 -12 -17 -24 -21 -66 -21 -40 0 -54 -4 -64 -20 -24 -40 -63 -26 -125 44 -31 36 -57 70 -57 77 0 19 31 49 52 49 10 0 35 -16 57 -35 44 -40 51 -42 51 -16 0 48 74 51 95 3 11 -25 40 -30 48 -8 4 9 -2 17 -14 21 -10 4 -19 13 -19 20 0 11 -23 15 -102 17 -99 3 -103 4 -106 26 -6 43 13 52 115 52 71 0 94 3 91 13 -3 8 -42 13 -137 15 -116 2 -134 5 -138 20 -4 15 -18 17 -134 14 -113 -3 -133 -6 -150 -23 -24 -24 -54 -24 -79 1 -18 18 -33 20 -145 20 l-125 0 -6 27 c-12 45 5 57 87 63 l74 5 -54 18 c-30 9 -62 17 -71 17 -8 0 -25 7 -37 15 -18 13 -22 13 -33 0 -7 -8 -25 -15 -41 -15 -22 0 -32 7 -45 33 -9 17 -22 35 -28 39 -13 9 -288 11 -310 2 -22 -9 -22 -89 0 -98 9 -3 56 -6 104 -6 78 0 91 -2 100 -19 13 -25 13 -141 0 -175 -9 -26 -10 -26 -123 -26 -63 0 -116 -3 -120 -6 -3 -4 1 -17 10 -30 16 -24 16 -24 172 -22 l156 3 3 60 c1 33 -1 78 -6 100 -7 34 -12 41 -37 45 -24 4 -31 11 -33 33 -5 43 13 57 74 57 45 0 56 -4 68 -22 35 -54 51 -322 20 -352 -13 -13 -44 -16 -180 -16 -151 0 -164 -1 -164 -18 0 -27 -20 -42 -54 -42 -26 0 -37 9 -71 58 -22 31 -55 74 -73 94 -27 29 -33 43 -28 63 7 27 42 41 77 32 14 -4 19 -2 16 8 -10 26 17 35 105 35 l88 0 0 30 0 30 -91 0 c-131 0 -129 -2 -129 135 0 156 -10 150 250 150 227 0 258 -7 286 -63 10 -20 20 -39 21 -41 2 -2 9 2 18 9 15 13 81 10 118 -5 11 -5 17 -3 17 7 0 7 -13 19 -30 25 -24 9 -30 17 -30 40 0 57 7 58 175 26z m763 -97 c17 0 32 -3 32 -8 0 -4 -25 -8 -55 -8 -45 0 -53 3 -48 16 4 10 11 13 22 8 9 -5 31 -8 49 -8z m-1189 -25 c36 -10 39 -31 4 -31 -15 0 -39 -6 -53 -13 -16 -8 -60 -11 -127 -9 -101 3 -103 4 -103 27 0 17 7 25 23 28 36 7 230 6 256 -2z m473 -9 c12 -5 15 -11 8 -22 -8 -13 -13 -12 -32 8 -23 23 -13 29 24 14z m-302 -59 c0 -5 -7 -17 -15 -27 -19 -26 -19 -56 1 -84 11 -16 13 -27 6 -35 -6 -7 -12 -28 -15 -47 -3 -28 -4 -24 -5 16 -1 28 -7 76 -12 105 -9 47 -8 56 7 66 19 15 33 17 33 6z m-180 -193 l0 -80 -137 2 -138 2 103 5 c122 7 132 15 132 98 0 46 3 53 20 53 18 0 20 -7 20 -80z m415 -90 l0 -145 -33 -3 c-50 -5 -62 11 -62 83 l0 62 -52 23 c-91 41 -108 68 -68 105 19 17 21 17 67 -3 34 -15 49 -17 52 -9 9 28 26 38 60 35 l36 -3 0 -145z m380 100 c3 -11 3 -29 0 -40 -5 -17 -15 -20 -61 -20 -40 0 -56 -4 -60 -15 -11 -28 15 -44 79 -47 l62 -3 0 -35 0 -35 -60 -3 c-52 -3 -64 -7 -87 -33 -15 -16 -31 -29 -37 -29 -23 0 -43 14 -51 36 -8 20 -17 23 -72 26 l-63 3 0 35 0 35 65 5 c62 5 65 6 68 33 3 27 3 27 -57 27 -56 0 -61 2 -67 25 -12 50 4 55 177 55 149 0 158 -1 164 -20z m75 -20 c0 -20 -5 -30 -15 -30 -8 0 -20 -9 -27 -20 -7 -11 -19 -20 -27 -20 -11 0 -11 4 2 18 10 10 17 33 17 50 0 27 4 32 25 32 21 0 25 -5 25 -30z m-660 -71 c0 -3 -11 -20 -25 -39 l-25 -34 0 58 0 57 25 -18 c13 -10 25 -21 25 -24z m84 -25 c21 -21 20 -42 -4 -82 -24 -40 -43 -48 -76 -34 -32 15 -31 54 2 98 29 37 54 43 78 18z"/>
 <path d="M4010 500 c-10 -19 -8 -20 32 -20 l43 0 -25 20 c-31 25 -37 25 -50 0z"/>
 <path d="M5026 696 c-24 -23 -59 -74 -77 -112 -33 -67 -34 -72 -34 -194 0 -120 1 -128 32 -192 17 -37 50 -87 73 -112 36 -39 48 -46 80 -46 24 0 43 7 54 19 17 18 18 18 41 -5 13 -13 33 -24 45 -24 30 0 95 35 118 65 l20 25 45 -45 c52 -51 73 -55 114 -21 27 23 38 25 150 27 111 2 123 1 148 -19 36 -29 54 -28 101 6 37 27 40 27 57 10 15 -16 39 -18 245 -18 126 0 232 4 237 9 6 5 24 11 40 13 22 2 33 -2 40 -17 8 -15 23 -21 59 -23 63 -4 76 8 76 74 0 41 4 54 15 54 12 0 35 -55 35 -86 0 -21 37 -44 72 -44 45 0 83 37 76 74 l-5 26 102 0 c103 0 103 0 129 31 14 17 26 38 26 47 0 40 -30 370 -36 397 -6 28 -4 26 33 -20 60 -75 76 -112 81 -191 4 -61 1 -80 -20 -125 -14 -30 -41 -74 -61 -97 -23 -27 -37 -54 -37 -71 0 -38 38 -71 82 -71 29 0 43 8 78 46 23 25 56 75 73 112 31 64 32 72 32 192 0 122 -1 127 -34 194 -44 91 -108 156 -154 156 -37 0 -77 -33 -77 -66 -1 -15 -3 -14 -15 8 -32 58 -193 65 -221 10 -10 -20 -13 -21 -24 -7 -16 19 -69 19 -98 -1 -30 -21 -30 -79 0 -111 20 -21 20 -23 3 -23 -10 0 -27 -7 -37 -17 -17 -15 -18 -12 -18 80 0 88 -2 97 -22 111 -29 20 -67 20 -96 0 -19 -13 -22 -24 -22 -93 l0 -77 -36 4 c-28 3 -34 8 -29 21 20 50 17 78 -10 99 -37 29 -71 28 -100 -4 -20 -21 -25 -23 -25 -10 0 9 -11 28 -25 41 -20 21 -34 25 -85 25 -45 0 -65 -5 -78 -18 -11 -11 -37 -21 -59 -24 -32 -5 -42 -2 -51 13 -15 24 -84 26 -102 4 -11 -14 -15 -13 -28 6 -13 19 -22 21 -68 16 -33 -3 -56 -1 -60 5 -9 13 -121 3 -205 -20 -58 -15 -65 -20 -74 -50 -7 -24 -15 -32 -32 -32 -18 0 -23 6 -23 24 0 13 -6 29 -14 36 -38 31 -229 60 -266 40 -16 -9 -25 -9 -33 -1 -6 6 -26 11 -44 11 -26 0 -43 -10 -77 -44z m102 8 c31 -22 27 -50 -13 -100 -57 -69 -79 -128 -79 -214 -1 -85 26 -158 83 -222 33 -38 37 -57 21 -89 -16 -29 -45 -23 -91 18 -78 71 -128 214 -116 333 10 88 53 186 107 242 51 53 56 55 88 32z m2112 -32 c54 -56 97 -154 107 -242 12 -119 -38 -262 -116 -333 -45 -41 -62 -45 -85 -21 -24 24 -19 53 15 92 57 64 84 137 83 222 0 86 -22 145 -79 214 -40 50 -44 78 -13 100 32 23 37 21 88 -32z m-1908 27 c82 -18 108 -34 108 -70 0 -30 1 -30 48 -27 45 3 47 4 52 38 5 32 9 36 55 48 28 7 82 16 122 19 71 6 72 5 78 -20 13 -49 4 -62 -48 -65 -47 -3 -61 -14 -32 -26 12 -4 15 -28 15 -126 l0 -120 35 0 c23 0 38 -6 41 -15 5 -12 15 -8 49 20 50 40 77 44 99 13 23 -32 20 -41 -21 -82 -49 -47 -77 -55 -106 -28 -22 20 -23 20 -80 2 -57 -18 -127 -62 -127 -81 0 -5 15 -9 34 -9 29 0 33 3 29 20 -6 24 13 50 37 50 22 0 68 -52 76 -86 12 -46 -8 -54 -136 -54 -104 0 -119 -2 -135 -20 -27 -30 -44 -25 -102 32 -57 56 -62 71 -36 100 22 25 37 23 76 -12 35 -30 57 -38 57 -21 0 16 -49 49 -83 57 -70 15 -77 20 -67 54 l9 30 -53 0 c-28 0 -57 5 -64 12 -8 8 -12 53 -12 136 0 115 1 124 20 129 31 8 13 23 -29 23 -20 0 -42 5 -49 12 -13 13 -16 60 -5 71 10 11 86 8 145 -4z m566 -1 c14 -18 62 -174 62 -202 0 -31 -22 -48 -57 -44 -26 3 -30 10 -60 98 -18 52 -32 101 -33 109 -1 39 64 67 88 39z m400 -4 c20 -14 22 -23 22 -113 0 -109 6 -121 60 -121 55 0 60 -11 60 -130 0 -69 -4 -110 -12 -118 -7 -7 -36 -12 -65 -12 -40 0 -53 -4 -53 -15 0 -12 14 -15 64 -15 35 0 71 -3 80 -6 13 -5 16 2 16 42 -1 27 -5 68 -9 91 -10 52 4 77 39 71 19 -2 27 -12 35 -42 19 -68 36 -57 33 19 l-3 67 -52 20 c-47 17 -53 23 -53 47 0 40 22 55 70 48 l40 -5 0 82 c0 89 8 106 50 106 44 0 50 -16 50 -129 l0 -105 32 -27 c29 -24 32 -29 23 -55 -7 -18 -19 -30 -33 -32 -18 -3 -22 -10 -22 -37 0 -39 17 -57 22 -23 4 28 51 47 76 32 9 -6 23 -25 31 -42 23 -52 33 -37 12 19 -11 28 -38 75 -61 105 -46 59 -49 97 -9 109 43 14 105 -69 150 -199 34 -95 40 -63 8 40 -29 95 -50 133 -109 197 -54 60 -58 71 -33 99 26 28 47 22 96 -31 58 -62 104 -153 133 -261 26 -97 29 -80 13 75 -14 142 -20 155 -62 155 -40 0 -57 15 -57 50 0 40 18 50 86 50 107 0 114 -16 135 -326 l13 -177 -23 -18 c-19 -16 -41 -19 -127 -19 l-104 0 0 -39 c0 -34 -4 -40 -30 -51 -26 -11 -33 -10 -50 5 -11 10 -20 26 -20 36 0 9 -10 43 -22 74 -18 47 -23 54 -29 38 -4 -11 -14 -23 -23 -26 -12 -5 -16 -20 -16 -60 0 -59 -12 -77 -50 -77 -39 0 -50 18 -50 84 0 64 -16 68 -22 6 -2 -28 -8 -36 -26 -38 -13 -2 -29 2 -37 8 -11 9 -14 6 -17 -12 l-3 -23 -222 0 c-169 0 -225 3 -235 13 -9 9 -15 71 -19 225 -5 181 -9 220 -27 270 -24 65 -22 78 14 98 36 19 55 3 76 -60 20 -58 38 -231 38 -368 l0 -93 60 0 c47 0 60 3 60 15 0 10 -10 15 -34 15 -52 0 -66 27 -66 127 0 45 4 93 10 107 8 23 15 26 60 26 l50 0 0 81 c0 71 -2 80 -17 77 -10 -1 -24 1 -30 5 -19 12 -16 64 5 76 26 16 85 13 110 -5z m-131 -69 c45 -79 39 -135 -13 -135 -26 0 -31 6 -61 80 -28 66 -28 76 -5 89 30 19 56 7 79 -34z m296 23 c8 -12 4 -34 -17 -87 -25 -64 -30 -71 -56 -71 -49 0 -56 22 -30 93 12 34 27 68 33 75 14 17 57 11 70 -10z m-1258 -48 c19 0 20 -5 17 -125 -3 -124 -3 -125 -27 -125 -48 0 -74 -80 -37 -113 10 -9 33 -22 50 -28 18 -6 32 -14 32 -17 -1 -4 -15 -16 -33 -27 l-32 -21 -34 41 c-19 22 -45 64 -59 94 -21 45 -24 64 -20 125 5 75 21 116 71 179 21 27 33 35 40 28 6 -6 20 -11 32 -11z m621 -80 c13 -41 32 -82 43 -91 20 -17 20 -17 -12 -41 -27 -20 -37 -22 -64 -14 l-32 10 -3 108 -3 109 24 -3 c21 -3 28 -14 47 -78z m1131 45 c9 -24 -1 -27 -15 -5 -8 13 -8 20 -2 20 6 0 13 -7 17 -15z m-989 -155 c-2 -6 -8 -6 -18 0 -13 9 -13 11 0 20 15 10 25 0 18 -20z m533 -5 l34 -14 -37 -1 c-27 0 -38 4 -38 15 0 18 0 18 41 0z m-1216 -105 c75 -36 86 -47 74 -78 -14 -36 -35 -36 -114 -2 -66 29 -75 36 -75 59 0 30 16 51 38 51 8 0 42 -13 77 -30z m685 -44 c0 -19 -4 -23 -20 -19 -20 5 -20 7 -4 24 22 24 24 24 24 -5z m-128 -63 c-22 -18 -25 -17 -44 16 -22 39 -14 44 27 18 30 -20 32 -23 17 -34z m121 -1 c27 -23 21 -46 -23 -86 -43 -39 -70 -45 -94 -20 -27 26 -19 56 26 95 43 37 58 39 91 11z m-627 -33 c22 -24 13 -43 -36 -76 -54 -37 -100 -26 -100 23 0 16 13 30 43 48 51 31 68 32 93 5z"/>
 <path d="M5345 530 c-3 -5 0 -12 7 -15 25 -10 283 0 283 10 0 14 -281 19 -290 5z"/>
 <path d="M5343 458 c3 -10 41 -13 147 -13 106 0 144 3 148 13 3 9 -31 12 -148 12 -117 0 -151 -3 -147 -12z"/>
 <path d="M5345 390 c4 -6 63 -10 145 -10 82 0 141 4 145 10 4 6 -47 10 -145 10 -98 0 -149 -4 -145 -10z"/>
 <path d="M5490 303 c19 -8 47 -23 61 -34 25 -17 28 -18 40 -2 8 9 28 24 44 35 l30 18 -105 -1 c-103 -1 -104 -1 -70 -16z m87 -10 c-4 -3 -10 -3 -14 0 -3 4 0 7 7 7 7 0 10 -3 7 -7z"/>
 <path d="M6206 375 c-4 -13 7 -15 69 -15 60 0 75 3 75 15 0 12 -14 15 -69 15 -52 0 -70 -4 -75 -15z"/>
 <path d="M6210 290 c0 -6 28 -10 64 -10 36 0 68 5 71 10 4 6 -20 10 -64 10 -41 0 -71 -4 -71 -10z"/>
 <path d="M161 704 c-30 -38 -28 -89 5 -119 15 -14 31 -25 37 -25 20 0 124 -70 164 -111 39 -39 103 -144 103 -168 0 -8 -59 -11 -194 -11 l-195 0 -20 -26 c-27 -34 -27 -88 -1 -114 19 -19 33 -20 243 -20 l223 0 11 -29 c15 -40 58 -66 110 -65 46 1 67 14 93 57 15 24 19 26 30 12 10 -13 48 -15 236 -15 211 0 225 1 244 20 24 24 27 86 4 118 -15 22 -19 22 -244 22 l-229 0 -18 -24 c-19 -24 -20 -24 -32 -4 -7 11 -27 26 -44 33 -28 12 -34 20 -44 69 -22 104 -68 183 -162 276 -101 101 -185 150 -254 150 -37 0 -49 -5 -66 -26z m132 -15 c101 -52 196 -136 252 -224 36 -56 85 -183 85 -221 0 -17 5 -24 19 -24 11 0 32 -11 48 -24 60 -52 22 -156 -57 -156 -42 0 -90 42 -90 78 l0 23 -230 -1 c-126 -1 -234 1 -240 5 -12 7 -13 64 -2 82 6 9 64 13 212 15 240 3 233 -1 176 113 -44 89 -121 164 -224 218 -66 35 -72 41 -72 69 0 38 25 68 57 68 13 0 43 -10 66 -21z m942 -539 l0 -45 -219 -3 c-235 -3 -246 0 -246 47 0 50 7 52 245 49 l220 -3 0 -45z"/>
 <path d="M614 146 c-10 -26 4 -48 28 -44 17 2 23 10 23 28 0 18 -6 26 -23 28 -13 2 -25 -3 -28 -12z"/>
 <path d="M2684 466 c-48 -48 -48 -101 0 -154 30 -33 40 -37 81 -37 41 0 51 4 81 37 48 53 48 106 0 154 -29 29 -41 34 -81 34 -40 0 -52 -5 -81 -34z m135 -12 c63 -53 28 -154 -54 -154 -82 0 -117 101 -54 154 17 14 41 26 54 26 13 0 37 -12 54 -26z"/>
 </g>
<g id="layer3" fill="#fefefe" stroke="none">
 <path d="M3667 702 c-27 -30 -22 -62 13 -75 32 -12 43 -42 13 -33 -88 24 -123 18 -123 -23 0 -36 14 -47 70 -54 25 -3 61 -14 80 -24 l35 -18 -88 -3 c-95 -3 -105 -9 -93 -57 l6 -25 129 0 c105 0 130 -3 135 -15 7 -20 82 -20 93 -1 6 12 38 16 140 18 118 3 132 1 136 -14 4 -15 22 -18 138 -20 118 -3 134 -5 137 -20 3 -16 -7 -18 -96 -18 -106 0 -117 -5 -105 -49 5 -20 12 -21 104 -21 79 0 99 -3 99 -14 0 -8 9 -17 19 -21 29 -9 16 -43 -15 -37 -13 2 -21 8 -18 14 10 16 -17 38 -47 38 -22 0 -32 -7 -41 -25 -6 -14 -15 -25 -19 -25 -4 0 -23 16 -42 35 -19 19 -39 35 -45 35 -12 0 -62 -39 -62 -49 0 -3 25 -37 56 -74 62 -75 89 -84 122 -42 17 21 28 25 72 25 43 0 53 3 57 20 8 30 20 25 48 -20 14 -23 33 -44 41 -47 21 -8 64 13 64 32 0 12 16 15 90 15 87 0 90 1 90 23 0 33 -19 47 -62 47 -31 0 -38 4 -38 19 0 39 -70 43 -97 5 l-19 -26 -27 24 c-44 41 -36 47 76 50 l102 3 0 30 0 30 -100 5 c-84 4 -100 8 -103 22 -3 16 10 18 130 20 l133 3 3 29 c5 37 -10 46 -77 46 -45 0 -52 2 -41 14 6 8 30 16 53 18 41 3 42 4 42 38 0 33 -2 35 -40 40 l-40 5 -6 64 c-8 80 -21 91 -105 91 -80 0 -94 -6 -94 -40 0 -34 15 -47 60 -52 31 -3 35 -6 38 -35 l3 -33 -100 0 c-55 0 -102 4 -105 9 -3 5 5 16 18 25 34 22 42 53 20 77 -24 27 -45 24 -87 -15 -37 -33 -46 -59 -27 -71 25 -16 5 -25 -55 -25 -60 0 -66 -2 -77 -25 -8 -19 -8 -28 2 -40 10 -12 45 -15 210 -15 163 0 200 -3 210 -15 11 -13 -13 -15 -207 -15 -157 0 -222 -3 -231 -12 -9 -9 -12 -6 -12 15 0 24 -4 27 -37 27 -34 0 -35 1 -20 18 30 33 15 66 -38 87 -16 6 -9 11 38 27 51 17 57 23 57 47 0 15 -5 32 -12 39 -30 30 -129 2 -201 -56 -44 -35 -97 -105 -97 -126 0 -29 -21 -27 -60 6 -29 24 -40 41 -40 61 l0 29 58 -7 c45 -5 61 -3 71 8 17 22 3 66 -23 72 -11 2 -59 11 -106 20 -47 9 -92 18 -101 21 -9 2 -23 -4 -32 -14z m406 -205 c26 -21 21 -27 -26 -27 -54 0 -60 6 -40 36 16 24 24 23 66 -9z"/>
 <path d="M5069 697 c-42 -37 -87 -101 -110 -158 -25 -64 -31 -215 -9 -270 31 -82 56 -125 96 -166 35 -37 46 -44 66 -38 48 15 50 53 6 103 -46 54 -88 152 -88 209 0 90 32 175 87 232 36 37 40 71 13 93 -28 22 -29 22 -61 -5z"/>
 <path d="M7152 704 c-30 -21 -28 -54 6 -90 60 -63 92 -144 92 -237 0 -57 -42 -155 -88 -209 -44 -50 -42 -88 6 -103 42 -13 113 76 162 204 22 55 16 206 -9 270 -23 57 -68 121 -110 158 -31 27 -31 27 -59 7z"/>
 <path d="M192 694 c-15 -10 -22 -25 -22 -49 0 -32 4 -36 68 -69 110 -59 162 -104 207 -181 44 -78 67 -133 59 -146 -3 -5 -99 -9 -214 -9 -224 0 -220 1 -220 -54 0 -44 12 -46 252 -46 210 0 228 -1 228 -17 0 -10 11 -31 24 -48 19 -24 31 -30 64 -30 56 0 82 26 82 80 0 44 -24 76 -65 89 -16 5 -25 22 -37 76 -31 130 -106 243 -218 327 -57 43 -152 93 -177 93 -5 0 -19 -7 -31 -16z m478 -564 c0 -25 -4 -30 -24 -30 -33 0 -53 25 -36 45 7 8 23 15 36 15 20 0 24 -5 24 -30z"/>
 <path d="M887 692 c-18 -19 -22 -49 -9 -68 4 -6 42 -27 85 -46 43 -19 94 -48 113 -64 39 -32 90 -122 77 -135 -5 -5 -105 -10 -223 -11 l-215 -3 -3 -42 c-3 -37 0 -43 20 -48 13 -3 139 -5 281 -3 283 3 277 2 277 64 0 41 -49 160 -85 208 -29 39 -140 118 -207 149 -47 22 -91 22 -111 -1z"/>
 <path d="M5190 696 c-6 -8 -10 -25 -8 -38 3 -24 10 -26 113 -45 l40 -7 -40 -5 -40 -6 -3 -128 -3 -127 26 -10 c15 -6 43 -10 63 -10 35 0 37 -2 37 -32 0 -29 4 -33 40 -42 53 -12 99 -39 103 -59 5 -24 -14 -21 -52 8 -18 14 -42 25 -52 25 -23 0 -44 -18 -44 -37 0 -18 106 -123 124 -123 9 0 23 11 32 25 16 24 19 25 135 25 109 0 119 2 129 20 9 17 6 28 -17 63 -16 23 -37 43 -46 45 -26 5 -49 -18 -44 -45 4 -21 1 -23 -35 -23 -35 0 -38 2 -29 19 15 27 50 47 122 69 64 20 64 20 85 1 25 -24 57 -19 95 15 44 38 53 63 34 92 -15 24 -65 35 -65 14 0 -5 -17 -21 -37 -34 -33 -23 -39 -24 -53 -11 -9 8 -28 15 -43 15 l-26 0 -3 123 -3 122 -40 5 c-36 5 -37 6 -15 13 14 3 39 7 55 7 54 0 75 11 75 35 0 61 -16 65 -151 39 -99 -18 -113 -27 -105 -66 5 -28 5 -28 -49 -28 -54 0 -55 0 -55 30 0 38 -34 56 -127 70 -92 13 -109 12 -123 -4z m445 -171 c0 -10 -258 -20 -283 -10 -7 3 -10 10 -7 15 9 14 290 9 290 -5z m3 -67 c-4 -10 -42 -13 -148 -13 -106 0 -144 3 -147 13 -4 9 30 12 147 12 117 0 151 -3 148 -12z m0 -60 c-4 -10 -42 -13 -148 -13 -106 0 -144 3 -147 13 -4 9 30 12 147 12 117 0 151 -3 148 -12z m-191 -85 c-4 -3 -10 -3 -14 0 -3 4 0 7 7 7 7 0 10 -3 7 -7z m172 -27 c-43 -33 -44 -33 -69 -16 -14 10 -41 25 -60 33 -34 15 -33 15 69 16 l104 1 -44 -34z"/>
 <path d="M6581 691 c-6 -11 -11 -53 -11 -94 l0 -75 -40 5 c-48 7 -70 -8 -70 -48 0 -24 6 -30 53 -47 l52 -20 3 -66 c4 -84 -21 -92 -38 -12 -5 27 -10 31 -35 29 -35 -3 -45 -18 -35 -53 4 -14 11 -60 15 -101 6 -61 5 -72 -6 -61 -8 7 -40 12 -81 12 -57 0 -69 3 -78 20 -10 19 -8 20 40 20 79 0 90 17 90 138 0 63 -4 102 -12 110 -7 7 -34 12 -60 12 l-48 0 0 108 c0 71 -4 112 -12 120 -7 7 -36 12 -65 12 -47 0 -55 -3 -65 -25 -13 -29 3 -55 33 -55 17 0 19 -8 19 -80 l0 -80 -43 0 c-24 0 -48 -5 -55 -12 -16 -16 -16 -220 0 -236 7 -7 26 -12 44 -12 30 0 51 -20 37 -34 -11 -11 -109 -6 -121 6 -8 8 -12 59 -12 163 0 165 -20 307 -46 336 -21 23 -57 24 -78 3 -19 -19 -21 -7 10 -95 23 -67 26 -94 31 -269 3 -107 10 -201 16 -207 7 -10 66 -13 233 -13 222 0 224 0 224 21 0 18 3 19 14 9 8 -6 25 -10 38 -8 18 2 24 10 26 38 6 58 22 60 22 2 0 -56 27 -99 57 -88 8 3 19 6 24 6 5 0 9 27 9 60 0 55 2 61 24 70 13 5 26 17 28 27 2 10 17 -19 35 -67 32 -88 42 -98 90 -85 24 6 25 9 18 50 l-6 45 114 0 c162 0 154 -13 133 234 -18 216 -29 264 -66 283 -36 19 -130 13 -144 -10 -19 -30 12 -71 56 -75 35 -3 36 -4 46 -60 6 -31 14 -88 17 -127 3 -38 8 -89 11 -113 3 -26 1 -42 -5 -42 -6 0 -11 13 -11 29 0 15 -4 41 -9 57 -5 16 -15 49 -22 74 -20 71 -58 140 -106 198 -51 60 -82 68 -109 26 -17 -25 -17 -26 33 -77 28 -29 60 -70 71 -92 32 -64 73 -208 62 -219 -5 -5 -11 2 -15 20 -14 66 -58 164 -91 203 -50 58 -104 56 -104 -4 0 -7 14 -27 31 -44 30 -31 89 -134 89 -158 0 -23 -15 -13 -34 21 -21 40 -37 49 -72 40 -17 -4 -24 -13 -24 -31 0 -18 -5 -24 -17 -21 -13 2 -19 14 -21 40 -3 34 -1 37 25 40 25 3 28 7 28 43 0 32 -5 42 -25 52 -24 12 -25 17 -30 130 l-5 118 -32 3 c-23 2 -34 -2 -42 -17z m-231 -316 c0 -12 -15 -15 -75 -15 -60 0 -75 3 -75 15 0 12 15 15 75 15 60 0 75 -3 75 -15z m-2 -82 c-3 -15 -16 -19 -67 -21 -35 -2 -68 1 -74 7 -20 20 6 31 74 31 62 0 70 -2 67 -17z"/>
 <path d="M1442 691 c-9 -5 -16 -38 -19 -88 l-6 -80 -33 10 c-41 13 -64 -3 -64 -44 0 -24 8 -32 68 -61 79 -39 175 -104 216 -147 17 -17 35 -31 42 -31 7 0 25 15 41 34 48 59 126 110 236 155 16 6 31 20 34 31 4 13 10 17 17 12 6 -4 36 -16 66 -26 90 -31 93 -40 14 -46 l-69 -5 -3 -34 c-2 -20 2 -37 10 -42 7 -5 61 -9 119 -9 104 0 119 -4 119 -36 0 -2 -46 -4 -103 -4 -67 0 -107 -4 -115 -12 -15 -15 -16 -142 -2 -169 10 -17 22 -19 113 -19 154 0 147 -5 147 105 0 84 2 93 20 98 11 3 20 12 20 21 0 14 19 16 140 16 132 0 140 1 151 21 8 16 8 28 0 45 -9 21 -18 23 -82 26 -66 3 -70 4 -46 16 34 15 65 27 101 38 56 17 61 74 7 82 -19 3 -21 10 -21 66 0 35 -5 67 -12 74 -16 16 -210 16 -226 0 -16 -16 -16 -170 0 -186 7 -7 26 -12 42 -12 l30 0 -39 -40 c-48 -49 -74 -51 -125 -7 -47 38 -49 47 -12 47 15 0 33 5 40 12 16 16 16 170 0 186 -8 8 -48 12 -113 12 -65 0 -105 -4 -113 -12 -7 -7 -12 -38 -12 -69 0 -52 -2 -58 -22 -61 -16 -2 -24 -12 -28 -31 -5 -28 -5 -28 -22 -7 -19 22 -40 25 -67 10 -17 -8 -19 -2 -24 72 -3 51 -10 84 -19 89 -7 5 -96 9 -198 9 -102 0 -191 -4 -198 -9z m316 -109 l3 -33 -123 3 c-121 3 -123 3 -126 27 -2 13 2 28 10 32 7 5 63 8 123 7 l110 -3 3 -33z m427 8 c0 -22 -5 -25 -42 -28 -40 -3 -43 -1 -43 21 0 32 8 38 50 35 30 -3 35 -7 35 -28z m290 0 c0 -22 -5 -25 -42 -28 -40 -3 -43 -1 -43 21 0 32 8 38 50 35 30 -3 35 -7 35 -28z m-725 -123 c0 -2 -25 -25 -55 -51 l-56 -48 -37 34 c-20 18 -48 41 -62 50 -24 16 -21 17 93 17 64 1 117 0 117 -2z m435 -282 c0 -16 -8 -21 -39 -23 -43 -4 -62 8 -52 33 4 12 16 15 48 13 35 -2 43 -7 43 -23z"/>
 <path d="M3113 690 c-107 -9 -113 -17 -113 -151 0 -74 4 -110 12 -115 7 -5 58 -10 113 -14 99 -5 100 -5 100 -30 0 -24 -2 -25 -90 -30 -77 -4 -91 -8 -100 -25 -6 -12 -17 -19 -28 -17 -34 7 -67 -8 -73 -33 -5 -19 6 -37 56 -96 34 -39 66 -82 72 -95 19 -42 98 -28 98 17 0 16 17 18 170 21 138 2 173 6 181 18 13 18 4 237 -12 295 -6 22 -18 48 -27 58 -17 19 -82 23 -113 7 -35 -19 -18 -80 23 -80 28 0 38 -33 38 -124 l0 -86 -158 0 c-153 0 -159 1 -180 23 -12 13 -22 26 -22 30 0 4 53 7 118 7 78 0 122 4 130 12 16 16 16 180 0 196 -8 8 -47 12 -110 12 l-98 0 0 49 c0 63 6 65 165 64 143 0 185 -8 185 -32 0 -10 9 -26 20 -36 16 -15 26 -17 48 -9 24 9 27 15 26 52 -1 48 -19 89 -44 97 -68 21 -244 29 -387 15z"/>
 <path d="M5826 681 c-16 -18 -16 -23 9 -102 36 -114 45 -129 70 -129 36 0 58 23 52 56 -10 58 -38 150 -53 172 -18 27 -55 29 -78 3z"/>
 <path d="M6085 656 c-19 -14 -19 -15 -2 -50 9 -20 17 -42 17 -49 0 -7 11 -25 24 -42 21 -27 26 -28 50 -17 34 15 33 42 -2 112 -30 59 -53 71 -87 46z"/>
 <path d="M6397 652 c-42 -46 -61 -144 -31 -156 40 -15 52 -6 78 59 31 78 32 91 7 105 -27 14 -35 13 -54 -8z"/>
 <path d="M2701 444 c-47 -60 -10 -144 64 -144 74 0 111 84 64 144 -16 21 -29 26 -64 26 -35 0 -48 -5 -64 -26z"/>
 <path d="M1378 344 c-11 -23 -10 -29 10 -44 l23 -19 -28 -3 c-40 -4 -58 -47 -47 -107 l9 -46 118 -5 c113 -5 118 -6 130 -30 10 -20 20 -25 52 -25 36 0 40 3 43 27 l3 27 122 3 122 3 3 68 c3 64 2 68 -23 77 -24 9 -25 11 -10 33 13 21 13 25 -1 45 -20 29 -51 22 -122 -26 -57 -38 -75 -62 -66 -85 10 -26 43 -26 90 -1 l45 24 -3 -27 -3 -28 -205 0 -205 0 -3 34 -4 35 34 -25 c18 -14 40 -28 49 -31 19 -7 59 17 59 36 0 18 -70 80 -112 99 -50 23 -66 21 -80 -9z"/>
 <path d="M3727 364 c-4 -4 -7 -18 -7 -31 0 -28 0 -28 -44 -2 -40 23 -84 22 -100 -3 -16 -26 2 -49 60 -76 82 -37 79 -34 84 -108 5 -74 14 -83 66 -70 l25 7 -3 142 -3 142 -35 3 c-20 2 -39 0 -43 -4z"/>
 <path d="M3851 326 c-7 -8 -9 -25 -5 -40 6 -24 10 -26 66 -26 59 0 59 0 56 -27 -3 -27 -6 -28 -68 -33 l-65 -5 0 -35 0 -35 63 -3 c57 -3 64 -5 72 -28 9 -22 15 -25 47 -22 31 2 39 7 41 26 3 20 8 22 72 22 60 0 69 3 75 20 3 11 3 29 0 40 -6 17 -15 20 -76 20 l-70 0 3 28 c3 26 6 27 61 30 l57 3 0 39 0 40 -159 0 c-124 0 -161 -3 -170 -14z"/>
 <path d="M5182 318 c-7 -7 -12 -24 -12 -39 0 -21 7 -29 33 -39 17 -6 51 -21 75 -33 51 -26 77 -16 77 29 0 24 -8 32 -65 61 -71 36 -90 39 -108 21z"/>
 <path d="M2317 273 c-4 -3 -7 -46 -7 -94 0 -103 -7 -99 148 -99 101 0 103 0 112 26 13 33 13 130 0 155 -10 17 -22 19 -129 19 -65 0 -121 -3 -124 -7z m171 -90 c3 -21 -1 -23 -42 -23 -47 0 -62 10 -52 36 4 11 18 14 48 12 36 -2 44 -7 46 -25z"/>
 <path d="M3606 186 c-34 -45 -34 -83 0 -98 24 -11 29 -9 60 25 37 40 43 67 18 91 -24 25 -49 19 -78 -18z"/>
 <path d="M5868 172 c-34 -32 -40 -43 -34 -65 10 -40 42 -44 90 -9 43 32 58 71 35 98 -19 23 -48 16 -91 -24z"/>
 <path d="M782 188 c-16 -16 -15 -63 2 -77 9 -8 79 -11 232 -9 l219 3 0 45 0 45 -220 3 c-163 2 -224 -1 -233 -10z"/>
 <path d="M5243 154 c-46 -27 -54 -51 -27 -78 22 -22 44 -20 87 9 38 27 48 60 25 83 -18 18 -38 15 -85 -14z"/>
 </g>

</svg>