<!DOCTYPE svg PUBLIC "-//W3C//DTD SVG 20010904//EN" "http://www.w3.org/TR/2001/REC-SVG-20010904/DTD/svg10.dtd">
<svg version="1.0" xmlns="http://www.w3.org/2000/svg" width="496px" height="40px" viewBox="0 0 4960 400" preserveAspectRatio="xMidYMid meet">
<g id="layer1" fill="#ffffff" stroke="none">
 <path d="M813 383 c-9 -3 -13 -28 -13 -73 0 -58 -3 -71 -19 -80 -22 -11 -26 -8 -35 37 -10 43 -86 113 -124 113 -34 0 -52 -16 -52 -47 0 -16 11 -28 39 -42 48 -25 67 -68 51 -117 -11 -34 -38 -53 -45 -31 -2 6 -11 38 -20 69 -33 109 -80 158 -137 142 -49 -14 -73 -55 -73 -123 1 -135 139 -227 269 -177 52 20 73 42 91 91 l12 37 24 -38 c13 -21 31 -56 40 -79 13 -32 22 -41 45 -43 16 -2 32 2 39 10 17 24 51 27 64 7 21 -35 81 -18 81 23 0 14 5 17 24 12 42 -10 57 27 48 114 -6 55 -5 75 5 84 18 14 16 59 -3 86 -14 20 -23 22 -113 22 -69 0 -102 -4 -109 -13 -6 -7 -13 -46 -15 -87 l-3 -75 -2 86 c-2 69 -5 88 -18 93 -18 7 -33 7 -51 -1z m247 -83 c0 -5 -4 -10 -9 -10 -6 0 -13 5 -16 10 -3 6 1 10 9 10 9 0 16 -4 16 -10z m-550 -107 c11 -30 19 -57 17 -60 -3 -2 -16 10 -31 27 -17 21 -26 43 -26 66 0 47 14 35 40 -33z"/>
 <path d="M3073 379 c-7 -7 -13 -18 -13 -23 0 -6 -12 -19 -25 -29 -22 -15 -25 -16 -25 -2 0 8 -9 24 -20 35 -18 18 -33 20 -149 20 -123 0 -131 -1 -145 -22 -24 -34 -21 -116 5 -144 l21 -23 -36 -15 c-48 -20 -47 -45 6 -107 31 -37 48 -49 69 -49 15 0 31 5 34 10 3 6 41 10 83 10 122 0 137 21 112 165 -6 40 -5 54 8 67 21 25 47 5 29 -23 -9 -14 -9 -24 -1 -37 8 -12 8 -24 1 -40 -9 -20 -7 -27 12 -41 20 -15 21 -19 7 -30 -36 -30 -5 -97 34 -73 12 7 21 8 25 2 8 -13 62 -13 70 0 8 13 62 13 70 0 8 -13 62 -13 70 0 3 6 19 10 34 10 46 0 69 43 36 70 -12 10 -13 16 -3 27 9 11 9 19 0 33 -9 14 -8 19 3 24 20 7 19 39 -4 79 -18 33 -18 34 1 46 12 7 18 20 16 34 -4 30 -66 36 -111 10 -31 -18 -33 -18 -49 -1 -11 11 -33 18 -57 18 -21 0 -51 3 -67 6 -17 3 -34 0 -41 -7z m-178 -77 l40 -8 -30 -11 c-33 -11 -135 -6 -135 8 0 16 66 21 125 11z m315 -12 c0 -5 -4 -10 -9 -10 -6 0 -13 5 -16 10 -3 6 1 10 9 10 9 0 16 -4 16 -10z m-300 -130 c0 -37 -2 -40 -27 -40 -24 1 -25 2 -10 11 10 6 17 22 17 39 0 17 5 30 10 30 6 0 10 -18 10 -40z"/>
 <path d="M3497 363 c-38 -41 -57 -94 -57 -166 0 -53 5 -71 33 -117 29 -50 35 -55 67 -55 29 0 36 4 38 23 2 13 -7 35 -22 52 -46 56 -47 145 -1 205 28 38 32 70 9 79 -28 11 -40 7 -67 -21z"/>
 <path d="M4753 383 c-21 -8 -15 -42 12 -78 46 -60 45 -149 -1 -205 -15 -17 -24 -39 -22 -52 2 -19 9 -23 38 -23 32 0 38 5 67 55 28 46 33 63 33 120 0 76 -24 136 -65 168 -28 22 -39 25 -62 15z"/>
 <path d="M170 366 c-35 -20 -54 -58 -47 -95 4 -17 5 -31 3 -31 -2 0 -17 5 -35 11 -27 9 -35 8 -51 -6 -35 -31 -25 -51 42 -87 60 -32 61 -33 33 -38 -27 -5 -30 -9 -30 -40 l0 -35 105 -12 c95 -11 106 -11 118 4 19 26 15 38 -24 73 l-37 32 47 -7 c53 -8 76 4 76 41 0 27 -26 44 -67 44 -39 0 -95 36 -91 58 2 13 17 18 55 22 60 6 76 18 71 51 -3 22 -8 24 -73 26 -45 2 -79 -2 -95 -11z"/>
 <path d="M1207 373 c-18 -18 -6 -55 24 -71 67 -37 109 -73 129 -111 11 -22 20 -43 20 -46 0 -3 -46 -5 -103 -5 -108 0 -127 -7 -127 -45 0 -39 18 -45 137 -45 100 0 115 -2 133 -20 22 -22 79 -27 98 -8 20 20 14 65 -11 85 -13 10 -32 42 -41 70 -35 107 -135 202 -212 203 -22 0 -44 -3 -47 -7z"/>
 <path d="M1617 373 c-4 -3 -7 -17 -7 -30 0 -19 10 -28 48 -45 46 -20 102 -64 102 -80 0 -4 -49 -8 -108 -8 -113 0 -132 -6 -132 -45 0 -26 18 -45 43 -45 16 0 17 -3 8 -14 -7 -8 -11 -27 -9 -43 l3 -28 124 -3 c82 -2 128 1 137 9 16 13 19 55 4 64 -7 4 -1 16 15 31 22 20 25 30 20 57 -19 93 -119 187 -199 187 -24 0 -46 -3 -49 -7z"/>
 <path d="M1947 374 c-4 -4 -7 -22 -7 -41 0 -25 -4 -33 -18 -33 -44 0 -56 -50 -17 -76 25 -16 25 -17 -3 -71 -16 -30 -15 -86 0 -101 7 -7 38 -12 70 -12 32 0 58 -4 58 -10 0 -13 67 -13 75 0 3 6 32 10 64 10 66 0 81 11 81 57 0 32 -3 40 -28 89 -9 18 -7 23 14 33 13 6 24 16 24 23 0 9 3 9 11 1 8 -8 8 -17 0 -32 -8 -15 -9 -27 -1 -40 5 -11 10 -44 10 -73 0 -30 5 -59 12 -66 16 -16 130 -16 146 0 9 9 15 9 24 0 16 -16 130 -16 146 0 7 7 12 36 12 65 0 29 6 62 12 73 10 16 10 24 0 41 -10 15 -11 24 -3 32 15 15 14 42 -3 57 -8 6 -16 26 -18 43 l-3 32 -155 0 -155 0 -3 -30 c-4 -37 -31 -70 -46 -55 -5 5 -18 10 -27 10 -13 0 -19 10 -21 38 l-3 37 -121 3 c-66 1 -123 -1 -127 -4z m521 -132 c2 -7 -6 -12 -17 -12 -21 0 -27 11 -14 24 9 9 26 2 31 -12z"/>
 <path d="M3600 354 c0 -16 7 -28 18 -30 25 -7 19 -125 -9 -150 -27 -24 -24 -41 10 -62 29 -17 29 -18 10 -30 -13 -8 -19 -21 -17 -35 2 -17 11 -23 39 -25 23 -2 40 2 49 12 16 20 37 20 47 1 7 -12 25 -13 96 -8 108 7 127 18 110 64 -16 41 0 55 33 31 19 -15 20 -19 8 -33 -17 -19 -18 -41 -2 -57 16 -16 43 -15 58 3 11 13 15 13 33 0 16 -11 51 -15 134 -15 100 0 114 2 125 19 8 13 17 16 27 11 86 -43 113 -40 122 10 l5 35 10 -35 c9 -31 14 -35 45 -35 28 0 35 4 37 22 3 21 9 23 62 23 81 0 85 8 71 156 -13 146 -18 154 -82 154 -34 0 -51 -5 -55 -15 -5 -11 -10 -12 -24 -3 -37 24 -75 -18 -46 -51 16 -17 16 -19 -3 -24 -18 -4 -20 1 -23 42 -3 45 -3 46 -40 49 l-38 3 0 -45 c0 -36 -3 -44 -15 -40 -37 15 -63 -55 -28 -74 14 -9 14 -11 -5 -21 -19 -10 -22 -9 -22 7 0 10 -5 23 -11 29 -8 8 -6 20 6 43 32 62 0 116 -44 75 -17 -15 -19 -14 -24 5 -4 16 -13 20 -44 20 -21 0 -53 -4 -70 -9 -18 -5 -35 -6 -38 -1 -3 5 -36 8 -73 7 l-67 -2 1 -35 c1 -29 17 -76 42 -122 2 -4 -8 -14 -22 -23 -20 -13 -28 -14 -44 -4 -29 18 -36 126 -9 133 10 2 17 14 17 30 0 25 -2 26 -66 26 -70 0 -104 -12 -104 -35 0 -22 -9 -18 -32 10 -17 22 -27 25 -89 25 -68 0 -69 -1 -69 -26z m750 -226 c0 -25 -4 -38 -9 -33 -8 9 -4 75 5 75 2 0 4 -19 4 -42z m-280 2 c0 -13 -5 -18 -15 -14 -12 5 -13 10 -4 20 15 19 19 18 19 -6z"/>
 </g>

</svg>