<!DOCTYPE svg PUBLIC "-//W3C//DTD SVG 20010904//EN" "http://www.w3.org/TR/2001/REC-SVG-20010904/DTD/svg10.dtd">
<svg version="1.0" xmlns="http://www.w3.org/2000/svg" width="458px" height="80px" viewBox="0 0 4580 800" preserveAspectRatio="xMidYMid meet">
<g id="layer1" fill="#fffffe" stroke="none">
 <path d="M1498 723 c-16 -4 -18 -19 -18 -138 l0 -134 -52 -3 c-52 -3 -53 -4 -56 -35 -2 -23 1 -33 10 -33 21 0 84 -68 72 -78 -47 -40 -87 -63 -93 -54 -4 7 -54 12 -131 14 l-125 3 0 50 0 50 75 3 c131 4 120 -11 120 160 0 102 -4 152 -12 160 -9 9 -77 12 -244 12 -202 0 -233 -2 -238 -16 -3 -9 -6 -78 -6 -154 0 -101 3 -140 13 -148 7 -6 51 -12 97 -14 l85 -3 0 -50 0 -50 -135 -5 c-102 -4 -137 -2 -143 7 -4 7 -21 13 -37 13 -27 0 -30 3 -30 30 0 27 3 30 30 30 28 0 30 3 30 35 0 32 -2 35 -30 35 -28 0 -30 3 -30 35 0 32 2 35 30 35 28 0 30 3 30 35 0 32 -2 35 -30 35 -28 0 -30 3 -30 34 0 33 2 35 38 38 35 3 37 5 37 38 l0 35 -133 3 c-80 1 -140 -2 -152 -8 -19 -10 -20 -21 -20 -195 0 -176 -5 -209 -28 -169 -12 21 -102 25 -125 5 -12 -9 -17 -29 -17 -67 0 -30 -4 -54 -10 -54 -5 0 -10 7 -10 16 0 49 -75 154 -109 154 -45 0 -55 -59 -16 -93 13 -12 27 -34 31 -49 5 -22 2 -27 -18 -30 -19 -2 -23 -9 -23 -38 0 -31 3 -35 30 -40 21 -4 31 -11 33 -28 3 -18 10 -22 38 -22 28 0 36 5 44 25 7 19 17 25 38 25 41 0 52 17 52 83 0 42 3 58 13 55 6 -3 13 -14 15 -26 2 -15 10 -22 26 -22 22 0 27 -7 70 -112 11 -27 21 -38 36 -38 55 0 74 39 45 90 -19 33 -18 40 4 40 13 0 24 -15 37 -53 16 -44 23 -52 47 -55 52 -6 61 14 40 90 -3 14 2 18 26 18 18 0 31 5 32 13 1 6 4 1 8 -13 7 -25 9 -25 136 -30 l130 -5 3 -42 c3 -40 5 -43 39 -49 43 -8 63 11 63 63 l0 33 130 0 c125 0 131 1 139 22 6 18 9 19 14 5 4 -10 14 -17 24 -17 10 0 33 -22 52 -50 33 -48 50 -57 85 -44 26 10 19 58 -14 99 -16 20 -27 42 -24 47 7 12 41 -18 49 -43 13 -40 85 -30 85 13 0 11 -25 52 -56 90 -31 38 -54 72 -51 75 10 9 47 -8 47 -23 0 -9 11 -14 29 -14 27 0 30 4 36 43 4 24 5 55 3 68 -4 29 -37 38 -54 14 -26 -35 -34 -5 -34 131 0 75 -4 134 -9 134 -5 0 -15 2 -23 4 -7 2 -21 2 -30 -1z m-940 -142 c3 -29 1 -32 -20 -29 -26 3 -35 32 -17 54 18 22 34 12 37 -25z m642 -46 l0 -76 -152 3 -153 3 -3 59 c-2 32 -1 65 2 72 4 11 38 14 156 14 l150 0 0 -75z m-642 -93 c3 -30 1 -33 -20 -30 -18 2 -24 10 -26 36 -3 30 -1 33 20 30 18 -2 24 -10 26 -36z m0 -135 c3 -25 0 -28 -20 -25 -17 2 -24 11 -26 31 -3 25 0 28 20 25 17 -2 24 -11 26 -31z"/>
 <path d="M2203 683 c-145 -158 -144 -417 2 -569 44 -47 64 -53 89 -28 24 24 19 53 -16 92 -109 125 -115 293 -14 422 51 65 57 91 24 114 -32 23 -36 21 -85 -31z"/>
 <path d="M4312 714 c-33 -23 -27 -49 24 -114 49 -63 74 -133 74 -213 0 -57 -42 -155 -88 -209 -35 -39 -40 -68 -16 -92 25 -25 45 -19 89 28 146 152 147 411 2 569 -49 52 -53 54 -85 31z"/>
 <path d="M202 708 c-7 -7 -12 -27 -12 -45 l0 -34 -29 22 c-38 28 -73 22 -86 -15 -9 -26 -6 -32 31 -65 36 -32 74 -81 74 -96 0 -3 -22 -5 -50 -5 l-50 0 0 -35 0 -35 54 0 c48 0 54 -2 60 -24 11 -42 81 -43 92 0 5 20 13 23 57 26 51 3 52 4 55 36 l3 32 -55 0 c-43 0 -56 3 -56 15 0 10 10 15 30 15 23 0 35 7 50 33 24 39 26 85 4 94 -20 8 -59 -14 -72 -41 -9 -17 -11 -8 -11 45 -1 36 -6 70 -13 77 -15 15 -61 15 -76 0z"/>
 <path d="M1630 700 c-15 -29 -5 -67 20 -75 19 -6 20 -15 20 -234 0 -171 3 -231 13 -238 6 -6 41 -17 77 -27 36 -9 95 -26 131 -38 74 -24 95 -21 105 18 9 35 -4 55 -47 69 l-34 12 0 69 0 69 50 5 50 5 0 40 0 40 -47 3 -48 3 0 37 c1 20 7 62 14 92 13 53 16 54 31 5 6 -19 39 -19 54 -1 16 19 5 94 -20 136 -17 27 -24 31 -56 28 -32 -3 -41 -9 -67 -51 -24 -39 -31 -65 -39 -147 l-10 -100 -34 0 -33 0 0 85 0 85 25 -6 c33 -8 55 11 55 47 0 25 -7 32 -56 54 -31 14 -75 28 -99 32 -37 5 -45 3 -55 -17z m190 -426 c0 -54 0 -55 -27 -52 -26 3 -28 7 -31 56 l-3 52 30 0 c31 0 31 0 31 -56z"/>
 <path d="M2344 706 c-3 -8 -4 -25 -2 -38 3 -24 10 -26 113 -45 l40 -7 -40 -5 -40 -6 -3 -128 -3 -127 26 -10 c15 -6 43 -10 64 -10 36 0 37 -1 33 -34 -4 -32 -2 -33 35 -39 41 -7 104 -43 111 -64 7 -22 -23 -14 -48 12 -36 38 -100 30 -100 -13 0 -20 102 -122 122 -122 10 0 25 11 34 25 16 24 19 25 139 25 115 0 124 1 130 20 8 24 -42 103 -68 108 -26 5 -49 -18 -44 -45 4 -21 1 -23 -37 -23 l-41 0 32 31 c19 20 58 41 100 55 68 23 68 23 89 3 25 -24 56 -19 95 15 44 38 53 63 34 92 -22 33 -51 30 -97 -12 -37 -33 -41 -34 -57 -20 -10 9 -29 16 -44 16 l-26 0 -3 123 -3 122 -40 5 c-36 5 -37 6 -15 13 14 3 39 7 55 7 56 1 75 10 75 39 0 48 -11 54 -86 47 -76 -8 -142 -24 -162 -40 -9 -6 -12 -20 -8 -38 5 -28 5 -28 -49 -28 -54 0 -55 0 -55 30 0 38 -34 56 -127 70 -94 13 -123 12 -129 -4z m451 -171 c0 -10 -258 -20 -283 -10 -7 3 -10 10 -7 15 9 14 290 9 290 -5z m3 -67 c-6 -18 -290 -18 -295 0 -4 9 30 12 147 12 117 0 151 -3 148 -12z m0 -60 c-6 -18 -290 -18 -295 0 -4 9 30 12 147 12 117 0 151 -3 148 -12z m-3 -96 c-16 -11 -36 -26 -44 -35 -12 -16 -15 -15 -40 2 -14 11 -42 26 -61 34 -34 15 -33 15 70 16 l105 1 -30 -18z"/>
 <path d="M3741 701 c-6 -11 -11 -53 -11 -94 l0 -75 -40 5 c-48 7 -70 -8 -70 -48 0 -24 6 -30 53 -47 l52 -20 3 -67 c2 -51 0 -66 -10 -63 -11 4 -20 24 -34 76 -5 18 -51 15 -62 -5 -5 -9 -6 -28 -2 -43 4 -15 11 -60 15 -101 6 -63 5 -72 -7 -62 -7 7 -45 13 -83 15 -55 2 -70 6 -73 19 -2 13 8 17 53 21 30 3 58 8 62 12 14 14 16 215 3 231 -8 10 -31 15 -61 15 l-49 0 0 108 c0 71 -4 112 -12 120 -18 18 -113 15 -128 -3 -20 -24 -4 -65 25 -65 25 0 25 -1 25 -80 l0 -80 -43 0 c-24 0 -48 -5 -55 -12 -16 -16 -16 -220 0 -236 7 -7 26 -12 44 -12 30 0 51 -20 37 -34 -11 -11 -109 -6 -121 6 -8 8 -12 59 -12 163 0 165 -20 307 -46 336 -21 23 -57 24 -78 3 -19 -19 -21 -7 10 -95 23 -67 26 -94 31 -269 3 -107 10 -201 16 -207 7 -10 66 -13 233 -13 222 0 224 0 224 21 0 18 3 19 14 9 8 -6 25 -10 38 -8 18 2 24 10 26 38 6 63 22 58 22 -8 0 -52 3 -63 21 -72 11 -7 32 -9 45 -6 22 6 24 11 24 66 0 55 2 61 24 70 13 5 26 17 28 27 2 10 17 -19 35 -67 32 -88 42 -98 90 -85 24 6 25 9 20 51 l-5 44 119 0 c116 0 120 1 130 24 9 18 7 76 -6 228 -22 264 -31 281 -136 276 -75 -4 -93 -21 -69 -66 12 -20 24 -28 52 -30 35 -3 36 -4 46 -60 6 -31 14 -88 17 -127 3 -38 8 -89 11 -113 3 -26 1 -42 -5 -42 -6 0 -11 11 -11 25 0 43 -39 174 -71 237 -38 75 -104 148 -134 148 -22 0 -55 -28 -55 -46 0 -6 21 -30 46 -54 25 -25 56 -65 69 -90 34 -66 77 -212 65 -224 -5 -5 -11 2 -15 20 -14 66 -58 164 -91 203 -50 57 -104 56 -104 -3 0 -7 17 -32 37 -56 34 -39 83 -129 83 -151 0 -20 -18 -7 -30 21 -15 37 -43 54 -76 46 -17 -5 -24 -13 -24 -32 0 -19 -5 -25 -17 -22 -13 2 -19 14 -21 40 -3 34 -1 37 25 40 25 3 28 7 28 43 0 32 -5 42 -25 52 -24 12 -25 17 -30 130 l-5 118 -32 3 c-23 2 -34 -2 -42 -17z m-231 -316 c0 -12 -15 -15 -75 -15 -69 0 -86 6 -68 23 3 4 37 7 75 7 54 0 68 -3 68 -15z m-2 -82 c-3 -15 -16 -19 -67 -21 -35 -2 -68 1 -74 7 -20 20 6 31 74 31 62 0 70 -2 67 -17z"/>
 <path d="M2986 695 c-19 -14 -19 -17 9 -107 16 -51 33 -101 39 -110 20 -34 86 -14 86 25 0 24 -20 97 -46 165 -13 35 -20 42 -42 42 -15 0 -36 -7 -46 -15z"/>
 <path d="M1387 693 c-16 -4 -17 -13 -12 -91 4 -48 8 -93 10 -99 3 -7 20 -13 41 -13 l36 0 -4 91 c-2 76 -6 93 -22 105 -11 8 -22 13 -25 13 -3 -1 -14 -3 -24 -6z"/>
 <path d="M3245 667 c-19 -14 -19 -16 -1 -58 41 -101 61 -123 94 -103 26 17 25 54 -6 114 -30 59 -53 71 -87 47z"/>
 <path d="M3535 628 c-29 -61 -33 -113 -9 -122 41 -16 52 -7 80 65 31 79 27 102 -20 107 -23 3 -29 -3 -51 -50z"/>
 <path d="M1594 605 c-4 -9 -7 -39 -8 -68 -1 -48 1 -52 23 -55 31 -5 41 12 41 74 0 38 -4 53 -16 58 -24 9 -34 7 -40 -9z"/>
 <path d="M2342 328 c-7 -7 -12 -24 -12 -39 0 -21 7 -29 33 -39 17 -7 51 -22 75 -33 51 -25 77 -15 77 29 0 24 -8 32 -65 61 -71 36 -90 39 -108 21z"/>
 <path d="M3027 184 c-40 -39 -46 -64 -21 -88 22 -22 34 -20 82 15 31 23 42 38 42 58 0 60 -49 67 -103 15z"/>
 <path d="M2403 164 c-46 -27 -54 -51 -27 -78 22 -22 44 -20 87 9 38 27 48 60 25 83 -18 18 -38 15 -85 -14z"/>
 </g>
<g id="layer2" fill="#5b3714" stroke="none">
 <path d="M192 734 c-12 -8 -22 -25 -22 -37 0 -16 -3 -18 -12 -9 -20 20 -67 14 -93 -13 -38 -37 -32 -69 21 -123 l45 -47 -28 -3 c-47 -6 -52 -17 -51 -110 1 -82 2 -89 31 -121 29 -34 29 -35 9 -42 -44 -17 -42 -95 3 -119 16 -8 38 -25 48 -37 26 -32 89 -32 114 1 11 13 33 27 51 31 35 7 52 30 52 69 0 46 25 28 50 -36 13 -35 28 -69 33 -75 13 -17 89 -16 113 1 13 10 23 11 32 4 14 -12 78 -4 98 13 8 6 14 29 14 52 0 38 1 39 18 24 15 -14 41 -17 135 -17 l117 0 0 -28 c0 -41 28 -62 83 -62 50 0 77 23 77 67 0 23 2 23 108 23 59 0 123 2 142 5 33 5 37 2 65 -42 25 -40 36 -49 63 -51 47 -5 82 21 82 58 0 23 5 30 19 30 11 0 23 5 26 10 4 6 13 2 23 -10 11 -13 53 -30 122 -48 58 -16 115 -34 127 -40 37 -20 69 -14 97 19 45 53 30 103 -37 128 -24 9 -27 16 -27 56 l0 45 38 0 c48 0 72 24 72 72 0 43 -25 68 -69 68 -31 0 -32 1 -29 38 3 34 5 37 38 40 42 4 70 27 70 57 0 41 -32 128 -55 151 -37 37 -90 33 -128 -9 l-31 -32 -49 24 c-29 14 -74 27 -106 29 -65 5 -87 -11 -94 -68 -4 -35 -4 -35 -5 6 -1 25 -9 47 -20 57 -23 21 -85 22 -102 2 -7 -9 -29 -15 -55 -15 -29 0 -47 -6 -60 -20 -17 -19 -17 -26 -4 -126 12 -85 12 -107 2 -116 -26 -21 -9 -108 21 -108 7 0 21 -9 30 -19 17 -19 17 -20 -6 -33 -17 -10 -56 -12 -145 -10 -123 3 -123 3 -123 28 0 23 2 24 74 24 59 0 78 4 100 21 l26 20 0 155 c0 211 24 194 -278 194 -304 0 -282 15 -282 -194 0 -143 1 -148 25 -171 21 -22 33 -25 100 -25 73 0 75 -1 75 -25 l0 -25 -119 0 c-88 0 -121 4 -130 14 -9 10 -8 16 4 26 18 15 20 81 3 98 -7 7 -23 13 -37 13 -21 1 -22 2 -6 6 36 9 55 34 55 73 0 41 -12 56 -50 63 -22 4 -22 4 6 6 42 2 54 18 54 73 0 66 -12 71 -180 66 -145 -3 -170 -11 -170 -52 0 -18 -6 -21 -45 -21 -44 0 -45 1 -45 32 0 37 -29 63 -70 63 -14 0 -36 -7 -48 -16z m1359 -14 c5 0 9 -57 9 -129 0 -72 4 -132 10 -136 5 -3 18 0 28 6 35 22 52 5 52 -51 0 -28 -5 -60 -10 -71 -14 -25 -50 -25 -57 1 -5 19 -39 37 -50 27 -2 -3 20 -35 51 -71 60 -71 71 -108 36 -126 -20 -11 -60 -5 -60 8 -1 16 -48 63 -54 54 -3 -5 10 -29 29 -53 41 -52 44 -73 10 -95 -32 -21 -49 -14 -80 36 -14 22 -36 45 -49 50 -13 5 -27 14 -31 20 -5 8 -12 5 -22 -9 -13 -19 -24 -21 -139 -21 l-124 0 0 -33 c0 -42 -15 -57 -57 -57 -36 0 -53 21 -53 64 l0 26 -118 0 c-122 0 -142 6 -142 43 0 17 -1 17 -16 3 -8 -9 -24 -16 -34 -16 -16 0 -17 -4 -8 -35 14 -44 -2 -67 -46 -63 -26 3 -33 9 -47 48 -10 26 -24 46 -34 49 -15 2 -16 -1 -10 -20 18 -60 17 -77 -5 -89 -43 -23 -62 -10 -94 67 -25 61 -34 73 -53 73 -16 0 -24 7 -29 25 -10 39 -18 21 -24 -48 l-5 -62 -38 -3 c-29 -3 -40 -9 -47 -27 -11 -30 -26 -38 -55 -31 -14 4 -25 15 -27 28 -2 16 -12 24 -33 28 -27 5 -30 9 -30 40 0 29 4 36 22 38 13 2 23 8 23 14 0 16 -40 78 -50 78 -5 0 -12 9 -15 21 -8 24 19 59 45 59 36 0 109 -102 110 -152 0 -10 5 -18 10 -18 6 0 10 22 10 49 0 27 3 56 6 64 4 11 -2 16 -23 19 -17 2 -32 11 -38 26 -8 18 -18 22 -55 22 -51 0 -70 13 -70 46 0 30 18 42 70 46 l44 3 -57 61 c-31 34 -57 70 -57 81 0 45 50 57 94 22 l26 -20 0 33 c0 41 15 58 50 58 40 0 50 -18 50 -89 l0 -66 20 33 c25 40 65 44 81 8 10 -21 7 -31 -18 -68 -23 -34 -35 -43 -56 -41 -15 1 -27 -2 -27 -7 0 -5 24 -10 52 -12 50 -3 53 -5 56 -31 5 -40 -14 -57 -63 -57 -34 0 -44 -4 -48 -20 -5 -18 0 -20 39 -20 31 0 49 -6 61 -19 9 -11 20 -18 25 -15 4 3 8 86 8 184 0 169 1 180 20 190 12 6 72 9 152 8 l133 -3 0 -35 c0 -33 -2 -35 -37 -38 -35 -3 -38 -6 -38 -33 0 -24 4 -29 24 -29 32 0 50 -24 42 -55 -5 -20 -13 -25 -36 -25 -27 0 -30 -3 -30 -30 0 -25 4 -30 24 -30 32 0 50 -24 42 -55 -5 -20 -13 -25 -36 -25 -27 0 -30 -3 -30 -30 0 -27 3 -30 30 -30 16 0 33 -6 37 -13 6 -9 40 -11 138 -7 l130 5 0 50 0 50 -85 5 c-78 5 -86 7 -97 30 -16 31 -17 225 -2 268 14 42 30 44 276 40 149 -2 205 -6 215 -16 15 -15 19 -294 5 -309 -5 -4 -50 -10 -100 -13 l-92 -5 0 -50 0 -50 125 -3 c80 -2 127 -7 131 -14 5 -8 23 1 54 26 l46 38 -23 25 c-13 14 -33 29 -45 34 -17 6 -23 17 -23 38 0 36 20 54 57 50 50 -6 53 2 53 136 0 109 2 124 18 128 9 3 23 3 30 1 8 -2 18 -4 23 -4z m233 -34 c50 -22 56 -28 56 -54 0 -37 -22 -56 -55 -48 l-25 6 0 -85 0 -85 34 0 33 0 6 83 c6 90 28 158 61 195 15 17 29 22 56 20 30 -3 38 -9 58 -48 24 -49 29 -99 10 -118 -20 -20 -47 -14 -61 15 l-14 26 -6 -34 c-4 -19 -9 -57 -13 -86 l-6 -52 48 -3 c47 -3 49 -4 52 -36 4 -44 -12 -62 -59 -62 l-39 0 0 -69 c0 -68 0 -68 31 -77 42 -12 56 -35 43 -71 -8 -24 -15 -28 -44 -27 -38 2 -209 48 -250 68 l-25 12 -3 231 c-2 221 -3 232 -22 238 -25 8 -35 46 -20 75 10 20 18 22 55 17 24 -4 68 -17 99 -31z m-348 0 c16 -12 20 -29 22 -104 4 -84 2 -91 -17 -97 -31 -9 -61 11 -61 43 0 15 -3 57 -6 94 -7 69 -7 68 37 77 3 0 14 -5 25 -13z m198 -72 c12 -5 16 -20 16 -58 0 -62 -10 -79 -41 -74 -21 3 -24 9 -27 56 -4 68 12 91 52 76z m172 -101 c-3 -21 -6 -46 -6 -55 0 -10 -4 -18 -10 -18 -5 0 -10 25 -10 55 0 44 3 55 16 55 14 0 15 -7 10 -37z m-1409 -10 c-4 -3 -7 0 -7 7 0 7 3 10 7 7 3 -4 3 -10 0 -14z m1243 -213 c0 -5 -2 -10 -4 -10 -3 0 -8 5 -11 10 -3 6 -1 10 4 10 6 0 11 -4 11 -10z"/>
 <path d="M520 605 c-17 -20 -6 -45 20 -45 17 0 21 5 18 27 -4 31 -20 40 -38 18z"/>
 <path d="M900 535 l0 -75 150 0 150 0 0 75 0 75 -150 0 -150 0 0 -75z m278 3 l3 -48 -130 0 -131 0 0 50 0 51 128 -3 127 -3 3 -47z"/>
 <path d="M520 465 c-17 -20 -6 -45 20 -45 17 0 21 5 18 27 -4 31 -20 40 -38 18z"/>
 <path d="M520 325 c-17 -20 -6 -45 20 -45 17 0 21 5 18 27 -4 31 -20 40 -38 18z"/>
 <path d="M1762 273 c3 -44 5 -48 31 -51 26 -3 27 -2 27 47 0 50 -1 51 -31 51 -30 0 -30 -1 -27 -47z m38 2 c0 -14 -4 -25 -10 -25 -5 0 -10 11 -10 25 0 14 5 25 10 25 6 0 10 -11 10 -25z"/>
 <path d="M2186 706 c-24 -23 -59 -74 -77 -112 -33 -67 -34 -72 -34 -194 0 -120 1 -128 32 -192 17 -37 50 -87 73 -112 36 -39 48 -46 80 -46 24 0 43 7 54 19 17 18 18 18 41 -5 13 -13 33 -24 45 -24 30 0 95 35 118 65 l20 25 45 -45 c52 -51 73 -55 114 -21 27 23 38 25 150 27 111 2 123 1 148 -19 36 -29 54 -28 101 6 37 27 40 27 57 10 15 -16 39 -18 245 -18 126 0 232 4 237 9 6 5 24 11 40 13 22 2 33 -2 40 -17 8 -15 23 -21 59 -23 63 -4 76 8 76 74 0 41 4 54 15 54 12 0 35 -55 35 -86 0 -21 37 -44 72 -44 45 0 83 37 76 74 l-5 26 102 0 c103 0 103 0 129 31 14 17 26 38 26 47 0 40 -30 370 -36 397 -6 28 -4 26 33 -20 60 -75 76 -112 81 -191 4 -61 1 -80 -20 -125 -14 -30 -41 -74 -61 -97 -23 -27 -37 -54 -37 -71 0 -38 38 -71 82 -71 29 0 43 8 78 46 23 25 56 75 73 112 31 64 32 72 32 192 0 122 -1 127 -34 194 -44 91 -108 156 -154 156 -37 0 -77 -33 -77 -66 -1 -15 -3 -14 -15 8 -32 58 -193 65 -221 10 -10 -20 -13 -21 -24 -7 -16 19 -69 19 -98 -1 -30 -21 -30 -79 0 -111 20 -21 20 -23 3 -23 -10 0 -27 -7 -37 -17 -17 -15 -18 -12 -18 80 0 88 -2 97 -22 111 -29 20 -67 20 -96 0 -19 -13 -22 -24 -22 -93 l0 -77 -36 4 c-28 3 -34 8 -29 21 20 50 17 78 -10 99 -37 29 -71 28 -100 -4 -20 -21 -25 -23 -25 -10 0 9 -11 28 -25 41 -20 21 -34 25 -85 25 -45 0 -65 -5 -78 -18 -11 -11 -37 -21 -59 -24 -32 -5 -42 -2 -51 13 -15 24 -84 26 -102 4 -11 -14 -15 -13 -28 6 -13 19 -22 21 -68 16 -33 -3 -56 -1 -60 5 -9 13 -121 3 -205 -20 -58 -15 -65 -20 -74 -50 -7 -24 -15 -32 -32 -32 -18 0 -23 6 -23 24 0 13 -6 29 -14 36 -38 31 -229 60 -266 40 -16 -9 -25 -9 -33 -1 -6 6 -26 11 -44 11 -26 0 -43 -10 -77 -44z m102 8 c31 -22 27 -50 -13 -100 -57 -69 -79 -128 -79 -214 -1 -85 26 -158 83 -222 34 -39 39 -68 15 -92 -24 -24 -41 -20 -88 24 -82 76 -130 231 -109 354 14 83 66 187 114 231 45 40 47 41 77 19z m2101 -19 c48 -44 100 -148 114 -231 21 -123 -27 -278 -109 -354 -47 -44 -64 -48 -88 -24 -24 24 -19 53 15 92 57 64 84 137 83 222 0 86 -22 145 -79 214 -40 50 -44 78 -13 100 30 22 32 21 77 -19z m-1897 14 c82 -18 108 -34 108 -70 0 -30 1 -30 48 -27 45 3 47 4 52 38 5 32 9 36 55 48 28 7 82 16 122 19 71 6 72 5 78 -20 13 -49 4 -62 -48 -65 -47 -3 -61 -14 -32 -26 12 -4 15 -28 15 -126 l0 -120 35 0 c23 0 38 -6 41 -15 5 -12 15 -8 49 20 50 40 77 44 99 13 23 -32 20 -41 -21 -82 -49 -47 -77 -55 -106 -28 l-22 21 -68 -23 c-61 -21 -117 -58 -117 -78 0 -4 15 -8 33 -8 29 0 33 3 32 26 0 33 28 53 53 38 21 -13 62 -72 62 -90 0 -7 -7 -20 -16 -28 -12 -13 -39 -16 -128 -16 -100 0 -115 -2 -131 -20 -27 -30 -44 -25 -102 32 -57 56 -62 71 -36 100 22 25 37 23 76 -12 36 -31 62 -39 55 -17 -8 21 -65 54 -109 61 -40 6 -41 7 -37 41 l4 35 -51 0 c-28 0 -56 5 -63 12 -8 8 -12 53 -12 136 0 115 1 124 20 129 31 8 13 23 -29 23 -20 0 -42 5 -49 12 -13 13 -16 60 -5 71 10 11 86 8 145 -4z m578 -31 c10 -24 27 -74 36 -111 21 -79 14 -100 -34 -105 -37 -4 -39 0 -77 125 -27 90 -28 94 -10 113 31 35 63 26 85 -22z m388 26 c20 -14 22 -23 22 -113 0 -109 6 -121 60 -121 20 0 41 -5 48 -12 16 -16 16 -220 0 -236 -7 -7 -36 -12 -65 -12 -40 0 -53 -4 -53 -15 0 -12 14 -15 64 -15 35 0 71 -3 80 -6 13 -5 16 2 16 42 -1 27 -5 68 -9 91 -10 52 4 77 39 71 19 -2 27 -12 35 -42 19 -68 36 -57 33 19 l-3 67 -52 20 c-47 17 -53 23 -53 47 0 40 22 55 70 48 l40 -5 0 82 c0 89 8 106 50 106 44 0 50 -16 50 -129 l0 -105 32 -27 c29 -24 32 -29 23 -55 -7 -18 -19 -30 -33 -32 -18 -3 -22 -10 -22 -37 0 -19 5 -37 10 -40 6 -3 10 3 10 14 0 11 9 25 21 31 34 19 62 8 84 -32 24 -45 37 -50 25 -9 -12 41 -28 69 -72 128 -44 58 -46 96 -7 108 43 14 105 -69 150 -199 34 -95 40 -63 8 40 -29 96 -50 133 -110 199 -51 55 -52 58 -38 84 24 43 50 38 103 -19 55 -59 108 -164 135 -270 23 -88 25 -65 10 85 -14 142 -20 155 -62 155 -40 0 -57 15 -57 50 0 14 5 31 12 38 17 17 129 15 155 -3 25 -18 38 -85 53 -279 19 -249 21 -246 -135 -246 l-105 0 0 -39 c0 -34 -4 -40 -30 -51 -26 -11 -33 -10 -50 5 -11 10 -20 26 -20 36 0 9 -10 43 -22 74 -18 47 -23 54 -29 38 -4 -11 -14 -23 -23 -26 -12 -5 -16 -20 -16 -62 0 -49 -3 -57 -25 -67 -19 -8 -31 -8 -50 0 -23 11 -25 17 -25 74 0 65 -16 71 -22 8 -2 -28 -8 -36 -26 -38 -13 -2 -29 2 -37 8 -11 9 -14 6 -17 -12 l-3 -23 -222 0 c-169 0 -225 3 -235 13 -9 9 -15 71 -19 225 -5 181 -9 220 -27 270 -24 65 -22 78 14 98 36 19 55 3 76 -60 20 -58 38 -231 38 -368 l0 -93 60 0 c47 0 60 3 60 15 0 10 -10 15 -34 15 -52 0 -66 27 -66 127 0 45 4 93 10 107 8 23 15 26 60 26 l50 0 0 79 c0 79 0 80 -27 83 -23 2 -29 9 -31 33 -3 19 2 33 14 42 24 18 85 16 112 -3z m-131 -69 c45 -79 39 -135 -13 -135 -26 0 -31 6 -61 80 -28 66 -28 76 -5 89 30 19 56 7 79 -34z m296 23 c8 -12 4 -34 -17 -87 -25 -64 -30 -71 -56 -71 -57 0 -60 41 -8 143 16 32 24 38 45 35 14 -2 31 -10 36 -20z m-1258 -48 c19 0 20 -5 17 -125 -3 -124 -3 -125 -27 -125 -48 0 -74 -80 -37 -113 10 -9 33 -22 50 -28 18 -6 32 -14 32 -17 -1 -4 -15 -16 -33 -27 l-32 -21 -34 41 c-19 22 -45 64 -59 94 -21 45 -24 64 -20 125 5 75 21 116 71 179 21 27 33 35 40 28 6 -6 20 -11 32 -11z m621 -80 c13 -41 32 -82 43 -91 20 -17 20 -17 -12 -41 -27 -20 -37 -22 -64 -14 l-32 10 -3 108 -3 109 24 -3 c21 -3 28 -14 47 -78z m1131 45 c9 -24 -1 -27 -15 -5 -8 13 -8 20 -2 20 6 0 13 -7 17 -15z m-989 -155 c-2 -6 -8 -6 -18 0 -13 9 -13 11 0 20 15 10 25 0 18 -20z m533 -5 l34 -14 -37 -1 c-27 0 -38 4 -38 15 0 18 0 18 41 0z m-1211 -108 c57 -28 65 -36 65 -61 0 -50 -24 -53 -109 -16 -67 30 -76 37 -76 60 0 29 16 50 40 50 8 0 44 -15 80 -33z m680 -41 c0 -19 -4 -23 -20 -19 -20 5 -20 7 -4 24 22 24 24 24 24 -5z m-128 -63 c-22 -18 -25 -17 -44 16 -22 39 -14 44 27 18 30 -20 32 -23 17 -34z m120 0 c28 -25 22 -47 -22 -87 -43 -39 -70 -45 -94 -20 -26 26 -19 57 21 91 43 36 68 41 95 16z m-626 -34 c22 -24 13 -43 -36 -76 -54 -37 -100 -26 -100 23 0 16 13 30 43 48 51 31 68 32 93 5z"/>
 <path d="M2505 540 c-3 -5 0 -12 7 -15 25 -10 283 0 283 10 0 14 -281 19 -290 5z"/>
 <path d="M2503 468 c5 -18 289 -18 295 0 3 9 -31 12 -148 12 -117 0 -151 -3 -147 -12z"/>
 <path d="M2505 400 c4 -6 63 -10 145 -10 82 0 141 4 145 10 4 6 -47 10 -145 10 -98 0 -149 -4 -145 -10z"/>
 <path d="M2650 313 c19 -8 47 -23 61 -34 25 -17 28 -18 40 -2 8 9 28 24 44 35 l30 18 -105 -1 c-103 -1 -104 -1 -70 -16z m87 -10 c-4 -3 -10 -3 -14 0 -3 4 0 7 7 7 7 0 10 -3 7 -7z"/>
 <path d="M3367 393 c-18 -17 -1 -23 68 -23 60 0 75 3 75 15 0 12 -14 15 -68 15 -38 0 -72 -3 -75 -7z"/>
 <path d="M3370 300 c0 -6 28 -10 64 -10 36 0 68 5 71 10 4 6 -20 10 -64 10 -41 0 -71 -4 -71 -10z"/>
 </g>
<g id="layer3" fill="#d3c9bf" stroke="none">
 <path d="M2438 713 c7 -3 16 -2 19 1 4 3 -2 6 -13 5 -11 0 -14 -3 -6 -6z"/>
 <path d="M2848 713 c7 -3 16 -2 19 1 4 3 -2 6 -13 5 -11 0 -14 -3 -6 -6z"/>
 <path d="M2989 703 c-12 -16 -12 -17 1 -6 8 6 26 13 40 16 l25 4 -26 2 c-15 0 -33 -7 -40 -16z"/>
 <path d="M3378 713 c12 -2 32 -2 45 0 12 2 2 4 -23 4 -25 0 -35 -2 -22 -4z"/>
 <path d="M943 703 c59 -2 155 -2 215 0 59 1 10 3 -108 3 -118 0 -167 -2 -107 -3z"/>
 <path d="M3155 703 c11 -3 27 -10 35 -17 13 -10 13 -9 1 7 -7 9 -23 16 -35 16 -20 -1 -20 -2 -1 -6z"/>
 <path d="M3334 698 c-4 -7 -3 -8 4 -4 12 7 16 16 8 16 -3 0 -8 -5 -12 -12z"/>
 <path d="M1285 690 c3 -5 8 -10 11 -10 3 0 2 5 -1 10 -3 6 -8 10 -11 10 -3 0 -2 -4 1 -10z"/>
 <path d="M2743 693 c4 -3 10 -3 14 0 3 4 0 7 -7 7 -7 0 -10 -3 -7 -7z"/>
 <path d="M3822 593 c-1 -61 1 -114 6 -116 4 -3 6 32 4 76 -4 141 -9 156 -10 40z"/>
 <path d="M4211 683 c7 -12 15 -20 18 -17 3 2 -3 12 -13 22 -17 16 -18 16 -5 -5z"/>
 <path d="M1874 678 c-4 -7 -3 -8 4 -4 12 7 16 16 8 16 -3 0 -8 -5 -12 -12z"/>
 <path d="M2704 678 c-4 -7 -3 -8 4 -4 12 7 16 16 8 16 -3 0 -8 -5 -12 -12z"/>
 <path d="M3919 673 c-12 -16 -12 -17 1 -7 8 7 24 14 35 17 19 4 19 5 -1 6 -12 0 -28 -7 -35 -16z"/>
 <path d="M2179 663 c-13 -16 -12 -17 4 -4 9 7 17 15 17 17 0 8 -8 3 -21 -13z"/>
 <path d="M4400 676 c0 -2 8 -10 18 -17 15 -13 16 -12 3 4 -13 16 -21 21 -21 13z"/>
 <path d="M794 535 c0 -66 1 -92 3 -57 2 34 2 88 0 120 -2 31 -3 3 -3 -63z"/>
 <path d="M1304 535 c0 -66 1 -92 3 -57 2 34 2 88 0 120 -2 31 -3 3 -3 -63z"/>
 <path d="M3324 638 c-4 -7 -3 -8 4 -4 7 4 12 9 12 12 0 8 -9 4 -16 -8z"/>
 <path d="M4040 643 c0 -6 8 -17 18 -24 16 -13 16 -13 2 6 -8 11 -16 22 -17 24 -2 2 -3 0 -3 -6z"/>
 <path d="M2363 633 c4 -3 10 -3 14 0 3 4 0 7 -7 7 -7 0 -10 -3 -7 -7z"/>
 <path d="M2933 633 c4 -3 10 -3 14 0 3 4 0 7 -7 7 -7 0 -10 -3 -7 -7z"/>
 <path d="M324 618 c-4 -7 -3 -8 4 -4 7 4 12 9 12 12 0 8 -9 4 -16 -8z"/>
 <path d="M2020 620 c0 -7 3 -10 7 -7 3 4 3 10 0 14 -4 3 -7 0 -7 -7z"/>
 <path d="M2445 620 c3 -5 16 -10 28 -9 21 0 21 1 2 9 -28 12 -37 12 -30 0z"/>
 <path d="M2695 620 c-3 -5 -1 -10 4 -10 6 0 11 5 11 10 0 6 -2 10 -4 10 -3 0 -8 -4 -11 -10z"/>
 <path d="M2825 620 c-18 -8 -17 -9 8 -9 15 -1 27 4 27 9 0 12 -8 12 -35 0z"/>
 <path d="M1370 610 c0 -7 3 -10 7 -7 3 4 3 10 0 14 -4 3 -7 0 -7 -7z"/>
 <path d="M391 584 c0 -11 3 -14 6 -6 3 7 2 16 -1 19 -3 4 -6 -2 -5 -13z"/>
 <path d="M893 535 c0 -38 2 -53 4 -32 2 20 2 52 0 70 -2 17 -4 1 -4 -38z"/>
 <path d="M1582 580 c0 -14 2 -19 5 -12 2 6 2 18 0 25 -3 6 -5 1 -5 -13z"/>
 <path d="M1946 587 c3 -10 9 -15 12 -12 3 3 0 11 -7 18 -10 9 -11 8 -5 -6z"/>
 <path d="M3220 590 c0 -7 3 -10 7 -7 3 4 3 10 0 14 -4 3 -7 0 -7 -7z"/>
 <path d="M4241 564 c0 -11 3 -14 6 -6 3 7 2 16 -1 19 -3 4 -6 -2 -5 -13z"/>
 <path d="M518 558 c6 -6 18 -8 28 -6 14 3 12 5 -9 10 -19 3 -25 2 -19 -4z"/>
 <path d="M120 556 c0 -2 8 -10 18 -17 15 -13 16 -12 3 4 -13 16 -21 21 -21 13z"/>
 <path d="M663 553 c9 -2 23 -2 30 0 6 3 -1 5 -18 5 -16 0 -22 -2 -12 -5z"/>
 <path d="M3501 534 c0 -11 3 -14 6 -6 3 7 2 16 -1 19 -3 4 -6 -2 -5 -13z"/>
 <path d="M712 520 c0 -14 2 -19 5 -12 2 6 2 18 0 25 -3 6 -5 1 -5 -13z"/>
 <path d="M1831 524 c0 -11 3 -14 6 -6 3 7 2 16 -1 19 -3 4 -6 -2 -5 -13z"/>
 <path d="M3230 530 c0 -7 3 -10 7 -7 3 4 3 10 0 14 -4 3 -7 0 -7 -7z"/>
 <path d="M3908 533 c7 -3 16 -2 19 1 4 3 -2 6 -13 5 -11 0 -14 -3 -6 -6z"/>
 <path d="M3985 530 c3 -5 8 -10 11 -10 3 0 2 5 -1 10 -3 6 -8 10 -11 10 -3 0 -2 -4 1 -10z"/>
 <path d="M2210 520 c0 -7 3 -10 7 -7 3 4 3 10 0 14 -4 3 -7 0 -7 -7z"/>
 <path d="M3140 520 c0 -7 3 -10 7 -7 3 4 3 10 0 14 -4 3 -7 0 -7 -7z"/>
 <path d="M3270 526 c0 -2 8 -10 18 -17 15 -13 16 -12 3 4 -13 16 -21 21 -21 13z"/>
 <path d="M4380 520 c0 -7 3 -10 7 -7 3 4 3 10 0 14 -4 3 -7 0 -7 -7z"/>
 <path d="M4150 510 c0 -7 3 -10 7 -7 3 4 3 10 0 14 -4 3 -7 0 -7 -7z"/>
 <path d="M1921 494 c0 -11 3 -14 6 -6 3 7 2 16 -1 19 -3 4 -6 -2 -5 -13z"/>
 <path d="M318 493 c7 -3 16 -2 19 1 4 3 -2 6 -13 5 -11 0 -14 -3 -6 -6z"/>
 <path d="M1418 483 c7 -3 16 -2 19 1 4 3 -2 6 -13 5 -11 0 -14 -3 -6 -6z"/>
 <path d="M3480 480 c0 -5 5 -10 11 -10 5 0 7 5 4 10 -3 6 -8 10 -11 10 -2 0 -4 -4 -4 -10z"/>
 <path d="M113 473 c15 -2 37 -2 50 0 12 2 0 4 -28 4 -27 0 -38 -2 -22 -4z"/>
 <path d="M313 473 c15 -2 39 -2 55 0 15 2 2 4 -28 4 -30 0 -43 -2 -27 -4z"/>
 <path d="M510 469 c0 -5 5 -7 10 -4 6 3 10 8 10 11 0 2 -4 4 -10 4 -5 0 -10 -5 -10 -11z"/>
 <path d="M4252 460 c0 -14 2 -19 5 -12 2 6 2 18 0 25 -3 6 -5 1 -5 -13z"/>
 <path d="M1465 460 c-3 -5 -1 -10 4 -10 6 0 11 5 11 10 0 6 -2 10 -4 10 -3 0 -8 -4 -11 -10z"/>
 <path d="M3284 458 c-4 -7 -3 -8 4 -4 7 4 12 9 12 12 0 8 -9 4 -16 -8z"/>
 <path d="M72 435 c0 -16 2 -22 5 -12 2 9 2 23 0 30 -3 6 -5 -1 -5 -18z"/>
 <path d="M1403 453 c9 -2 25 -2 35 0 9 3 1 5 -18 5 -19 0 -27 -2 -17 -5z"/>
 <path d="M1567 449 c7 -7 15 -10 18 -7 3 3 -2 9 -12 12 -14 6 -15 5 -6 -5z"/>
 <path d="M2091 444 c0 -11 3 -14 6 -6 3 7 2 16 -1 19 -3 4 -6 -2 -5 -13z"/>
 <path d="M4501 444 c0 -11 3 -14 6 -6 3 7 2 16 -1 19 -3 4 -6 -2 -5 -13z"/>
 <path d="M3882 420 c0 -14 2 -19 5 -12 2 6 2 18 0 25 -3 6 -5 1 -5 -13z"/>
 <path d="M518 418 c6 -6 18 -8 28 -6 14 3 12 5 -9 10 -19 3 -25 2 -19 -4z"/>
 <path d="M3154 285 c0 -82 2 -115 3 -72 2 43 2 110 0 150 -1 40 -3 5 -3 -78z"/>
 <path d="M3274 340 c0 -52 1 -74 3 -47 2 26 2 68 0 95 -2 26 -3 4 -3 -48z"/>
 <path d="M4162 410 c0 -14 2 -19 5 -12 2 6 2 18 0 25 -3 6 -5 1 -5 -13z"/>
 <path d="M663 413 c9 -2 23 -2 30 0 6 3 -1 5 -18 5 -16 0 -22 -2 -12 -5z"/>
 <path d="M2573 413 c42 -2 112 -2 155 0 42 1 7 3 -78 3 -85 0 -120 -2 -77 -3z"/>
 <path d="M3244 300 c0 -63 1 -89 3 -57 2 31 2 83 0 115 -2 31 -3 5 -3 -58z"/>
 <path d="M113 393 c15 -2 39 -2 55 0 15 2 2 4 -28 4 -30 0 -43 -2 -27 -4z"/>
 <path d="M313 393 c15 -2 37 -2 50 0 12 2 0 4 -28 4 -27 0 -38 -2 -22 -4z"/>
 <path d="M712 380 c0 -14 2 -19 5 -12 2 6 2 18 0 25 -3 6 -5 1 -5 -13z"/>
 <path d="M3935 390 c3 -5 8 -10 11 -10 3 0 2 5 -1 10 -3 6 -8 10 -11 10 -3 0 -2 -4 1 -10z"/>
 <path d="M4140 380 c0 -7 3 -10 7 -7 3 4 3 10 0 14 -4 3 -7 0 -7 -7z"/>
 <path d="M1383 373 c4 -3 10 -3 14 0 3 4 0 7 -7 7 -7 0 -10 -3 -7 -7z"/>
 <path d="M985 315 c0 -29 3 -51 8 -48 4 2 7 24 7 48 0 24 -3 46 -7 48 -5 3 -8 -19 -8 -48z"/>
 <path d="M1640 360 c0 -7 3 -10 7 -7 3 4 3 10 0 14 -4 3 -7 0 -7 -7z"/>
 <path d="M2091 354 c0 -11 3 -14 6 -6 3 7 2 16 -1 19 -3 4 -6 -2 -5 -13z"/>
 <path d="M3820 336 c0 -19 3 -37 8 -40 4 -2 6 13 4 35 -5 48 -12 51 -12 5z"/>
 <path d="M4501 354 c0 -11 3 -14 6 -6 3 7 2 16 -1 19 -3 4 -6 -2 -5 -13z"/>
 <path d="M2955 350 c3 -5 8 -10 11 -10 3 0 2 5 -1 10 -3 6 -8 10 -11 10 -3 0 -2 -4 1 -10z"/>
 <path d="M2994 348 c-4 -7 -3 -8 4 -4 7 4 12 9 12 12 0 8 -9 4 -16 -8z"/>
 <path d="M71 334 c0 -11 3 -14 6 -6 3 7 2 16 -1 19 -3 4 -6 -2 -5 -13z"/>
 <path d="M213 343 c4 -3 10 -3 14 0 3 4 0 7 -7 7 -7 0 -10 -3 -7 -7z"/>
 <path d="M254 341 c3 -5 15 -7 26 -4 28 7 25 13 -6 13 -14 0 -23 -4 -20 -9z"/>
 <path d="M348 343 c7 -3 16 -2 19 1 4 3 -2 6 -13 5 -11 0 -14 -3 -6 -6z"/>
 <path d="M2190 340 c0 -7 3 -10 7 -7 3 4 3 10 0 14 -4 3 -7 0 -7 -7z"/>
 <path d="M4400 340 c0 -7 3 -10 7 -7 3 4 3 10 0 14 -4 3 -7 0 -7 -7z"/>
 <path d="M510 329 c0 -5 5 -7 10 -4 6 3 10 8 10 11 0 2 -4 4 -10 4 -5 0 -10 -5 -10 -11z"/>
 <path d="M2433 333 c4 -3 10 -3 14 0 3 4 0 7 -7 7 -7 0 -10 -3 -7 -7z"/>
 <path d="M3690 330 c0 -7 3 -10 7 -7 3 4 3 10 0 14 -4 3 -7 0 -7 -7z"/>
 <path d="M4261 324 c0 -11 3 -14 6 -6 3 7 2 16 -1 19 -3 4 -6 -2 -5 -13z"/>
 <path d="M1598 323 c6 -2 18 -2 25 0 6 3 1 5 -13 5 -14 0 -19 -2 -12 -5z"/>
 <path d="M1773 323 c9 -2 25 -2 35 0 9 3 1 5 -18 5 -19 0 -27 -2 -17 -5z"/>
 <path d="M1914 316 c-3 -7 -3 -40 -1 -72 l3 -59 2 67 2 67 43 4 42 4 -43 1 c-28 1 -44 -3 -48 -12z"/>
 <path d="M3852 310 c0 -14 2 -19 5 -12 2 6 2 18 0 25 -3 6 -5 1 -5 -13z"/>
 <path d="M3365 310 c-3 -5 -3 -14 0 -20 7 -12 131 -14 138 -2 3 4 -26 6 -64 4 -43 -2 -69 0 -69 7 0 6 31 12 73 14 l72 3 -72 2 c-39 1 -75 -2 -78 -8z"/>
 <path d="M1444 298 c-4 -7 -3 -8 4 -4 7 4 12 9 12 12 0 8 -9 4 -16 -8z"/>
 <path d="M1575 300 c3 -5 8 -10 11 -10 3 0 2 5 -1 10 -3 6 -8 10 -11 10 -3 0 -2 -4 1 -10z"/>
 <path d="M4165 297 c-4 -10 -5 -21 -1 -24 10 -10 18 4 13 24 -4 17 -4 17 -12 0z"/>
 <path d="M3620 290 c0 -7 3 -10 7 -7 3 4 3 10 0 14 -4 3 -7 0 -7 -7z"/>
 <path d="M3980 290 c0 -7 3 -10 7 -7 3 4 3 10 0 14 -4 3 -7 0 -7 -7z"/>
 <path d="M4060 290 c0 -7 3 -10 7 -7 3 4 3 10 0 14 -4 3 -7 0 -7 -7z"/>
 <path d="M4080 280 c0 -7 3 -10 7 -7 3 4 3 10 0 14 -4 3 -7 0 -7 -7z"/>
 <path d="M115 270 c3 -5 8 -10 11 -10 3 0 2 5 -1 10 -3 6 -8 10 -11 10 -3 0 -2 -4 1 -10z"/>
 <path d="M330 260 c0 -7 3 -10 7 -7 3 4 3 10 0 14 -4 3 -7 0 -7 -7z"/>
 <path d="M350 250 c0 -7 3 -10 7 -7 3 4 3 10 0 14 -4 3 -7 0 -7 -7z"/>
 <path d="M1615 250 c3 -5 8 -10 11 -10 3 0 2 5 -1 10 -3 6 -8 10 -11 10 -3 0 -2 -4 1 -10z"/>
 <path d="M2563 253 c4 -3 10 -3 14 0 3 4 0 7 -7 7 -7 0 -10 -3 -7 -7z"/>
 <path d="M3590 240 c0 -7 3 -10 7 -7 3 4 3 10 0 14 -4 3 -7 0 -7 -7z"/>
 <path d="M2568 233 c7 -3 16 -2 19 1 4 3 -2 6 -13 5 -11 0 -14 -3 -6 -6z"/>
 <path d="M1535 210 c3 -5 8 -10 11 -10 3 0 2 5 -1 10 -3 6 -8 10 -11 10 -3 0 -2 -4 1 -10z"/>
 <path d="M3563 213 c4 -3 10 -3 14 0 3 4 0 7 -7 7 -7 0 -10 -3 -7 -7z"/>
 <path d="M3628 190 c-3 -17 -1 -33 4 -36 4 -3 8 11 8 30 0 44 -6 47 -12 6z"/>
 <path d="M3824 196 c-3 -7 -4 -35 -2 -62 l3 -49 5 63 c5 63 4 73 -6 48z"/>
 <path d="M520 191 c0 -5 9 -7 20 -4 11 3 20 7 20 9 0 2 -9 4 -20 4 -11 0 -20 -4 -20 -9z"/>
 <path d="M668 193 c6 -2 18 -2 25 0 6 3 1 5 -13 5 -14 0 -19 -2 -12 -5z"/>
 <path d="M3132 170 c0 -14 2 -19 5 -12 2 6 2 18 0 25 -3 6 -5 1 -5 -13z"/>
 <path d="M3315 180 l-60 -7 57 -1 c31 -1 60 3 63 8 3 6 5 9 3 8 -2 -1 -30 -4 -63 -8z"/>
 <path d="M1408 173 c7 -3 16 -2 19 1 4 3 -2 6 -13 5 -11 0 -14 -3 -6 -6z"/>
 <path d="M3507 173 c18 -2 50 -2 70 0 21 2 7 4 -32 4 -38 0 -55 -2 -38 -4z"/>
 <path d="M4010 173 c0 -5 35 -7 77 -5 137 5 151 9 36 10 -62 1 -113 -1 -113 -5z"/>
 <path d="M869 163 l120 -4 4 -32 c5 -31 5 -31 3 3 l-1 35 -123 0 -122 1 119 -3z"/>
 <path d="M1163 163 c37 -2 96 -2 130 0 34 2 4 3 -68 3 -71 0 -99 -1 -62 -3z"/>
 <path d="M2994 158 c-4 -7 -3 -8 4 -4 7 4 12 9 12 12 0 8 -9 4 -16 -8z"/>
 <path d="M2165 150 c3 -5 8 -10 11 -10 3 0 2 5 -1 10 -3 6 -8 10 -11 10 -3 0 -2 -4 1 -10z"/>
 <path d="M2501 144 c0 -11 3 -14 6 -6 3 7 2 16 -1 19 -3 4 -6 -2 -5 -13z"/>
 <path d="M4424 148 c-4 -7 -3 -8 4 -4 12 7 16 16 8 16 -3 0 -8 -5 -12 -12z"/>
 <path d="M314 138 c-4 -7 -3 -8 4 -4 7 4 12 9 12 12 0 8 -9 4 -16 -8z"/>
 <path d="M670 140 c0 -7 3 -10 7 -7 3 4 3 10 0 14 -4 3 -7 0 -7 -7z"/>
 <path d="M1562 120 c0 -14 2 -19 5 -12 2 6 2 18 0 25 -3 6 -5 1 -5 -13z"/>
 <path d="M1713 133 c4 -3 10 -3 14 0 3 4 0 7 -7 7 -7 0 -10 -3 -7 -7z"/>
 <path d="M2575 130 c3 -5 8 -10 11 -10 3 0 2 5 -1 10 -3 6 -8 10 -11 10 -3 0 -2 -4 1 -10z"/>
 <path d="M2697 113 c-3 -5 32 -7 76 -5 147 5 164 8 45 10 -64 1 -119 -1 -121 -5z"/>
 <path d="M3079 103 c-13 -16 -12 -17 4 -4 16 13 21 21 13 21 -2 0 -10 -8 -17 -17z"/>
 <path d="M3165 110 c3 -5 8 -10 11 -10 3 0 2 5 -1 10 -3 6 -8 10 -11 10 -3 0 -2 -4 1 -10z"/>
 <path d="M3920 110 c0 -7 3 -10 7 -7 3 4 3 10 0 14 -4 3 -7 0 -7 -7z"/>
 <path d="M1833 103 c4 -3 10 -3 14 0 3 4 0 7 -7 7 -7 0 -10 -3 -7 -7z"/>
 <path d="M3303 93 c59 -2 155 -2 215 0 59 1 10 3 -108 3 -118 0 -167 -2 -107 -3z"/>
 <path d="M188 73 c6 -2 18 -2 25 0 6 3 1 5 -13 5 -14 0 -19 -2 -12 -5z"/>
 <path d="M1013 73 c4 -3 10 -3 14 0 3 4 0 7 -7 7 -7 0 -10 -3 -7 -7z"/>
 <path d="M1508 73 c7 -3 16 -2 19 1 4 3 -2 6 -13 5 -11 0 -14 -3 -6 -6z"/>
 <path d="M3958 73 c7 -3 16 -2 19 1 4 3 -2 6 -13 5 -11 0 -14 -3 -6 -6z"/>
 </g>

</svg>