<!DOCTYPE svg PUBLIC "-//W3C//DTD SVG 20010904//EN" "http://www.w3.org/TR/2001/REC-SVG-20010904/DTD/svg10.dtd">
<svg version="1.0" xmlns="http://www.w3.org/2000/svg" width="270px" height="40px" viewBox="0 0 2700 400" preserveAspectRatio="xMidYMid meet">
<g id="layer1" fill="#ffffff" stroke="none">
 <path d="M846 383 c-4 -4 -19 -7 -34 -8 l-27 0 -2 -90 c-1 -75 1 -93 17 -110 18 -20 18 -20 -5 -38 -15 -10 -26 -13 -30 -7 -3 5 -35 10 -71 10 -50 0 -64 3 -64 15 0 11 12 15 44 15 61 0 67 12 64 117 l-3 88 -145 0 -145 0 -3 -90 c-3 -103 4 -115 70 -115 27 0 38 -4 38 -15 0 -12 -14 -15 -64 -15 -37 0 -68 -5 -72 -11 -5 -8 -10 -6 -16 5 -5 9 -16 16 -25 16 -11 0 -10 5 7 18 19 16 21 22 11 40 -9 17 -9 27 0 44 10 18 8 24 -9 39 l-21 17 20 5 c16 4 20 12 17 34 l-3 28 -88 3 c-82 3 -89 1 -94 -18 -7 -28 -53 -28 -53 0 0 16 -7 20 -34 20 -19 0 -37 -4 -41 -10 -3 -5 -12 -7 -20 -3 -41 15 -60 -50 -24 -83 l20 -18 -20 -8 c-17 -6 -20 -16 -20 -55 1 -28 8 -55 17 -66 12 -13 13 -20 4 -29 -31 -31 6 -88 56 -88 30 0 84 31 89 51 8 29 20 23 33 -16 11 -34 12 -34 68 -33 62 1 82 11 82 38 0 24 25 33 40 14 9 -9 33 -14 75 -14 54 0 63 -3 68 -20 7 -28 67 -28 74 0 5 17 14 20 69 20 34 0 66 5 69 10 10 16 46 1 68 -26 23 -30 67 -32 74 -5 7 27 30 34 56 17 29 -19 139 -41 161 -33 30 12 31 39 3 61 -32 26 -37 66 -8 66 44 0 54 57 13 75 -29 13 -29 43 1 47 17 2 23 11 25 35 5 48 -13 73 -51 73 -18 0 -38 -5 -44 -11 -8 -8 -17 -8 -31 0 -27 14 -112 14 -112 0 0 -6 -7 -3 -16 5 -16 17 -46 21 -58 9z m-186 -108 c0 -24 -2 -25 -70 -25 -68 0 -70 1 -70 25 0 24 2 25 70 25 68 0 70 -1 70 -25z m367 -32 c-3 -10 -5 -2 -5 17 0 19 2 27 5 18 2 -10 2 -26 0 -35z"/>
 <path d="M1257 363 c-38 -41 -57 -94 -57 -166 0 -53 5 -71 33 -117 29 -50 35 -55 67 -55 29 0 36 4 38 23 2 13 -7 35 -22 52 -46 56 -47 145 -1 205 28 38 32 70 9 79 -28 11 -40 7 -67 -21z"/>
 <path d="M2513 383 c-21 -8 -15 -42 12 -78 46 -60 45 -149 -1 -205 -15 -17 -24 -39 -22 -52 2 -19 9 -23 38 -23 32 0 38 5 67 55 28 46 33 63 33 120 0 76 -24 136 -65 168 -28 22 -39 25 -62 15z"/>
 <path d="M1360 354 c0 -16 7 -28 18 -30 25 -7 19 -125 -9 -150 -27 -24 -24 -41 10 -62 29 -17 29 -18 10 -30 -13 -8 -19 -21 -17 -35 2 -17 11 -23 39 -25 23 -2 40 2 49 12 16 20 37 20 47 1 7 -12 25 -13 96 -8 108 7 127 18 110 64 -16 41 0 55 33 31 19 -15 20 -19 8 -33 -17 -19 -18 -41 -2 -57 16 -16 43 -15 58 3 11 13 15 13 33 0 16 -11 51 -15 134 -15 100 0 114 2 125 19 8 13 17 16 27 11 86 -43 113 -40 122 10 l5 35 10 -35 c9 -31 14 -35 45 -35 28 0 35 4 37 22 3 21 9 23 62 23 81 0 85 8 71 156 -13 146 -18 154 -82 154 -34 0 -51 -5 -55 -15 -5 -11 -10 -12 -24 -3 -37 24 -75 -18 -46 -51 16 -17 16 -19 -3 -24 -18 -4 -20 1 -23 42 -3 45 -3 46 -40 49 l-38 3 0 -45 c0 -36 -3 -44 -15 -40 -37 15 -63 -55 -28 -74 14 -9 14 -11 -5 -21 -19 -10 -22 -9 -22 7 0 10 -5 23 -11 29 -8 8 -6 20 6 43 32 62 0 116 -44 75 -17 -15 -19 -14 -24 5 -4 16 -13 20 -44 20 -21 0 -53 -4 -70 -9 -18 -5 -35 -6 -38 -1 -3 5 -36 8 -73 7 l-67 -2 1 -35 c1 -29 17 -76 42 -122 2 -4 -8 -14 -22 -23 -20 -13 -28 -14 -44 -4 -29 18 -36 126 -9 133 10 2 17 14 17 30 0 25 -2 26 -66 26 -70 0 -104 -12 -104 -35 0 -22 -9 -18 -32 10 -17 22 -27 25 -89 25 -68 0 -69 -1 -69 -26z m750 -226 c0 -25 -4 -38 -9 -33 -8 9 -4 75 5 75 2 0 4 -19 4 -42z m-280 2 c0 -13 -5 -18 -15 -14 -12 5 -13 10 -4 20 15 19 19 18 19 -6z"/>
 </g>

</svg>